ISO-10303-21;
HEADER;
FILE_DESCRIPTION (( 'STEP AP203' ),
    '1' );
FILE_NAME ('M2×2.5.step',
    '2017-08-14T02:32:31',
    ( 'Windows 用户' ),
    ( '' ),
    'SwSTEP 2.0',
    'SolidWorks 2016',
    '' );
FILE_SCHEMA (( 'CONFIG_CONTROL_DESIGN' ));
ENDSEC;

DATA;
#1 = AXIS2_PLACEMENT_3D ( 'NONE', #68, #59, #36 ) ;
#2 = DIRECTION ( 'NONE',  ( 1.000000000000000000, 5.026523901968670600E-015, 0.0000000000000000000 ) ) ;
#3 = CC_DESIGN_APPROVAL ( #4, ( #9 ) ) ;
#4 = APPROVAL ( #318, '未指定' ) ;
#5 = CC_DESIGN_DATE_AND_TIME_ASSIGNMENT ( #216, #320, ( #9 ) ) ;
#6 = CARTESIAN_POINT ( 'NONE',  ( 2.500000000000000000, 0.0000000000000000000, 0.0000000000000000000 ) ) ;
#7 = CC_DESIGN_PERSON_AND_ORGANIZATION_ASSIGNMENT ( #220, #321, ( #9 ) ) ;
#8 = CARTESIAN_POINT ( 'NONE',  ( 0.0000000000000000000, 0.8659999999999999900, 0.0000000000000000000 ) ) ;
#9 = SECURITY_CLASSIFICATION ( '', '', #325 ) ;
#10 = PLANE ( 'NONE',  #48 ) ;
#11 = CARTESIAN_POINT ( 'NONE',  ( 0.08930559870081188100, -0.1250000000000000000, 0.9471090194265275900 ) ) ;
#12 = CC_DESIGN_PERSON_AND_ORGANIZATION_ASSIGNMENT ( #221, #326, ( #20 ) ) ;
#13 = CC_DESIGN_PERSON_AND_ORGANIZATION_ASSIGNMENT ( #222, #328, ( #20 ) ) ;
#14 = CC_DESIGN_APPROVAL ( #15, ( #20 ) ) ;
#15 = APPROVAL ( #330, '未指定' ) ;
#16 = AXIS2_PLACEMENT_3D ( 'NONE', #41, #42, #49 ) ;
#17 = CARTESIAN_POINT ( 'NONE',  ( 0.04463459841523116000, -0.1250000000000000000, 0.9020381159423065400 ) ) ;
#18 = AXIS2_PLACEMENT_3D ( 'NONE', #67, #55, #34 ) ;
#19 = DIRECTION ( 'NONE',  ( -1.000000000000000000, -0.0000000000000000000, -0.0000000000000000000 ) ) ;
#20 = PRODUCT_DEFINITION_FORMATION_WITH_SPECIFIED_SOURCE ( '任何', '', #355, .NOT_KNOWN. ) ;
#21 = CC_DESIGN_DATE_AND_TIME_ASSIGNMENT ( #145, #333, ( #26 ) ) ;
#22 = PRODUCT_DEFINITION_SHAPE ( 'NONE', 'NONE',  #26 ) ;
#23 = CC_DESIGN_PERSON_AND_ORGANIZATION_ASSIGNMENT ( #249, #335, ( #26 ) ) ;
#24 = CC_DESIGN_APPROVAL ( #25, ( #26 ) ) ;
#25 = APPROVAL ( #337, '未指定' ) ;
#26 = PRODUCT_DEFINITION ( '未知', '', #20, #373 ) ;
#27 = DIRECTION ( 'NONE',  ( 0.0000000000000000000, 0.0000000000000000000, -1.000000000000000000 ) ) ;
#28 = DIRECTION ( 'NONE',  ( 0.0000000000000000000, 0.0000000000000000000, 1.000000000000000000 ) ) ;
#29 = CIRCLE ( 'NONE', #83, 0.3749999999999729700 ) ;
#30 = CC_DESIGN_PERSON_AND_ORGANIZATION_ASSIGNMENT ( #397, #344, ( #355 ) ) ;
#31 = PERSON ( '未指定', '未指定', '未指定', ('未指定'), ('未指定'), ('未指定') ) ;
#32 = DIRECTION ( 'NONE',  ( -4.999702984598026300E-015, 1.000000000000000000, 0.0000000000000000000 ) ) ;
#33 = AXIS2_PLACEMENT_3D ( 'NONE', #363, #364, #346 ) ;
#34 = DIRECTION ( 'NONE',  ( 1.000000000000000000, 8.470329472543005900E-017, 0.0000000000000000000 ) ) ;
#35 = DIRECTION ( 'NONE',  ( 1.000000000000000000, -0.0000000000000000000, 0.0000000000000000000 ) ) ;
#36 = DIRECTION ( 'NONE',  ( 0.0000000000000000000, 0.0000000000000000000, -1.000000000000000000 ) ) ;
#37 = AXIS2_PLACEMENT_3D ( 'NONE', #452, #455, #461 ) ;
#38 =( GEOMETRIC_REPRESENTATION_CONTEXT ( 3 ) GLOBAL_UNCERTAINTY_ASSIGNED_CONTEXT ( ( #148 ) ) GLOBAL_UNIT_ASSIGNED_CONTEXT ( ( #361, #359, #357 ) ) REPRESENTATION_CONTEXT ( 'NONE', 'WORKASPACE' ) );
#39 = AXIS2_PLACEMENT_3D ( 'NONE', #465, #459, #457 ) ;
#40 = AXIS2_PLACEMENT_3D ( 'NONE', #469, #470, #50 ) ;
#41 = CARTESIAN_POINT ( 'NONE',  ( 0.1340000000000004500, 0.0000000000000000000, 0.0000000000000000000 ) ) ;
#42 = DIRECTION ( 'NONE',  ( 1.000000000000000000, 0.0000000000000000000, 0.0000000000000000000 ) ) ;
#43 = AXIS2_PLACEMENT_3D ( 'NONE', #464, #466, #47 ) ;
#44 = AXIS2_PLACEMENT_3D ( 'NONE', #8, #472, #471 ) ;
#45 = AXIS2_PLACEMENT_3D ( 'NONE', #6, #19, #28 ) ;
#46 = DIRECTION ( 'NONE',  ( -1.000000000000000000, -0.0000000000000000000, -0.0000000000000000000 ) ) ;
#47 = DIRECTION ( 'NONE',  ( -4.999702984598026300E-015, 1.000000000000000000, 0.0000000000000000000 ) ) ;
#48 = AXIS2_PLACEMENT_3D ( 'NONE', #54, #35, #27 ) ;
#49 = DIRECTION ( 'NONE',  ( 0.0000000000000000000, 0.0000000000000000000, -1.000000000000000000 ) ) ;
#50 = DIRECTION ( 'NONE',  ( 0.0000000000000000000, 0.0000000000000000000, 1.000000000000000000 ) ) ;
#51 = AXIS2_PLACEMENT_3D ( 'NONE', #477, #2, #32 ) ;
#52 = PLANE ( 'NONE',  #1 ) ;
#53 = AXIS2_PLACEMENT_3D ( 'NONE', #80, #63, #90 ) ;
#54 = CARTESIAN_POINT ( 'NONE',  ( 0.6400000000000000100, -0.1249999999999999400, -50.00000000000000000 ) ) ;
#55 = DIRECTION ( 'NONE',  ( 8.470329472543005900E-017, -1.000000000000000000, 0.0000000000000000000 ) ) ;
#56 = AXIS2_PLACEMENT_3D ( 'NONE', #82, #46, #79 ) ;
#57 = AXIS2_PLACEMENT_3D ( 'NONE', #62, #58, #65 ) ;
#58 = DIRECTION ( 'NONE',  ( -1.000000000000000000, -0.0000000000000000000, -0.0000000000000000000 ) ) ;
#59 = DIRECTION ( 'NONE',  ( 1.000000000000000000, 0.0000000000000000000, 0.0000000000000000000 ) ) ;
#60 = AXIS2_PLACEMENT_3D ( 'NONE', #78, #74, #69 ) ;
#61 = PLANE ( 'NONE',  #18 ) ;
#62 = CARTESIAN_POINT ( 'NONE',  ( 0.0000000000000000000, 0.0000000000000000000, 0.0000000000000000000 ) ) ;
#63 = DIRECTION ( 'NONE',  ( 1.000000000000000000, 0.0000000000000000000, 0.0000000000000000000 ) ) ;
#64 = AXIS2_PLACEMENT_3D ( 'NONE', #86, #89, #91 ) ;
#65 = DIRECTION ( 'NONE',  ( 0.0000000000000000000, 0.0000000000000000000, 1.000000000000000000 ) ) ;
#66 = AXIS2_PLACEMENT_3D ( 'NONE', #99, #104, #106 ) ;
#67 = CARTESIAN_POINT ( 'NONE',  ( 1.530808498934191800E-017, -0.1250000000000000000, -50.00000000000000000 ) ) ;
#68 = CARTESIAN_POINT ( 'NONE',  ( 0.0000000000000000000, 0.8659999999999999900, 0.0000000000000000000 ) ) ;
#69 = DIRECTION ( 'NONE',  ( 4.625929269271819000E-015, -1.000000000000000000, 0.0000000000000000000 ) ) ;
#70 = AXIS2_PLACEMENT_3D ( 'NONE', #118, #76, #112 ) ;
#71 = AXIS2_PLACEMENT_3D ( 'NONE', #132, #131, #115 ) ;
#72 = AXIS2_PLACEMENT_3D ( 'NONE', #139, #136, #135 ) ;
#73 = AXIS2_PLACEMENT_3D ( 'NONE', #437, #389, #440 ) ;
#74 = DIRECTION ( 'NONE',  ( -1.000000000000000000, -5.026523901968670600E-015, -0.0000000000000000000 ) ) ;
#75 = AXIS2_PLACEMENT_3D ( 'NONE', #305, #474, #203 ) ;
#76 = DIRECTION ( 'NONE',  ( -1.000000000000000000, -0.0000000000000000000, -0.0000000000000000000 ) ) ;
#77 = AXIS2_PLACEMENT_3D ( 'NONE', #450, #458, #439 ) ;
#78 = CARTESIAN_POINT ( 'NONE',  ( 2.499999999999997800, -2.686725684287885500E-014, 0.0000000000000000000 ) ) ;
#79 = DIRECTION ( 'NONE',  ( 0.0000000000000000000, 0.0000000000000000000, 1.000000000000000000 ) ) ;
#80 = CARTESIAN_POINT ( 'NONE',  ( 0.1340000000000004500, 0.0000000000000000000, 0.0000000000000000000 ) ) ;
#81 = AXIS2_PLACEMENT_3D ( 'NONE', #171, #150, #176 ) ;
#82 = CARTESIAN_POINT ( 'NONE',  ( 2.500000000000000000, 0.0000000000000000000, 0.0000000000000000000 ) ) ;
#83 = AXIS2_PLACEMENT_3D ( 'NONE', #385, #127, #173 ) ;
#84 = AXIS2_PLACEMENT_3D ( 'NONE', #413, #375, #341 ) ;
#85 = DIRECTION ( 'NONE',  ( -0.0000000000000000000, -0.0000000000000000000, 1.000000000000000000 ) ) ;
#86 = CARTESIAN_POINT ( 'NONE',  ( 1.874999999999993300, 0.0000000000000000000, 0.0000000000000000000 ) ) ;
#87 = AXIS2_PLACEMENT_3D ( 'NONE', #386, #144, #360 ) ;
#88 = EDGE_CURVE ( 'NONE', #286, #273, #306, .T. ) ;
#89 = DIRECTION ( 'NONE',  ( -1.000000000000000000, -0.0000000000000000000, -0.0000000000000000000 ) ) ;
#90 = DIRECTION ( 'NONE',  ( 0.0000000000000000000, 0.0000000000000000000, -1.000000000000000000 ) ) ;
#91 = DIRECTION ( 'NONE',  ( 0.0000000000000000000, 0.0000000000000000000, 1.000000000000000000 ) ) ;
#92 = EDGE_CURVE ( 'NONE', #278, #311, #406, .T. ) ;
#93 = EDGE_CURVE ( 'NONE', #254, #301, #281, .T. ) ;
#94 = EDGE_CURVE ( 'NONE', #301, #358, #237, .T. ) ;
#95 = DIRECTION ( 'NONE',  ( -0.0000000000000000000, -0.0000000000000000000, 1.000000000000000000 ) ) ;
#96 = EDGE_CURVE ( 'NONE', #268, #253, #343, .T. ) ;
#97 = CARTESIAN_POINT ( 'NONE',  ( 0.6400000000000000100, -0.1249999999999999400, -50.00000000000000000 ) ) ;
#98 = CARTESIAN_POINT ( 'NONE',  ( 0.6400000000000000100, 0.1250000000000000000, -50.00000000000000000 ) ) ;
#99 = CARTESIAN_POINT ( 'NONE',  ( 0.6399999999999999000, 0.0000000000000000000, 0.0000000000000000000 ) ) ;
#100 = CARTESIAN_POINT ( 'NONE',  ( 5.249298441299288200, -0.1249999999999995100, 0.9921567416492208500 ) ) ;
#101 = EDGE_CURVE ( 'Bline3', #411, #280, #29, .T. ) ;
#102 = DIRECTION ( 'NONE',  ( -1.000000000000000000, -0.0000000000000000000, -0.0000000000000000000 ) ) ;
#103 = EDGE_CURVE ( 'NONE', #245, #273, #149, .T. ) ;
#104 = DIRECTION ( 'NONE',  ( 1.000000000000000000, -0.0000000000000000000, 0.0000000000000000000 ) ) ;
#105 = CIRCLE ( 'NONE', #75, 0.3749999999999729700 ) ;
#106 = DIRECTION ( 'NONE',  ( 0.0000000000000000000, 0.0000000000000000000, -1.000000000000000000 ) ) ;
#107 = EDGE_CURVE ( 'NONE', #411, #286, #246, .T. ) ;
#108 = CARTESIAN_POINT ( 'NONE',  ( 2.283493649053887100, 2.148027422187850500E-016, 0.0000000000000000000 ) ) ;
#109 = DIRECTION ( 'NONE',  ( 1.000000000000000000, 0.0000000000000000000, 0.0000000000000000000 ) ) ;
#110 = EDGE_CURVE ( 'NONE', #278, #245, #475, .T. ) ;
#111 = EDGE_CURVE ( 'NONE', #290, #417, #445, .T. ) ;
#112 = DIRECTION ( 'NONE',  ( 0.0000000000000000000, 0.0000000000000000000, 1.000000000000000000 ) ) ;
#113 = EDGE_CURVE ( 'NONE', #283, #151, #288, .T. ) ;
#114 = CARTESIAN_POINT ( 'NONE',  ( 0.1340000000000004500, -0.1250000000000000000, -0.9921567416492210700 ) ) ;
#115 = DIRECTION ( 'NONE',  ( 0.0000000000000000000, 0.0000000000000000000, 1.000000000000000000 ) ) ;
#116 = CARTESIAN_POINT ( 'NONE',  ( 1.530808498934191800E-017, -0.1250000000000000000, -0.8569311524270779600 ) ) ;
#117 = ORIENTED_EDGE ( 'NONE', *, *, #111, .F. ) ;
#118 = CARTESIAN_POINT ( 'NONE',  ( 1.874999999999993300, 0.0000000000000000000, 0.0000000000000000000 ) ) ;
#119 = FACE_OUTER_BOUND ( 'NONE', #124, .T. ) ;
#120 = EDGE_CURVE ( 'NONE', #290, #417, #300, .T. ) ;
#121 = EDGE_CURVE ( 'NONE', #151, #278, #174, .T. ) ;
#122 = CARTESIAN_POINT ( 'NONE',  ( 0.08930566315903414000, -0.1250000000000000000, -0.9471090843943074100 ) ) ;
#123 = CARTESIAN_POINT ( 'NONE',  ( 5.249298441299288200, -0.1249999999999995100, -0.9921567416492208500 ) ) ;
#124 = EDGE_LOOP ( 'NONE', ( #313, #117 ) ) ;
#125 = EDGE_CURVE ( 'NONE', #311, #283, #168, .T. ) ;
#126 = EDGE_CURVE ( 'Bline3', #253, #411, #105, .T. ) ;
#127 = DIRECTION ( 'NONE',  ( -1.000000000000000000, -5.026523901968670600E-015, -0.0000000000000000000 ) ) ;
#128 = CARTESIAN_POINT ( 'NONE',  ( 0.04463467284575184400, -0.1250000000000000000, -0.9020381911605195300 ) ) ;
#129 = EDGE_CURVE ( 'NONE', #352, #417, #172, .T. ) ;
#130 = EDGE_CURVE ( 'NONE', #299, #301, #304, .T. ) ;
#131 = DIRECTION ( 'NONE',  ( -1.000000000000000000, -0.0000000000000000000, -0.0000000000000000000 ) ) ;
#132 = CARTESIAN_POINT ( 'NONE',  ( 0.1340000000000004500, 0.0000000000000000000, 0.0000000000000000000 ) ) ;
#133 = DIRECTION ( 'NONE',  ( -1.000000000000000000, -0.0000000000000000000, -0.0000000000000000000 ) ) ;
#134 = EDGE_CURVE ( 'Bline3', #272, #253, #423, .T. ) ;
#135 = DIRECTION ( 'NONE',  ( 4.625929269271819000E-015, -1.000000000000000000, 0.0000000000000000000 ) ) ;
#136 = DIRECTION ( 'NONE',  ( -1.000000000000000000, -5.026523901968670600E-015, -0.0000000000000000000 ) ) ;
#137 = DIRECTION ( 'NONE',  ( -1.000000000000000000, -0.0000000000000000000, -0.0000000000000000000 ) ) ;
#138 = DIRECTION ( 'NONE',  ( -0.0000000000000000000, -0.0000000000000000000, 1.000000000000000000 ) ) ;
#139 = CARTESIAN_POINT ( 'NONE',  ( 2.499999999999997800, -2.686725684287885500E-014, 0.0000000000000000000 ) ) ;
#140 = ORIENTED_EDGE ( 'NONE', *, *, #130, .F. ) ;
#141 = ORIENTED_EDGE ( 'NONE', *, *, #113, .F. ) ;
#142 = LINE ( 'NONE', #433, #258 ) ;
#143 = LINE ( 'NONE', #97, #247 ) ;
#144 = DIRECTION ( 'NONE',  ( -1.000000000000000000, -0.0000000000000000000, -0.0000000000000000000 ) ) ;
#145 = DATE_AND_TIME ( #229, #303 ) ;
#146 = EDGE_LOOP ( 'NONE', ( #234, #276, #398, #159, #387, #430 ) ) ;
#147 = ORIENTED_EDGE ( 'NONE', *, *, #107, .F. ) ;
#148 = UNCERTAINTY_MEASURE_WITH_UNIT (LENGTH_MEASURE( 1.000000000000000100E-005 ), #361, 'distance_accuracy_value', 'NONE');
#149 = CIRCLE ( 'NONE', #81, 0.9999999999999995600 ) ;
#150 = DIRECTION ( 'NONE',  ( 1.000000000000000000, -0.0000000000000000000, 0.0000000000000000000 ) ) ;
#151 = VERTEX_POINT ( 'NONE', #319 ) ;
#152 = EDGE_CURVE ( 'NONE', #358, #311, #415, .T. ) ;
#153 = CARTESIAN_POINT ( 'NONE',  ( 2.283493649053887100, -5.612586512389377600E-014, 3.449870928202944700E-030 ) ) ;
#154 = CIRCLE ( 'NONE', #60, 0.3749999999999729700 ) ;
#155 = CONICAL_SURFACE ( 'NONE', #43, 1732.050807568613900, 1.047197551196531900 ) ;
#156 = CARTESIAN_POINT ( 'NONE',  ( 5.249298441299288200, 1.224646799147352700E-016, -0.9999999999999995600 ) ) ;
#157 = ORIENTED_EDGE ( 'NONE', *, *, #160, .F. ) ;
#158 = CARTESIAN_POINT ( 'NONE',  ( 1.530808498934191800E-017, -0.1250000000000000000, -50.00000000000000000 ) ) ;
#159 = ORIENTED_EDGE ( 'NONE', *, *, #111, .T. ) ;
#160 = EDGE_CURVE ( 'NONE', #380, #352, #390, .T. ) ;
#161 = EDGE_CURVE ( 'NONE', #286, #254, #443, .T. ) ;
#162 = FACE_OUTER_BOUND ( 'NONE', #317, .T. ) ;
#163 = ADVANCED_BREP_SHAPE_REPRESENTATION ( 'M2×2.5', ( #188, #33 ), #38 ) ;
#164 = EDGE_CURVE ( 'NONE', #290, #380, #166, .T. ) ;
#165 = CARTESIAN_POINT ( 'NONE',  ( 3.009265538105056000E-033, 0.1250000000000000000, -50.00000000000000000 ) ) ;
#166 = B_SPLINE_CURVE_WITH_KNOTS ( 'NONE', 3,
 ( #116, #128, #122, #114 ),
 .UNSPECIFIED., .F., .F.,
 ( 4, 4 ),
 ( 0.004182928713702574300, 0.004373678505609011000 ),
 .UNSPECIFIED. ) ;
#167 = PLANE ( 'NONE',  #44 ) ;
#168 = B_SPLINE_CURVE_WITH_KNOTS ( 'NONE', 3,
 ( #231, #446, #252, #403 ),
 .UNSPECIFIED., .F., .F.,
 ( 4, 4 ),
 ( 0.001704175517208229200, 0.001894548726959761700 ),
 .UNSPECIFIED. ) ;
#169 = DIRECTION ( 'NONE',  ( 1.000000000000000000, 0.0000000000000000000, 0.0000000000000000000 ) ) ;
#170 = CARTESIAN_POINT ( 'NONE',  ( 0.04463467284575210100, 0.1250000000000000000, 0.9020381911605197500 ) ) ;
#171 = CARTESIAN_POINT ( 'NONE',  ( 0.6399999999999999000, 0.0000000000000000000, 0.0000000000000000000 ) ) ;
#172 = B_SPLINE_CURVE_WITH_KNOTS ( 'NONE', 3,
 ( #322, #11, #17, #340 ),
 .UNSPECIFIED., .F., .F.,
 ( 4, 4 ),
 ( 0.001704175517208229200, 0.001894548726959761700 ),
 .UNSPECIFIED. ) ;
#173 = DIRECTION ( 'NONE',  ( 4.625929269271819000E-015, -1.000000000000000000, 0.0000000000000000000 ) ) ;
#174 = B_SPLINE_CURVE_WITH_KNOTS ( 'NONE', 3,
 ( #416, #170, #205, #444 ),
 .UNSPECIFIED., .F., .F.,
 ( 4, 4 ),
 ( 0.004182928713702574300, 0.004373678505609011000 ),
 .UNSPECIFIED. ) ;
#175 = ORIENTED_EDGE ( 'NONE', *, *, #186, .T. ) ;
#176 = DIRECTION ( 'NONE',  ( 0.0000000000000000000, 0.0000000000000000000, -1.000000000000000000 ) ) ;
#177 = EDGE_CURVE ( 'NONE', #380, #299, #285, .T. ) ;
#178 = CARTESIAN_POINT ( 'NONE',  ( 5.249298441299288200, 0.1249999999999999400, 0.9921567416492208500 ) ) ;
#179 = EDGE_CURVE ( 'NONE', #268, #280, #277, .T. ) ;
#180 = ORIENTED_EDGE ( 'NONE', *, *, #134, .F. ) ;
#181 = EDGE_CURVE ( 'NONE', #273, #243, #312, .T. ) ;
#182 = EDGE_CURVE ( 'NONE', #243, #352, #244, .T. ) ;
#183 = EDGE_CURVE ( 'NONE', #358, #245, #269, .T. ) ;
#184 = EDGE_CURVE ( 'NONE', #254, #286, #262, .T. ) ;
#185 = VECTOR ( 'NONE', #255, 1000.000000000000100 ) ;
#186 = EDGE_CURVE ( 'NONE', #299, #243, #143, .T. ) ;
#187 = EDGE_CURVE ( 'Bline3', #280, #272, #154, .T. ) ;
#188 = MANIFOLD_SOLID_BREP ( '切除-旋转2', #238 ) ;
#189 = EDGE_CURVE ( 'Bline2', #151, #283, #421, .T. ) ;
#190 = ADVANCED_FACE ( 'NONE', ( #453 ), #296, .T. ) ;
#191 = ADVANCED_FACE ( 'NONE', ( #233 ), #404, .T. ) ;
#192 = ADVANCED_FACE ( 'NONE', ( #242 ), #61, .F. ) ;
#193 = ADVANCED_FACE ( 'Bface1', ( #119 ), #52, .F. ) ;
#194 = ADVANCED_FACE ( 'NONE', ( #267 ), #399, .T. ) ;
#195 = ADVANCED_FACE ( 'NONE', ( #331 ), #10, .F. ) ;
#196 = ADVANCED_FACE ( 'NONE', ( #476 ), #463, .F. ) ;
#197 = DIRECTION ( 'NONE',  ( -0.7071067811865515700, 0.0000000000000000000, 0.7071067811865435800 ) ) ;
#198 = ADVANCED_FACE ( 'NONE', ( #260 ), #294, .T. ) ;
#199 = ADVANCED_FACE ( 'NONE', ( #275 ), #167, .F. ) ;
#200 = ADVANCED_FACE ( 'Bface2', ( #368 ), #422, .T. ) ;
#201 = ADVANCED_FACE ( 'NONE', ( #323 ), #155, .F. ) ;
#202 = ADVANCED_FACE ( 'NONE', ( #350 ), #462, .F. ) ;
#203 = DIRECTION ( 'NONE',  ( 4.625929269271819000E-015, -1.000000000000000000, 0.0000000000000000000 ) ) ;
#204 = ADVANCED_FACE ( 'Bface2', ( #162 ), #265, .T. ) ;
#205 = CARTESIAN_POINT ( 'NONE',  ( 0.08930566315903441800, 0.1250000000000000000, 0.9471090843943078500 ) ) ;
#206 = EDGE_CURVE ( 'NONE', #272, #254, #142, .T. ) ;
#207 = DIRECTION ( 'NONE',  ( 0.5000000000000614000, -0.8660254037844031800, 1.060575238724866700E-016 ) ) ;
#208 = APPROVAL_DATE_TIME ( #209, #4 ) ;
#209 = DATE_AND_TIME ( #210, #211 ) ;
#210 = CALENDAR_DATE ( 2017, 14, 8 ) ;
#211 = LOCAL_TIME ( 10, 32, 31.00000000000000000, #213 ) ;
#212 = COORDINATED_UNIVERSAL_TIME_OFFSET ( 8, 0, .AHEAD. ) ;
#213 = COORDINATED_UNIVERSAL_TIME_OFFSET ( 8, 0, .AHEAD. ) ;
#214 = APPROVAL_PERSON_ORGANIZATION ( #215, #4, #316 ) ;
#215 = PERSON_AND_ORGANIZATION ( #31, #356 ) ;
#216 = DATE_AND_TIME ( #217, #218 ) ;
#217 = CALENDAR_DATE ( 2017, 14, 8 ) ;
#218 = LOCAL_TIME ( 10, 32, 31.00000000000000000, #219 ) ;
#219 = COORDINATED_UNIVERSAL_TIME_OFFSET ( 8, 0, .AHEAD. ) ;
#220 = PERSON_AND_ORGANIZATION ( #31, #356 ) ;
#221 = PERSON_AND_ORGANIZATION ( #31, #356 ) ;
#222 = PERSON_AND_ORGANIZATION ( #31, #356 ) ;
#223 = APPROVAL_DATE_TIME ( #224, #15 ) ;
#224 = DATE_AND_TIME ( #225, #226 ) ;
#225 = CALENDAR_DATE ( 2017, 14, 8 ) ;
#226 = LOCAL_TIME ( 10, 32, 31.00000000000000000, #227 ) ;
#227 = COORDINATED_UNIVERSAL_TIME_OFFSET ( 8, 0, .AHEAD. ) ;
#228 = APPROVAL_PERSON_ORGANIZATION ( #327, #15, #329 ) ;
#229 = CALENDAR_DATE ( 2017, 14, 8 ) ;
#230 = ORIENTED_EDGE ( 'NONE', *, *, #184, .F. ) ;
#231 = CARTESIAN_POINT ( 'NONE',  ( 0.1340000000000040900, 0.1250000000000000000, -0.9921567416492265100 ) ) ;
#232 = ORIENTED_EDGE ( 'NONE', *, *, #181, .T. ) ;
#233 = FACE_OUTER_BOUND ( 'NONE', #420, .T. ) ;
#234 = ORIENTED_EDGE ( 'NONE', *, *, #186, .F. ) ;
#235 = DIRECTION ( 'NONE',  ( -0.0000000000000000000, -0.0000000000000000000, 1.000000000000000000 ) ) ;
#236 = VECTOR ( 'NONE', #95, 1000.000000000000000 ) ;
#237 = CIRCLE ( 'NONE', #84, 0.9999999999999995600 ) ;
#238 = CLOSED_SHELL ( 'NONE', ( #201, #200, #198, #199, #191, #193, #190, #204, #194, #195, #202, #192, #196 ) ) ;
#239 = VECTOR ( 'NONE', #235, 1000.000000000000000 ) ;
#240 = ORIENTED_EDGE ( 'NONE', *, *, #189, .T. ) ;
#241 = ORIENTED_EDGE ( 'NONE', *, *, #164, .T. ) ;
#242 = FACE_OUTER_BOUND ( 'NONE', #146, .T. ) ;
#243 = VERTEX_POINT ( 'NONE', #436 ) ;
#244 = LINE ( 'NONE', #100, #442 ) ;
#245 = VERTEX_POINT ( 'NONE', #435 ) ;
#246 = LINE ( 'NONE', #334, #418 ) ;
#247 = VECTOR ( 'NONE', #85, 1000.000000000000000 ) ;
#248 = EDGE_LOOP ( 'NONE', ( #302, #289, #180, #407 ) ) ;
#249 = PERSON_AND_ORGANIZATION ( #31, #356 ) ;
#250 = ORIENTED_EDGE ( 'NONE', *, *, #152, .T. ) ;
#251 = ORIENTED_EDGE ( 'NONE', *, *, #161, .F. ) ;
#252 = CARTESIAN_POINT ( 'NONE',  ( 0.04463459841523116000, 0.1250000000000000000, -0.9020381159423065400 ) ) ;
#253 = VERTEX_POINT ( 'NONE', #460 ) ;
#254 = VERTEX_POINT ( 'NONE', #451 ) ;
#255 = DIRECTION ( 'NONE',  ( 0.5000000000000527400, 0.8660254037844081800, 0.0000000000000000000 ) ) ;
#256 = LOCAL_TIME ( 10, 32, 31.00000000000000000, #212 ) ;
#257 = ORIENTED_EDGE ( 'NONE', *, *, #88, .F. ) ;
#258 = VECTOR ( 'NONE', #429, 999.9999999999998900 ) ;
#259 = ORIENTED_EDGE ( 'NONE', *, *, #120, .F. ) ;
#260 = FACE_OUTER_BOUND ( 'NONE', #432, .T. ) ;
#261 = ORIENTED_EDGE ( 'NONE', *, *, #181, .F. ) ;
#262 = CIRCLE ( 'NONE', #64, 0.9999999999999995600 ) ;
#263 = SHAPE_DEFINITION_REPRESENTATION ( #22, #163 ) ;
#264 = ORIENTED_EDGE ( 'NONE', *, *, #134, .T. ) ;
#265 = CYLINDRICAL_SURFACE ( 'NONE', #37, 0.9999999999999995600 ) ;
#266 = ORIENTED_EDGE ( 'NONE', *, *, #182, .T. ) ;
#267 = FACE_OUTER_BOUND ( 'NONE', #351, .T. ) ;
#268 = VERTEX_POINT ( 'NONE', #412 ) ;
#269 = LINE ( 'NONE', #98, #236 ) ;
#270 = ORIENTED_EDGE ( 'NONE', *, *, #101, .F. ) ;
#271 = VECTOR ( 'NONE', #169, 1000.000000000000000 ) ;
#272 = VERTEX_POINT ( 'NONE', #427 ) ;
#273 = VERTEX_POINT ( 'NONE', #410 ) ;
#274 = ORIENTED_EDGE ( 'NONE', *, *, #206, .T. ) ;
#275 = FACE_OUTER_BOUND ( 'NONE', #447, .T. ) ;
#276 = ORIENTED_EDGE ( 'NONE', *, *, #177, .F. ) ;
#277 = LINE ( 'NONE', #108, #185 ) ;
#278 = VERTEX_POINT ( 'NONE', #409 ) ;
#279 = VECTOR ( 'NONE', #133, 1000.000000000000000 ) ;
#280 = VERTEX_POINT ( 'NONE', #396 ) ;
#281 = LINE ( 'NONE', #156, #279 ) ;
#282 = DATE_AND_TIME ( #293, #256 ) ;
#283 = VERTEX_POINT ( 'NONE', #393 ) ;
#284 = ORIENTED_EDGE ( 'NONE', *, *, #94, .F. ) ;
#285 = LINE ( 'NONE', #123, #298 ) ;
#286 = VERTEX_POINT ( 'NONE', #408 ) ;
#287 = APPROVAL_PERSON_ORGANIZATION ( #307, #25, #336 ) ;
#288 = LINE ( 'NONE', #165, #391 ) ;
#289 = ORIENTED_EDGE ( 'NONE', *, *, #96, .T. ) ;
#290 = VERTEX_POINT ( 'NONE', #401 ) ;
#291 = APPROVAL_DATE_TIME ( #282, #25 ) ;
#292 = ORIENTED_EDGE ( 'NONE', *, *, #93, .T. ) ;
#293 = CALENDAR_DATE ( 2017, 14, 8 ) ;
#294 = CONICAL_SURFACE ( 'NONE', #45, 0.3750000000000000000, 0.7853981633974426200 ) ;
#295 = ORIENTED_EDGE ( 'NONE', *, *, #177, .T. ) ;
#296 = CONICAL_SURFACE ( 'NONE', #56, 0.3750000000000000000, 0.7853981633974426200 ) ;
#297 = ORIENTED_EDGE ( 'NONE', *, *, #152, .F. ) ;
#298 = VECTOR ( 'NONE', #109, 1000.000000000000000 ) ;
#299 = VERTEX_POINT ( 'NONE', #383 ) ;
#300 = CIRCLE ( 'NONE', #77, 0.8659999999999999900 ) ;
#301 = VERTEX_POINT ( 'NONE', #379 ) ;
#302 = ORIENTED_EDGE ( 'NONE', *, *, #179, .F. ) ;
#303 = LOCAL_TIME ( 10, 32, 31.00000000000000000, #438 ) ;
#304 = CIRCLE ( 'NONE', #73, 0.9999999999999995600 ) ;
#305 = CARTESIAN_POINT ( 'NONE',  ( 2.499999999999997800, -2.686725684287885500E-014, 0.0000000000000000000 ) ) ;
#306 = LINE ( 'NONE', #456, #402 ) ;
#307 = PERSON_AND_ORGANIZATION ( #31, #356 ) ;
#308 = ORIENTED_EDGE ( 'NONE', *, *, #183, .T. ) ;
#309 = ORIENTED_EDGE ( 'NONE', *, *, #93, .F. ) ;
#310 = EDGE_LOOP ( 'NONE', ( #419, #264, #441, #449, #230 ) ) ;
#311 = VERTEX_POINT ( 'NONE', #377 ) ;
#312 = CIRCLE ( 'NONE', #66, 0.9999999999999995600 ) ;
#313 = ORIENTED_EDGE ( 'NONE', *, *, #120, .T. ) ;
#314 = ORIENTED_EDGE ( 'NONE', *, *, #103, .T. ) ;
#315 = ORIENTED_EDGE ( 'NONE', *, *, #187, .T. ) ;
#316 = APPROVAL_ROLE ( '' ) ;
#317 = EDGE_LOOP ( 'NONE', ( #309, #414, #332, #232, #266, #157, #295, #384 ) ) ;
#318 = APPROVAL_STATUS ( 'not_yet_approved' ) ;
#319 = CARTESIAN_POINT ( 'NONE',  ( 3.009265538105056000E-033, 0.1250000000000000000, 0.8569311524270779600 ) ) ;
#320 = DATE_TIME_ROLE ( 'classification_date' ) ;
#321 = PERSON_AND_ORGANIZATION_ROLE ( 'classification_officer' ) ;
#322 = CARTESIAN_POINT ( 'NONE',  ( 0.1340000000000040900, -0.1250000000000000000, 0.9921567416492265100 ) ) ;
#323 = FACE_OUTER_BOUND ( 'NONE', #248, .T. ) ;
#324 = VECTOR ( 'NONE', #137, 1000.000000000000000 ) ;
#325 = SECURITY_CLASSIFICATION_LEVEL ( 'unclassified' ) ;
#326 = PERSON_AND_ORGANIZATION_ROLE ( 'design_supplier' ) ;
#327 = PERSON_AND_ORGANIZATION ( #31, #356 ) ;
#328 = PERSON_AND_ORGANIZATION_ROLE ( 'creator' ) ;
#329 = APPROVAL_ROLE ( '' ) ;
#330 = APPROVAL_STATUS ( 'not_yet_approved' ) ;
#331 = FACE_OUTER_BOUND ( 'NONE', #448, .T. ) ;
#332 = ORIENTED_EDGE ( 'NONE', *, *, #88, .T. ) ;
#333 = DATE_TIME_ROLE ( 'creation_date' ) ;
#334 = CARTESIAN_POINT ( 'NONE',  ( 2.500000000000000000, 0.0000000000000000000, 0.3750000000000000000 ) ) ;
#335 = PERSON_AND_ORGANIZATION_ROLE ( 'creator' ) ;
#336 = APPROVAL_ROLE ( '' ) ;
#337 = APPROVAL_STATUS ( 'not_yet_approved' ) ;
#338 = CC_DESIGN_SECURITY_CLASSIFICATION ( #9, ( #20 ) ) ;
#339 = APPLICATION_PROTOCOL_DEFINITION ( 'international standard', 'config_control_design', 1994, #342 ) ;
#340 = CARTESIAN_POINT ( 'NONE',  ( 1.530808498934191800E-017, -0.1250000000000000000, 0.8569311524270780700 ) ) ;
#341 = DIRECTION ( 'NONE',  ( 0.0000000000000000000, 0.0000000000000000000, -1.000000000000000000 ) ) ;
#342 = APPLICATION_CONTEXT ( 'configuration controlled 3d designs of mechanical parts and assemblies' ) ;
#343 = LINE ( 'NONE', #153, #369 ) ;
#344 = PERSON_AND_ORGANIZATION_ROLE ( 'design_owner' ) ;
#345 = MECHANICAL_CONTEXT ( 'NONE', #347, 'mechanical' ) ;
#346 = DIRECTION ( 'NONE',  ( 1.000000000000000000, 0.0000000000000000000, 0.0000000000000000000 ) ) ;
#347 = APPLICATION_CONTEXT ( 'configuration controlled 3d designs of mechanical parts and assemblies' ) ;
#348 = EDGE_LOOP ( 'NONE', ( #308, #467, #371, #141, #405, #297 ) ) ;
#349 = PRODUCT_RELATED_PRODUCT_CATEGORY ( 'detail', '', ( #355 ) ) ;
#350 = FACE_OUTER_BOUND ( 'NONE', #348, .T. ) ;
#351 = EDGE_LOOP ( 'NONE', ( #394, #367, #259, #241 ) ) ;
#352 = VERTEX_POINT ( 'NONE', #428 ) ;
#353 = APPLICATION_PROTOCOL_DEFINITION ( 'international standard', 'config_control_design', 1994, #347 ) ;
#354 = ORIENTED_EDGE ( 'NONE', *, *, #92, .F. ) ;
#355 = PRODUCT ( 'M2×2.5', 'M2×2.5', '', ( #345 ) ) ;
#356 = ORGANIZATION ( '未指定', '未指定', '' ) ;
#357 =( NAMED_UNIT ( * ) SI_UNIT ( $, .STERADIAN. ) SOLID_ANGLE_UNIT ( ) );
#358 = VERTEX_POINT ( 'NONE', #376 ) ;
#359 =( NAMED_UNIT ( * ) PLANE_ANGLE_UNIT ( ) SI_UNIT ( $, .RADIAN. ) );
#360 = DIRECTION ( 'NONE',  ( 0.0000000000000000000, 0.0000000000000000000, 1.000000000000000000 ) ) ;
#361 =( LENGTH_UNIT ( ) NAMED_UNIT ( * ) SI_UNIT ( .MILLI., .METRE. ) );
#362 = ORIENTED_EDGE ( 'NONE', *, *, #179, .T. ) ;
#363 = CARTESIAN_POINT ( 'NONE',  ( 0.0000000000000000000, 0.0000000000000000000, 0.0000000000000000000 ) ) ;
#364 = DIRECTION ( 'NONE',  ( 0.0000000000000000000, 0.0000000000000000000, 1.000000000000000000 ) ) ;
#365 = CARTESIAN_POINT ( 'NONE',  ( 2.499999999999997800, -9.768316677932060200E-028, 0.3749999999999729700 ) ) ;
#366 = CARTESIAN_POINT ( 'NONE',  ( 0.1340000000000004500, -0.1250000000000000000, -0.9921567416492210700 ) ) ;
#367 = ORIENTED_EDGE ( 'NONE', *, *, #129, .T. ) ;
#368 = FACE_OUTER_BOUND ( 'NONE', #378, .T. ) ;
#369 = VECTOR ( 'NONE', #207, 999.9999999999998900 ) ;
#370 = ORIENTED_EDGE ( 'NONE', *, *, #126, .F. ) ;
#371 = ORIENTED_EDGE ( 'NONE', *, *, #121, .F. ) ;
#372 = ORIENTED_EDGE ( 'NONE', *, *, #183, .F. ) ;
#373 = DESIGN_CONTEXT ( 'detailed design', #342, 'design' ) ;
#374 = CARTESIAN_POINT ( 'NONE',  ( 1.530808498934191800E-017, -0.1250000000000000000, 0.8569311524270780700 ) ) ;
#375 = DIRECTION ( 'NONE',  ( 1.000000000000000000, -0.0000000000000000000, 0.0000000000000000000 ) ) ;
#376 = CARTESIAN_POINT ( 'NONE',  ( 0.6399999999999999000, 0.1250000000000000000, -0.9921567416492210700 ) ) ;
#377 = CARTESIAN_POINT ( 'NONE',  ( 0.1340000000000040900, 0.1250000000000000000, -0.9921567416492265100 ) ) ;
#378 = EDGE_LOOP ( 'NONE', ( #454, #292, #431, #250, #354, #473, #314, #257 ) ) ;
#379 = CARTESIAN_POINT ( 'NONE',  ( 0.6399999999999999000, 1.224646799147352700E-016, -0.9999999999999995600 ) ) ;
#380 = VERTEX_POINT ( 'NONE', #366 ) ;
#381 = ORIENTED_EDGE ( 'NONE', *, *, #103, .F. ) ;
#382 = ORIENTED_EDGE ( 'NONE', *, *, #92, .T. ) ;
#383 = CARTESIAN_POINT ( 'NONE',  ( 0.6400000000000000100, -0.1249999999999999400, -0.9921567416492221800 ) ) ;
#384 = ORIENTED_EDGE ( 'NONE', *, *, #130, .T. ) ;
#385 = CARTESIAN_POINT ( 'NONE',  ( 2.499999999999997800, -2.686725684287885500E-014, 0.0000000000000000000 ) ) ;
#386 = CARTESIAN_POINT ( 'NONE',  ( 0.1340000000000004500, 0.0000000000000000000, 0.0000000000000000000 ) ) ;
#387 = ORIENTED_EDGE ( 'NONE', *, *, #129, .F. ) ;
#388 = ORIENTED_EDGE ( 'NONE', *, *, #125, .T. ) ;
#389 = DIRECTION ( 'NONE',  ( 1.000000000000000000, -0.0000000000000000000, 0.0000000000000000000 ) ) ;
#390 = CIRCLE ( 'NONE', #71, 0.9999999999999995600 ) ;
#391 = VECTOR ( 'NONE', #138, 1000.000000000000000 ) ;
#392 = EDGE_LOOP ( 'NONE', ( #468, #362, #270, #370 ) ) ;
#393 = CARTESIAN_POINT ( 'NONE',  ( 3.009265538105056000E-033, 0.1250000000000000000, -0.8569311524270779600 ) ) ;
#394 = ORIENTED_EDGE ( 'NONE', *, *, #160, .T. ) ;
#395 = CARTESIAN_POINT ( 'NONE',  ( 5.249298441299288200, 0.1249999999999999400, -0.9921567416492208500 ) ) ;
#396 = CARTESIAN_POINT ( 'NONE',  ( 2.499999999999996000, 0.3749999999999460400, 0.0000000000000000000 ) ) ;
#397 = PERSON_AND_ORGANIZATION ( #31, #356 ) ;
#398 = ORIENTED_EDGE ( 'NONE', *, *, #164, .F. ) ;
#399 = CONICAL_SURFACE ( 'NONE', #16, 0.9999999999999995600, 0.7853981633974450600 ) ;
#400 = ORIENTED_EDGE ( 'NONE', *, *, #121, .T. ) ;
#401 = CARTESIAN_POINT ( 'NONE',  ( 1.530808498934191800E-017, -0.1250000000000000000, -0.8569311524270779600 ) ) ;
#402 = VECTOR ( 'NONE', #424, 1000.000000000000000 ) ;
#403 = CARTESIAN_POINT ( 'NONE',  ( 3.009265538105056000E-033, 0.1250000000000000000, -0.8569311524270779600 ) ) ;
#404 = CONICAL_SURFACE ( 'NONE', #53, 0.9999999999999995600, 0.7853981633974450600 ) ;
#405 = ORIENTED_EDGE ( 'NONE', *, *, #125, .F. ) ;
#406 = CIRCLE ( 'NONE', #87, 0.9999999999999995600 ) ;
#407 = ORIENTED_EDGE ( 'NONE', *, *, #187, .F. ) ;
#408 = CARTESIAN_POINT ( 'NONE',  ( 1.874999999999993300, 0.0000000000000000000, 0.9999999999999995600 ) ) ;
#409 = CARTESIAN_POINT ( 'NONE',  ( 0.1340000000000004500, 0.1250000000000000000, 0.9921567416492210700 ) ) ;
#410 = CARTESIAN_POINT ( 'NONE',  ( 0.6399999999999999000, 0.0000000000000000000, 0.9999999999999995600 ) ) ;
#411 = VERTEX_POINT ( 'NONE', #365 ) ;
#412 = CARTESIAN_POINT ( 'NONE',  ( 2.283493649053887100, 2.148027422187850500E-016, 0.0000000000000000000 ) ) ;
#413 = CARTESIAN_POINT ( 'NONE',  ( 0.6399999999999999000, 0.0000000000000000000, 0.0000000000000000000 ) ) ;
#414 = ORIENTED_EDGE ( 'NONE', *, *, #184, .T. ) ;
#415 = LINE ( 'NONE', #395, #324 ) ;
#416 = CARTESIAN_POINT ( 'NONE',  ( 3.009265538105056000E-033, 0.1250000000000000000, 0.8569311524270779600 ) ) ;
#417 = VERTEX_POINT ( 'NONE', #374 ) ;
#418 = VECTOR ( 'NONE', #197, 999.9999999999998900 ) ;
#419 = ORIENTED_EDGE ( 'NONE', *, *, #206, .F. ) ;
#420 = EDGE_LOOP ( 'NONE', ( #382, #388, #425, #400 ) ) ;
#421 = CIRCLE ( 'NONE', #57, 0.8659999999999999900 ) ;
#422 = CYLINDRICAL_SURFACE ( 'NONE', #40, 0.9999999999999995600 ) ;
#423 = CIRCLE ( 'NONE', #72, 0.3749999999999729700 ) ;
#424 = DIRECTION ( 'NONE',  ( -1.000000000000000000, -0.0000000000000000000, -0.0000000000000000000 ) ) ;
#425 = ORIENTED_EDGE ( 'NONE', *, *, #189, .F. ) ;
#426 = ORIENTED_EDGE ( 'NONE', *, *, #113, .T. ) ;
#427 = CARTESIAN_POINT ( 'NONE',  ( 2.499999999999997800, 8.419446744039966300E-017, -0.3749999999999729700 ) ) ;
#428 = CARTESIAN_POINT ( 'NONE',  ( 0.1340000000000040900, -0.1250000000000000000, 0.9921567416492265100 ) ) ;
#429 = DIRECTION ( 'NONE',  ( -0.7071067811865515700, 8.659560562354884800E-017, -0.7071067811865435800 ) ) ;
#430 = ORIENTED_EDGE ( 'NONE', *, *, #182, .F. ) ;
#431 = ORIENTED_EDGE ( 'NONE', *, *, #94, .T. ) ;
#432 = EDGE_LOOP ( 'NONE', ( #434, #315, #274, #251, #147 ) ) ;
#433 = CARTESIAN_POINT ( 'NONE',  ( 2.500000000000000000, 4.592425496802574800E-017, -0.3750000000000000000 ) ) ;
#434 = ORIENTED_EDGE ( 'NONE', *, *, #101, .T. ) ;
#435 = CARTESIAN_POINT ( 'NONE',  ( 0.6399999999999999000, 0.1250000000000000000, 0.9921567416492210700 ) ) ;
#436 = CARTESIAN_POINT ( 'NONE',  ( 0.6400000000000000100, -0.1249999999999999400, 0.9921567416492221800 ) ) ;
#437 = CARTESIAN_POINT ( 'NONE',  ( 0.6399999999999999000, 0.0000000000000000000, 0.0000000000000000000 ) ) ;
#438 = COORDINATED_UNIVERSAL_TIME_OFFSET ( 8, 0, .AHEAD. ) ;
#439 = DIRECTION ( 'NONE',  ( 0.0000000000000000000, 0.0000000000000000000, 1.000000000000000000 ) ) ;
#440 = DIRECTION ( 'NONE',  ( 0.0000000000000000000, 0.0000000000000000000, -1.000000000000000000 ) ) ;
#441 = ORIENTED_EDGE ( 'NONE', *, *, #126, .T. ) ;
#442 = VECTOR ( 'NONE', #102, 1000.000000000000000 ) ;
#443 = CIRCLE ( 'NONE', #70, 0.9999999999999995600 ) ;
#444 = CARTESIAN_POINT ( 'NONE',  ( 0.1340000000000004500, 0.1250000000000000000, 0.9921567416492210700 ) ) ;
#445 = LINE ( 'NONE', #158, #239 ) ;
#446 = CARTESIAN_POINT ( 'NONE',  ( 0.08930559870081188100, 0.1250000000000000000, -0.9471090194265275900 ) ) ;
#447 = EDGE_LOOP ( 'NONE', ( #240, #426 ) ) ;
#448 = EDGE_LOOP ( 'NONE', ( #372, #284, #140, #175, #261, #381 ) ) ;
#449 = ORIENTED_EDGE ( 'NONE', *, *, #107, .T. ) ;
#450 = CARTESIAN_POINT ( 'NONE',  ( 0.0000000000000000000, 0.0000000000000000000, 0.0000000000000000000 ) ) ;
#451 = CARTESIAN_POINT ( 'NONE',  ( 1.874999999999993300, 1.224646799147352700E-016, -0.9999999999999995600 ) ) ;
#452 = CARTESIAN_POINT ( 'NONE',  ( 5.249298441299288200, 0.0000000000000000000, 0.0000000000000000000 ) ) ;
#453 = FACE_OUTER_BOUND ( 'NONE', #310, .T. ) ;
#454 = ORIENTED_EDGE ( 'NONE', *, *, #161, .T. ) ;
#455 = DIRECTION ( 'NONE',  ( -1.000000000000000000, -0.0000000000000000000, -0.0000000000000000000 ) ) ;
#456 = CARTESIAN_POINT ( 'NONE',  ( 5.249298441299288200, 0.0000000000000000000, 0.9999999999999995600 ) ) ;
#457 = DIRECTION ( 'NONE',  ( 0.0000000000000000000, -0.0000000000000000000, 1.000000000000000000 ) ) ;
#458 = DIRECTION ( 'NONE',  ( -1.000000000000000000, -0.0000000000000000000, -0.0000000000000000000 ) ) ;
#459 = DIRECTION ( 'NONE',  ( -0.0000000000000000000, 1.000000000000000000, 0.0000000000000000000 ) ) ;
#460 = CARTESIAN_POINT ( 'NONE',  ( 2.499999999999999600, -0.3749999999999997800, 4.592425496802243300E-017 ) ) ;
#461 = DIRECTION ( 'NONE',  ( 0.0000000000000000000, 0.0000000000000000000, 1.000000000000000000 ) ) ;
#462 = PLANE ( 'NONE',  #39 ) ;
#463 = CONICAL_SURFACE ( 'NONE', #51, 1732.050807568613900, 1.047197551196531900 ) ;
#464 = CARTESIAN_POINT ( 'NONE',  ( 1002.283493649053900, 4.998568370777833100E-012, 0.0000000000000000000 ) ) ;
#465 = CARTESIAN_POINT ( 'NONE',  ( 3.009265538105056000E-033, 0.1250000000000000000, -50.00000000000000000 ) ) ;
#466 = DIRECTION ( 'NONE',  ( 1.000000000000000000, 5.026523901968670600E-015, 0.0000000000000000000 ) ) ;
#467 = ORIENTED_EDGE ( 'NONE', *, *, #110, .F. ) ;
#468 = ORIENTED_EDGE ( 'NONE', *, *, #96, .F. ) ;
#469 = CARTESIAN_POINT ( 'NONE',  ( 5.249298441299288200, 0.0000000000000000000, 0.0000000000000000000 ) ) ;
#470 = DIRECTION ( 'NONE',  ( -1.000000000000000000, -0.0000000000000000000, -0.0000000000000000000 ) ) ;
#471 = DIRECTION ( 'NONE',  ( 0.0000000000000000000, 0.0000000000000000000, -1.000000000000000000 ) ) ;
#472 = DIRECTION ( 'NONE',  ( 1.000000000000000000, 0.0000000000000000000, 0.0000000000000000000 ) ) ;
#473 = ORIENTED_EDGE ( 'NONE', *, *, #110, .T. ) ;
#474 = DIRECTION ( 'NONE',  ( -1.000000000000000000, -5.026523901968670600E-015, -0.0000000000000000000 ) ) ;
#475 = LINE ( 'NONE', #178, #271 ) ;
#476 = FACE_OUTER_BOUND ( 'NONE', #392, .T. ) ;
#477 = CARTESIAN_POINT ( 'NONE',  ( 1002.283493649053900, 4.998568370777833100E-012, 0.0000000000000000000 ) ) ;
ENDSEC;
END-ISO-10303-21;
