ISO-10303-21;
HEADER;
FILE_DESCRIPTION(('Open CASCADE Model'),'2;1');
FILE_NAME('Open CASCADE Shape Model','2026-03-14T15:57:21',('Author'),(
    'Open CASCADE'),'Open CASCADE STEP processor 7.8','build123d',
  'Unknown');
FILE_SCHEMA(('AUTOMOTIVE_DESIGN { 1 0 10303 214 1 1 1 1 }'));
ENDSEC;
DATA;
#1 = APPLICATION_PROTOCOL_DEFINITION('international standard',
  'automotive_design',2000,#2);
#2 = APPLICATION_CONTEXT(
  'core data for automotive mechanical design processes');
#3 = SHAPE_DEFINITION_REPRESENTATION(#4,#10);
#4 = PRODUCT_DEFINITION_SHAPE('','',#5);
#5 = PRODUCT_DEFINITION('design','',#6,#9);
#6 = PRODUCT_DEFINITION_FORMATION('','',#7);
#7 = PRODUCT('SHELL','SHELL','',(#8));
#8 = PRODUCT_CONTEXT('',#2,'mechanical');
#9 = PRODUCT_DEFINITION_CONTEXT('part definition',#2,'design');
#10 = MANIFOLD_SURFACE_SHAPE_REPRESENTATION('',(#11,#15),#195);
#11 = AXIS2_PLACEMENT_3D('',#12,#13,#14);
#12 = CARTESIAN_POINT('',(0.,0.,0.));
#13 = DIRECTION('',(0.,0.,1.));
#14 = DIRECTION('',(1.,0.,-0.));
#15 = SHELL_BASED_SURFACE_MODEL('',(#16));
#16 = OPEN_SHELL('',(#17,#134));
#17 = ADVANCED_FACE('',(#18),#47,.T.);
#18 = FACE_BOUND('',#19,.T.);
#19 = EDGE_LOOP('',(#20,#57,#84,#114));
#20 = ORIENTED_EDGE('',*,*,#21,.T.);
#21 = EDGE_CURVE('',#22,#24,#26,.T.);
#22 = VERTEX_POINT('',#23);
#23 = CARTESIAN_POINT('',(-1.515344746908,15.9,-4.747855336678));
#24 = VERTEX_POINT('',#25);
#25 = CARTESIAN_POINT('',(-4.090109703629,15.9,-2.847701285648));
#26 = SURFACE_CURVE('',#27,(#46),.PCURVE_S1.);
#27 = B_SPLINE_CURVE_WITH_KNOTS('',3,(#28,#29,#30,#31,#32,#33,#34,#35,
    #36,#37,#38,#39,#40,#41,#42,#43,#44,#45),.UNSPECIFIED.,.F.,.F.,(4,2,
    2,2,2,2,2,2,4),(0.,0.125,0.25,0.375,0.5,0.625,0.75,0.875,1.),
  .UNSPECIFIED.);
#28 = CARTESIAN_POINT('',(-1.515344746908,15.9,-4.747855336678));
#29 = CARTESIAN_POINT('',(-1.639709538729,15.9,-4.916373309027));
#30 = CARTESIAN_POINT('',(-1.797532518331,15.9,-5.060097014816));
#31 = CARTESIAN_POINT('',(-2.156306761935,15.9,-5.276292935045));
#32 = CARTESIAN_POINT('',(-2.357116863593,15.9,-5.348680085621));
#33 = CARTESIAN_POINT('',(-2.771315640868,15.9,-5.411122112345));
#34 = CARTESIAN_POINT('',(-2.984541346952,15.9,-5.401152420223));
#35 = CARTESIAN_POINT('',(-3.391106648778,15.9,-5.300334320914));
#36 = CARTESIAN_POINT('',(-3.584286278434,15.9,-5.209525581344));
#37 = CARTESIAN_POINT('',(-3.921322223132,15.9,-4.960795997702));
#38 = CARTESIAN_POINT('',(-4.065045928922,15.9,-4.8029730181));
#39 = CARTESIAN_POINT('',(-4.281241849151,15.9,-4.444198774496));
#40 = CARTESIAN_POINT('',(-4.353628999727,15.9,-4.243388672838));
#41 = CARTESIAN_POINT('',(-4.416071026451,15.9,-3.829189895564));
#42 = CARTESIAN_POINT('',(-4.406101334329,15.9,-3.615964189479));
#43 = CARTESIAN_POINT('',(-4.30528323502,15.9,-3.209398887653));
#44 = CARTESIAN_POINT('',(-4.21447449545,15.9,-3.016219257997));
#45 = CARTESIAN_POINT('',(-4.090109703629,15.9,-2.847701285648));
#46 = PCURVE('',#47,#52);
#47 = CYLINDRICAL_SURFACE('',#48,1.6);
#48 = AXIS2_PLACEMENT_3D('',#49,#50,#51);
#49 = CARTESIAN_POINT('',(-2.802727225269,18.35,-3.797778311163));
#50 = DIRECTION('',(0.,-1.,0.));
#51 = DIRECTION('',(-0.804614048975,0.,0.593798140947));
#52 = DEFINITIONAL_REPRESENTATION('',(#53),#56);
#53 = B_SPLINE_CURVE_WITH_KNOTS('',1,(#54,#55),.UNSPECIFIED.,.F.,.F.,(2,
    2),(0.,1.),.PIECEWISE_BEZIER_KNOTS.);
#54 = CARTESIAN_POINT('',(3.14159265359,2.45));
#55 = CARTESIAN_POINT('',(0.,2.45));
#56 = ( GEOMETRIC_REPRESENTATION_CONTEXT(2) 
PARAMETRIC_REPRESENTATION_CONTEXT() REPRESENTATION_CONTEXT('2D SPACE',''
  ) );
#57 = ORIENTED_EDGE('',*,*,#58,.T.);
#58 = EDGE_CURVE('',#24,#59,#61,.T.);
#59 = VERTEX_POINT('',#60);
#60 = CARTESIAN_POINT('',(-4.090109703629,18.35,-2.847701285648));
#61 = SURFACE_CURVE('',#62,(#67,#73),.PCURVE_S1.);
#62 = B_SPLINE_CURVE_WITH_KNOTS('',3,(#63,#64,#65,#66),.UNSPECIFIED.,.F.
  ,.F.,(4,4),(0.,1.),.PIECEWISE_BEZIER_KNOTS.);
#63 = CARTESIAN_POINT('',(-4.090109703629,15.9,-2.847701285648));
#64 = CARTESIAN_POINT('',(-4.090109703629,16.716666666667,
    -2.847701285648));
#65 = CARTESIAN_POINT('',(-4.090109703629,17.533333333333,
    -2.847701285648));
#66 = CARTESIAN_POINT('',(-4.090109703629,18.35,-2.847701285648));
#67 = PCURVE('',#47,#68);
#68 = DEFINITIONAL_REPRESENTATION('',(#69),#72);
#69 = B_SPLINE_CURVE_WITH_KNOTS('',1,(#70,#71),.UNSPECIFIED.,.F.,.F.,(2,
    2),(0.,1.),.PIECEWISE_BEZIER_KNOTS.);
#70 = CARTESIAN_POINT('',(0.,2.45));
#71 = CARTESIAN_POINT('',(0.,0.));
#72 = ( GEOMETRIC_REPRESENTATION_CONTEXT(2) 
PARAMETRIC_REPRESENTATION_CONTEXT() REPRESENTATION_CONTEXT('2D SPACE',''
  ) );
#73 = PCURVE('',#74,#79);
#74 = CYLINDRICAL_SURFACE('',#75,1.6);
#75 = AXIS2_PLACEMENT_3D('',#76,#77,#78);
#76 = CARTESIAN_POINT('',(-2.802727225269,18.35,-3.797778311163));
#77 = DIRECTION('',(0.,-1.,0.));
#78 = DIRECTION('',(-0.804614048975,0.,0.593798140947));
#79 = DEFINITIONAL_REPRESENTATION('',(#80),#83);
#80 = B_SPLINE_CURVE_WITH_KNOTS('',1,(#81,#82),.UNSPECIFIED.,.F.,.F.,(2,
    2),(0.,1.),.PIECEWISE_BEZIER_KNOTS.);
#81 = CARTESIAN_POINT('',(6.28318530718,2.45));
#82 = CARTESIAN_POINT('',(6.28318530718,0.));
#83 = ( GEOMETRIC_REPRESENTATION_CONTEXT(2) 
PARAMETRIC_REPRESENTATION_CONTEXT() REPRESENTATION_CONTEXT('2D SPACE',''
  ) );
#84 = ORIENTED_EDGE('',*,*,#85,.T.);
#85 = EDGE_CURVE('',#59,#86,#88,.T.);
#86 = VERTEX_POINT('',#87);
#87 = CARTESIAN_POINT('',(-1.515344746908,18.35,-4.747855336678));
#88 = SURFACE_CURVE('',#89,(#108),.PCURVE_S1.);
#89 = B_SPLINE_CURVE_WITH_KNOTS('',3,(#90,#91,#92,#93,#94,#95,#96,#97,
    #98,#99,#100,#101,#102,#103,#104,#105,#106,#107),.UNSPECIFIED.,.F.,
  .F.,(4,2,2,2,2,2,2,2,4),(0.,0.125,0.25,0.375,0.5,0.625,0.75,0.875,1.),
  .UNSPECIFIED.);
#90 = CARTESIAN_POINT('',(-4.090109703629,18.35,-2.847701285648));
#91 = CARTESIAN_POINT('',(-4.21447449545,18.35,-3.016219257997));
#92 = CARTESIAN_POINT('',(-4.30528323502,18.35,-3.209398887653));
#93 = CARTESIAN_POINT('',(-4.406101334329,18.35,-3.615964189479));
#94 = CARTESIAN_POINT('',(-4.416071026451,18.35,-3.829189895564));
#95 = CARTESIAN_POINT('',(-4.353628999727,18.35,-4.243388672838));
#96 = CARTESIAN_POINT('',(-4.281241849151,18.35,-4.444198774496));
#97 = CARTESIAN_POINT('',(-4.065045928922,18.35,-4.8029730181));
#98 = CARTESIAN_POINT('',(-3.921322223132,18.35,-4.960795997702));
#99 = CARTESIAN_POINT('',(-3.584286278434,18.35,-5.209525581344));
#100 = CARTESIAN_POINT('',(-3.391106648778,18.35,-5.300334320914));
#101 = CARTESIAN_POINT('',(-2.984541346952,18.35,-5.401152420223));
#102 = CARTESIAN_POINT('',(-2.771315640868,18.35,-5.411122112345));
#103 = CARTESIAN_POINT('',(-2.357116863593,18.35,-5.348680085621));
#104 = CARTESIAN_POINT('',(-2.156306761935,18.35,-5.276292935045));
#105 = CARTESIAN_POINT('',(-1.797532518331,18.35,-5.060097014816));
#106 = CARTESIAN_POINT('',(-1.639709538729,18.35,-4.916373309027));
#107 = CARTESIAN_POINT('',(-1.515344746908,18.35,-4.747855336678));
#108 = PCURVE('',#47,#109);
#109 = DEFINITIONAL_REPRESENTATION('',(#110),#113);
#110 = B_SPLINE_CURVE_WITH_KNOTS('',1,(#111,#112),.UNSPECIFIED.,.F.,.F.,
  (2,2),(0.,1.),.PIECEWISE_BEZIER_KNOTS.);
#111 = CARTESIAN_POINT('',(0.,0.));
#112 = CARTESIAN_POINT('',(3.14159265359,0.));
#113 = ( GEOMETRIC_REPRESENTATION_CONTEXT(2) 
PARAMETRIC_REPRESENTATION_CONTEXT() REPRESENTATION_CONTEXT('2D SPACE',''
  ) );
#114 = ORIENTED_EDGE('',*,*,#115,.T.);
#115 = EDGE_CURVE('',#86,#22,#116,.T.);
#116 = SURFACE_CURVE('',#117,(#122,#128),.PCURVE_S1.);
#117 = B_SPLINE_CURVE_WITH_KNOTS('',3,(#118,#119,#120,#121),
  .UNSPECIFIED.,.F.,.F.,(4,4),(0.,1.),.PIECEWISE_BEZIER_KNOTS.);
#118 = CARTESIAN_POINT('',(-1.515344746908,18.35,-4.747855336678));
#119 = CARTESIAN_POINT('',(-1.515344746908,17.533333333333,
    -4.747855336678));
#120 = CARTESIAN_POINT('',(-1.515344746908,16.716666666667,
    -4.747855336678));
#121 = CARTESIAN_POINT('',(-1.515344746908,15.9,-4.747855336678));
#122 = PCURVE('',#47,#123);
#123 = DEFINITIONAL_REPRESENTATION('',(#124),#127);
#124 = B_SPLINE_CURVE_WITH_KNOTS('',1,(#125,#126),.UNSPECIFIED.,.F.,.F.,
  (2,2),(0.,1.),.PIECEWISE_BEZIER_KNOTS.);
#125 = CARTESIAN_POINT('',(3.14159265359,0.));
#126 = CARTESIAN_POINT('',(3.14159265359,2.45));
#127 = ( GEOMETRIC_REPRESENTATION_CONTEXT(2) 
PARAMETRIC_REPRESENTATION_CONTEXT() REPRESENTATION_CONTEXT('2D SPACE',''
  ) );
#128 = PCURVE('',#74,#129);
#129 = DEFINITIONAL_REPRESENTATION('',(#130),#133);
#130 = B_SPLINE_CURVE_WITH_KNOTS('',1,(#131,#132),.UNSPECIFIED.,.F.,.F.,
  (2,2),(0.,1.),.PIECEWISE_BEZIER_KNOTS.);
#131 = CARTESIAN_POINT('',(3.14159265359,0.));
#132 = CARTESIAN_POINT('',(3.14159265359,2.45));
#133 = ( GEOMETRIC_REPRESENTATION_CONTEXT(2) 
PARAMETRIC_REPRESENTATION_CONTEXT() REPRESENTATION_CONTEXT('2D SPACE',''
  ) );
#134 = ADVANCED_FACE('',(#135),#74,.T.);
#135 = FACE_BOUND('',#136,.T.);
#136 = EDGE_LOOP('',(#137,#138,#166,#167));
#137 = ORIENTED_EDGE('',*,*,#58,.F.);
#138 = ORIENTED_EDGE('',*,*,#139,.T.);
#139 = EDGE_CURVE('',#24,#22,#140,.T.);
#140 = SURFACE_CURVE('',#141,(#160),.PCURVE_S1.);
#141 = B_SPLINE_CURVE_WITH_KNOTS('',3,(#142,#143,#144,#145,#146,#147,
    #148,#149,#150,#151,#152,#153,#154,#155,#156,#157,#158,#159),
  .UNSPECIFIED.,.F.,.F.,(4,2,2,2,2,2,2,2,4),(0.,0.125,0.25,0.375,0.5,
    0.625,0.75,0.875,1.),.UNSPECIFIED.);
#142 = CARTESIAN_POINT('',(-4.090109703629,15.9,-2.847701285648));
#143 = CARTESIAN_POINT('',(-3.965744911808,15.9,-2.679183313299));
#144 = CARTESIAN_POINT('',(-3.807921932206,15.9,-2.535459607509));
#145 = CARTESIAN_POINT('',(-3.449147688602,15.9,-2.319263687281));
#146 = CARTESIAN_POINT('',(-3.248337586944,15.9,-2.246876536705));
#147 = CARTESIAN_POINT('',(-2.83413880967,15.9,-2.18443450998));
#148 = CARTESIAN_POINT('',(-2.620913103585,15.9,-2.194404202102));
#149 = CARTESIAN_POINT('',(-2.214347801759,15.9,-2.295222301411));
#150 = CARTESIAN_POINT('',(-2.021168172103,15.9,-2.386031040982));
#151 = CARTESIAN_POINT('',(-1.684132227405,15.9,-2.634760624623));
#152 = CARTESIAN_POINT('',(-1.540408521615,15.9,-2.792583604225));
#153 = CARTESIAN_POINT('',(-1.324212601387,15.9,-3.151357847829));
#154 = CARTESIAN_POINT('',(-1.251825450811,15.9,-3.352167949487));
#155 = CARTESIAN_POINT('',(-1.189383424086,15.9,-3.766366726762));
#156 = CARTESIAN_POINT('',(-1.199353116208,15.9,-3.979592432847));
#157 = CARTESIAN_POINT('',(-1.300171215517,15.9,-4.386157734672));
#158 = CARTESIAN_POINT('',(-1.390979955087,15.9,-4.579337364328));
#159 = CARTESIAN_POINT('',(-1.515344746908,15.9,-4.747855336678));
#160 = PCURVE('',#74,#161);
#161 = DEFINITIONAL_REPRESENTATION('',(#162),#165);
#162 = B_SPLINE_CURVE_WITH_KNOTS('',1,(#163,#164),.UNSPECIFIED.,.F.,.F.,
  (2,2),(0.,1.),.PIECEWISE_BEZIER_KNOTS.);
#163 = CARTESIAN_POINT('',(6.28318530718,2.45));
#164 = CARTESIAN_POINT('',(3.14159265359,2.45));
#165 = ( GEOMETRIC_REPRESENTATION_CONTEXT(2) 
PARAMETRIC_REPRESENTATION_CONTEXT() REPRESENTATION_CONTEXT('2D SPACE',''
  ) );
#166 = ORIENTED_EDGE('',*,*,#115,.F.);
#167 = ORIENTED_EDGE('',*,*,#168,.T.);
#168 = EDGE_CURVE('',#86,#59,#169,.T.);
#169 = SURFACE_CURVE('',#170,(#189),.PCURVE_S1.);
#170 = B_SPLINE_CURVE_WITH_KNOTS('',3,(#171,#172,#173,#174,#175,#176,
    #177,#178,#179,#180,#181,#182,#183,#184,#185,#186,#187,#188),
  .UNSPECIFIED.,.F.,.F.,(4,2,2,2,2,2,2,2,4),(0.,0.125,0.25,0.375,0.5,
    0.625,0.75,0.875,1.),.UNSPECIFIED.);
#171 = CARTESIAN_POINT('',(-1.515344746908,18.35,-4.747855336678));
#172 = CARTESIAN_POINT('',(-1.390979955087,18.35,-4.579337364328));
#173 = CARTESIAN_POINT('',(-1.300171215517,18.35,-4.386157734672));
#174 = CARTESIAN_POINT('',(-1.199353116208,18.35,-3.979592432847));
#175 = CARTESIAN_POINT('',(-1.189383424086,18.35,-3.766366726762));
#176 = CARTESIAN_POINT('',(-1.251825450811,18.35,-3.352167949487));
#177 = CARTESIAN_POINT('',(-1.324212601387,18.35,-3.151357847829));
#178 = CARTESIAN_POINT('',(-1.540408521615,18.35,-2.792583604225));
#179 = CARTESIAN_POINT('',(-1.684132227405,18.35,-2.634760624623));
#180 = CARTESIAN_POINT('',(-2.021168172103,18.35,-2.386031040982));
#181 = CARTESIAN_POINT('',(-2.214347801759,18.35,-2.295222301411));
#182 = CARTESIAN_POINT('',(-2.620913103585,18.35,-2.194404202102));
#183 = CARTESIAN_POINT('',(-2.83413880967,18.35,-2.18443450998));
#184 = CARTESIAN_POINT('',(-3.248337586944,18.35,-2.246876536705));
#185 = CARTESIAN_POINT('',(-3.449147688602,18.35,-2.319263687281));
#186 = CARTESIAN_POINT('',(-3.807921932206,18.35,-2.535459607509));
#187 = CARTESIAN_POINT('',(-3.965744911808,18.35,-2.679183313299));
#188 = CARTESIAN_POINT('',(-4.090109703629,18.35,-2.847701285648));
#189 = PCURVE('',#74,#190);
#190 = DEFINITIONAL_REPRESENTATION('',(#191),#194);
#191 = B_SPLINE_CURVE_WITH_KNOTS('',1,(#192,#193),.UNSPECIFIED.,.F.,.F.,
  (2,2),(0.,1.),.PIECEWISE_BEZIER_KNOTS.);
#192 = CARTESIAN_POINT('',(3.14159265359,0.));
#193 = CARTESIAN_POINT('',(6.28318530718,0.));
#194 = ( GEOMETRIC_REPRESENTATION_CONTEXT(2) 
PARAMETRIC_REPRESENTATION_CONTEXT() REPRESENTATION_CONTEXT('2D SPACE',''
  ) );
#195 = ( GEOMETRIC_REPRESENTATION_CONTEXT(3) 
GLOBAL_UNCERTAINTY_ASSIGNED_CONTEXT((#199)) GLOBAL_UNIT_ASSIGNED_CONTEXT
((#196,#197,#198)) REPRESENTATION_CONTEXT('Context #1',
  '3D Context with UNIT and UNCERTAINTY') );
#196 = ( LENGTH_UNIT() NAMED_UNIT(*) SI_UNIT(.MILLI.,.METRE.) );
#197 = ( NAMED_UNIT(*) PLANE_ANGLE_UNIT() SI_UNIT($,.RADIAN.) );
#198 = ( NAMED_UNIT(*) SI_UNIT($,.STERADIAN.) SOLID_ANGLE_UNIT() );
#199 = UNCERTAINTY_MEASURE_WITH_UNIT(LENGTH_MEASURE(1.E-04),#196,
  'distance_accuracy_value','confusion accuracy');
#200 = PRODUCT_RELATED_PRODUCT_CATEGORY('part',$,(#7));
ENDSEC;
END-ISO-10303-21;
