ISO-10303-21;
HEADER;
FILE_DESCRIPTION(('Open CASCADE Model'),'2;1');
FILE_NAME('Open CASCADE Shape Model','2026-03-14T15:57:21',('Author'),(
    'Open CASCADE'),'Open CASCADE STEP processor 7.8','build123d',
  'Unknown');
FILE_SCHEMA(('AUTOMOTIVE_DESIGN { 1 0 10303 214 1 1 1 1 }'));
ENDSEC;
DATA;
#1 = APPLICATION_PROTOCOL_DEFINITION('international standard',
  'automotive_design',2000,#2);
#2 = APPLICATION_CONTEXT(
  'core data for automotive mechanical design processes');
#3 = SHAPE_DEFINITION_REPRESENTATION(#4,#10);
#4 = PRODUCT_DEFINITION_SHAPE('','',#5);
#5 = PRODUCT_DEFINITION('design','',#6,#9);
#6 = PRODUCT_DEFINITION_FORMATION('','',#7);
#7 = PRODUCT('SHELL','SHELL','',(#8));
#8 = PRODUCT_CONTEXT('',#2,'mechanical');
#9 = PRODUCT_DEFINITION_CONTEXT('part definition',#2,'design');
#10 = MANIFOLD_SURFACE_SHAPE_REPRESENTATION('',(#11,#15),#530);
#11 = AXIS2_PLACEMENT_3D('',#12,#13,#14);
#12 = CARTESIAN_POINT('',(0.,0.,0.));
#13 = DIRECTION('',(0.,0.,1.));
#14 = DIRECTION('',(1.,0.,-0.));
#15 = SHELL_BASED_SURFACE_MODEL('',(#16));
#16 = OPEN_SHELL('',(#17,#274,#447));
#17 = ADVANCED_FACE('',(#18),#47,.T.);
#18 = FACE_BOUND('',#19,.T.);
#19 = EDGE_LOOP('',(#20,#102,#152,#254));
#20 = ORIENTED_EDGE('',*,*,#21,.T.);
#21 = EDGE_CURVE('',#22,#24,#26,.T.);
#22 = VERTEX_POINT('',#23);
#23 = CARTESIAN_POINT('',(-2.965244213449E-04,21.898452576124,
    -1.139558897572));
#24 = VERTEX_POINT('',#25);
#25 = CARTESIAN_POINT('',(-2.965244213458E-04,21.898452576124,
    1.139996598202));
#26 = SURFACE_CURVE('',#27,(#46),.PCURVE_S1.);
#27 = B_SPLINE_CURVE_WITH_KNOTS('',3,(#28,#29,#30,#31,#32,#33,#34,#35,
    #36,#37,#38,#39,#40,#41,#42,#43,#44,#45),.UNSPECIFIED.,.F.,.F.,(4,2,
    2,2,2,2,2,2,4),(0.,0.125,0.25,0.375,0.5,0.625,0.75,0.875,1.),
  .UNSPECIFIED.);
#28 = CARTESIAN_POINT('',(-2.965244213449E-04,21.898452576124,
    -1.139558897572));
#29 = CARTESIAN_POINT('',(0.148900033891,21.898452576124,-1.139558897572
    ));
#30 = CARTESIAN_POINT('',(0.298037889728,21.898452576124,-1.109893533601
    ));
#31 = CARTESIAN_POINT('',(0.573717182819,21.898452576124,-0.995703431537
    ));
#32 = CARTESIAN_POINT('',(0.700150152043,21.898452576124,-0.911223622373
    ));
#33 = CARTESIAN_POINT('',(0.911145948267,21.898452576124,-0.700227826149
    ));
#34 = CARTESIAN_POINT('',(0.995625757431,21.898452576124,-0.573794856925
    ));
#35 = CARTESIAN_POINT('',(1.109815859495,21.898452576124,-0.298115563834
    ));
#36 = CARTESIAN_POINT('',(1.139481223465,21.898452576124,-0.148977707997
    ));
#37 = CARTESIAN_POINT('',(1.139481223465,21.898452576124,0.149415408627)
  );
#38 = CARTESIAN_POINT('',(1.109815859495,21.898452576124,0.298553264464)
  );
#39 = CARTESIAN_POINT('',(0.995625757431,21.898452576124,0.574232557555)
  );
#40 = CARTESIAN_POINT('',(0.911145948267,21.898452576124,0.700665526779)
  );
#41 = CARTESIAN_POINT('',(0.700150152043,21.898452576124,0.911661323003)
  );
#42 = CARTESIAN_POINT('',(0.573717182819,21.898452576124,0.996141132168)
  );
#43 = CARTESIAN_POINT('',(0.298037889728,21.898452576124,1.110331234231)
  );
#44 = CARTESIAN_POINT('',(0.148900033891,21.898452576124,1.139996598202)
  );
#45 = CARTESIAN_POINT('',(-2.965244213458E-04,21.898452576124,
    1.139996598202));
#46 = PCURVE('',#47,#52);
#47 = CONICAL_SURFACE('',#48,1.15,0.261799387799);
#48 = AXIS2_PLACEMENT_3D('',#49,#50,#51);
#49 = CARTESIAN_POINT('',(-2.965244213453E-04,21.936602540378,
    2.188503150191E-04));
#50 = DIRECTION('',(9.484695110153E-17,1.,2.632395497071E-32));
#51 = DIRECTION('',(-2.775413934237E-16,2.189528850508E-47,1.));
#52 = DEFINITIONAL_REPRESENTATION('',(#53),#101);
#53 = B_SPLINE_CURVE_WITH_KNOTS('',3,(#54,#55,#56,#57,#58,#59,#60,#61,
    #62,#63,#64,#65,#66,#67,#68,#69,#70,#71,#72,#73,#74,#75,#76,#77,#78,
    #79,#80,#81,#82,#83,#84,#85,#86,#87,#88,#89,#90,#91,#92,#93,#94,#95,
    #96,#97,#98,#99,#100),.UNSPECIFIED.,.F.,.F.,(4,1,1,1,1,1,1,1,1,1,1,1
    ,1,1,1,1,1,1,1,1,1,1,1,1,1,1,1,1,1,1,1,1,1,1,1,1,1,1,1,1,1,1,1,1,4),
  (0.,2.272727272727E-02,4.545454545455E-02,6.818181818182E-02,
    9.090909090909E-02,0.113636363636,0.136363636364,0.159090909091,
    0.181818181818,0.204545454545,0.227272727273,0.25,0.272727272727,
    0.295454545455,0.318181818182,0.340909090909,0.363636363636,
    0.386363636364,0.409090909091,0.431818181818,0.454545454545,
    0.477272727273,0.5,0.522727272727,0.545454545455,0.568181818182,
    0.590909090909,0.613636363636,0.636363636364,0.659090909091,
    0.681818181818,0.704545454545,0.727272727273,0.75,0.772727272727,
    0.795454545455,0.818181818182,0.840909090909,0.863636363636,
    0.886363636364,0.909090909091,0.931818181818,0.954545454545,
    0.977272727273,1.),.QUASI_UNIFORM_KNOTS.);
#54 = CARTESIAN_POINT('',(3.14159265359,-3.81499642545E-02));
#55 = CARTESIAN_POINT('',(3.11779366165,-3.815055439507E-02));
#56 = CARTESIAN_POINT('',(3.070195276352,-3.815563655272E-02));
#57 = CARTESIAN_POINT('',(2.99879605498,-3.816642526505E-02));
#58 = CARTESIAN_POINT('',(2.927392026102,-3.816884478746E-02));
#59 = CARTESIAN_POINT('',(2.855989562844,-3.81618412463E-02));
#60 = CARTESIAN_POINT('',(2.78459301181,-3.814987692716E-02));
#61 = CARTESIAN_POINT('',(2.71319413177,-3.814987871725E-02));
#62 = CARTESIAN_POINT('',(2.641797581952,-3.816183587597E-02));
#63 = CARTESIAN_POINT('',(2.570395113825,-3.81688644787E-02));
#64 = CARTESIAN_POINT('',(2.498991103211,-3.816635187046E-02));
#65 = CARTESIAN_POINT('',(2.427591813651,-3.815591043986E-02));
#66 = CARTESIAN_POINT('',(2.356194490192,-3.814699116231E-02));
#67 = CARTESIAN_POINT('',(2.284797166734,-3.815591043805E-02));
#68 = CARTESIAN_POINT('',(2.213397877173,-3.81663518777E-02));
#69 = CARTESIAN_POINT('',(2.141993866565,-3.816886445154E-02));
#70 = CARTESIAN_POINT('',(2.070591398412,-3.816183597732E-02));
#71 = CARTESIAN_POINT('',(1.999194848689,-3.814987833896E-02));
#72 = CARTESIAN_POINT('',(1.927795968298,-3.814987833895E-02));
#73 = CARTESIAN_POINT('',(1.856399418575,-3.816183597733E-02));
#74 = CARTESIAN_POINT('',(1.784996950422,-3.816886445153E-02));
#75 = CARTESIAN_POINT('',(1.713592939814,-3.816635187775E-02));
#76 = CARTESIAN_POINT('',(1.642193650253,-3.815591043791E-02));
#77 = CARTESIAN_POINT('',(1.570796326795,-3.814699116284E-02));
#78 = CARTESIAN_POINT('',(1.499399003337,-3.815591043791E-02));
#79 = CARTESIAN_POINT('',(1.427999713775,-3.816635187774E-02));
#80 = CARTESIAN_POINT('',(1.356595703168,-3.816886445154E-02));
#81 = CARTESIAN_POINT('',(1.285193235015,-3.816183597733E-02));
#82 = CARTESIAN_POINT('',(1.213796685292,-3.814987833896E-02));
#83 = CARTESIAN_POINT('',(1.1423978049,-3.814987833895E-02));
#84 = CARTESIAN_POINT('',(1.071001255177,-3.816183597732E-02));
#85 = CARTESIAN_POINT('',(0.999598787024,-3.816886445154E-02));
#86 = CARTESIAN_POINT('',(0.928194776417,-3.81663518777E-02));
#87 = CARTESIAN_POINT('',(0.856795486856,-3.815591043806E-02));
#88 = CARTESIAN_POINT('',(0.785398163398,-3.814699116231E-02));
#89 = CARTESIAN_POINT('',(0.714000839939,-3.815591043987E-02));
#90 = CARTESIAN_POINT('',(0.642601550379,-3.816635187046E-02));
#91 = CARTESIAN_POINT('',(0.571197539765,-3.81688644787E-02));
#92 = CARTESIAN_POINT('',(0.499795071637,-3.816183587596E-02));
#93 = CARTESIAN_POINT('',(0.42839852182,-3.814987871725E-02));
#94 = CARTESIAN_POINT('',(0.35699964178,-3.814987692714E-02));
#95 = CARTESIAN_POINT('',(0.285603090745,-3.81618412463E-02));
#96 = CARTESIAN_POINT('',(0.214200627488,-3.816884478745E-02));
#97 = CARTESIAN_POINT('',(0.142796598609,-3.816642526505E-02));
#98 = CARTESIAN_POINT('',(7.139737723806E-02,-3.815563655271E-02));
#99 = CARTESIAN_POINT('',(2.379899193962E-02,-3.815055439506E-02));
#100 = CARTESIAN_POINT('',(0.,-3.81499642545E-02));
#101 = ( GEOMETRIC_REPRESENTATION_CONTEXT(2) 
PARAMETRIC_REPRESENTATION_CONTEXT() REPRESENTATION_CONTEXT('2D SPACE',''
  ) );
#102 = ORIENTED_EDGE('',*,*,#103,.T.);
#103 = EDGE_CURVE('',#24,#104,#106,.T.);
#104 = VERTEX_POINT('',#105);
#105 = CARTESIAN_POINT('',(-2.965244213457E-04,21.75,1.100218850315));
#106 = SURFACE_CURVE('',#107,(#112,#118),.PCURVE_S1.);
#107 = B_SPLINE_CURVE_WITH_KNOTS('',3,(#108,#109,#110,#111),
  .UNSPECIFIED.,.F.,.F.,(4,4),(0.,1.),.PIECEWISE_BEZIER_KNOTS.);
#108 = CARTESIAN_POINT('',(-2.965244213458E-04,21.898452576124,
    1.139996598202));
#109 = CARTESIAN_POINT('',(-2.965244213456E-04,21.848968384083,
    1.126737348906));
#110 = CARTESIAN_POINT('',(-2.965244213456E-04,21.799484192041,
    1.113478099611));
#111 = CARTESIAN_POINT('',(-2.965244213457E-04,21.75,1.100218850315));
#112 = PCURVE('',#47,#113);
#113 = DEFINITIONAL_REPRESENTATION('',(#114),#117);
#114 = B_SPLINE_CURVE_WITH_KNOTS('',1,(#115,#116),.UNSPECIFIED.,.F.,.F.,
  (2,2),(0.,1.),.PIECEWISE_BEZIER_KNOTS.);
#115 = CARTESIAN_POINT('',(0.,-3.81499642545E-02));
#116 = CARTESIAN_POINT('',(0.,-0.186602540378));
#117 = ( GEOMETRIC_REPRESENTATION_CONTEXT(2) 
PARAMETRIC_REPRESENTATION_CONTEXT() REPRESENTATION_CONTEXT('2D SPACE',''
  ) );
#118 = PCURVE('',#119,#124);
#119 = CONICAL_SURFACE('',#120,1.15,0.261799387799);
#120 = AXIS2_PLACEMENT_3D('',#121,#122,#123);
#121 = CARTESIAN_POINT('',(-2.965244213453E-04,21.936602540378,
    2.188503150191E-04));
#122 = DIRECTION('',(9.484695110153E-17,1.,2.632395497071E-32));
#123 = DIRECTION('',(-2.775413934237E-16,2.189528850508E-47,1.));
#124 = DEFINITIONAL_REPRESENTATION('',(#125),#151);
#125 = B_SPLINE_CURVE_WITH_KNOTS('',3,(#126,#127,#128,#129,#130,#131,
    #132,#133,#134,#135,#136,#137,#138,#139,#140,#141,#142,#143,#144,
    #145,#146,#147,#148,#149,#150),.UNSPECIFIED.,.F.,.F.,(4,1,1,1,1,1,1,
    1,1,1,1,1,1,1,1,1,1,1,1,1,1,1,4),(0.,4.545454545455E-02,
    9.090909090909E-02,0.136363636364,0.181818181818,0.227272727273,
    0.272727272727,0.318181818182,0.363636363636,0.409090909091,
    0.454545454545,0.5,0.545454545455,0.590909090909,0.636363636364,
    0.681818181818,0.727272727273,0.772727272727,0.818181818182,
    0.863636363636,0.909090909091,0.954545454545,1.),
  .QUASI_UNIFORM_KNOTS.);
#126 = CARTESIAN_POINT('',(6.28318530718,-3.81499642545E-02));
#127 = CARTESIAN_POINT('',(6.28318530718,-4.039924571092E-02));
#128 = CARTESIAN_POINT('',(6.28318530718,-4.489780862377E-02));
#129 = CARTESIAN_POINT('',(6.28318530718,-5.164565299305E-02));
#130 = CARTESIAN_POINT('',(6.28318530718,-5.839349736232E-02));
#131 = CARTESIAN_POINT('',(6.28318530718,-6.514134173159E-02));
#132 = CARTESIAN_POINT('',(6.28318530718,-7.188918610087E-02));
#133 = CARTESIAN_POINT('',(6.28318530718,-7.863703047014E-02));
#134 = CARTESIAN_POINT('',(6.28318530718,-8.538487483941E-02));
#135 = CARTESIAN_POINT('',(6.28318530718,-9.213271920868E-02));
#136 = CARTESIAN_POINT('',(6.28318530718,-9.888056357795E-02));
#137 = CARTESIAN_POINT('',(6.28318530718,-0.105628407947));
#138 = CARTESIAN_POINT('',(6.28318530718,-0.112376252316));
#139 = CARTESIAN_POINT('',(6.28318530718,-0.119124096686));
#140 = CARTESIAN_POINT('',(6.28318530718,-0.125871941055));
#141 = CARTESIAN_POINT('',(6.28318530718,-0.132619785424));
#142 = CARTESIAN_POINT('',(6.28318530718,-0.139367629794));
#143 = CARTESIAN_POINT('',(6.28318530718,-0.146115474163));
#144 = CARTESIAN_POINT('',(6.28318530718,-0.152863318532));
#145 = CARTESIAN_POINT('',(6.28318530718,-0.159611162901));
#146 = CARTESIAN_POINT('',(6.28318530718,-0.166359007271));
#147 = CARTESIAN_POINT('',(6.28318530718,-0.17310685164));
#148 = CARTESIAN_POINT('',(6.28318530718,-0.179854696009));
#149 = CARTESIAN_POINT('',(6.28318530718,-0.184353258922));
#150 = CARTESIAN_POINT('',(6.28318530718,-0.186602540378));
#151 = ( GEOMETRIC_REPRESENTATION_CONTEXT(2) 
PARAMETRIC_REPRESENTATION_CONTEXT() REPRESENTATION_CONTEXT('2D SPACE',''
  ) );
#152 = ORIENTED_EDGE('',*,*,#153,.T.);
#153 = EDGE_CURVE('',#104,#154,#156,.T.);
#154 = VERTEX_POINT('',#155);
#155 = CARTESIAN_POINT('',(-2.965244213449E-04,21.75,-1.099781149685));
#156 = SURFACE_CURVE('',#157,(#176,#227),.PCURVE_S1.);
#157 = B_SPLINE_CURVE_WITH_KNOTS('',3,(#158,#159,#160,#161,#162,#163,
    #164,#165,#166,#167,#168,#169,#170,#171,#172,#173,#174,#175),
  .UNSPECIFIED.,.F.,.F.,(4,2,2,2,2,2,2,2,4),(0.,0.125,0.25,0.375,0.5,
    0.625,0.75,0.875,1.),.UNSPECIFIED.);
#158 = CARTESIAN_POINT('',(-2.965244213457E-04,21.75,1.100218850315));
#159 = CARTESIAN_POINT('',(0.143693138868,21.75,1.100218850315));
#160 = CARTESIAN_POINT('',(0.287626148374,21.75,1.07158879465));
#161 = CARTESIAN_POINT('',(0.553684353987,21.75,0.961383877505));
#162 = CARTESIAN_POINT('',(0.675704867551,21.75,0.879852376953));
#163 = CARTESIAN_POINT('',(0.879337002217,21.75,0.676220242287));
#164 = CARTESIAN_POINT('',(0.960868502768,21.75,0.554199728723));
#165 = CARTESIAN_POINT('',(1.071073419914,21.75,0.28814152311));
#166 = CARTESIAN_POINT('',(1.099703475579,21.75,0.144208513605));
#167 = CARTESIAN_POINT('',(1.099703475579,21.75,-0.143770812975));
#168 = CARTESIAN_POINT('',(1.071073419914,21.75,-0.28770382248));
#169 = CARTESIAN_POINT('',(0.960868502768,21.75,-0.553762028093));
#170 = CARTESIAN_POINT('',(0.879337002217,21.75,-0.675782541657));
#171 = CARTESIAN_POINT('',(0.675704867551,21.75,-0.879414676323));
#172 = CARTESIAN_POINT('',(0.553684353987,21.75,-0.960946176875));
#173 = CARTESIAN_POINT('',(0.287626148374,21.75,-1.07115109402));
#174 = CARTESIAN_POINT('',(0.143693138868,21.75,-1.099781149685));
#175 = CARTESIAN_POINT('',(-2.965244213449E-04,21.75,-1.099781149685));
#176 = PCURVE('',#47,#177);
#177 = DEFINITIONAL_REPRESENTATION('',(#178),#226);
#178 = B_SPLINE_CURVE_WITH_KNOTS('',3,(#179,#180,#181,#182,#183,#184,
    #185,#186,#187,#188,#189,#190,#191,#192,#193,#194,#195,#196,#197,
    #198,#199,#200,#201,#202,#203,#204,#205,#206,#207,#208,#209,#210,
    #211,#212,#213,#214,#215,#216,#217,#218,#219,#220,#221,#222,#223,
    #224,#225),.UNSPECIFIED.,.F.,.F.,(4,1,1,1,1,1,1,1,1,1,1,1,1,1,1,1,1,
    1,1,1,1,1,1,1,1,1,1,1,1,1,1,1,1,1,1,1,1,1,1,1,1,1,1,1,4),(0.,
    2.272727272727E-02,4.545454545455E-02,6.818181818182E-02,
    9.090909090909E-02,0.113636363636,0.136363636364,0.159090909091,
    0.181818181818,0.204545454545,0.227272727273,0.25,0.272727272727,
    0.295454545455,0.318181818182,0.340909090909,0.363636363636,
    0.386363636364,0.409090909091,0.431818181818,0.454545454545,
    0.477272727273,0.5,0.522727272727,0.545454545455,0.568181818182,
    0.590909090909,0.613636363636,0.636363636364,0.659090909091,
    0.681818181818,0.704545454545,0.727272727273,0.75,0.772727272727,
    0.795454545455,0.818181818182,0.840909090909,0.863636363636,
    0.886363636364,0.909090909091,0.931818181818,0.954545454545,
    0.977272727273,1.),.QUASI_UNIFORM_KNOTS.);
#179 = CARTESIAN_POINT('',(0.,-0.186602540378));
#180 = CARTESIAN_POINT('',(2.379899193962E-02,-0.186603109923));
#181 = CARTESIAN_POINT('',(7.139737723806E-02,-0.186608014716));
#182 = CARTESIAN_POINT('',(0.142796598609,-0.186618426907));
#183 = CARTESIAN_POINT('',(0.214200627488,-0.186620761989));
#184 = CARTESIAN_POINT('',(0.285603090745,-0.186614002868));
#185 = CARTESIAN_POINT('',(0.35699964178,-0.186602456099));
#186 = CARTESIAN_POINT('',(0.42839852182,-0.186602457826));
#187 = CARTESIAN_POINT('',(0.499795071637,-0.186613997685));
#188 = CARTESIAN_POINT('',(0.571197539765,-0.186620780993));
#189 = CARTESIAN_POINT('',(0.642601550379,-0.186618356074));
#190 = CARTESIAN_POINT('',(0.714000839939,-0.186608279045));
#191 = CARTESIAN_POINT('',(0.785398163398,-0.186599671046));
#192 = CARTESIAN_POINT('',(0.856795486856,-0.186608279043));
#193 = CARTESIAN_POINT('',(0.928194776417,-0.186618356081));
#194 = CARTESIAN_POINT('',(0.999598787024,-0.186620780967));
#195 = CARTESIAN_POINT('',(1.071001255177,-0.186613997783));
#196 = CARTESIAN_POINT('',(1.1423978049,-0.186602457461));
#197 = CARTESIAN_POINT('',(1.213796685292,-0.186602457461));
#198 = CARTESIAN_POINT('',(1.285193235015,-0.186613997783));
#199 = CARTESIAN_POINT('',(1.356595703168,-0.186620780967));
#200 = CARTESIAN_POINT('',(1.427999713775,-0.186618356081));
#201 = CARTESIAN_POINT('',(1.499399003337,-0.186608279043));
#202 = CARTESIAN_POINT('',(1.570796326795,-0.186599671046));
#203 = CARTESIAN_POINT('',(1.642193650253,-0.186608279043));
#204 = CARTESIAN_POINT('',(1.713592939814,-0.186618356081));
#205 = CARTESIAN_POINT('',(1.784996950422,-0.186620780967));
#206 = CARTESIAN_POINT('',(1.856399418575,-0.186613997783));
#207 = CARTESIAN_POINT('',(1.927795968298,-0.186602457461));
#208 = CARTESIAN_POINT('',(1.999194848689,-0.186602457461));
#209 = CARTESIAN_POINT('',(2.070591398412,-0.186613997783));
#210 = CARTESIAN_POINT('',(2.141993866565,-0.186620780967));
#211 = CARTESIAN_POINT('',(2.213397877173,-0.186618356081));
#212 = CARTESIAN_POINT('',(2.284797166734,-0.186608279043));
#213 = CARTESIAN_POINT('',(2.356194490192,-0.186599671046));
#214 = CARTESIAN_POINT('',(2.427591813651,-0.186608279045));
#215 = CARTESIAN_POINT('',(2.498991103211,-0.186618356074));
#216 = CARTESIAN_POINT('',(2.570395113825,-0.186620780993));
#217 = CARTESIAN_POINT('',(2.641797581952,-0.186613997685));
#218 = CARTESIAN_POINT('',(2.71319413177,-0.186602457826));
#219 = CARTESIAN_POINT('',(2.78459301181,-0.186602456099));
#220 = CARTESIAN_POINT('',(2.855989562844,-0.186614002868));
#221 = CARTESIAN_POINT('',(2.927392026102,-0.186620761989));
#222 = CARTESIAN_POINT('',(2.99879605498,-0.186618426907));
#223 = CARTESIAN_POINT('',(3.070195276352,-0.186608014716));
#224 = CARTESIAN_POINT('',(3.11779366165,-0.186603109923));
#225 = CARTESIAN_POINT('',(3.14159265359,-0.186602540378));
#226 = ( GEOMETRIC_REPRESENTATION_CONTEXT(2) 
PARAMETRIC_REPRESENTATION_CONTEXT() REPRESENTATION_CONTEXT('2D SPACE',''
  ) );
#227 = PCURVE('',#228,#233);
#228 = PLANE('',#229);
#229 = AXIS2_PLACEMENT_3D('',#230,#231,#232);
#230 = CARTESIAN_POINT('',(0.824703475579,21.75,2.188503150193E-04));
#231 = DIRECTION('',(-9.484695110153E-17,-1.,2.902153520719E-17));
#232 = DIRECTION('',(-1.,9.484695110153E-17,0.));
#233 = DEFINITIONAL_REPRESENTATION('',(#234),#253);
#234 = B_SPLINE_CURVE_WITH_KNOTS('',3,(#235,#236,#237,#238,#239,#240,
    #241,#242,#243,#244,#245,#246,#247,#248,#249,#250,#251,#252),
  .UNSPECIFIED.,.F.,.F.,(4,2,2,2,2,2,2,2,4),(0.,0.125,0.25,0.375,0.5,
    0.625,0.75,0.875,1.),.UNSPECIFIED.);
#235 = CARTESIAN_POINT('',(0.825,-1.1));
#236 = CARTESIAN_POINT('',(0.68101033671,-1.1));
#237 = CARTESIAN_POINT('',(0.537077327205,-1.071369944335));
#238 = CARTESIAN_POINT('',(0.271019121592,-0.96116502719));
#239 = CARTESIAN_POINT('',(0.148998608028,-0.879633526638));
#240 = CARTESIAN_POINT('',(-5.4633526638E-02,-0.676001391972));
#241 = CARTESIAN_POINT('',(-0.13616502719,-0.553980878408));
#242 = CARTESIAN_POINT('',(-0.246369944335,-0.287922672795));
#243 = CARTESIAN_POINT('',(-0.275,-0.14398966329));
#244 = CARTESIAN_POINT('',(-0.275,0.14398966329));
#245 = CARTESIAN_POINT('',(-0.246369944335,0.287922672795));
#246 = CARTESIAN_POINT('',(-0.13616502719,0.553980878408));
#247 = CARTESIAN_POINT('',(-5.463352663799E-02,0.676001391972));
#248 = CARTESIAN_POINT('',(0.148998608028,0.879633526638));
#249 = CARTESIAN_POINT('',(0.271019121592,0.96116502719));
#250 = CARTESIAN_POINT('',(0.537077327205,1.071369944335));
#251 = CARTESIAN_POINT('',(0.68101033671,1.1));
#252 = CARTESIAN_POINT('',(0.825,1.1));
#253 = ( GEOMETRIC_REPRESENTATION_CONTEXT(2) 
PARAMETRIC_REPRESENTATION_CONTEXT() REPRESENTATION_CONTEXT('2D SPACE',''
  ) );
#254 = ORIENTED_EDGE('',*,*,#255,.T.);
#255 = EDGE_CURVE('',#154,#22,#256,.T.);
#256 = SURFACE_CURVE('',#257,(#262,#268),.PCURVE_S1.);
#257 = B_SPLINE_CURVE_WITH_KNOTS('',3,(#258,#259,#260,#261),
  .UNSPECIFIED.,.F.,.F.,(4,4),(0.,1.),.PIECEWISE_BEZIER_KNOTS.);
#258 = CARTESIAN_POINT('',(-2.965244213449E-04,21.75,-1.099781149685));
#259 = CARTESIAN_POINT('',(-2.965244213473E-04,21.799484192041,
    -1.113040398981));
#260 = CARTESIAN_POINT('',(-2.965244213474E-04,21.848968384083,
    -1.126299648276));
#261 = CARTESIAN_POINT('',(-2.965244213449E-04,21.898452576124,
    -1.139558897572));
#262 = PCURVE('',#47,#263);
#263 = DEFINITIONAL_REPRESENTATION('',(#264),#267);
#264 = B_SPLINE_CURVE_WITH_KNOTS('',1,(#265,#266),.UNSPECIFIED.,.F.,.F.,
  (2,2),(0.,1.),.PIECEWISE_BEZIER_KNOTS.);
#265 = CARTESIAN_POINT('',(3.14159265359,-0.186602540378));
#266 = CARTESIAN_POINT('',(3.14159265359,-3.81499642545E-02));
#267 = ( GEOMETRIC_REPRESENTATION_CONTEXT(2) 
PARAMETRIC_REPRESENTATION_CONTEXT() REPRESENTATION_CONTEXT('2D SPACE',''
  ) );
#268 = PCURVE('',#119,#269);
#269 = DEFINITIONAL_REPRESENTATION('',(#270),#273);
#270 = B_SPLINE_CURVE_WITH_KNOTS('',1,(#271,#272),.UNSPECIFIED.,.F.,.F.,
  (2,2),(0.,1.),.PIECEWISE_BEZIER_KNOTS.);
#271 = CARTESIAN_POINT('',(3.14159265359,-0.186602540378));
#272 = CARTESIAN_POINT('',(3.14159265359,-3.81499642545E-02));
#273 = ( GEOMETRIC_REPRESENTATION_CONTEXT(2) 
PARAMETRIC_REPRESENTATION_CONTEXT() REPRESENTATION_CONTEXT('2D SPACE',''
  ) );
#274 = ADVANCED_FACE('',(#275),#119,.T.);
#275 = FACE_BOUND('',#276,.T.);
#276 = EDGE_LOOP('',(#277,#278,#351,#352));
#277 = ORIENTED_EDGE('',*,*,#103,.F.);
#278 = ORIENTED_EDGE('',*,*,#279,.T.);
#279 = EDGE_CURVE('',#24,#22,#280,.T.);
#280 = SURFACE_CURVE('',#281,(#300),.PCURVE_S1.);
#281 = B_SPLINE_CURVE_WITH_KNOTS('',3,(#282,#283,#284,#285,#286,#287,
    #288,#289,#290,#291,#292,#293,#294,#295,#296,#297,#298,#299),
  .UNSPECIFIED.,.F.,.F.,(4,2,2,2,2,2,2,2,4),(0.,0.125,0.25,0.375,0.5,
    0.625,0.75,0.875,1.),.UNSPECIFIED.);
#282 = CARTESIAN_POINT('',(-2.965244213458E-04,21.898452576124,
    1.139996598202));
#283 = CARTESIAN_POINT('',(-0.149493082733,21.898452576124,
    1.139996598202));
#284 = CARTESIAN_POINT('',(-0.29863093857,21.898452576124,1.110331234231
    ));
#285 = CARTESIAN_POINT('',(-0.574310231661,21.898452576124,
    0.996141132168));
#286 = CARTESIAN_POINT('',(-0.700743200886,21.898452576124,
    0.911661323003));
#287 = CARTESIAN_POINT('',(-0.91173899711,21.898452576124,0.700665526779
    ));
#288 = CARTESIAN_POINT('',(-0.996218806274,21.898452576124,
    0.574232557555));
#289 = CARTESIAN_POINT('',(-1.110408908338,21.898452576124,
    0.298553264464));
#290 = CARTESIAN_POINT('',(-1.140074272308,21.898452576124,
    0.149415408627));
#291 = CARTESIAN_POINT('',(-1.140074272308,21.898452576124,
    -0.148977707997));
#292 = CARTESIAN_POINT('',(-1.110408908338,21.898452576124,
    -0.298115563834));
#293 = CARTESIAN_POINT('',(-0.996218806274,21.898452576124,
    -0.573794856925));
#294 = CARTESIAN_POINT('',(-0.91173899711,21.898452576124,
    -0.700227826149));
#295 = CARTESIAN_POINT('',(-0.700743200886,21.898452576124,
    -0.911223622373));
#296 = CARTESIAN_POINT('',(-0.574310231661,21.898452576124,
    -0.995703431537));
#297 = CARTESIAN_POINT('',(-0.29863093857,21.898452576124,
    -1.109893533601));
#298 = CARTESIAN_POINT('',(-0.149493082733,21.898452576124,
    -1.139558897572));
#299 = CARTESIAN_POINT('',(-2.965244213449E-04,21.898452576124,
    -1.139558897572));
#300 = PCURVE('',#119,#301);
#301 = DEFINITIONAL_REPRESENTATION('',(#302),#350);
#302 = B_SPLINE_CURVE_WITH_KNOTS('',3,(#303,#304,#305,#306,#307,#308,
    #309,#310,#311,#312,#313,#314,#315,#316,#317,#318,#319,#320,#321,
    #322,#323,#324,#325,#326,#327,#328,#329,#330,#331,#332,#333,#334,
    #335,#336,#337,#338,#339,#340,#341,#342,#343,#344,#345,#346,#347,
    #348,#349),.UNSPECIFIED.,.F.,.F.,(4,1,1,1,1,1,1,1,1,1,1,1,1,1,1,1,1,
    1,1,1,1,1,1,1,1,1,1,1,1,1,1,1,1,1,1,1,1,1,1,1,1,1,1,1,4),(0.,
    2.272727272727E-02,4.545454545455E-02,6.818181818182E-02,
    9.090909090909E-02,0.113636363636,0.136363636364,0.159090909091,
    0.181818181818,0.204545454545,0.227272727273,0.25,0.272727272727,
    0.295454545455,0.318181818182,0.340909090909,0.363636363636,
    0.386363636364,0.409090909091,0.431818181818,0.454545454545,
    0.477272727273,0.5,0.522727272727,0.545454545455,0.568181818182,
    0.590909090909,0.613636363636,0.636363636364,0.659090909091,
    0.681818181818,0.704545454545,0.727272727273,0.75,0.772727272727,
    0.795454545455,0.818181818182,0.840909090909,0.863636363636,
    0.886363636364,0.909090909091,0.931818181818,0.954545454545,
    0.977272727273,1.),.QUASI_UNIFORM_KNOTS.);
#303 = CARTESIAN_POINT('',(6.28318530718,-3.81499642545E-02));
#304 = CARTESIAN_POINT('',(6.25938631524,-3.815055439506E-02));
#305 = CARTESIAN_POINT('',(6.211787929942,-3.815563655272E-02));
#306 = CARTESIAN_POINT('',(6.14038870857,-3.816642526505E-02));
#307 = CARTESIAN_POINT('',(6.068984679691,-3.816884478746E-02));
#308 = CARTESIAN_POINT('',(5.997582216434,-3.816184124631E-02));
#309 = CARTESIAN_POINT('',(5.926185665399,-3.814987692715E-02));
#310 = CARTESIAN_POINT('',(5.854786785359,-3.814987871726E-02));
#311 = CARTESIAN_POINT('',(5.783390235542,-3.816183587597E-02));
#312 = CARTESIAN_POINT('',(5.711987767414,-3.816886447869E-02));
#313 = CARTESIAN_POINT('',(5.6405837568,-3.816635187046E-02));
#314 = CARTESIAN_POINT('',(5.569184467241,-3.815591043986E-02));
#315 = CARTESIAN_POINT('',(5.497787143782,-3.814699116231E-02));
#316 = CARTESIAN_POINT('',(5.426389820324,-3.815591043805E-02));
#317 = CARTESIAN_POINT('',(5.354990530763,-3.81663518777E-02));
#318 = CARTESIAN_POINT('',(5.283586520155,-3.816886445154E-02));
#319 = CARTESIAN_POINT('',(5.212184052002,-3.816183597732E-02));
#320 = CARTESIAN_POINT('',(5.140787502279,-3.814987833896E-02));
#321 = CARTESIAN_POINT('',(5.069388621888,-3.814987833896E-02));
#322 = CARTESIAN_POINT('',(4.997992072165,-3.816183597733E-02));
#323 = CARTESIAN_POINT('',(4.926589604012,-3.816886445153E-02));
#324 = CARTESIAN_POINT('',(4.855185593404,-3.816635187774E-02));
#325 = CARTESIAN_POINT('',(4.783786303843,-3.815591043791E-02));
#326 = CARTESIAN_POINT('',(4.712388980385,-3.814699116283E-02));
#327 = CARTESIAN_POINT('',(4.640991656927,-3.815591043791E-02));
#328 = CARTESIAN_POINT('',(4.569592367365,-3.816635187774E-02));
#329 = CARTESIAN_POINT('',(4.498188356758,-3.816886445154E-02));
#330 = CARTESIAN_POINT('',(4.426785888605,-3.816183597733E-02));
#331 = CARTESIAN_POINT('',(4.355389338882,-3.814987833896E-02));
#332 = CARTESIAN_POINT('',(4.28399045849,-3.814987833896E-02));
#333 = CARTESIAN_POINT('',(4.212593908767,-3.816183597733E-02));
#334 = CARTESIAN_POINT('',(4.141191440614,-3.816886445153E-02));
#335 = CARTESIAN_POINT('',(4.069787430007,-3.816635187771E-02));
#336 = CARTESIAN_POINT('',(3.998388140445,-3.815591043805E-02));
#337 = CARTESIAN_POINT('',(3.926990816987,-3.814699116231E-02));
#338 = CARTESIAN_POINT('',(3.855593493529,-3.815591043987E-02));
#339 = CARTESIAN_POINT('',(3.784194203969,-3.816635187046E-02));
#340 = CARTESIAN_POINT('',(3.712790193355,-3.81688644787E-02));
#341 = CARTESIAN_POINT('',(3.641387725227,-3.816183587596E-02));
#342 = CARTESIAN_POINT('',(3.56999117541,-3.814987871725E-02));
#343 = CARTESIAN_POINT('',(3.49859229537,-3.814987692714E-02));
#344 = CARTESIAN_POINT('',(3.427195744335,-3.81618412463E-02));
#345 = CARTESIAN_POINT('',(3.355793281078,-3.816884478745E-02));
#346 = CARTESIAN_POINT('',(3.284389252199,-3.816642526505E-02));
#347 = CARTESIAN_POINT('',(3.212990030828,-3.815563655271E-02));
#348 = CARTESIAN_POINT('',(3.165391645529,-3.815055439506E-02));
#349 = CARTESIAN_POINT('',(3.14159265359,-3.81499642545E-02));
#350 = ( GEOMETRIC_REPRESENTATION_CONTEXT(2) 
PARAMETRIC_REPRESENTATION_CONTEXT() REPRESENTATION_CONTEXT('2D SPACE',''
  ) );
#351 = ORIENTED_EDGE('',*,*,#255,.F.);
#352 = ORIENTED_EDGE('',*,*,#353,.T.);
#353 = EDGE_CURVE('',#154,#104,#354,.T.);
#354 = SURFACE_CURVE('',#355,(#374,#425),.PCURVE_S1.);
#355 = B_SPLINE_CURVE_WITH_KNOTS('',3,(#356,#357,#358,#359,#360,#361,
    #362,#363,#364,#365,#366,#367,#368,#369,#370,#371,#372,#373),
  .UNSPECIFIED.,.F.,.F.,(4,2,2,2,2,2,2,2,4),(0.,0.125,0.25,0.375,0.5,
    0.625,0.75,0.875,1.),.UNSPECIFIED.);
#356 = CARTESIAN_POINT('',(-2.965244213449E-04,21.75,-1.099781149685));
#357 = CARTESIAN_POINT('',(-0.144286187711,21.75,-1.099781149685));
#358 = CARTESIAN_POINT('',(-0.288219197217,21.75,-1.07115109402));
#359 = CARTESIAN_POINT('',(-0.554277402829,21.75,-0.960946176875));
#360 = CARTESIAN_POINT('',(-0.676297916394,21.75,-0.879414676323));
#361 = CARTESIAN_POINT('',(-0.879930051059,21.75,-0.675782541657));
#362 = CARTESIAN_POINT('',(-0.961461551611,21.75,-0.553762028093));
#363 = CARTESIAN_POINT('',(-1.071666468756,21.75,-0.28770382248));
#364 = CARTESIAN_POINT('',(-1.100296524421,21.75,-0.143770812975));
#365 = CARTESIAN_POINT('',(-1.100296524421,21.75,0.144208513605));
#366 = CARTESIAN_POINT('',(-1.071666468756,21.75,0.28814152311));
#367 = CARTESIAN_POINT('',(-0.961461551611,21.75,0.554199728723));
#368 = CARTESIAN_POINT('',(-0.879930051059,21.75,0.676220242287));
#369 = CARTESIAN_POINT('',(-0.676297916394,21.75,0.879852376953));
#370 = CARTESIAN_POINT('',(-0.554277402829,21.75,0.961383877505));
#371 = CARTESIAN_POINT('',(-0.288219197217,21.75,1.07158879465));
#372 = CARTESIAN_POINT('',(-0.144286187711,21.75,1.100218850315));
#373 = CARTESIAN_POINT('',(-2.965244213457E-04,21.75,1.100218850315));
#374 = PCURVE('',#119,#375);
#375 = DEFINITIONAL_REPRESENTATION('',(#376),#424);
#376 = B_SPLINE_CURVE_WITH_KNOTS('',3,(#377,#378,#379,#380,#381,#382,
    #383,#384,#385,#386,#387,#388,#389,#390,#391,#392,#393,#394,#395,
    #396,#397,#398,#399,#400,#401,#402,#403,#404,#405,#406,#407,#408,
    #409,#410,#411,#412,#413,#414,#415,#416,#417,#418,#419,#420,#421,
    #422,#423),.UNSPECIFIED.,.F.,.F.,(4,1,1,1,1,1,1,1,1,1,1,1,1,1,1,1,1,
    1,1,1,1,1,1,1,1,1,1,1,1,1,1,1,1,1,1,1,1,1,1,1,1,1,1,1,4),(0.,
    2.272727272727E-02,4.545454545455E-02,6.818181818182E-02,
    9.090909090909E-02,0.113636363636,0.136363636364,0.159090909091,
    0.181818181818,0.204545454545,0.227272727273,0.25,0.272727272727,
    0.295454545455,0.318181818182,0.340909090909,0.363636363636,
    0.386363636364,0.409090909091,0.431818181818,0.454545454545,
    0.477272727273,0.5,0.522727272727,0.545454545455,0.568181818182,
    0.590909090909,0.613636363636,0.636363636364,0.659090909091,
    0.681818181818,0.704545454545,0.727272727273,0.75,0.772727272727,
    0.795454545455,0.818181818182,0.840909090909,0.863636363636,
    0.886363636364,0.909090909091,0.931818181818,0.954545454545,
    0.977272727273,1.),.QUASI_UNIFORM_KNOTS.);
#377 = CARTESIAN_POINT('',(3.14159265359,-0.186602540378));
#378 = CARTESIAN_POINT('',(3.165391645529,-0.186603109923));
#379 = CARTESIAN_POINT('',(3.212990030828,-0.186608014716));
#380 = CARTESIAN_POINT('',(3.284389252199,-0.186618426907));
#381 = CARTESIAN_POINT('',(3.355793281078,-0.186620761989));
#382 = CARTESIAN_POINT('',(3.427195744335,-0.186614002868));
#383 = CARTESIAN_POINT('',(3.49859229537,-0.186602456099));
#384 = CARTESIAN_POINT('',(3.56999117541,-0.186602457826));
#385 = CARTESIAN_POINT('',(3.641387725227,-0.186613997685));
#386 = CARTESIAN_POINT('',(3.712790193355,-0.186620780993));
#387 = CARTESIAN_POINT('',(3.784194203969,-0.186618356074));
#388 = CARTESIAN_POINT('',(3.855593493529,-0.186608279045));
#389 = CARTESIAN_POINT('',(3.926990816987,-0.186599671046));
#390 = CARTESIAN_POINT('',(3.998388140445,-0.186608279043));
#391 = CARTESIAN_POINT('',(4.069787430007,-0.186618356081));
#392 = CARTESIAN_POINT('',(4.141191440614,-0.186620780967));
#393 = CARTESIAN_POINT('',(4.212593908767,-0.186613997783));
#394 = CARTESIAN_POINT('',(4.28399045849,-0.186602457461));
#395 = CARTESIAN_POINT('',(4.355389338882,-0.186602457461));
#396 = CARTESIAN_POINT('',(4.426785888605,-0.186613997783));
#397 = CARTESIAN_POINT('',(4.498188356758,-0.186620780967));
#398 = CARTESIAN_POINT('',(4.569592367365,-0.186618356081));
#399 = CARTESIAN_POINT('',(4.640991656927,-0.186608279043));
#400 = CARTESIAN_POINT('',(4.712388980385,-0.186599671046));
#401 = CARTESIAN_POINT('',(4.783786303843,-0.186608279043));
#402 = CARTESIAN_POINT('',(4.855185593404,-0.186618356081));
#403 = CARTESIAN_POINT('',(4.926589604012,-0.186620780967));
#404 = CARTESIAN_POINT('',(4.997992072165,-0.186613997783));
#405 = CARTESIAN_POINT('',(5.069388621888,-0.186602457461));
#406 = CARTESIAN_POINT('',(5.140787502279,-0.186602457461));
#407 = CARTESIAN_POINT('',(5.212184052002,-0.186613997783));
#408 = CARTESIAN_POINT('',(5.283586520155,-0.186620780967));
#409 = CARTESIAN_POINT('',(5.354990530763,-0.186618356081));
#410 = CARTESIAN_POINT('',(5.426389820324,-0.186608279043));
#411 = CARTESIAN_POINT('',(5.497787143782,-0.186599671046));
#412 = CARTESIAN_POINT('',(5.569184467241,-0.186608279045));
#413 = CARTESIAN_POINT('',(5.6405837568,-0.186618356074));
#414 = CARTESIAN_POINT('',(5.711987767414,-0.186620780993));
#415 = CARTESIAN_POINT('',(5.783390235542,-0.186613997685));
#416 = CARTESIAN_POINT('',(5.854786785359,-0.186602457826));
#417 = CARTESIAN_POINT('',(5.926185665399,-0.186602456099));
#418 = CARTESIAN_POINT('',(5.997582216434,-0.186614002868));
#419 = CARTESIAN_POINT('',(6.068984679691,-0.186620761989));
#420 = CARTESIAN_POINT('',(6.14038870857,-0.186618426907));
#421 = CARTESIAN_POINT('',(6.211787929942,-0.186608014716));
#422 = CARTESIAN_POINT('',(6.25938631524,-0.186603109923));
#423 = CARTESIAN_POINT('',(6.28318530718,-0.186602540378));
#424 = ( GEOMETRIC_REPRESENTATION_CONTEXT(2) 
PARAMETRIC_REPRESENTATION_CONTEXT() REPRESENTATION_CONTEXT('2D SPACE',''
  ) );
#425 = PCURVE('',#228,#426);
#426 = DEFINITIONAL_REPRESENTATION('',(#427),#446);
#427 = B_SPLINE_CURVE_WITH_KNOTS('',3,(#428,#429,#430,#431,#432,#433,
    #434,#435,#436,#437,#438,#439,#440,#441,#442,#443,#444,#445),
  .UNSPECIFIED.,.F.,.F.,(4,2,2,2,2,2,2,2,4),(0.,0.125,0.25,0.375,0.5,
    0.625,0.75,0.875,1.),.UNSPECIFIED.);
#428 = CARTESIAN_POINT('',(0.825,1.1));
#429 = CARTESIAN_POINT('',(0.96898966329,1.1));
#430 = CARTESIAN_POINT('',(1.112922672795,1.071369944335));
#431 = CARTESIAN_POINT('',(1.378980878408,0.96116502719));
#432 = CARTESIAN_POINT('',(1.501001391972,0.879633526638));
#433 = CARTESIAN_POINT('',(1.704633526638,0.676001391972));
#434 = CARTESIAN_POINT('',(1.78616502719,0.553980878408));
#435 = CARTESIAN_POINT('',(1.896369944335,0.287922672795));
#436 = CARTESIAN_POINT('',(1.925,0.14398966329));
#437 = CARTESIAN_POINT('',(1.925,-0.14398966329));
#438 = CARTESIAN_POINT('',(1.896369944335,-0.287922672795));
#439 = CARTESIAN_POINT('',(1.78616502719,-0.553980878408));
#440 = CARTESIAN_POINT('',(1.704633526638,-0.676001391972));
#441 = CARTESIAN_POINT('',(1.501001391972,-0.879633526638));
#442 = CARTESIAN_POINT('',(1.378980878408,-0.96116502719));
#443 = CARTESIAN_POINT('',(1.112922672795,-1.071369944335));
#444 = CARTESIAN_POINT('',(0.96898966329,-1.1));
#445 = CARTESIAN_POINT('',(0.825,-1.1));
#446 = ( GEOMETRIC_REPRESENTATION_CONTEXT(2) 
PARAMETRIC_REPRESENTATION_CONTEXT() REPRESENTATION_CONTEXT('2D SPACE',''
  ) );
#447 = ADVANCED_FACE('',(#448,#526),#228,.T.);
#448 = FACE_BOUND('',#449,.T.);
#449 = EDGE_LOOP('',(#450,#490));
#450 = ORIENTED_EDGE('',*,*,#451,.T.);
#451 = EDGE_CURVE('',#452,#454,#456,.T.);
#452 = VERTEX_POINT('',#453);
#453 = CARTESIAN_POINT('',(-2.965244213455E-04,21.75,0.825218850315));
#454 = VERTEX_POINT('',#455);
#455 = CARTESIAN_POINT('',(-2.96524421345E-04,21.75,-0.824781149685));
#456 = SURFACE_CURVE('',#457,(#472),.PCURVE_S1.);
#457 = B_SPLINE_CURVE_WITH_KNOTS('',3,(#458,#459,#460,#461,#462,#463,
    #464,#465,#466,#467,#468,#469,#470,#471),.UNSPECIFIED.,.F.,.F.,(4,2,
    2,2,2,2,4),(0.,0.125,0.25,0.5,0.75,0.875,1.),.UNSPECIFIED.);
#458 = CARTESIAN_POINT('',(-2.965244213455E-04,21.75,0.825218850315));
#459 = CARTESIAN_POINT('',(0.108914383245,21.75,0.825218850315));
#460 = CARTESIAN_POINT('',(0.214654204903,21.75,0.804078229065));
#461 = CARTESIAN_POINT('',(0.416180409657,21.75,0.720760700209));
#462 = CARTESIAN_POINT('',(0.505915721099,21.75,0.660629994472));
#463 = CARTESIAN_POINT('',(0.737368267976,21.75,0.429485845438));
#464 = CARTESIAN_POINT('',(0.824558095441,21.75,0.218289024071));
#465 = CARTESIAN_POINT('',(0.824848855716,21.75,-0.217851323441));
#466 = CARTESIAN_POINT('',(0.737162669414,21.75,-0.428842546246));
#467 = CARTESIAN_POINT('',(0.506018520379,21.75,-0.660295093123));
#468 = CARTESIAN_POINT('',(0.416301112122,21.75,-0.720115506888));
#469 = CARTESIAN_POINT('',(0.214533502437,21.75,-0.803848021126));
#470 = CARTESIAN_POINT('',(0.109295558537,21.75,-0.824781149685));
#471 = CARTESIAN_POINT('',(-2.96524421345E-04,21.75,-0.824781149685));
#472 = PCURVE('',#228,#473);
#473 = DEFINITIONAL_REPRESENTATION('',(#474),#489);
#474 = B_SPLINE_CURVE_WITH_KNOTS('',3,(#475,#476,#477,#478,#479,#480,
    #481,#482,#483,#484,#485,#486,#487,#488),.UNSPECIFIED.,.F.,.F.,(4,2,
    2,2,2,2,4),(0.,0.125,0.25,0.5,0.75,0.875,1.),.UNSPECIFIED.);
#475 = CARTESIAN_POINT('',(0.825,-0.825));
#476 = CARTESIAN_POINT('',(0.715789092333,-0.825));
#477 = CARTESIAN_POINT('',(0.610049270676,-0.80385937875));
#478 = CARTESIAN_POINT('',(0.408523065922,-0.720541849894));
#479 = CARTESIAN_POINT('',(0.31878775448,-0.660411144157));
#480 = CARTESIAN_POINT('',(8.733520760307E-02,-0.429266995123));
#481 = CARTESIAN_POINT('',(1.453801373679E-04,-0.218070173756));
#482 = CARTESIAN_POINT('',(-1.453801373682E-04,0.218070173756));
#483 = CARTESIAN_POINT('',(8.754080616494E-02,0.429061396561));
#484 = CARTESIAN_POINT('',(0.318684955199,0.660513943438));
#485 = CARTESIAN_POINT('',(0.408402363456,0.720334357203));
#486 = CARTESIAN_POINT('',(0.610169973141,0.804066871441));
#487 = CARTESIAN_POINT('',(0.715407917042,0.825));
#488 = CARTESIAN_POINT('',(0.825,0.825));
#489 = ( GEOMETRIC_REPRESENTATION_CONTEXT(2) 
PARAMETRIC_REPRESENTATION_CONTEXT() REPRESENTATION_CONTEXT('2D SPACE',''
  ) );
#490 = ORIENTED_EDGE('',*,*,#491,.T.);
#491 = EDGE_CURVE('',#454,#452,#492,.T.);
#492 = SURFACE_CURVE('',#493,(#508),.PCURVE_S1.);
#493 = B_SPLINE_CURVE_WITH_KNOTS('',3,(#494,#495,#496,#497,#498,#499,
    #500,#501,#502,#503,#504,#505,#506,#507),.UNSPECIFIED.,.F.,.F.,(4,2,
    2,2,2,2,4),(0.,0.125,0.25,0.5,0.75,0.875,1.),.UNSPECIFIED.);
#494 = CARTESIAN_POINT('',(-2.96524421345E-04,21.75,-0.824781149685));
#495 = CARTESIAN_POINT('',(-0.109507432088,21.75,-0.824781149685));
#496 = CARTESIAN_POINT('',(-0.215247253746,21.75,-0.803640528435));
#497 = CARTESIAN_POINT('',(-0.416773458499,21.75,-0.720322999579));
#498 = CARTESIAN_POINT('',(-0.506508769941,21.75,-0.660192293842));
#499 = CARTESIAN_POINT('',(-0.737961316818,21.75,-0.429048144808));
#500 = CARTESIAN_POINT('',(-0.825151144284,21.75,-0.217851323441));
#501 = CARTESIAN_POINT('',(-0.825441904559,21.75,0.218289024071));
#502 = CARTESIAN_POINT('',(-0.737755718256,21.75,0.429280246876));
#503 = CARTESIAN_POINT('',(-0.506611569222,21.75,0.660732793753));
#504 = CARTESIAN_POINT('',(-0.416894160965,21.75,0.720553207518));
#505 = CARTESIAN_POINT('',(-0.21512655128,21.75,0.804285721756));
#506 = CARTESIAN_POINT('',(-0.10988860738,21.75,0.825218850315));
#507 = CARTESIAN_POINT('',(-2.965244213455E-04,21.75,0.825218850315));
#508 = PCURVE('',#228,#509);
#509 = DEFINITIONAL_REPRESENTATION('',(#510),#525);
#510 = B_SPLINE_CURVE_WITH_KNOTS('',3,(#511,#512,#513,#514,#515,#516,
    #517,#518,#519,#520,#521,#522,#523,#524),.UNSPECIFIED.,.F.,.F.,(4,2,
    2,2,2,2,4),(0.,0.125,0.25,0.5,0.75,0.875,1.),.UNSPECIFIED.);
#511 = CARTESIAN_POINT('',(0.825,0.825));
#512 = CARTESIAN_POINT('',(0.934210907667,0.825));
#513 = CARTESIAN_POINT('',(1.039950729324,0.80385937875));
#514 = CARTESIAN_POINT('',(1.241476934078,0.720541849894));
#515 = CARTESIAN_POINT('',(1.33121224552,0.660411144157));
#516 = CARTESIAN_POINT('',(1.562664792397,0.429266995123));
#517 = CARTESIAN_POINT('',(1.649854619863,0.218070173756));
#518 = CARTESIAN_POINT('',(1.650145380137,-0.218070173756));
#519 = CARTESIAN_POINT('',(1.562459193835,-0.429061396561));
#520 = CARTESIAN_POINT('',(1.331315044801,-0.660513943438));
#521 = CARTESIAN_POINT('',(1.241597636544,-0.720334357203));
#522 = CARTESIAN_POINT('',(1.039830026859,-0.804066871441));
#523 = CARTESIAN_POINT('',(0.934592082958,-0.825));
#524 = CARTESIAN_POINT('',(0.825,-0.825));
#525 = ( GEOMETRIC_REPRESENTATION_CONTEXT(2) 
PARAMETRIC_REPRESENTATION_CONTEXT() REPRESENTATION_CONTEXT('2D SPACE',''
  ) );
#526 = FACE_BOUND('',#527,.T.);
#527 = EDGE_LOOP('',(#528,#529));
#528 = ORIENTED_EDGE('',*,*,#353,.F.);
#529 = ORIENTED_EDGE('',*,*,#153,.F.);
#530 = ( GEOMETRIC_REPRESENTATION_CONTEXT(3) 
GLOBAL_UNCERTAINTY_ASSIGNED_CONTEXT((#534)) GLOBAL_UNIT_ASSIGNED_CONTEXT
((#531,#532,#533)) REPRESENTATION_CONTEXT('Context #1',
  '3D Context with UNIT and UNCERTAINTY') );
#531 = ( LENGTH_UNIT() NAMED_UNIT(*) SI_UNIT(.MILLI.,.METRE.) );
#532 = ( NAMED_UNIT(*) PLANE_ANGLE_UNIT() SI_UNIT($,.RADIAN.) );
#533 = ( NAMED_UNIT(*) SI_UNIT($,.STERADIAN.) SOLID_ANGLE_UNIT() );
#534 = UNCERTAINTY_MEASURE_WITH_UNIT(LENGTH_MEASURE(5.E-05),#531,
  'distance_accuracy_value','confusion accuracy');
#535 = PRODUCT_RELATED_PRODUCT_CATEGORY('part',$,(#7));
ENDSEC;
END-ISO-10303-21;
