ISO-10303-21;
HEADER;
FILE_DESCRIPTION(('Open CASCADE Model'),'2;1');
FILE_NAME('Open CASCADE Shape Model','2026-03-14T15:57:21',('Author'),(
    'Open CASCADE'),'Open CASCADE STEP processor 7.8','build123d',
  'Unknown');
FILE_SCHEMA(('AUTOMOTIVE_DESIGN { 1 0 10303 214 1 1 1 1 }'));
ENDSEC;
DATA;
#1 = APPLICATION_PROTOCOL_DEFINITION('international standard',
  'automotive_design',2000,#2);
#2 = APPLICATION_CONTEXT(
  'core data for automotive mechanical design processes');
#3 = SHAPE_DEFINITION_REPRESENTATION(#4,#10);
#4 = PRODUCT_DEFINITION_SHAPE('','',#5);
#5 = PRODUCT_DEFINITION('design','',#6,#9);
#6 = PRODUCT_DEFINITION_FORMATION('','',#7);
#7 = PRODUCT('SHELL','SHELL','',(#8));
#8 = PRODUCT_CONTEXT('',#2,'mechanical');
#9 = PRODUCT_DEFINITION_CONTEXT('part definition',#2,'design');
#10 = MANIFOLD_SURFACE_SHAPE_REPRESENTATION('',(#11,#15),#316);
#11 = AXIS2_PLACEMENT_3D('',#12,#13,#14);
#12 = CARTESIAN_POINT('',(0.,0.,0.));
#13 = DIRECTION('',(0.,0.,1.));
#14 = DIRECTION('',(1.,0.,-0.));
#15 = SHELL_BASED_SURFACE_MODEL('',(#16));
#16 = OPEN_SHELL('',(#17,#206,#311));
#17 = ADVANCED_FACE('',(#18),#39,.T.);
#18 = FACE_BOUND('',#19,.T.);
#19 = EDGE_LOOP('',(#20,#72,#122,#186));
#20 = ORIENTED_EDGE('',*,*,#21,.T.);
#21 = EDGE_CURVE('',#22,#24,#26,.T.);
#22 = VERTEX_POINT('',#23);
#23 = CARTESIAN_POINT('',(2.825967213347,18.88,-0.399493771464));
#24 = VERTEX_POINT('',#25);
#25 = CARTESIAN_POINT('',(2.866202847359,18.88,0.399493771464));
#26 = SURFACE_CURVE('',#27,(#38),.PCURVE_S1.);
#27 = B_SPLINE_CURVE_WITH_KNOTS('',3,(#28,#29,#30,#31,#32,#33,#34,#35,
    #36,#37),.UNSPECIFIED.,.F.,.F.,(4,2,2,2,4),(0.,0.25,0.5,0.75,1.),
  .UNSPECIFIED.);
#28 = CARTESIAN_POINT('',(2.825967213347,18.88,-0.399493771464));
#29 = CARTESIAN_POINT('',(2.721379988548,18.88,-0.394226939288));
#30 = CARTESIAN_POINT('',(2.619604953815,18.88,-0.345937858645));
#31 = CARTESIAN_POINT('',(2.479144707547,18.88,-0.190580761389));
#32 = CARTESIAN_POINT('',(2.441324426713,18.88,-8.446940779309E-02));
#33 = CARTESIAN_POINT('',(2.451858091065,18.88,0.124705041805));
#34 = CARTESIAN_POINT('',(2.500147171708,18.88,0.226480076538));
#35 = CARTESIAN_POINT('',(2.655504268964,18.88,0.366940322806));
#36 = CARTESIAN_POINT('',(2.76161562256,18.88,0.40476060364));
#37 = CARTESIAN_POINT('',(2.866202847359,18.88,0.399493771464));
#38 = PCURVE('',#39,#44);
#39 = CONICAL_SURFACE('',#40,0.25,0.785398163397);
#40 = AXIS2_PLACEMENT_3D('',#41,#42,#43);
#41 = CARTESIAN_POINT('',(2.846085030353,19.03,1.733261230728E-15));
#42 = DIRECTION('',(1.393758570794E-16,-1.,-7.018727669979E-18));
#43 = DIRECTION('',(5.029454251471E-02,-9.244463733059E-33,
    0.998734428661));
#44 = DEFINITIONAL_REPRESENTATION('',(#45),#71);
#45 = B_SPLINE_CURVE_WITH_KNOTS('',3,(#46,#47,#48,#49,#50,#51,#52,#53,
    #54,#55,#56,#57,#58,#59,#60,#61,#62,#63,#64,#65,#66,#67,#68,#69,#70)
  ,.UNSPECIFIED.,.F.,.F.,(4,1,1,1,1,1,1,1,1,1,1,1,1,1,1,1,1,1,1,1,1,1,4)
  ,(0.,4.545454545455E-02,9.090909090909E-02,0.136363636364,
    0.181818181818,0.227272727273,0.272727272727,0.318181818182,
    0.363636363636,0.409090909091,0.454545454545,0.5,0.545454545455,
    0.590909090909,0.636363636364,0.681818181818,0.727272727273,
    0.772727272727,0.818181818182,0.863636363636,0.909090909091,
    0.954545454545,1.),.QUASI_UNIFORM_KNOTS.);
#46 = CARTESIAN_POINT('',(3.14159265359,0.15));
#47 = CARTESIAN_POINT('',(3.094022633669,0.149994267515));
#48 = CARTESIAN_POINT('',(2.998870418291,0.149938135915));
#49 = CARTESIAN_POINT('',(2.856090802868,0.149817045006));
#50 = CARTESIAN_POINT('',(2.713157723295,0.14978919841));
#51 = CARTESIAN_POINT('',(2.570274928939,0.149869123918));
#52 = CARTESIAN_POINT('',(2.427579622073,0.150001334243));
#53 = CARTESIAN_POINT('',(2.284809352156,0.150001316854));
#54 = CARTESIAN_POINT('',(2.142114082224,0.149869176084));
#55 = CARTESIAN_POINT('',(1.999231140135,0.149789007134));
#56 = CARTESIAN_POINT('',(1.856298614556,0.149817757944));
#57 = CARTESIAN_POINT('',(1.713516930892,0.149935475439));
#58 = CARTESIAN_POINT('',(1.570796326795,0.150032262281));
#59 = CARTESIAN_POINT('',(1.428075722698,0.149935475439));
#60 = CARTESIAN_POINT('',(1.285294039034,0.149817757944));
#61 = CARTESIAN_POINT('',(1.142361513454,0.149789007134));
#62 = CARTESIAN_POINT('',(0.999478571366,0.149869176084));
#63 = CARTESIAN_POINT('',(0.856783301434,0.150001316854));
#64 = CARTESIAN_POINT('',(0.714013031517,0.150001334243));
#65 = CARTESIAN_POINT('',(0.571317724651,0.149869123918));
#66 = CARTESIAN_POINT('',(0.428434930295,0.14978919841));
#67 = CARTESIAN_POINT('',(0.285501850722,0.149817045006));
#68 = CARTESIAN_POINT('',(0.142722235299,0.149938135915));
#69 = CARTESIAN_POINT('',(4.757001992097E-02,0.149994267515));
#70 = CARTESIAN_POINT('',(0.,0.15));
#71 = ( GEOMETRIC_REPRESENTATION_CONTEXT(2) 
PARAMETRIC_REPRESENTATION_CONTEXT() REPRESENTATION_CONTEXT('2D SPACE',''
  ) );
#72 = ORIENTED_EDGE('',*,*,#73,.T.);
#73 = EDGE_CURVE('',#24,#74,#76,.T.);
#74 = VERTEX_POINT('',#75);
#75 = CARTESIAN_POINT('',(2.858658665982,19.03,0.249683607165));
#76 = SURFACE_CURVE('',#77,(#82,#88),.PCURVE_S1.);
#77 = B_SPLINE_CURVE_WITH_KNOTS('',3,(#78,#79,#80,#81),.UNSPECIFIED.,.F.
  ,.F.,(4,4),(0.,1.),.PIECEWISE_BEZIER_KNOTS.);
#78 = CARTESIAN_POINT('',(2.866202847359,18.88,0.399493771464));
#79 = CARTESIAN_POINT('',(2.863688120233,18.93,0.349557050031));
#80 = CARTESIAN_POINT('',(2.861173393108,18.98,0.299620328598));
#81 = CARTESIAN_POINT('',(2.858658665982,19.03,0.249683607165));
#82 = PCURVE('',#39,#83);
#83 = DEFINITIONAL_REPRESENTATION('',(#84),#87);
#84 = B_SPLINE_CURVE_WITH_KNOTS('',1,(#85,#86),.UNSPECIFIED.,.F.,.F.,(2,
    2),(0.,1.),.PIECEWISE_BEZIER_KNOTS.);
#85 = CARTESIAN_POINT('',(0.,0.15));
#86 = CARTESIAN_POINT('',(0.,-2.914335439641E-16));
#87 = ( GEOMETRIC_REPRESENTATION_CONTEXT(2) 
PARAMETRIC_REPRESENTATION_CONTEXT() REPRESENTATION_CONTEXT('2D SPACE',''
  ) );
#88 = PCURVE('',#89,#94);
#89 = CONICAL_SURFACE('',#90,0.25,0.785398163397);
#90 = AXIS2_PLACEMENT_3D('',#91,#92,#93);
#91 = CARTESIAN_POINT('',(2.846085030353,19.03,1.733261230728E-15));
#92 = DIRECTION('',(1.393758570794E-16,-1.,-7.018727669979E-18));
#93 = DIRECTION('',(5.029454251471E-02,-9.244463733059E-33,
    0.998734428661));
#94 = DEFINITIONAL_REPRESENTATION('',(#95),#121);
#95 = B_SPLINE_CURVE_WITH_KNOTS('',3,(#96,#97,#98,#99,#100,#101,#102,
    #103,#104,#105,#106,#107,#108,#109,#110,#111,#112,#113,#114,#115,
    #116,#117,#118,#119,#120),.UNSPECIFIED.,.F.,.F.,(4,1,1,1,1,1,1,1,1,1
    ,1,1,1,1,1,1,1,1,1,1,1,1,4),(0.,4.545454545455E-02,
    9.090909090909E-02,0.136363636364,0.181818181818,0.227272727273,
    0.272727272727,0.318181818182,0.363636363636,0.409090909091,
    0.454545454545,0.5,0.545454545455,0.590909090909,0.636363636364,
    0.681818181818,0.727272727273,0.772727272727,0.818181818182,
    0.863636363636,0.909090909091,0.954545454545,1.),
  .QUASI_UNIFORM_KNOTS.);
#96 = CARTESIAN_POINT('',(6.28318530718,0.15));
#97 = CARTESIAN_POINT('',(6.28318530718,0.147727272727));
#98 = CARTESIAN_POINT('',(6.28318530718,0.143181818182));
#99 = CARTESIAN_POINT('',(6.28318530718,0.136363636364));
#100 = CARTESIAN_POINT('',(6.28318530718,0.129545454545));
#101 = CARTESIAN_POINT('',(6.28318530718,0.122727272727));
#102 = CARTESIAN_POINT('',(6.28318530718,0.115909090909));
#103 = CARTESIAN_POINT('',(6.28318530718,0.109090909091));
#104 = CARTESIAN_POINT('',(6.28318530718,0.102272727273));
#105 = CARTESIAN_POINT('',(6.28318530718,9.545454545454E-02));
#106 = CARTESIAN_POINT('',(6.28318530718,8.863636363636E-02));
#107 = CARTESIAN_POINT('',(6.28318530718,8.181818181818E-02));
#108 = CARTESIAN_POINT('',(6.28318530718,7.5E-02));
#109 = CARTESIAN_POINT('',(6.28318530718,6.818181818182E-02));
#110 = CARTESIAN_POINT('',(6.28318530718,6.136363636363E-02));
#111 = CARTESIAN_POINT('',(6.28318530718,5.454545454545E-02));
#112 = CARTESIAN_POINT('',(6.28318530718,4.772727272727E-02));
#113 = CARTESIAN_POINT('',(6.28318530718,4.090909090909E-02));
#114 = CARTESIAN_POINT('',(6.28318530718,3.409090909091E-02));
#115 = CARTESIAN_POINT('',(6.28318530718,2.727272727272E-02));
#116 = CARTESIAN_POINT('',(6.28318530718,2.045454545455E-02));
#117 = CARTESIAN_POINT('',(6.28318530718,1.363636363636E-02));
#118 = CARTESIAN_POINT('',(6.28318530718,6.81818181818E-03));
#119 = CARTESIAN_POINT('',(6.28318530718,2.272727272726E-03));
#120 = CARTESIAN_POINT('',(6.28318530718,-2.860767899177E-16));
#121 = ( GEOMETRIC_REPRESENTATION_CONTEXT(2) 
PARAMETRIC_REPRESENTATION_CONTEXT() REPRESENTATION_CONTEXT('2D SPACE',''
  ) );
#122 = ORIENTED_EDGE('',*,*,#123,.T.);
#123 = EDGE_CURVE('',#74,#124,#126,.T.);
#124 = VERTEX_POINT('',#125);
#125 = CARTESIAN_POINT('',(2.833511394724,19.03,-0.249683607165));
#126 = SURFACE_CURVE('',#127,(#138,#167),.PCURVE_S1.);
#127 = B_SPLINE_CURVE_WITH_KNOTS('',3,(#128,#129,#130,#131,#132,#133,
    #134,#135,#136,#137),.UNSPECIFIED.,.F.,.F.,(4,2,2,2,4),(0.,0.25,0.5,
    0.75,1.),.UNSPECIFIED.);
#128 = CARTESIAN_POINT('',(2.858658665982,19.03,0.249683607165));
#129 = CARTESIAN_POINT('',(2.793291650482,19.03,0.252975377275));
#130 = CARTESIAN_POINT('',(2.726972054485,19.03,0.229337701754));
#131 = CARTESIAN_POINT('',(2.6298738687,19.03,0.141550047836));
#132 = CARTESIAN_POINT('',(2.599693193298,19.03,7.794065112804E-02));
#133 = CARTESIAN_POINT('',(2.593109653078,19.03,-5.279337987068E-02));
#134 = CARTESIAN_POINT('',(2.6167473286,19.03,-0.119112975868));
#135 = CARTESIAN_POINT('',(2.704534982517,19.03,-0.216211161653));
#136 = CARTESIAN_POINT('',(2.768144379225,19.03,-0.246391837055));
#137 = CARTESIAN_POINT('',(2.833511394724,19.03,-0.249683607165));
#138 = PCURVE('',#39,#139);
#139 = DEFINITIONAL_REPRESENTATION('',(#140),#166);
#140 = B_SPLINE_CURVE_WITH_KNOTS('',3,(#141,#142,#143,#144,#145,#146,
    #147,#148,#149,#150,#151,#152,#153,#154,#155,#156,#157,#158,#159,
    #160,#161,#162,#163,#164,#165),.UNSPECIFIED.,.F.,.F.,(4,1,1,1,1,1,1,
    1,1,1,1,1,1,1,1,1,1,1,1,1,1,1,4),(0.,4.545454545455E-02,
    9.090909090909E-02,0.136363636364,0.181818181818,0.227272727273,
    0.272727272727,0.318181818182,0.363636363636,0.409090909091,
    0.454545454545,0.5,0.545454545455,0.590909090909,0.636363636364,
    0.681818181818,0.727272727273,0.772727272727,0.818181818182,
    0.863636363636,0.909090909091,0.954545454545,1.),
  .QUASI_UNIFORM_KNOTS.);
#141 = CARTESIAN_POINT('',(0.,-2.860767899177E-16));
#142 = CARTESIAN_POINT('',(4.757001992098E-02,-3.582803104836E-06));
#143 = CARTESIAN_POINT('',(0.142722235299,-3.866505340392E-05));
#144 = CARTESIAN_POINT('',(0.285501850722,-1.143468713246E-04));
#145 = CARTESIAN_POINT('',(0.428434930295,-1.317509939975E-04));
#146 = CARTESIAN_POINT('',(0.571317724651,-8.179755142965E-05));
#147 = CARTESIAN_POINT('',(0.714013031517,8.339018261633E-07));
#148 = CARTESIAN_POINT('',(0.856783301434,8.230338721087E-07));
#149 = CARTESIAN_POINT('',(0.999478571366,-8.176494755575E-05));
#150 = CARTESIAN_POINT('',(1.142361513454,-1.318705415179E-04));
#151 = CARTESIAN_POINT('',(1.285294039034,-1.139012850977E-04));
#152 = CARTESIAN_POINT('',(1.428075722698,-4.032785080201E-05));
#153 = CARTESIAN_POINT('',(1.570796326795,2.016392539804E-05));
#154 = CARTESIAN_POINT('',(1.713516930892,-4.032785080204E-05));
#155 = CARTESIAN_POINT('',(1.856298614556,-1.139012850974E-04));
#156 = CARTESIAN_POINT('',(1.999231140135,-1.318705415224E-04));
#157 = CARTESIAN_POINT('',(2.142114082224,-8.176494755971E-05));
#158 = CARTESIAN_POINT('',(2.284809352156,8.230338696618E-07));
#159 = CARTESIAN_POINT('',(2.427579622073,8.339018270099E-07));
#160 = CARTESIAN_POINT('',(2.570274928939,-8.179755143059E-05));
#161 = CARTESIAN_POINT('',(2.713157723295,-1.317509939967E-04));
#162 = CARTESIAN_POINT('',(2.856090802868,-1.143468713277E-04));
#163 = CARTESIAN_POINT('',(2.998870418291,-3.866505340337E-05));
#164 = CARTESIAN_POINT('',(3.094022633669,-3.582803103746E-06));
#165 = CARTESIAN_POINT('',(3.14159265359,1.387778780781E-17));
#166 = ( GEOMETRIC_REPRESENTATION_CONTEXT(2) 
PARAMETRIC_REPRESENTATION_CONTEXT() REPRESENTATION_CONTEXT('2D SPACE',''
  ) );
#167 = PCURVE('',#168,#173);
#168 = PLANE('',#169);
#169 = AXIS2_PLACEMENT_3D('',#170,#171,#172);
#170 = CARTESIAN_POINT('',(2.846085030353,19.03,1.733261230728E-15));
#171 = DIRECTION('',(-1.397630861435E-16,1.,-6.707547012003E-19));
#172 = DIRECTION('',(1.,1.397630861435E-16,0.));
#173 = DEFINITIONAL_REPRESENTATION('',(#174),#185);
#174 = B_SPLINE_CURVE_WITH_KNOTS('',3,(#175,#176,#177,#178,#179,#180,
    #181,#182,#183,#184),.UNSPECIFIED.,.F.,.F.,(4,2,2,2,4),(0.,0.25,0.5,
    0.75,1.),.UNSPECIFIED.);
#175 = CARTESIAN_POINT('',(1.257363562868E-02,-0.249683607165));
#176 = CARTESIAN_POINT('',(-5.279337987068E-02,-0.252975377275));
#177 = CARTESIAN_POINT('',(-0.119112975868,-0.229337701754));
#178 = CARTESIAN_POINT('',(-0.216211161653,-0.141550047836));
#179 = CARTESIAN_POINT('',(-0.246391837055,-7.794065112804E-02));
#180 = CARTESIAN_POINT('',(-0.252975377275,5.279337987068E-02));
#181 = CARTESIAN_POINT('',(-0.229337701754,0.119112975868));
#182 = CARTESIAN_POINT('',(-0.141550047836,0.216211161653));
#183 = CARTESIAN_POINT('',(-7.794065112804E-02,0.246391837055));
#184 = CARTESIAN_POINT('',(-1.257363562868E-02,0.249683607165));
#185 = ( GEOMETRIC_REPRESENTATION_CONTEXT(2) 
PARAMETRIC_REPRESENTATION_CONTEXT() REPRESENTATION_CONTEXT('2D SPACE',''
  ) );
#186 = ORIENTED_EDGE('',*,*,#187,.T.);
#187 = EDGE_CURVE('',#124,#22,#188,.T.);
#188 = SURFACE_CURVE('',#189,(#194,#200),.PCURVE_S1.);
#189 = B_SPLINE_CURVE_WITH_KNOTS('',3,(#190,#191,#192,#193),
  .UNSPECIFIED.,.F.,.F.,(4,4),(0.,1.),.PIECEWISE_BEZIER_KNOTS.);
#190 = CARTESIAN_POINT('',(2.833511394724,19.03,-0.249683607165));
#191 = CARTESIAN_POINT('',(2.830996667599,18.98,-0.299620328598));
#192 = CARTESIAN_POINT('',(2.828481940473,18.93,-0.349557050031));
#193 = CARTESIAN_POINT('',(2.825967213347,18.88,-0.399493771464));
#194 = PCURVE('',#39,#195);
#195 = DEFINITIONAL_REPRESENTATION('',(#196),#199);
#196 = B_SPLINE_CURVE_WITH_KNOTS('',1,(#197,#198),.UNSPECIFIED.,.F.,.F.,
  (2,2),(0.,1.),.PIECEWISE_BEZIER_KNOTS.);
#197 = CARTESIAN_POINT('',(3.14159265359,1.387778780781E-17));
#198 = CARTESIAN_POINT('',(3.14159265359,0.15));
#199 = ( GEOMETRIC_REPRESENTATION_CONTEXT(2) 
PARAMETRIC_REPRESENTATION_CONTEXT() REPRESENTATION_CONTEXT('2D SPACE',''
  ) );
#200 = PCURVE('',#89,#201);
#201 = DEFINITIONAL_REPRESENTATION('',(#202),#205);
#202 = B_SPLINE_CURVE_WITH_KNOTS('',1,(#203,#204),.UNSPECIFIED.,.F.,.F.,
  (2,2),(0.,1.),.PIECEWISE_BEZIER_KNOTS.);
#203 = CARTESIAN_POINT('',(3.14159265359,1.387778780781E-17));
#204 = CARTESIAN_POINT('',(3.14159265359,0.15));
#205 = ( GEOMETRIC_REPRESENTATION_CONTEXT(2) 
PARAMETRIC_REPRESENTATION_CONTEXT() REPRESENTATION_CONTEXT('2D SPACE',''
  ) );
#206 = ADVANCED_FACE('',(#207),#89,.T.);
#207 = FACE_BOUND('',#208,.T.);
#208 = EDGE_LOOP('',(#209,#210,#253,#254));
#209 = ORIENTED_EDGE('',*,*,#73,.F.);
#210 = ORIENTED_EDGE('',*,*,#211,.T.);
#211 = EDGE_CURVE('',#24,#22,#212,.T.);
#212 = SURFACE_CURVE('',#213,(#224),.PCURVE_S1.);
#213 = B_SPLINE_CURVE_WITH_KNOTS('',3,(#214,#215,#216,#217,#218,#219,
    #220,#221,#222,#223),.UNSPECIFIED.,.F.,.F.,(4,2,2,2,4),(0.,0.25,0.5,
    0.75,1.),.UNSPECIFIED.);
#214 = CARTESIAN_POINT('',(2.866202847359,18.88,0.399493771464));
#215 = CARTESIAN_POINT('',(2.970790072158,18.88,0.394226939288));
#216 = CARTESIAN_POINT('',(3.072565106891,18.88,0.345937858645));
#217 = CARTESIAN_POINT('',(3.213025353159,18.88,0.190580761389));
#218 = CARTESIAN_POINT('',(3.250845633994,18.88,8.446940779309E-02));
#219 = CARTESIAN_POINT('',(3.240311969642,18.88,-0.124705041805));
#220 = CARTESIAN_POINT('',(3.192022888998,18.88,-0.226480076538));
#221 = CARTESIAN_POINT('',(3.036665791742,18.88,-0.366940322806));
#222 = CARTESIAN_POINT('',(2.930554438146,18.88,-0.40476060364));
#223 = CARTESIAN_POINT('',(2.825967213347,18.88,-0.399493771464));
#224 = PCURVE('',#89,#225);
#225 = DEFINITIONAL_REPRESENTATION('',(#226),#252);
#226 = B_SPLINE_CURVE_WITH_KNOTS('',3,(#227,#228,#229,#230,#231,#232,
    #233,#234,#235,#236,#237,#238,#239,#240,#241,#242,#243,#244,#245,
    #246,#247,#248,#249,#250,#251),.UNSPECIFIED.,.F.,.F.,(4,1,1,1,1,1,1,
    1,1,1,1,1,1,1,1,1,1,1,1,1,1,1,4),(0.,4.545454545455E-02,
    9.090909090909E-02,0.136363636364,0.181818181818,0.227272727273,
    0.272727272727,0.318181818182,0.363636363636,0.409090909091,
    0.454545454545,0.5,0.545454545455,0.590909090909,0.636363636364,
    0.681818181818,0.727272727273,0.772727272727,0.818181818182,
    0.863636363636,0.909090909091,0.954545454545,1.),
  .QUASI_UNIFORM_KNOTS.);
#227 = CARTESIAN_POINT('',(6.28318530718,0.15));
#228 = CARTESIAN_POINT('',(6.235615287259,0.149994267515));
#229 = CARTESIAN_POINT('',(6.140463071881,0.149938135915));
#230 = CARTESIAN_POINT('',(5.997683456457,0.149817045006));
#231 = CARTESIAN_POINT('',(5.854750376885,0.14978919841));
#232 = CARTESIAN_POINT('',(5.711867582528,0.149869123918));
#233 = CARTESIAN_POINT('',(5.569172275663,0.150001334243));
#234 = CARTESIAN_POINT('',(5.426402005746,0.150001316854));
#235 = CARTESIAN_POINT('',(5.283706735813,0.149869176084));
#236 = CARTESIAN_POINT('',(5.140823793725,0.149789007134));
#237 = CARTESIAN_POINT('',(4.997891268146,0.149817757944));
#238 = CARTESIAN_POINT('',(4.855109584482,0.149935475439));
#239 = CARTESIAN_POINT('',(4.712388980385,0.150032262281));
#240 = CARTESIAN_POINT('',(4.569668376287,0.149935475439));
#241 = CARTESIAN_POINT('',(4.426886692623,0.149817757944));
#242 = CARTESIAN_POINT('',(4.283954167044,0.149789007134));
#243 = CARTESIAN_POINT('',(4.141071224956,0.149869176084));
#244 = CARTESIAN_POINT('',(3.998375955023,0.150001316854));
#245 = CARTESIAN_POINT('',(3.855605685106,0.150001334243));
#246 = CARTESIAN_POINT('',(3.712910378241,0.149869123918));
#247 = CARTESIAN_POINT('',(3.570027583884,0.14978919841));
#248 = CARTESIAN_POINT('',(3.427094504312,0.149817045006));
#249 = CARTESIAN_POINT('',(3.284314888889,0.149938135915));
#250 = CARTESIAN_POINT('',(3.189162673511,0.149994267515));
#251 = CARTESIAN_POINT('',(3.14159265359,0.15));
#252 = ( GEOMETRIC_REPRESENTATION_CONTEXT(2) 
PARAMETRIC_REPRESENTATION_CONTEXT() REPRESENTATION_CONTEXT('2D SPACE',''
  ) );
#253 = ORIENTED_EDGE('',*,*,#187,.F.);
#254 = ORIENTED_EDGE('',*,*,#255,.T.);
#255 = EDGE_CURVE('',#124,#74,#256,.T.);
#256 = SURFACE_CURVE('',#257,(#268,#297),.PCURVE_S1.);
#257 = B_SPLINE_CURVE_WITH_KNOTS('',3,(#258,#259,#260,#261,#262,#263,
    #264,#265,#266,#267),.UNSPECIFIED.,.F.,.F.,(4,2,2,2,4),(0.,0.25,0.5,
    0.75,1.),.UNSPECIFIED.);
#258 = CARTESIAN_POINT('',(2.833511394724,19.03,-0.249683607165));
#259 = CARTESIAN_POINT('',(2.898878410224,19.03,-0.252975377275));
#260 = CARTESIAN_POINT('',(2.965198006221,19.03,-0.229337701754));
#261 = CARTESIAN_POINT('',(3.062296192006,19.03,-0.141550047836));
#262 = CARTESIAN_POINT('',(3.092476867408,19.03,-7.794065112804E-02));
#263 = CARTESIAN_POINT('',(3.099060407628,19.03,5.279337987068E-02));
#264 = CARTESIAN_POINT('',(3.075422732107,19.03,0.119112975868));
#265 = CARTESIAN_POINT('',(2.987635078189,19.03,0.216211161653));
#266 = CARTESIAN_POINT('',(2.924025681481,19.03,0.246391837055));
#267 = CARTESIAN_POINT('',(2.858658665982,19.03,0.249683607165));
#268 = PCURVE('',#89,#269);
#269 = DEFINITIONAL_REPRESENTATION('',(#270),#296);
#270 = B_SPLINE_CURVE_WITH_KNOTS('',3,(#271,#272,#273,#274,#275,#276,
    #277,#278,#279,#280,#281,#282,#283,#284,#285,#286,#287,#288,#289,
    #290,#291,#292,#293,#294,#295),.UNSPECIFIED.,.F.,.F.,(4,1,1,1,1,1,1,
    1,1,1,1,1,1,1,1,1,1,1,1,1,1,1,4),(0.,4.545454545455E-02,
    9.090909090909E-02,0.136363636364,0.181818181818,0.227272727273,
    0.272727272727,0.318181818182,0.363636363636,0.409090909091,
    0.454545454545,0.5,0.545454545455,0.590909090909,0.636363636364,
    0.681818181818,0.727272727273,0.772727272727,0.818181818182,
    0.863636363636,0.909090909091,0.954545454545,1.),
  .QUASI_UNIFORM_KNOTS.);
#271 = CARTESIAN_POINT('',(3.14159265359,1.387778780781E-17));
#272 = CARTESIAN_POINT('',(3.189162673511,-3.582803104676E-06));
#273 = CARTESIAN_POINT('',(3.284314888889,-3.866505340397E-05));
#274 = CARTESIAN_POINT('',(3.427094504312,-1.143468713248E-04));
#275 = CARTESIAN_POINT('',(3.570027583884,-1.317509939979E-04));
#276 = CARTESIAN_POINT('',(3.712910378241,-8.179755143013E-05));
#277 = CARTESIAN_POINT('',(3.855605685106,8.339018256844E-07));
#278 = CARTESIAN_POINT('',(3.998375955023,8.230338713362E-07));
#279 = CARTESIAN_POINT('',(4.141071224956,-8.176494755668E-05));
#280 = CARTESIAN_POINT('',(4.283954167044,-1.318705415174E-04));
#281 = CARTESIAN_POINT('',(4.426886692623,-1.139012850981E-04));
#282 = CARTESIAN_POINT('',(4.569668376287,-4.032785080142E-05));
#283 = CARTESIAN_POINT('',(4.712388980385,2.016392539852E-05));
#284 = CARTESIAN_POINT('',(4.855109584482,-4.032785080191E-05));
#285 = CARTESIAN_POINT('',(4.997891268146,-1.139012850968E-04));
#286 = CARTESIAN_POINT('',(5.140823793725,-1.318705415221E-04));
#287 = CARTESIAN_POINT('',(5.283706735813,-8.176494755963E-05));
#288 = CARTESIAN_POINT('',(5.426402005746,8.230338700612E-07));
#289 = CARTESIAN_POINT('',(5.569172275663,8.339018264064E-07));
#290 = CARTESIAN_POINT('',(5.711867582528,-8.179755143024E-05));
#291 = CARTESIAN_POINT('',(5.854750376885,-1.317509939968E-04));
#292 = CARTESIAN_POINT('',(5.997683456457,-1.143468713279E-04));
#293 = CARTESIAN_POINT('',(6.140463071881,-3.866505340372E-05));
#294 = CARTESIAN_POINT('',(6.235615287259,-3.582803104078E-06));
#295 = CARTESIAN_POINT('',(6.28318530718,-2.860767899177E-16));
#296 = ( GEOMETRIC_REPRESENTATION_CONTEXT(2) 
PARAMETRIC_REPRESENTATION_CONTEXT() REPRESENTATION_CONTEXT('2D SPACE',''
  ) );
#297 = PCURVE('',#168,#298);
#298 = DEFINITIONAL_REPRESENTATION('',(#299),#310);
#299 = B_SPLINE_CURVE_WITH_KNOTS('',3,(#300,#301,#302,#303,#304,#305,
    #306,#307,#308,#309),.UNSPECIFIED.,.F.,.F.,(4,2,2,2,4),(0.,0.25,0.5,
    0.75,1.),.UNSPECIFIED.);
#300 = CARTESIAN_POINT('',(-1.257363562868E-02,0.249683607165));
#301 = CARTESIAN_POINT('',(5.279337987068E-02,0.252975377275));
#302 = CARTESIAN_POINT('',(0.119112975868,0.229337701754));
#303 = CARTESIAN_POINT('',(0.216211161653,0.141550047836));
#304 = CARTESIAN_POINT('',(0.246391837055,7.794065112804E-02));
#305 = CARTESIAN_POINT('',(0.252975377275,-5.279337987068E-02));
#306 = CARTESIAN_POINT('',(0.229337701754,-0.119112975868));
#307 = CARTESIAN_POINT('',(0.141550047836,-0.216211161653));
#308 = CARTESIAN_POINT('',(7.794065112804E-02,-0.246391837055));
#309 = CARTESIAN_POINT('',(1.257363562868E-02,-0.249683607165));
#310 = ( GEOMETRIC_REPRESENTATION_CONTEXT(2) 
PARAMETRIC_REPRESENTATION_CONTEXT() REPRESENTATION_CONTEXT('2D SPACE',''
  ) );
#311 = ADVANCED_FACE('',(#312),#168,.T.);
#312 = FACE_BOUND('',#313,.T.);
#313 = EDGE_LOOP('',(#314,#315));
#314 = ORIENTED_EDGE('',*,*,#255,.F.);
#315 = ORIENTED_EDGE('',*,*,#123,.F.);
#316 = ( GEOMETRIC_REPRESENTATION_CONTEXT(3) 
GLOBAL_UNCERTAINTY_ASSIGNED_CONTEXT((#320)) GLOBAL_UNIT_ASSIGNED_CONTEXT
((#317,#318,#319)) REPRESENTATION_CONTEXT('Context #1',
  '3D Context with UNIT and UNCERTAINTY') );
#317 = ( LENGTH_UNIT() NAMED_UNIT(*) SI_UNIT(.MILLI.,.METRE.) );
#318 = ( NAMED_UNIT(*) PLANE_ANGLE_UNIT() SI_UNIT($,.RADIAN.) );
#319 = ( NAMED_UNIT(*) SI_UNIT($,.STERADIAN.) SOLID_ANGLE_UNIT() );
#320 = UNCERTAINTY_MEASURE_WITH_UNIT(LENGTH_MEASURE(2.E-04),#317,
  'distance_accuracy_value','confusion accuracy');
#321 = PRODUCT_RELATED_PRODUCT_CATEGORY('part',$,(#7));
ENDSEC;
END-ISO-10303-21;
