ISO-10303-21;
HEADER;
FILE_DESCRIPTION(('Open CASCADE Model'),'2;1');
FILE_NAME('Open CASCADE Shape Model','2026-03-14T15:57:21',('Author'),(
    'Open CASCADE'),'Open CASCADE STEP processor 7.8','build123d',
  'Unknown');
FILE_SCHEMA(('AUTOMOTIVE_DESIGN { 1 0 10303 214 1 1 1 1 }'));
ENDSEC;
DATA;
#1 = APPLICATION_PROTOCOL_DEFINITION('international standard',
  'automotive_design',2000,#2);
#2 = APPLICATION_CONTEXT(
  'core data for automotive mechanical design processes');
#3 = SHAPE_DEFINITION_REPRESENTATION(#4,#10);
#4 = PRODUCT_DEFINITION_SHAPE('','',#5);
#5 = PRODUCT_DEFINITION('design','',#6,#9);
#6 = PRODUCT_DEFINITION_FORMATION('','',#7);
#7 = PRODUCT('SHELL','SHELL','',(#8));
#8 = PRODUCT_CONTEXT('',#2,'mechanical');
#9 = PRODUCT_DEFINITION_CONTEXT('part definition',#2,'design');
#10 = MANIFOLD_SURFACE_SHAPE_REPRESENTATION('',(#11,#15),#667);
#11 = AXIS2_PLACEMENT_3D('',#12,#13,#14);
#12 = CARTESIAN_POINT('',(0.,0.,0.));
#13 = DIRECTION('',(0.,0.,1.));
#14 = DIRECTION('',(1.,0.,-0.));
#15 = SHELL_BASED_SURFACE_MODEL('',(#16));
#16 = OPEN_SHELL('',(#17,#245,#402,#601,#656,#662));
#17 = ADVANCED_FACE('',(#18),#39,.T.);
#18 = FACE_BOUND('',#19,.T.);
#19 = EDGE_LOOP('',(#20,#106,#133,#163,#185,#218));
#20 = ORIENTED_EDGE('',*,*,#21,.T.);
#21 = EDGE_CURVE('',#22,#24,#26,.T.);
#22 = VERTEX_POINT('',#23);
#23 = CARTESIAN_POINT('',(1.117737464329,34.1,-0.999781149685));
#24 = VERTEX_POINT('',#25);
#25 = CARTESIAN_POINT('',(-2.965244213446E-04,34.1,1.500218850315));
#26 = SURFACE_CURVE('',#27,(#38,#72),.PCURVE_S1.);
#27 = B_SPLINE_CURVE_WITH_KNOTS('',3,(#28,#29,#30,#31,#32,#33,#34,#35,
    #36,#37),.UNSPECIFIED.,.F.,.F.,(4,2,2,2,4),(0.,0.25,0.5,0.75,1.),
  .UNSPECIFIED.);
#28 = CARTESIAN_POINT('',(1.117737464329,34.1,-0.999781149685));
#29 = CARTESIAN_POINT('',(1.309447796247,34.1,-0.785442482606));
#30 = CARTESIAN_POINT('',(1.437534262107,34.1,-0.514889434302));
#31 = CARTESIAN_POINT('',(1.526093843059,34.1,5.338238701317E-02));
#32 = CARTESIAN_POINT('',(1.486407992247,34.1,0.350081102764));
#33 = CARTESIAN_POINT('',(1.251611746437,34.1,0.875101469257));
#34 = CARTESIAN_POINT('',(1.056922814559,34.1,1.102480699812));
#35 = CARTESIAN_POINT('',(0.574318286539,34.1,1.415320166333));
#36 = CARTESIAN_POINT('',(0.287268973456,34.1,1.500218850315));
#37 = CARTESIAN_POINT('',(-2.965244213446E-04,34.1,1.500218850315));
#38 = PCURVE('',#39,#44);
#39 = CYLINDRICAL_SURFACE('',#40,1.5);
#40 = AXIS2_PLACEMENT_3D('',#41,#42,#43);
#41 = CARTESIAN_POINT('',(-2.965244213441E-04,34.3,2.188503150187E-04));
#42 = DIRECTION('',(9.484695110153E-17,1.,2.63242460522E-32));
#43 = DIRECTION('',(-2.775444623837E-16,-1.642146637881E-47,1.));
#44 = DEFINITIONAL_REPRESENTATION('',(#45),#71);
#45 = B_SPLINE_CURVE_WITH_KNOTS('',3,(#46,#47,#48,#49,#50,#51,#52,#53,
    #54,#55,#56,#57,#58,#59,#60,#61,#62,#63,#64,#65,#66,#67,#68,#69,#70)
  ,.UNSPECIFIED.,.F.,.F.,(4,1,1,1,1,1,1,1,1,1,1,1,1,1,1,1,1,1,1,1,1,1,4)
  ,(0.,4.545454545455E-02,9.090909090909E-02,0.136363636364,
    0.181818181818,0.227272727273,0.272727272727,0.318181818182,
    0.363636363636,0.409090909091,0.454545454545,0.5,0.545454545455,
    0.590909090909,0.636363636364,0.681818181818,0.727272727273,
    0.772727272727,0.818181818182,0.863636363636,0.909090909091,
    0.954545454545,1.),.QUASI_UNIFORM_KNOTS.);
#46 = CARTESIAN_POINT('',(2.300523983022,-0.2));
#47 = CARTESIAN_POINT('',(2.265673927566,-0.2));
#48 = CARTESIAN_POINT('',(2.195971164749,-0.2));
#49 = CARTESIAN_POINT('',(2.091406050621,-0.2));
#50 = CARTESIAN_POINT('',(1.986808579498,-0.2));
#51 = CARTESIAN_POINT('',(1.882221669463,-0.2));
#52 = CARTESIAN_POINT('',(1.777674455854,-0.2));
#53 = CARTESIAN_POINT('',(1.673111517338,-0.2));
#54 = CARTESIAN_POINT('',(1.568564311774,-0.2));
#55 = CARTESIAN_POINT('',(1.463977369561,-0.2));
#56 = CARTESIAN_POINT('',(1.359380019101,-0.2));
#57 = CARTESIAN_POINT('',(1.254814454498,-0.2));
#58 = CARTESIAN_POINT('',(1.150261991511,-0.2));
#59 = CARTESIAN_POINT('',(1.045709528524,-0.2));
#60 = CARTESIAN_POINT('',(0.941143963921,-0.2));
#61 = CARTESIAN_POINT('',(0.836546613461,-0.2));
#62 = CARTESIAN_POINT('',(0.731959671248,-0.2));
#63 = CARTESIAN_POINT('',(0.627412465683,-0.2));
#64 = CARTESIAN_POINT('',(0.522849527168,-0.2));
#65 = CARTESIAN_POINT('',(0.418302313559,-0.2));
#66 = CARTESIAN_POINT('',(0.313715403524,-0.2));
#67 = CARTESIAN_POINT('',(0.209117932401,-0.2));
#68 = CARTESIAN_POINT('',(0.104552818272,-0.2));
#69 = CARTESIAN_POINT('',(3.485005545545E-02,-0.2));
#70 = CARTESIAN_POINT('',(0.,-0.2));
#71 = ( GEOMETRIC_REPRESENTATION_CONTEXT(2) 
PARAMETRIC_REPRESENTATION_CONTEXT() REPRESENTATION_CONTEXT('2D SPACE',''
  ) );
#72 = PCURVE('',#73,#78);
#73 = CONICAL_SURFACE('',#74,1.3,0.785398163397);
#74 = AXIS2_PLACEMENT_3D('',#75,#76,#77);
#75 = CARTESIAN_POINT('',(-2.965244213441E-04,34.3,2.188503150187E-04));
#76 = DIRECTION('',(-9.484695110153E-17,-1.,-2.632630601355E-32));
#77 = DIRECTION('',(2.775661811772E-16,5.473822126269E-48,-1.));
#78 = DEFINITIONAL_REPRESENTATION('',(#79),#105);
#79 = B_SPLINE_CURVE_WITH_KNOTS('',3,(#80,#81,#82,#83,#84,#85,#86,#87,
    #88,#89,#90,#91,#92,#93,#94,#95,#96,#97,#98,#99,#100,#101,#102,#103,
    #104),.UNSPECIFIED.,.F.,.F.,(4,1,1,1,1,1,1,1,1,1,1,1,1,1,1,1,1,1,1,1
    ,1,1,4),(0.,4.545454545455E-02,9.090909090909E-02,0.136363636364,
    0.181818181818,0.227272727273,0.272727272727,0.318181818182,
    0.363636363636,0.409090909091,0.454545454545,0.5,0.545454545455,
    0.590909090909,0.636363636364,0.681818181818,0.727272727273,
    0.772727272727,0.818181818182,0.863636363636,0.909090909091,
    0.954545454545,1.),.QUASI_UNIFORM_KNOTS.);
#80 = CARTESIAN_POINT('',(0.841068670568,0.2));
#81 = CARTESIAN_POINT('',(0.875918726023,0.199993224577));
#82 = CARTESIAN_POINT('',(0.94562148884,0.199932071364));
#83 = CARTESIAN_POINT('',(1.050186602969,0.199801450671));
#84 = CARTESIAN_POINT('',(1.154784074092,0.199771872235));
#85 = CARTESIAN_POINT('',(1.259370984127,0.199857210046));
#86 = CARTESIAN_POINT('',(1.363918197736,0.200001204561));
#87 = CARTESIAN_POINT('',(1.468481136251,0.200001184009));
#88 = CARTESIAN_POINT('',(1.573028341816,0.199857271703));
#89 = CARTESIAN_POINT('',(1.677615284029,0.199771646159));
#90 = CARTESIAN_POINT('',(1.782212634488,0.199802293317));
#91 = CARTESIAN_POINT('',(1.886778199092,0.199928926855));
#92 = CARTESIAN_POINT('',(1.991330662079,0.200035536573));
#93 = CARTESIAN_POINT('',(2.095883125066,0.199928926855));
#94 = CARTESIAN_POINT('',(2.200448689669,0.199802293317));
#95 = CARTESIAN_POINT('',(2.305046040129,0.199771646159));
#96 = CARTESIAN_POINT('',(2.409632982342,0.199857271703));
#97 = CARTESIAN_POINT('',(2.514180187906,0.200001184009));
#98 = CARTESIAN_POINT('',(2.618743126422,0.200001204561));
#99 = CARTESIAN_POINT('',(2.723290340031,0.199857210046));
#100 = CARTESIAN_POINT('',(2.827877250066,0.199771872235));
#101 = CARTESIAN_POINT('',(2.932474721189,0.199801450671));
#102 = CARTESIAN_POINT('',(3.037039835317,0.199932071364));
#103 = CARTESIAN_POINT('',(3.106742598134,0.199993224577));
#104 = CARTESIAN_POINT('',(3.14159265359,0.2));
#105 = ( GEOMETRIC_REPRESENTATION_CONTEXT(2) 
PARAMETRIC_REPRESENTATION_CONTEXT() REPRESENTATION_CONTEXT('2D SPACE',''
  ) );
#106 = ORIENTED_EDGE('',*,*,#107,.T.);
#107 = EDGE_CURVE('',#24,#108,#110,.T.);
#108 = VERTEX_POINT('',#109);
#109 = CARTESIAN_POINT('',(-2.965244213458E-04,23.2,1.500218850315));
#110 = SURFACE_CURVE('',#111,(#116,#122),.PCURVE_S1.);
#111 = B_SPLINE_CURVE_WITH_KNOTS('',3,(#112,#113,#114,#115),
  .UNSPECIFIED.,.F.,.F.,(4,4),(0.,1.),.PIECEWISE_BEZIER_KNOTS.);
#112 = CARTESIAN_POINT('',(-2.965244213446E-04,34.1,1.500218850315));
#113 = CARTESIAN_POINT('',(-2.965244213449E-04,30.466666666667,
    1.500218850315));
#114 = CARTESIAN_POINT('',(-2.965244213453E-04,26.833333333333,
    1.500218850315));
#115 = CARTESIAN_POINT('',(-2.965244213458E-04,23.2,1.500218850315));
#116 = PCURVE('',#39,#117);
#117 = DEFINITIONAL_REPRESENTATION('',(#118),#121);
#118 = B_SPLINE_CURVE_WITH_KNOTS('',1,(#119,#120),.UNSPECIFIED.,.F.,.F.,
  (2,2),(0.,1.),.PIECEWISE_BEZIER_KNOTS.);
#119 = CARTESIAN_POINT('',(0.,-0.2));
#120 = CARTESIAN_POINT('',(0.,-11.1));
#121 = ( GEOMETRIC_REPRESENTATION_CONTEXT(2) 
PARAMETRIC_REPRESENTATION_CONTEXT() REPRESENTATION_CONTEXT('2D SPACE',''
  ) );
#122 = PCURVE('',#123,#128);
#123 = CYLINDRICAL_SURFACE('',#124,1.5);
#124 = AXIS2_PLACEMENT_3D('',#125,#126,#127);
#125 = CARTESIAN_POINT('',(-2.965244213441E-04,34.3,2.188503150187E-04)
  );
#126 = DIRECTION('',(9.484695110153E-17,1.,2.63242460522E-32));
#127 = DIRECTION('',(-2.775444623837E-16,-1.642146637881E-47,1.));
#128 = DEFINITIONAL_REPRESENTATION('',(#129),#132);
#129 = B_SPLINE_CURVE_WITH_KNOTS('',1,(#130,#131),.UNSPECIFIED.,.F.,.F.,
  (2,2),(0.,1.),.PIECEWISE_BEZIER_KNOTS.);
#130 = CARTESIAN_POINT('',(6.28318530718,-0.2));
#131 = CARTESIAN_POINT('',(6.28318530718,-11.1));
#132 = ( GEOMETRIC_REPRESENTATION_CONTEXT(2) 
PARAMETRIC_REPRESENTATION_CONTEXT() REPRESENTATION_CONTEXT('2D SPACE',''
  ) );
#133 = ORIENTED_EDGE('',*,*,#134,.T.);
#134 = EDGE_CURVE('',#108,#135,#137,.T.);
#135 = VERTEX_POINT('',#136);
#136 = CARTESIAN_POINT('',(-2.965244213443E-04,23.2,-1.499781149685));
#137 = SURFACE_CURVE('',#138,(#157),.PCURVE_S1.);
#138 = B_SPLINE_CURVE_WITH_KNOTS('',3,(#139,#140,#141,#142,#143,#144,
    #145,#146,#147,#148,#149,#150,#151,#152,#153,#154,#155,#156),
  .UNSPECIFIED.,.F.,.F.,(4,2,2,2,2,2,2,2,4),(0.,0.125,0.25,0.375,0.5,
    0.625,0.75,0.875,1.),.UNSPECIFIED.);
#139 = CARTESIAN_POINT('',(-2.965244213458E-04,23.2,1.500218850315));
#140 = CARTESIAN_POINT('',(0.196053016428,23.2,1.500218850315));
#141 = CARTESIAN_POINT('',(0.392325302118,23.2,1.461177865317));
#142 = CARTESIAN_POINT('',(0.755131946135,23.2,1.310898432846));
#143 = CARTESIAN_POINT('',(0.921523555541,23.2,1.199719113912));
#144 = CARTESIAN_POINT('',(1.199203739176,23.2,0.922038930277));
#145 = CARTESIAN_POINT('',(1.31038305811,23.2,0.755647320871));
#146 = CARTESIAN_POINT('',(1.460662490581,23.2,0.392840676854));
#147 = CARTESIAN_POINT('',(1.499703475579,23.2,0.196568391164));
#148 = CARTESIAN_POINT('',(1.499703475579,23.2,-0.196130690534));
#149 = CARTESIAN_POINT('',(1.460662490581,23.2,-0.392402976224));
#150 = CARTESIAN_POINT('',(1.31038305811,23.2,-0.755209620241));
#151 = CARTESIAN_POINT('',(1.199203739176,23.2,-0.921601229647));
#152 = CARTESIAN_POINT('',(0.921523555541,23.2,-1.199281413282));
#153 = CARTESIAN_POINT('',(0.755131946135,23.2,-1.310460732216));
#154 = CARTESIAN_POINT('',(0.392325302118,23.2,-1.460740164687));
#155 = CARTESIAN_POINT('',(0.196053016428,23.2,-1.499781149685));
#156 = CARTESIAN_POINT('',(-2.965244213443E-04,23.2,-1.499781149685));
#157 = PCURVE('',#39,#158);
#158 = DEFINITIONAL_REPRESENTATION('',(#159),#162);
#159 = B_SPLINE_CURVE_WITH_KNOTS('',1,(#160,#161),.UNSPECIFIED.,.F.,.F.,
  (2,2),(0.,1.),.PIECEWISE_BEZIER_KNOTS.);
#160 = CARTESIAN_POINT('',(0.,-11.1));
#161 = CARTESIAN_POINT('',(3.14159265359,-11.1));
#162 = ( GEOMETRIC_REPRESENTATION_CONTEXT(2) 
PARAMETRIC_REPRESENTATION_CONTEXT() REPRESENTATION_CONTEXT('2D SPACE',''
  ) );
#163 = ORIENTED_EDGE('',*,*,#164,.T.);
#164 = EDGE_CURVE('',#135,#165,#167,.T.);
#165 = VERTEX_POINT('',#166);
#166 = CARTESIAN_POINT('',(-2.965244213458E-04,25.1,-1.499781149685));
#167 = SURFACE_CURVE('',#168,(#173,#179),.PCURVE_S1.);
#168 = B_SPLINE_CURVE_WITH_KNOTS('',3,(#169,#170,#171,#172),
  .UNSPECIFIED.,.F.,.F.,(4,4),(0.,1.),.PIECEWISE_BEZIER_KNOTS.);
#169 = CARTESIAN_POINT('',(-2.965244213443E-04,23.2,-1.499781149685));
#170 = CARTESIAN_POINT('',(-2.965244213479E-04,23.833333333333,
    -1.499781149685));
#171 = CARTESIAN_POINT('',(-2.965244213478E-04,24.466666666667,
    -1.499781149685));
#172 = CARTESIAN_POINT('',(-2.965244213458E-04,25.1,-1.499781149685));
#173 = PCURVE('',#39,#174);
#174 = DEFINITIONAL_REPRESENTATION('',(#175),#178);
#175 = B_SPLINE_CURVE_WITH_KNOTS('',1,(#176,#177),.UNSPECIFIED.,.F.,.F.,
  (2,2),(0.,1.),.PIECEWISE_BEZIER_KNOTS.);
#176 = CARTESIAN_POINT('',(3.14159265359,-11.1));
#177 = CARTESIAN_POINT('',(3.14159265359,-9.2));
#178 = ( GEOMETRIC_REPRESENTATION_CONTEXT(2) 
PARAMETRIC_REPRESENTATION_CONTEXT() REPRESENTATION_CONTEXT('2D SPACE',''
  ) );
#179 = PCURVE('',#123,#180);
#180 = DEFINITIONAL_REPRESENTATION('',(#181),#184);
#181 = B_SPLINE_CURVE_WITH_KNOTS('',1,(#182,#183),.UNSPECIFIED.,.F.,.F.,
  (2,2),(0.,1.),.PIECEWISE_BEZIER_KNOTS.);
#182 = CARTESIAN_POINT('',(3.14159265359,-11.1));
#183 = CARTESIAN_POINT('',(3.14159265359,-9.2));
#184 = ( GEOMETRIC_REPRESENTATION_CONTEXT(2) 
PARAMETRIC_REPRESENTATION_CONTEXT() REPRESENTATION_CONTEXT('2D SPACE',''
  ) );
#185 = ORIENTED_EDGE('',*,*,#186,.T.);
#186 = EDGE_CURVE('',#165,#187,#189,.T.);
#187 = VERTEX_POINT('',#188);
#188 = CARTESIAN_POINT('',(1.117737464329,25.1,-0.999781149685));
#189 = SURFACE_CURVE('',#190,(#197,#203),.PCURVE_S1.);
#190 = B_SPLINE_CURVE_WITH_KNOTS('',3,(#191,#192,#193,#194,#195,#196),
  .UNSPECIFIED.,.F.,.F.,(4,2,4),(0.,0.5,1.),.UNSPECIFIED.);
#191 = CARTESIAN_POINT('',(-2.965244213458E-04,25.1,-1.499781149685));
#192 = CARTESIAN_POINT('',(0.209970643221,25.1,-1.499781149685));
#193 = CARTESIAN_POINT('',(0.420129126574,25.1,-1.454928755178));
#194 = CARTESIAN_POINT('',(0.804022695975,25.1,-1.283246331717));
#195 = CARTESIAN_POINT('',(0.977559352567,25.1,-1.156505043113));
#196 = CARTESIAN_POINT('',(1.117737464329,25.1,-0.999781149685));
#197 = PCURVE('',#39,#198);
#198 = DEFINITIONAL_REPRESENTATION('',(#199),#202);
#199 = B_SPLINE_CURVE_WITH_KNOTS('',1,(#200,#201),.UNSPECIFIED.,.F.,.F.,
  (2,2),(0.,1.),.PIECEWISE_BEZIER_KNOTS.);
#200 = CARTESIAN_POINT('',(3.14159265359,-9.2));
#201 = CARTESIAN_POINT('',(2.300523983022,-9.2));
#202 = ( GEOMETRIC_REPRESENTATION_CONTEXT(2) 
PARAMETRIC_REPRESENTATION_CONTEXT() REPRESENTATION_CONTEXT('2D SPACE',''
  ) );
#203 = PCURVE('',#204,#209);
#204 = PLANE('',#205);
#205 = AXIS2_PLACEMENT_3D('',#206,#207,#208);
#206 = CARTESIAN_POINT('',(-2.000296524421,25.1,-0.999781149685));
#207 = DIRECTION('',(-9.484695110153E-17,-1.,2.902153520719E-17));
#208 = DIRECTION('',(-1.,9.484695110153E-17,0.));
#209 = DEFINITIONAL_REPRESENTATION('',(#210),#217);
#210 = B_SPLINE_CURVE_WITH_KNOTS('',3,(#211,#212,#213,#214,#215,#216),
  .UNSPECIFIED.,.F.,.F.,(4,2,4),(0.,0.5,1.),.UNSPECIFIED.);
#211 = CARTESIAN_POINT('',(-2.,0.5));
#212 = CARTESIAN_POINT('',(-2.210267167642,0.5));
#213 = CARTESIAN_POINT('',(-2.420425650995,0.455147605493));
#214 = CARTESIAN_POINT('',(-2.804319220396,0.283465182032));
#215 = CARTESIAN_POINT('',(-2.977855876989,0.156723893428));
#216 = CARTESIAN_POINT('',(-3.11803398875,-1.110223024625E-15));
#217 = ( GEOMETRIC_REPRESENTATION_CONTEXT(2) 
PARAMETRIC_REPRESENTATION_CONTEXT() REPRESENTATION_CONTEXT('2D SPACE',''
  ) );
#218 = ORIENTED_EDGE('',*,*,#219,.T.);
#219 = EDGE_CURVE('',#187,#22,#220,.T.);
#220 = SURFACE_CURVE('',#221,(#226,#232),.PCURVE_S1.);
#221 = B_SPLINE_CURVE_WITH_KNOTS('',3,(#222,#223,#224,#225),
  .UNSPECIFIED.,.F.,.F.,(4,4),(0.,1.),.PIECEWISE_BEZIER_KNOTS.);
#222 = CARTESIAN_POINT('',(1.117737464329,25.1,-0.999781149685));
#223 = CARTESIAN_POINT('',(1.117737464329,28.1,-0.999781149685));
#224 = CARTESIAN_POINT('',(1.117737464329,31.1,-0.999781149685));
#225 = CARTESIAN_POINT('',(1.117737464329,34.1,-0.999781149685));
#226 = PCURVE('',#39,#227);
#227 = DEFINITIONAL_REPRESENTATION('',(#228),#231);
#228 = B_SPLINE_CURVE_WITH_KNOTS('',1,(#229,#230),.UNSPECIFIED.,.F.,.F.,
  (2,2),(0.,1.),.PIECEWISE_BEZIER_KNOTS.);
#229 = CARTESIAN_POINT('',(2.300523983022,-9.2));
#230 = CARTESIAN_POINT('',(2.300523983022,-0.2));
#231 = ( GEOMETRIC_REPRESENTATION_CONTEXT(2) 
PARAMETRIC_REPRESENTATION_CONTEXT() REPRESENTATION_CONTEXT('2D SPACE',''
  ) );
#232 = PCURVE('',#233,#238);
#233 = PLANE('',#234);
#234 = AXIS2_PLACEMENT_3D('',#235,#236,#237);
#235 = CARTESIAN_POINT('',(-2.965244213439E-04,34.3,-0.999781149685));
#236 = DIRECTION('',(-2.775557561563E-16,2.902153520719E-17,1.));
#237 = DIRECTION('',(1.,0.,2.775557561563E-16));
#238 = DEFINITIONAL_REPRESENTATION('',(#239),#244);
#239 = B_SPLINE_CURVE_WITH_KNOTS('',3,(#240,#241,#242,#243),
  .UNSPECIFIED.,.F.,.F.,(4,4),(0.,1.),.PIECEWISE_BEZIER_KNOTS.);
#240 = CARTESIAN_POINT('',(1.11803398875,-9.2));
#241 = CARTESIAN_POINT('',(1.11803398875,-6.2));
#242 = CARTESIAN_POINT('',(1.11803398875,-3.2));
#243 = CARTESIAN_POINT('',(1.11803398875,-0.2));
#244 = ( GEOMETRIC_REPRESENTATION_CONTEXT(2) 
PARAMETRIC_REPRESENTATION_CONTEXT() REPRESENTATION_CONTEXT('2D SPACE',''
  ) );
#245 = ADVANCED_FACE('',(#246),#123,.T.);
#246 = FACE_BOUND('',#247,.T.);
#247 = EDGE_LOOP('',(#248,#274,#300,#301,#329,#330));
#248 = ORIENTED_EDGE('',*,*,#249,.T.);
#249 = EDGE_CURVE('',#250,#252,#254,.T.);
#250 = VERTEX_POINT('',#251);
#251 = CARTESIAN_POINT('',(-1.118330513171,34.1,-0.999781149685));
#252 = VERTEX_POINT('',#253);
#253 = CARTESIAN_POINT('',(-1.118330513171,25.1,-0.999781149685));
#254 = SURFACE_CURVE('',#255,(#260,#266),.PCURVE_S1.);
#255 = B_SPLINE_CURVE_WITH_KNOTS('',3,(#256,#257,#258,#259),
  .UNSPECIFIED.,.F.,.F.,(4,4),(0.,1.),.PIECEWISE_BEZIER_KNOTS.);
#256 = CARTESIAN_POINT('',(-1.118330513171,34.1,-0.999781149685));
#257 = CARTESIAN_POINT('',(-1.118330513171,31.1,-0.999781149685));
#258 = CARTESIAN_POINT('',(-1.118330513171,28.1,-0.999781149685));
#259 = CARTESIAN_POINT('',(-1.118330513171,25.1,-0.999781149685));
#260 = PCURVE('',#123,#261);
#261 = DEFINITIONAL_REPRESENTATION('',(#262),#265);
#262 = B_SPLINE_CURVE_WITH_KNOTS('',1,(#263,#264),.UNSPECIFIED.,.F.,.F.,
  (2,2),(0.,1.),.PIECEWISE_BEZIER_KNOTS.);
#263 = CARTESIAN_POINT('',(3.982661324158,-0.2));
#264 = CARTESIAN_POINT('',(3.982661324158,-9.2));
#265 = ( GEOMETRIC_REPRESENTATION_CONTEXT(2) 
PARAMETRIC_REPRESENTATION_CONTEXT() REPRESENTATION_CONTEXT('2D SPACE',''
  ) );
#266 = PCURVE('',#233,#267);
#267 = DEFINITIONAL_REPRESENTATION('',(#268),#273);
#268 = B_SPLINE_CURVE_WITH_KNOTS('',3,(#269,#270,#271,#272),
  .UNSPECIFIED.,.F.,.F.,(4,4),(0.,1.),.PIECEWISE_BEZIER_KNOTS.);
#269 = CARTESIAN_POINT('',(-1.11803398875,-0.2));
#270 = CARTESIAN_POINT('',(-1.11803398875,-3.2));
#271 = CARTESIAN_POINT('',(-1.11803398875,-6.2));
#272 = CARTESIAN_POINT('',(-1.11803398875,-9.2));
#273 = ( GEOMETRIC_REPRESENTATION_CONTEXT(2) 
PARAMETRIC_REPRESENTATION_CONTEXT() REPRESENTATION_CONTEXT('2D SPACE',''
  ) );
#274 = ORIENTED_EDGE('',*,*,#275,.T.);
#275 = EDGE_CURVE('',#252,#165,#276,.T.);
#276 = SURFACE_CURVE('',#277,(#284,#290),.PCURVE_S1.);
#277 = B_SPLINE_CURVE_WITH_KNOTS('',3,(#278,#279,#280,#281,#282,#283),
  .UNSPECIFIED.,.F.,.F.,(4,2,4),(0.,0.5,1.),.UNSPECIFIED.);
#278 = CARTESIAN_POINT('',(-1.118330513171,25.1,-0.999781149685));
#279 = CARTESIAN_POINT('',(-0.97815240141,25.1,-1.156505043113));
#280 = CARTESIAN_POINT('',(-0.804615744818,25.1,-1.283246331717));
#281 = CARTESIAN_POINT('',(-0.420722175417,25.1,-1.454928755178));
#282 = CARTESIAN_POINT('',(-0.210563692063,25.1,-1.499781149685));
#283 = CARTESIAN_POINT('',(-2.965244213458E-04,25.1,-1.499781149685));
#284 = PCURVE('',#123,#285);
#285 = DEFINITIONAL_REPRESENTATION('',(#286),#289);
#286 = B_SPLINE_CURVE_WITH_KNOTS('',1,(#287,#288),.UNSPECIFIED.,.F.,.F.,
  (2,2),(0.,1.),.PIECEWISE_BEZIER_KNOTS.);
#287 = CARTESIAN_POINT('',(3.982661324158,-9.2));
#288 = CARTESIAN_POINT('',(3.14159265359,-9.2));
#289 = ( GEOMETRIC_REPRESENTATION_CONTEXT(2) 
PARAMETRIC_REPRESENTATION_CONTEXT() REPRESENTATION_CONTEXT('2D SPACE',''
  ) );
#290 = PCURVE('',#204,#291);
#291 = DEFINITIONAL_REPRESENTATION('',(#292),#299);
#292 = B_SPLINE_CURVE_WITH_KNOTS('',3,(#293,#294,#295,#296,#297,#298),
  .UNSPECIFIED.,.F.,.F.,(4,2,4),(0.,0.5,1.),.UNSPECIFIED.);
#293 = CARTESIAN_POINT('',(-0.88196601125,0.));
#294 = CARTESIAN_POINT('',(-1.022144123011,0.156723893428));
#295 = CARTESIAN_POINT('',(-1.195680779604,0.283465182032));
#296 = CARTESIAN_POINT('',(-1.579574349005,0.455147605493));
#297 = CARTESIAN_POINT('',(-1.789732832358,0.5));
#298 = CARTESIAN_POINT('',(-2.,0.5));
#299 = ( GEOMETRIC_REPRESENTATION_CONTEXT(2) 
PARAMETRIC_REPRESENTATION_CONTEXT() REPRESENTATION_CONTEXT('2D SPACE',''
  ) );
#300 = ORIENTED_EDGE('',*,*,#164,.F.);
#301 = ORIENTED_EDGE('',*,*,#302,.T.);
#302 = EDGE_CURVE('',#135,#108,#303,.T.);
#303 = SURFACE_CURVE('',#304,(#323),.PCURVE_S1.);
#304 = B_SPLINE_CURVE_WITH_KNOTS('',3,(#305,#306,#307,#308,#309,#310,
    #311,#312,#313,#314,#315,#316,#317,#318,#319,#320,#321,#322),
  .UNSPECIFIED.,.F.,.F.,(4,2,2,2,2,2,2,2,4),(0.,0.125,0.25,0.375,0.5,
    0.625,0.75,0.875,1.),.UNSPECIFIED.);
#305 = CARTESIAN_POINT('',(-2.965244213443E-04,23.2,-1.499781149685));
#306 = CARTESIAN_POINT('',(-0.196646065271,23.2,-1.499781149685));
#307 = CARTESIAN_POINT('',(-0.39291835096,23.2,-1.460740164687));
#308 = CARTESIAN_POINT('',(-0.755724994978,23.2,-1.310460732216));
#309 = CARTESIAN_POINT('',(-0.922116604384,23.2,-1.199281413282));
#310 = CARTESIAN_POINT('',(-1.199796788019,23.2,-0.921601229647));
#311 = CARTESIAN_POINT('',(-1.310976106953,23.2,-0.755209620241));
#312 = CARTESIAN_POINT('',(-1.461255539424,23.2,-0.392402976224));
#313 = CARTESIAN_POINT('',(-1.500296524421,23.2,-0.196130690534));
#314 = CARTESIAN_POINT('',(-1.500296524421,23.2,0.196568391164));
#315 = CARTESIAN_POINT('',(-1.461255539424,23.2,0.392840676854));
#316 = CARTESIAN_POINT('',(-1.310976106953,23.2,0.755647320871));
#317 = CARTESIAN_POINT('',(-1.199796788019,23.2,0.922038930277));
#318 = CARTESIAN_POINT('',(-0.922116604384,23.2,1.199719113912));
#319 = CARTESIAN_POINT('',(-0.755724994978,23.2,1.310898432846));
#320 = CARTESIAN_POINT('',(-0.39291835096,23.2,1.461177865317));
#321 = CARTESIAN_POINT('',(-0.196646065271,23.2,1.500218850315));
#322 = CARTESIAN_POINT('',(-2.965244213458E-04,23.2,1.500218850315));
#323 = PCURVE('',#123,#324);
#324 = DEFINITIONAL_REPRESENTATION('',(#325),#328);
#325 = B_SPLINE_CURVE_WITH_KNOTS('',1,(#326,#327),.UNSPECIFIED.,.F.,.F.,
  (2,2),(0.,1.),.PIECEWISE_BEZIER_KNOTS.);
#326 = CARTESIAN_POINT('',(3.14159265359,-11.1));
#327 = CARTESIAN_POINT('',(6.28318530718,-11.1));
#328 = ( GEOMETRIC_REPRESENTATION_CONTEXT(2) 
PARAMETRIC_REPRESENTATION_CONTEXT() REPRESENTATION_CONTEXT('2D SPACE',''
  ) );
#329 = ORIENTED_EDGE('',*,*,#107,.F.);
#330 = ORIENTED_EDGE('',*,*,#331,.T.);
#331 = EDGE_CURVE('',#24,#250,#332,.T.);
#332 = SURFACE_CURVE('',#333,(#344,#373),.PCURVE_S1.);
#333 = B_SPLINE_CURVE_WITH_KNOTS('',3,(#334,#335,#336,#337,#338,#339,
    #340,#341,#342,#343),.UNSPECIFIED.,.F.,.F.,(4,2,2,2,4),(0.,0.25,0.5,
    0.75,1.),.UNSPECIFIED.);
#334 = CARTESIAN_POINT('',(-2.965244213446E-04,34.1,1.500218850315));
#335 = CARTESIAN_POINT('',(-0.287862022299,34.1,1.500218850315));
#336 = CARTESIAN_POINT('',(-0.574911335382,34.1,1.415320166333));
#337 = CARTESIAN_POINT('',(-1.057515863402,34.1,1.102480699812));
#338 = CARTESIAN_POINT('',(-1.252204795279,34.1,0.875101469257));
#339 = CARTESIAN_POINT('',(-1.487001041089,34.1,0.350081102764));
#340 = CARTESIAN_POINT('',(-1.526686891901,34.1,5.338238701317E-02));
#341 = CARTESIAN_POINT('',(-1.43812731095,34.1,-0.514889434302));
#342 = CARTESIAN_POINT('',(-1.31004084509,34.1,-0.785442482606));
#343 = CARTESIAN_POINT('',(-1.118330513171,34.1,-0.999781149685));
#344 = PCURVE('',#123,#345);
#345 = DEFINITIONAL_REPRESENTATION('',(#346),#372);
#346 = B_SPLINE_CURVE_WITH_KNOTS('',3,(#347,#348,#349,#350,#351,#352,
    #353,#354,#355,#356,#357,#358,#359,#360,#361,#362,#363,#364,#365,
    #366,#367,#368,#369,#370,#371),.UNSPECIFIED.,.F.,.F.,(4,1,1,1,1,1,1,
    1,1,1,1,1,1,1,1,1,1,1,1,1,1,1,4),(0.,4.545454545455E-02,
    9.090909090909E-02,0.136363636364,0.181818181818,0.227272727273,
    0.272727272727,0.318181818182,0.363636363636,0.409090909091,
    0.454545454545,0.5,0.545454545455,0.590909090909,0.636363636364,
    0.681818181818,0.727272727273,0.772727272727,0.818181818182,
    0.863636363636,0.909090909091,0.954545454545,1.),
  .QUASI_UNIFORM_KNOTS.);
#347 = CARTESIAN_POINT('',(6.28318530718,-0.2));
#348 = CARTESIAN_POINT('',(6.248335251724,-0.2));
#349 = CARTESIAN_POINT('',(6.178632488907,-0.2));
#350 = CARTESIAN_POINT('',(6.074067374779,-0.2));
#351 = CARTESIAN_POINT('',(5.969469903656,-0.2));
#352 = CARTESIAN_POINT('',(5.86488299362,-0.2));
#353 = CARTESIAN_POINT('',(5.760335780011,-0.2));
#354 = CARTESIAN_POINT('',(5.655772841496,-0.2));
#355 = CARTESIAN_POINT('',(5.551225635931,-0.2));
#356 = CARTESIAN_POINT('',(5.446638693719,-0.2));
#357 = CARTESIAN_POINT('',(5.342041343259,-0.2));
#358 = CARTESIAN_POINT('',(5.237475778655,-0.2));
#359 = CARTESIAN_POINT('',(5.132923315669,-0.2));
#360 = CARTESIAN_POINT('',(5.028370852682,-0.2));
#361 = CARTESIAN_POINT('',(4.923805288078,-0.2));
#362 = CARTESIAN_POINT('',(4.819207937618,-0.2));
#363 = CARTESIAN_POINT('',(4.714620995406,-0.2));
#364 = CARTESIAN_POINT('',(4.610073789841,-0.2));
#365 = CARTESIAN_POINT('',(4.505510851326,-0.2));
#366 = CARTESIAN_POINT('',(4.400963637717,-0.2));
#367 = CARTESIAN_POINT('',(4.296376727681,-0.2));
#368 = CARTESIAN_POINT('',(4.191779256558,-0.2));
#369 = CARTESIAN_POINT('',(4.08721414243,-0.2));
#370 = CARTESIAN_POINT('',(4.017511379613,-0.2));
#371 = CARTESIAN_POINT('',(3.982661324158,-0.2));
#372 = ( GEOMETRIC_REPRESENTATION_CONTEXT(2) 
PARAMETRIC_REPRESENTATION_CONTEXT() REPRESENTATION_CONTEXT('2D SPACE',''
  ) );
#373 = PCURVE('',#73,#374);
#374 = DEFINITIONAL_REPRESENTATION('',(#375),#401);
#375 = B_SPLINE_CURVE_WITH_KNOTS('',3,(#376,#377,#378,#379,#380,#381,
    #382,#383,#384,#385,#386,#387,#388,#389,#390,#391,#392,#393,#394,
    #395,#396,#397,#398,#399,#400),.UNSPECIFIED.,.F.,.F.,(4,1,1,1,1,1,1,
    1,1,1,1,1,1,1,1,1,1,1,1,1,1,1,4),(0.,4.545454545455E-02,
    9.090909090909E-02,0.136363636364,0.181818181818,0.227272727273,
    0.272727272727,0.318181818182,0.363636363636,0.409090909091,
    0.454545454545,0.5,0.545454545455,0.590909090909,0.636363636364,
    0.681818181818,0.727272727273,0.772727272727,0.818181818182,
    0.863636363636,0.909090909091,0.954545454545,1.),
  .QUASI_UNIFORM_KNOTS.);
#376 = CARTESIAN_POINT('',(3.14159265359,0.2));
#377 = CARTESIAN_POINT('',(3.176442709045,0.199993224577));
#378 = CARTESIAN_POINT('',(3.246145471862,0.199932071364));
#379 = CARTESIAN_POINT('',(3.35071058599,0.199801450671));
#380 = CARTESIAN_POINT('',(3.455308057113,0.199771872235));
#381 = CARTESIAN_POINT('',(3.559894967149,0.199857210046));
#382 = CARTESIAN_POINT('',(3.664442180758,0.200001204561));
#383 = CARTESIAN_POINT('',(3.769005119273,0.200001184009));
#384 = CARTESIAN_POINT('',(3.873552324838,0.199857271703));
#385 = CARTESIAN_POINT('',(3.97813926705,0.199771646159));
#386 = CARTESIAN_POINT('',(4.08273661751,0.199802293317));
#387 = CARTESIAN_POINT('',(4.187302182114,0.199928926855));
#388 = CARTESIAN_POINT('',(4.291854645101,0.200035536573));
#389 = CARTESIAN_POINT('',(4.396407108087,0.199928926855));
#390 = CARTESIAN_POINT('',(4.500972672691,0.199802293317));
#391 = CARTESIAN_POINT('',(4.605570023151,0.199771646159));
#392 = CARTESIAN_POINT('',(4.710156965363,0.199857271703));
#393 = CARTESIAN_POINT('',(4.814704170928,0.200001184009));
#394 = CARTESIAN_POINT('',(4.919267109443,0.200001204561));
#395 = CARTESIAN_POINT('',(5.023814323053,0.199857210046));
#396 = CARTESIAN_POINT('',(5.128401233088,0.199771872235));
#397 = CARTESIAN_POINT('',(5.232998704211,0.199801450671));
#398 = CARTESIAN_POINT('',(5.337563818339,0.199932071364));
#399 = CARTESIAN_POINT('',(5.407266581156,0.199993224577));
#400 = CARTESIAN_POINT('',(5.442116636612,0.2));
#401 = ( GEOMETRIC_REPRESENTATION_CONTEXT(2) 
PARAMETRIC_REPRESENTATION_CONTEXT() REPRESENTATION_CONTEXT('2D SPACE',''
  ) );
#402 = ADVANCED_FACE('',(#403),#73,.T.);
#403 = FACE_BOUND('',#404,.T.);
#404 = EDGE_LOOP('',(#405,#452,#554,#599,#600));
#405 = ORIENTED_EDGE('',*,*,#406,.T.);
#406 = EDGE_CURVE('',#22,#407,#409,.T.);
#407 = VERTEX_POINT('',#408);
#408 = CARTESIAN_POINT('',(0.83036586187,34.3,-0.999781149685));
#409 = SURFACE_CURVE('',#410,(#415,#444),.PCURVE_S1.);
#410 = B_SPLINE_CURVE_WITH_KNOTS('',3,(#411,#412,#413,#414),
  .UNSPECIFIED.,.F.,.F.,(4,4),(0.,1.),.PIECEWISE_BEZIER_KNOTS.);
#411 = CARTESIAN_POINT('',(1.117737464329,34.1,-0.999781149685));
#412 = CARTESIAN_POINT('',(1.016565923769,34.175408814026,
    -0.999781149685));
#413 = CARTESIAN_POINT('',(0.921018666598,34.242075480693,
    -0.999781149685));
#414 = CARTESIAN_POINT('',(0.83036586187,34.3,-0.999781149685));
#415 = PCURVE('',#73,#416);
#416 = DEFINITIONAL_REPRESENTATION('',(#417),#443);
#417 = B_SPLINE_CURVE_WITH_KNOTS('',3,(#418,#419,#420,#421,#422,#423,
    #424,#425,#426,#427,#428,#429,#430,#431,#432,#433,#434,#435,#436,
    #437,#438,#439,#440,#441,#442),.UNSPECIFIED.,.F.,.F.,(4,1,1,1,1,1,1,
    1,1,1,1,1,1,1,1,1,1,1,1,1,1,1,4),(0.,4.545454545455E-02,
    9.090909090909E-02,0.136363636364,0.181818181818,0.227272727273,
    0.272727272727,0.318181818182,0.363636363636,0.409090909091,
    0.454545454545,0.5,0.545454545455,0.590909090909,0.636363636364,
    0.681818181818,0.727272727273,0.772727272727,0.818181818182,
    0.863636363636,0.909090909091,0.954545454545,1.),
  .QUASI_UNIFORM_KNOTS.);
#418 = CARTESIAN_POINT('',(0.841068670568,0.2));
#419 = CARTESIAN_POINT('',(0.839024802155,0.196572326683));
#420 = CARTESIAN_POINT('',(0.834919367586,0.189753102659));
#421 = CARTESIAN_POINT('',(0.828707967123,0.179632634541));
#422 = CARTESIAN_POINT('',(0.822443157403,0.169620534217));
#423 = CARTESIAN_POINT('',(0.816124796206,0.159716802287));
#424 = CARTESIAN_POINT('',(0.809752754056,0.149921439721));
#425 = CARTESIAN_POINT('',(0.803326916414,0.14023444785));
#426 = CARTESIAN_POINT('',(0.796847183771,0.130655828259));
#427 = CARTESIAN_POINT('',(0.790313472303,0.121185582704));
#428 = CARTESIAN_POINT('',(0.783725714385,0.111823713013));
#429 = CARTESIAN_POINT('',(0.777083859144,0.102570220995));
#430 = CARTESIAN_POINT('',(0.770387873005,9.342510833528E-02));
#431 = CARTESIAN_POINT('',(0.763637740238,8.438837649675E-02));
#432 = CARTESIAN_POINT('',(0.756833463511,7.546002661021E-02));
#433 = CARTESIAN_POINT('',(0.74997506443,6.664005936613E-02));
#434 = CARTESIAN_POINT('',(0.743062584091,5.792847490159E-02));
#435 = CARTESIAN_POINT('',(0.73609608362,4.932527268407E-02));
#436 = CARTESIAN_POINT('',(0.729075644698,4.083045139333E-02));
#437 = CARTESIAN_POINT('',(0.72200137015,3.24440087955E-02));
#438 = CARTESIAN_POINT('',(0.714873384259,2.416594163191E-02));
#439 = CARTESIAN_POINT('',(0.707691834075,1.599624543903E-02));
#440 = CARTESIAN_POINT('',(0.700456886952,7.934914611997E-03));
#441 = CARTESIAN_POINT('',(0.695598123759,2.632932567685E-03));
#442 = CARTESIAN_POINT('',(0.693159907577,3.330669073875E-16));
#443 = ( GEOMETRIC_REPRESENTATION_CONTEXT(2) 
PARAMETRIC_REPRESENTATION_CONTEXT() REPRESENTATION_CONTEXT('2D SPACE',''
  ) );
#444 = PCURVE('',#233,#445);
#445 = DEFINITIONAL_REPRESENTATION('',(#446),#451);
#446 = B_SPLINE_CURVE_WITH_KNOTS('',3,(#447,#448,#449,#450),
  .UNSPECIFIED.,.F.,.F.,(4,4),(0.,1.),.PIECEWISE_BEZIER_KNOTS.);
#447 = CARTESIAN_POINT('',(1.11803398875,-0.2));
#448 = CARTESIAN_POINT('',(1.016862448191,-0.124591185974));
#449 = CARTESIAN_POINT('',(0.92131519102,-5.792451930716E-02));
#450 = CARTESIAN_POINT('',(0.830662386292,0.));
#451 = ( GEOMETRIC_REPRESENTATION_CONTEXT(2) 
PARAMETRIC_REPRESENTATION_CONTEXT() REPRESENTATION_CONTEXT('2D SPACE',''
  ) );
#452 = ORIENTED_EDGE('',*,*,#453,.T.);
#453 = EDGE_CURVE('',#407,#454,#456,.T.);
#454 = VERTEX_POINT('',#455);
#455 = CARTESIAN_POINT('',(-0.830958910713,34.3,-0.999781149685));
#456 = SURFACE_CURVE('',#457,(#476,#527),.PCURVE_S1.);
#457 = B_SPLINE_CURVE_WITH_KNOTS('',3,(#458,#459,#460,#461,#462,#463,
    #464,#465,#466,#467,#468,#469,#470,#471,#472,#473,#474,#475),
  .UNSPECIFIED.,.F.,.F.,(4,2,2,2,2,2,2,2,4),(0.,0.125,0.25,0.375,0.5,
    0.625,0.75,0.875,1.),.UNSPECIFIED.);
#458 = CARTESIAN_POINT('',(0.83036586187,34.3,-0.999781149685));
#459 = CARTESIAN_POINT('',(1.034401924038,34.3,-0.830296067395));
#460 = CARTESIAN_POINT('',(1.184537870084,34.3,-0.596876925403));
#461 = CARTESIAN_POINT('',(1.323749525791,34.3,-8.497483901267E-02));
#462 = CARTESIAN_POINT('',(1.312505287101,34.3,0.192331607432));
#463 = CARTESIAN_POINT('',(1.132305516184,34.3,0.69128217983));
#464 = CARTESIAN_POINT('',(0.963764134762,34.3,0.911779574128));
#465 = CARTESIAN_POINT('',(0.529587623735,34.3,1.216598189714));
#466 = CARTESIAN_POINT('',(0.264950356397,34.3,1.300218850315));
#467 = CARTESIAN_POINT('',(-0.265543405239,34.3,1.300218850315));
#468 = CARTESIAN_POINT('',(-0.530180672578,34.3,1.216598189714));
#469 = CARTESIAN_POINT('',(-0.964357183605,34.3,0.911779574128));
#470 = CARTESIAN_POINT('',(-1.132898565026,34.3,0.69128217983));
#471 = CARTESIAN_POINT('',(-1.313098335944,34.3,0.192331607432));
#472 = CARTESIAN_POINT('',(-1.324342574634,34.3,-8.497483901266E-02));
#473 = CARTESIAN_POINT('',(-1.185130918927,34.3,-0.596876925403));
#474 = CARTESIAN_POINT('',(-1.034994972881,34.3,-0.830296067395));
#475 = CARTESIAN_POINT('',(-0.830958910713,34.3,-0.999781149685));
#476 = PCURVE('',#73,#477);
#477 = DEFINITIONAL_REPRESENTATION('',(#478),#526);
#478 = B_SPLINE_CURVE_WITH_KNOTS('',3,(#479,#480,#481,#482,#483,#484,
    #485,#486,#487,#488,#489,#490,#491,#492,#493,#494,#495,#496,#497,
    #498,#499,#500,#501,#502,#503,#504,#505,#506,#507,#508,#509,#510,
    #511,#512,#513,#514,#515,#516,#517,#518,#519,#520,#521,#522,#523,
    #524,#525),.UNSPECIFIED.,.F.,.F.,(4,1,1,1,1,1,1,1,1,1,1,1,1,1,1,1,1,
    1,1,1,1,1,1,1,1,1,1,1,1,1,1,1,1,1,1,1,1,1,1,1,1,1,1,1,4),(0.,
    2.272727272727E-02,4.545454545455E-02,6.818181818182E-02,
    9.090909090909E-02,0.113636363636,0.136363636364,0.159090909091,
    0.181818181818,0.204545454545,0.227272727273,0.25,0.272727272727,
    0.295454545455,0.318181818182,0.340909090909,0.363636363636,
    0.386363636364,0.409090909091,0.431818181818,0.454545454545,
    0.477272727273,0.5,0.522727272727,0.545454545455,0.568181818182,
    0.590909090909,0.613636363636,0.636363636364,0.659090909091,
    0.681818181818,0.704545454545,0.727272727273,0.75,0.772727272727,
    0.795454545455,0.818181818182,0.840909090909,0.863636363636,
    0.886363636364,0.909090909091,0.931818181818,0.954545454545,
    0.977272727273,1.),.QUASI_UNIFORM_KNOTS.);
#479 = CARTESIAN_POINT('',(0.693159907577,3.330669073875E-16));
#480 = CARTESIAN_POINT('',(0.730248693481,-7.432157908938E-06));
#481 = CARTESIAN_POINT('',(0.804429868391,-7.532610392711E-05));
#482 = CARTESIAN_POINT('',(0.915716575349,-2.205662544804E-04));
#483 = CARTESIAN_POINT('',(1.027047456625,-2.535337882151E-04));
#484 = CARTESIAN_POINT('',(1.138363911406,-1.584945192376E-04));
#485 = CARTESIAN_POINT('',(1.249626205542,1.37977630625E-06));
#486 = CARTESIAN_POINT('',(1.36090998444,1.35723185597E-06));
#487 = CARTESIAN_POINT('',(1.472172267646,-1.584268858854E-04));
#488 = CARTESIAN_POINT('',(1.583488766145,-2.537817771729E-04));
#489 = CARTESIAN_POINT('',(1.694819483478,-2.196419319789E-04));
#490 = CARTESIAN_POINT('',(1.80610680249,-7.877540497515E-05));
#491 = CARTESIAN_POINT('',(1.917376280584,3.938769678886E-05));
#492 = CARTESIAN_POINT('',(2.028645758673,-7.877538217963E-05));
#493 = CARTESIAN_POINT('',(2.139933077701,-2.196420231597E-04));
#494 = CARTESIAN_POINT('',(2.251263794974,-2.537814352455E-04));
#495 = CARTESIAN_POINT('',(2.362580293699,-1.584281624157E-04));
#496 = CARTESIAN_POINT('',(2.47384257606,1.361996049872E-06));
#497 = CARTESIAN_POINT('',(2.585126358113,1.361996060977E-06));
#498 = CARTESIAN_POINT('',(2.696388640474,-1.584281624504E-04));
#499 = CARTESIAN_POINT('',(2.807705139199,-2.537814351186E-04));
#500 = CARTESIAN_POINT('',(2.919035856472,-2.196420236323E-04));
#501 = CARTESIAN_POINT('',(3.0303231755,-7.877538041663E-05));
#502 = CARTESIAN_POINT('',(3.14159265359,3.938769020814E-05));
#503 = CARTESIAN_POINT('',(3.25286213168,-7.877538041662E-05));
#504 = CARTESIAN_POINT('',(3.364149450708,-2.196420236323E-04));
#505 = CARTESIAN_POINT('',(3.47548016798,-2.537814351185E-04));
#506 = CARTESIAN_POINT('',(3.586796666705,-1.584281624503E-04));
#507 = CARTESIAN_POINT('',(3.698058949066,1.361996061198E-06));
#508 = CARTESIAN_POINT('',(3.80934273112,1.361996050247E-06));
#509 = CARTESIAN_POINT('',(3.920605013481,-1.584281624174E-04));
#510 = CARTESIAN_POINT('',(4.031921512206,-2.537814352396E-04));
#511 = CARTESIAN_POINT('',(4.143252229478,-2.196420231593E-04));
#512 = CARTESIAN_POINT('',(4.254539548506,-7.877538218615E-05));
#513 = CARTESIAN_POINT('',(4.365809026595,3.938769679195E-05));
#514 = CARTESIAN_POINT('',(4.47707850469,-7.877540498164E-05));
#515 = CARTESIAN_POINT('',(4.588365823701,-2.196419319753E-04));
#516 = CARTESIAN_POINT('',(4.699696541035,-2.537817771794E-04));
#517 = CARTESIAN_POINT('',(4.811013039533,-1.584268858836E-04));
#518 = CARTESIAN_POINT('',(4.92227532274,1.357231855394E-06));
#519 = CARTESIAN_POINT('',(5.033559101638,1.379776307453E-06));
#520 = CARTESIAN_POINT('',(5.144821395774,-1.584945192391E-04));
#521 = CARTESIAN_POINT('',(5.256137850554,-2.535337882087E-04));
#522 = CARTESIAN_POINT('',(5.367468731831,-2.205662544818E-04));
#523 = CARTESIAN_POINT('',(5.478755438788,-7.532610392718E-05));
#524 = CARTESIAN_POINT('',(5.552936613699,-7.432157908709E-06));
#525 = CARTESIAN_POINT('',(5.590025399603,5.551115123126E-16));
#526 = ( GEOMETRIC_REPRESENTATION_CONTEXT(2) 
PARAMETRIC_REPRESENTATION_CONTEXT() REPRESENTATION_CONTEXT('2D SPACE',''
  ) );
#527 = PCURVE('',#528,#533);
#528 = PLANE('',#529);
#529 = AXIS2_PLACEMENT_3D('',#530,#531,#532);
#530 = CARTESIAN_POINT('',(1.499703475579,34.3,2.188503150191E-04));
#531 = DIRECTION('',(9.484695110153E-17,1.,-2.902153520719E-17));
#532 = DIRECTION('',(1.,-9.484695110153E-17,0.));
#533 = DEFINITIONAL_REPRESENTATION('',(#534),#553);
#534 = B_SPLINE_CURVE_WITH_KNOTS('',3,(#535,#536,#537,#538,#539,#540,
    #541,#542,#543,#544,#545,#546,#547,#548,#549,#550,#551,#552),
  .UNSPECIFIED.,.F.,.F.,(4,2,2,2,2,2,2,2,4),(0.,0.125,0.25,0.375,0.5,
    0.625,0.75,0.875,1.),.UNSPECIFIED.);
#535 = CARTESIAN_POINT('',(-0.669337613708,1.));
#536 = CARTESIAN_POINT('',(-0.46530155154,0.83051491771));
#537 = CARTESIAN_POINT('',(-0.315165605494,0.597095775718));
#538 = CARTESIAN_POINT('',(-0.175953949788,8.519368932769E-02));
#539 = CARTESIAN_POINT('',(-0.187198188478,-0.192112757117));
#540 = CARTESIAN_POINT('',(-0.367397959395,-0.691063329515));
#541 = CARTESIAN_POINT('',(-0.535939340817,-0.911560723813));
#542 = CARTESIAN_POINT('',(-0.970115851844,-1.216379339399));
#543 = CARTESIAN_POINT('',(-1.234753119182,-1.3));
#544 = CARTESIAN_POINT('',(-1.765246880818,-1.3));
#545 = CARTESIAN_POINT('',(-2.029884148156,-1.216379339399));
#546 = CARTESIAN_POINT('',(-2.464060659183,-0.911560723813));
#547 = CARTESIAN_POINT('',(-2.632602040605,-0.691063329515));
#548 = CARTESIAN_POINT('',(-2.812801811522,-0.192112757117));
#549 = CARTESIAN_POINT('',(-2.824046050212,8.519368932768E-02));
#550 = CARTESIAN_POINT('',(-2.684834394506,0.597095775718));
#551 = CARTESIAN_POINT('',(-2.53469844846,0.83051491771));
#552 = CARTESIAN_POINT('',(-2.330662386292,1.));
#553 = ( GEOMETRIC_REPRESENTATION_CONTEXT(2) 
PARAMETRIC_REPRESENTATION_CONTEXT() REPRESENTATION_CONTEXT('2D SPACE',''
  ) );
#554 = ORIENTED_EDGE('',*,*,#555,.T.);
#555 = EDGE_CURVE('',#454,#250,#556,.T.);
#556 = SURFACE_CURVE('',#557,(#562,#591),.PCURVE_S1.);
#557 = B_SPLINE_CURVE_WITH_KNOTS('',3,(#558,#559,#560,#561),
  .UNSPECIFIED.,.F.,.F.,(4,4),(0.,1.),.PIECEWISE_BEZIER_KNOTS.);
#558 = CARTESIAN_POINT('',(-0.830958910713,34.3,-0.999781149685));
#559 = CARTESIAN_POINT('',(-0.921611715441,34.242075480693,
    -0.999781149685));
#560 = CARTESIAN_POINT('',(-1.017158972612,34.175408814026,
    -0.999781149685));
#561 = CARTESIAN_POINT('',(-1.118330513171,34.1,-0.999781149685));
#562 = PCURVE('',#73,#563);
#563 = DEFINITIONAL_REPRESENTATION('',(#564),#590);
#564 = B_SPLINE_CURVE_WITH_KNOTS('',3,(#565,#566,#567,#568,#569,#570,
    #571,#572,#573,#574,#575,#576,#577,#578,#579,#580,#581,#582,#583,
    #584,#585,#586,#587,#588,#589),.UNSPECIFIED.,.F.,.F.,(4,1,1,1,1,1,1,
    1,1,1,1,1,1,1,1,1,1,1,1,1,1,1,4),(0.,4.545454545455E-02,
    9.090909090909E-02,0.136363636364,0.181818181818,0.227272727273,
    0.272727272727,0.318181818182,0.363636363636,0.409090909091,
    0.454545454545,0.5,0.545454545455,0.590909090909,0.636363636364,
    0.681818181818,0.727272727273,0.772727272727,0.818181818182,
    0.863636363636,0.909090909091,0.954545454545,1.),
  .QUASI_UNIFORM_KNOTS.);
#565 = CARTESIAN_POINT('',(5.590025399603,5.551115123126E-16));
#566 = CARTESIAN_POINT('',(5.587587183421,2.632932567685E-03));
#567 = CARTESIAN_POINT('',(5.582728420228,7.934914611997E-03));
#568 = CARTESIAN_POINT('',(5.575493473104,1.599624543903E-02));
#569 = CARTESIAN_POINT('',(5.568311922921,2.416594163191E-02));
#570 = CARTESIAN_POINT('',(5.561183937029,3.24440087955E-02));
#571 = CARTESIAN_POINT('',(5.554109662482,4.083045139333E-02));
#572 = CARTESIAN_POINT('',(5.54708922356,4.932527268407E-02));
#573 = CARTESIAN_POINT('',(5.540122723088,5.792847490159E-02));
#574 = CARTESIAN_POINT('',(5.533210242749,6.664005936613E-02));
#575 = CARTESIAN_POINT('',(5.526351843669,7.546002661021E-02));
#576 = CARTESIAN_POINT('',(5.519547566941,8.438837649675E-02));
#577 = CARTESIAN_POINT('',(5.512797434175,9.342510833528E-02));
#578 = CARTESIAN_POINT('',(5.506101448036,0.102570220995));
#579 = CARTESIAN_POINT('',(5.499459592794,0.111823713013));
#580 = CARTESIAN_POINT('',(5.492871834876,0.121185582704));
#581 = CARTESIAN_POINT('',(5.486338123408,0.130655828259));
#582 = CARTESIAN_POINT('',(5.479858390765,0.14023444785));
#583 = CARTESIAN_POINT('',(5.473432553124,0.149921439721));
#584 = CARTESIAN_POINT('',(5.467060510974,0.159716802287));
#585 = CARTESIAN_POINT('',(5.460742149777,0.169620534217));
#586 = CARTESIAN_POINT('',(5.454477340057,0.179632634541));
#587 = CARTESIAN_POINT('',(5.448265939594,0.189753102659));
#588 = CARTESIAN_POINT('',(5.444160505025,0.196572326683));
#589 = CARTESIAN_POINT('',(5.442116636612,0.2));
#590 = ( GEOMETRIC_REPRESENTATION_CONTEXT(2) 
PARAMETRIC_REPRESENTATION_CONTEXT() REPRESENTATION_CONTEXT('2D SPACE',''
  ) );
#591 = PCURVE('',#233,#592);
#592 = DEFINITIONAL_REPRESENTATION('',(#593),#598);
#593 = B_SPLINE_CURVE_WITH_KNOTS('',3,(#594,#595,#596,#597),
  .UNSPECIFIED.,.F.,.F.,(4,4),(0.,1.),.PIECEWISE_BEZIER_KNOTS.);
#594 = CARTESIAN_POINT('',(-0.830662386292,0.));
#595 = CARTESIAN_POINT('',(-0.92131519102,-5.792451930716E-02));
#596 = CARTESIAN_POINT('',(-1.016862448191,-0.124591185974));
#597 = CARTESIAN_POINT('',(-1.11803398875,-0.2));
#598 = ( GEOMETRIC_REPRESENTATION_CONTEXT(2) 
PARAMETRIC_REPRESENTATION_CONTEXT() REPRESENTATION_CONTEXT('2D SPACE',''
  ) );
#599 = ORIENTED_EDGE('',*,*,#331,.F.);
#600 = ORIENTED_EDGE('',*,*,#21,.F.);
#601 = ADVANCED_FACE('',(#602),#233,.F.);
#602 = FACE_BOUND('',#603,.T.);
#603 = EDGE_LOOP('',(#604,#605,#606,#630,#631,#632));
#604 = ORIENTED_EDGE('',*,*,#406,.F.);
#605 = ORIENTED_EDGE('',*,*,#219,.F.);
#606 = ORIENTED_EDGE('',*,*,#607,.F.);
#607 = EDGE_CURVE('',#252,#187,#608,.T.);
#608 = SURFACE_CURVE('',#609,(#614,#622),.PCURVE_S1.);
#609 = B_SPLINE_CURVE_WITH_KNOTS('',3,(#610,#611,#612,#613),
  .UNSPECIFIED.,.F.,.F.,(4,4),(0.,1.),.PIECEWISE_BEZIER_KNOTS.);
#610 = CARTESIAN_POINT('',(-1.118330513171,25.1,-0.999781149685));
#611 = CARTESIAN_POINT('',(-0.372974520671,25.1,-0.999781149685));
#612 = CARTESIAN_POINT('',(0.372381471829,25.1,-0.999781149685));
#613 = CARTESIAN_POINT('',(1.117737464329,25.1,-0.999781149685));
#614 = PCURVE('',#233,#615);
#615 = DEFINITIONAL_REPRESENTATION('',(#616),#621);
#616 = B_SPLINE_CURVE_WITH_KNOTS('',3,(#617,#618,#619,#620),
  .UNSPECIFIED.,.F.,.F.,(4,4),(0.,1.),.PIECEWISE_BEZIER_KNOTS.);
#617 = CARTESIAN_POINT('',(-1.11803398875,-9.2));
#618 = CARTESIAN_POINT('',(-0.37267799625,-9.2));
#619 = CARTESIAN_POINT('',(0.37267799625,-9.2));
#620 = CARTESIAN_POINT('',(1.11803398875,-9.2));
#621 = ( GEOMETRIC_REPRESENTATION_CONTEXT(2) 
PARAMETRIC_REPRESENTATION_CONTEXT() REPRESENTATION_CONTEXT('2D SPACE',''
  ) );
#622 = PCURVE('',#204,#623);
#623 = DEFINITIONAL_REPRESENTATION('',(#624),#629);
#624 = B_SPLINE_CURVE_WITH_KNOTS('',3,(#625,#626,#627,#628),
  .UNSPECIFIED.,.F.,.F.,(4,4),(0.,1.),.PIECEWISE_BEZIER_KNOTS.);
#625 = CARTESIAN_POINT('',(-0.88196601125,0.));
#626 = CARTESIAN_POINT('',(-1.62732200375,-4.440892098501E-16));
#627 = CARTESIAN_POINT('',(-2.37267799625,-6.661338147751E-16));
#628 = CARTESIAN_POINT('',(-3.11803398875,-1.110223024625E-15));
#629 = ( GEOMETRIC_REPRESENTATION_CONTEXT(2) 
PARAMETRIC_REPRESENTATION_CONTEXT() REPRESENTATION_CONTEXT('2D SPACE',''
  ) );
#630 = ORIENTED_EDGE('',*,*,#249,.F.);
#631 = ORIENTED_EDGE('',*,*,#555,.F.);
#632 = ORIENTED_EDGE('',*,*,#633,.F.);
#633 = EDGE_CURVE('',#407,#454,#634,.T.);
#634 = SURFACE_CURVE('',#635,(#640,#648),.PCURVE_S1.);
#635 = B_SPLINE_CURVE_WITH_KNOTS('',3,(#636,#637,#638,#639),
  .UNSPECIFIED.,.F.,.F.,(4,4),(0.,1.),.PIECEWISE_BEZIER_KNOTS.);
#636 = CARTESIAN_POINT('',(0.83036586187,34.3,-0.999781149685));
#637 = CARTESIAN_POINT('',(0.276590937676,34.3,-0.999781149685));
#638 = CARTESIAN_POINT('',(-0.277183986519,34.3,-0.999781149685));
#639 = CARTESIAN_POINT('',(-0.830958910713,34.3,-0.999781149685));
#640 = PCURVE('',#233,#641);
#641 = DEFINITIONAL_REPRESENTATION('',(#642),#647);
#642 = B_SPLINE_CURVE_WITH_KNOTS('',3,(#643,#644,#645,#646),
  .UNSPECIFIED.,.F.,.F.,(4,4),(0.,1.),.PIECEWISE_BEZIER_KNOTS.);
#643 = CARTESIAN_POINT('',(0.830662386292,0.));
#644 = CARTESIAN_POINT('',(0.276887462097,0.));
#645 = CARTESIAN_POINT('',(-0.276887462097,0.));
#646 = CARTESIAN_POINT('',(-0.830662386292,0.));
#647 = ( GEOMETRIC_REPRESENTATION_CONTEXT(2) 
PARAMETRIC_REPRESENTATION_CONTEXT() REPRESENTATION_CONTEXT('2D SPACE',''
  ) );
#648 = PCURVE('',#528,#649);
#649 = DEFINITIONAL_REPRESENTATION('',(#650),#655);
#650 = B_SPLINE_CURVE_WITH_KNOTS('',3,(#651,#652,#653,#654),
  .UNSPECIFIED.,.F.,.F.,(4,4),(0.,1.),.PIECEWISE_BEZIER_KNOTS.);
#651 = CARTESIAN_POINT('',(-0.669337613708,1.));
#652 = CARTESIAN_POINT('',(-1.223112537903,1.));
#653 = CARTESIAN_POINT('',(-1.776887462097,1.));
#654 = CARTESIAN_POINT('',(-2.330662386292,1.));
#655 = ( GEOMETRIC_REPRESENTATION_CONTEXT(2) 
PARAMETRIC_REPRESENTATION_CONTEXT() REPRESENTATION_CONTEXT('2D SPACE',''
  ) );
#656 = ADVANCED_FACE('',(#657),#204,.F.);
#657 = FACE_BOUND('',#658,.T.);
#658 = EDGE_LOOP('',(#659,#660,#661));
#659 = ORIENTED_EDGE('',*,*,#275,.F.);
#660 = ORIENTED_EDGE('',*,*,#607,.T.);
#661 = ORIENTED_EDGE('',*,*,#186,.F.);
#662 = ADVANCED_FACE('',(#663),#528,.T.);
#663 = FACE_BOUND('',#664,.T.);
#664 = EDGE_LOOP('',(#665,#666));
#665 = ORIENTED_EDGE('',*,*,#633,.T.);
#666 = ORIENTED_EDGE('',*,*,#453,.F.);
#667 = ( GEOMETRIC_REPRESENTATION_CONTEXT(3) 
GLOBAL_UNCERTAINTY_ASSIGNED_CONTEXT((#671)) GLOBAL_UNIT_ASSIGNED_CONTEXT
((#668,#669,#670)) REPRESENTATION_CONTEXT('Context #1',
  '3D Context with UNIT and UNCERTAINTY') );
#668 = ( LENGTH_UNIT() NAMED_UNIT(*) SI_UNIT(.MILLI.,.METRE.) );
#669 = ( NAMED_UNIT(*) PLANE_ANGLE_UNIT() SI_UNIT($,.RADIAN.) );
#670 = ( NAMED_UNIT(*) SI_UNIT($,.STERADIAN.) SOLID_ANGLE_UNIT() );
#671 = UNCERTAINTY_MEASURE_WITH_UNIT(LENGTH_MEASURE(2.E-04),#668,
  'distance_accuracy_value','confusion accuracy');
#672 = PRODUCT_RELATED_PRODUCT_CATEGORY('part',$,(#7));
ENDSEC;
END-ISO-10303-21;
