ISO-10303-21;
HEADER;
FILE_DESCRIPTION(('Open CASCADE Model'),'2;1');
FILE_NAME('Open CASCADE Shape Model','2026-03-14T15:57:21',('Author'),(
    'Open CASCADE'),'Open CASCADE STEP processor 7.8','build123d',
  'Unknown');
FILE_SCHEMA(('AUTOMOTIVE_DESIGN { 1 0 10303 214 1 1 1 1 }'));
ENDSEC;
DATA;
#1 = APPLICATION_PROTOCOL_DEFINITION('international standard',
  'automotive_design',2000,#2);
#2 = APPLICATION_CONTEXT(
  'core data for automotive mechanical design processes');
#3 = SHAPE_DEFINITION_REPRESENTATION(#4,#10);
#4 = PRODUCT_DEFINITION_SHAPE('','',#5);
#5 = PRODUCT_DEFINITION('design','',#6,#9);
#6 = PRODUCT_DEFINITION_FORMATION('','',#7);
#7 = PRODUCT('SHELL','SHELL','',(#8));
#8 = PRODUCT_CONTEXT('',#2,'mechanical');
#9 = PRODUCT_DEFINITION_CONTEXT('part definition',#2,'design');
#10 = MANIFOLD_SURFACE_SHAPE_REPRESENTATION('',(#11,#15),#195);
#11 = AXIS2_PLACEMENT_3D('',#12,#13,#14);
#12 = CARTESIAN_POINT('',(0.,0.,0.));
#13 = DIRECTION('',(0.,0.,1.));
#14 = DIRECTION('',(1.,0.,-0.));
#15 = SHELL_BASED_SURFACE_MODEL('',(#16));
#16 = OPEN_SHELL('',(#17,#134));
#17 = ADVANCED_FACE('',(#18),#47,.T.);
#18 = FACE_BOUND('',#19,.T.);
#19 = EDGE_LOOP('',(#20,#57,#84,#114));
#20 = ORIENTED_EDGE('',*,*,#21,.T.);
#21 = EDGE_CURVE('',#22,#24,#26,.T.);
#22 = VERTEX_POINT('',#23);
#23 = CARTESIAN_POINT('',(-1.595806151806,19.15,-4.688475522583));
#24 = VERTEX_POINT('',#25);
#25 = CARTESIAN_POINT('',(-4.009648298731,19.15,-2.907081099743));
#26 = SURFACE_CURVE('',#27,(#46),.PCURVE_S1.);
#27 = B_SPLINE_CURVE_WITH_KNOTS('',3,(#28,#29,#30,#31,#32,#33,#34,#35,
    #36,#37,#38,#39,#40,#41,#42,#43,#44,#45),.UNSPECIFIED.,.F.,.F.,(4,2,
    2,2,2,2,2,2,4),(0.,0.125,0.25,0.375,0.5,0.625,0.75,0.875,1.),
  .UNSPECIFIED.);
#28 = CARTESIAN_POINT('',(-1.595806151806,19.15,-4.688475522583));
#29 = CARTESIAN_POINT('',(-1.712398144138,19.15,-4.84646112166));
#30 = CARTESIAN_POINT('',(-1.860357187515,19.15,-4.981202095838));
#31 = CARTESIAN_POINT('',(-2.196708040894,19.15,-5.183885771052));
#32 = CARTESIAN_POINT('',(-2.384967511198,19.15,-5.251748724717));
#33 = CARTESIAN_POINT('',(-2.773278864893,19.15,-5.310288124772));
#34 = CARTESIAN_POINT('',(-2.973177964347,19.15,-5.300941538407));
#35 = CARTESIAN_POINT('',(-3.354332934809,19.15,-5.206424570305));
#36 = CARTESIAN_POINT('',(-3.535438837611,19.15,-5.121291376958));
#37 = CARTESIAN_POINT('',(-3.851410035766,19.15,-4.888107392293));
#38 = CARTESIAN_POINT('',(-3.986151009944,19.15,-4.740148348917));
#39 = CARTESIAN_POINT('',(-4.188834685158,19.15,-4.403797495538));
#40 = CARTESIAN_POINT('',(-4.256697638823,19.15,-4.215538025234));
#41 = CARTESIAN_POINT('',(-4.315237038877,19.15,-3.827226671539));
#42 = CARTESIAN_POINT('',(-4.305890452513,19.15,-3.627327572084));
#43 = CARTESIAN_POINT('',(-4.21137348441,19.15,-3.246172601622));
#44 = CARTESIAN_POINT('',(-4.126240291063,19.15,-3.06506669882));
#45 = CARTESIAN_POINT('',(-4.009648298731,19.15,-2.907081099743));
#46 = PCURVE('',#47,#52);
#47 = CYLINDRICAL_SURFACE('',#48,1.5);
#48 = AXIS2_PLACEMENT_3D('',#49,#50,#51);
#49 = CARTESIAN_POINT('',(-2.802727225269,15.2,-3.797778311163));
#50 = DIRECTION('',(0.,-1.,0.));
#51 = DIRECTION('',(-0.804614048975,0.,0.593798140947));
#52 = DEFINITIONAL_REPRESENTATION('',(#53),#56);
#53 = B_SPLINE_CURVE_WITH_KNOTS('',1,(#54,#55),.UNSPECIFIED.,.F.,.F.,(2,
    2),(0.,1.),.PIECEWISE_BEZIER_KNOTS.);
#54 = CARTESIAN_POINT('',(3.14159265359,-3.95));
#55 = CARTESIAN_POINT('',(0.,-3.95));
#56 = ( GEOMETRIC_REPRESENTATION_CONTEXT(2) 
PARAMETRIC_REPRESENTATION_CONTEXT() REPRESENTATION_CONTEXT('2D SPACE',''
  ) );
#57 = ORIENTED_EDGE('',*,*,#58,.T.);
#58 = EDGE_CURVE('',#24,#59,#61,.T.);
#59 = VERTEX_POINT('',#60);
#60 = CARTESIAN_POINT('',(-4.009648298731,23.33,-2.907081099743));
#61 = SURFACE_CURVE('',#62,(#67,#73),.PCURVE_S1.);
#62 = B_SPLINE_CURVE_WITH_KNOTS('',3,(#63,#64,#65,#66),.UNSPECIFIED.,.F.
  ,.F.,(4,4),(0.,1.),.PIECEWISE_BEZIER_KNOTS.);
#63 = CARTESIAN_POINT('',(-4.009648298731,19.15,-2.907081099743));
#64 = CARTESIAN_POINT('',(-4.009648298731,20.543333333333,
    -2.907081099743));
#65 = CARTESIAN_POINT('',(-4.009648298731,21.936666666667,
    -2.907081099743));
#66 = CARTESIAN_POINT('',(-4.009648298731,23.33,-2.907081099743));
#67 = PCURVE('',#47,#68);
#68 = DEFINITIONAL_REPRESENTATION('',(#69),#72);
#69 = B_SPLINE_CURVE_WITH_KNOTS('',1,(#70,#71),.UNSPECIFIED.,.F.,.F.,(2,
    2),(0.,1.),.PIECEWISE_BEZIER_KNOTS.);
#70 = CARTESIAN_POINT('',(0.,-3.95));
#71 = CARTESIAN_POINT('',(0.,-8.13));
#72 = ( GEOMETRIC_REPRESENTATION_CONTEXT(2) 
PARAMETRIC_REPRESENTATION_CONTEXT() REPRESENTATION_CONTEXT('2D SPACE',''
  ) );
#73 = PCURVE('',#74,#79);
#74 = CYLINDRICAL_SURFACE('',#75,1.5);
#75 = AXIS2_PLACEMENT_3D('',#76,#77,#78);
#76 = CARTESIAN_POINT('',(-2.802727225269,15.2,-3.797778311163));
#77 = DIRECTION('',(0.,-1.,0.));
#78 = DIRECTION('',(-0.804614048975,0.,0.593798140947));
#79 = DEFINITIONAL_REPRESENTATION('',(#80),#83);
#80 = B_SPLINE_CURVE_WITH_KNOTS('',1,(#81,#82),.UNSPECIFIED.,.F.,.F.,(2,
    2),(0.,1.),.PIECEWISE_BEZIER_KNOTS.);
#81 = CARTESIAN_POINT('',(6.28318530718,-3.95));
#82 = CARTESIAN_POINT('',(6.28318530718,-8.13));
#83 = ( GEOMETRIC_REPRESENTATION_CONTEXT(2) 
PARAMETRIC_REPRESENTATION_CONTEXT() REPRESENTATION_CONTEXT('2D SPACE',''
  ) );
#84 = ORIENTED_EDGE('',*,*,#85,.T.);
#85 = EDGE_CURVE('',#59,#86,#88,.T.);
#86 = VERTEX_POINT('',#87);
#87 = CARTESIAN_POINT('',(-1.595806151806,23.33,-4.688475522583));
#88 = SURFACE_CURVE('',#89,(#108),.PCURVE_S1.);
#89 = B_SPLINE_CURVE_WITH_KNOTS('',3,(#90,#91,#92,#93,#94,#95,#96,#97,
    #98,#99,#100,#101,#102,#103,#104,#105,#106,#107),.UNSPECIFIED.,.F.,
  .F.,(4,2,2,2,2,2,2,2,4),(0.,0.125,0.25,0.375,0.5,0.625,0.75,0.875,1.),
  .UNSPECIFIED.);
#90 = CARTESIAN_POINT('',(-4.009648298731,23.33,-2.907081099743));
#91 = CARTESIAN_POINT('',(-4.126240291063,23.33,-3.06506669882));
#92 = CARTESIAN_POINT('',(-4.21137348441,23.33,-3.246172601622));
#93 = CARTESIAN_POINT('',(-4.305890452513,23.33,-3.627327572084));
#94 = CARTESIAN_POINT('',(-4.315237038877,23.33,-3.827226671539));
#95 = CARTESIAN_POINT('',(-4.256697638823,23.33,-4.215538025234));
#96 = CARTESIAN_POINT('',(-4.188834685158,23.33,-4.403797495538));
#97 = CARTESIAN_POINT('',(-3.986151009944,23.33,-4.740148348917));
#98 = CARTESIAN_POINT('',(-3.851410035766,23.33,-4.888107392293));
#99 = CARTESIAN_POINT('',(-3.535438837611,23.33,-5.121291376958));
#100 = CARTESIAN_POINT('',(-3.354332934809,23.33,-5.206424570305));
#101 = CARTESIAN_POINT('',(-2.973177964347,23.33,-5.300941538407));
#102 = CARTESIAN_POINT('',(-2.773278864893,23.33,-5.310288124772));
#103 = CARTESIAN_POINT('',(-2.384967511198,23.33,-5.251748724717));
#104 = CARTESIAN_POINT('',(-2.196708040894,23.33,-5.183885771052));
#105 = CARTESIAN_POINT('',(-1.860357187515,23.33,-4.981202095838));
#106 = CARTESIAN_POINT('',(-1.712398144138,23.33,-4.84646112166));
#107 = CARTESIAN_POINT('',(-1.595806151806,23.33,-4.688475522583));
#108 = PCURVE('',#47,#109);
#109 = DEFINITIONAL_REPRESENTATION('',(#110),#113);
#110 = B_SPLINE_CURVE_WITH_KNOTS('',1,(#111,#112),.UNSPECIFIED.,.F.,.F.,
  (2,2),(0.,1.),.PIECEWISE_BEZIER_KNOTS.);
#111 = CARTESIAN_POINT('',(0.,-8.13));
#112 = CARTESIAN_POINT('',(3.14159265359,-8.13));
#113 = ( GEOMETRIC_REPRESENTATION_CONTEXT(2) 
PARAMETRIC_REPRESENTATION_CONTEXT() REPRESENTATION_CONTEXT('2D SPACE',''
  ) );
#114 = ORIENTED_EDGE('',*,*,#115,.T.);
#115 = EDGE_CURVE('',#86,#22,#116,.T.);
#116 = SURFACE_CURVE('',#117,(#122,#128),.PCURVE_S1.);
#117 = B_SPLINE_CURVE_WITH_KNOTS('',3,(#118,#119,#120,#121),
  .UNSPECIFIED.,.F.,.F.,(4,4),(0.,1.),.PIECEWISE_BEZIER_KNOTS.);
#118 = CARTESIAN_POINT('',(-1.595806151806,23.33,-4.688475522583));
#119 = CARTESIAN_POINT('',(-1.595806151806,21.936666666667,
    -4.688475522583));
#120 = CARTESIAN_POINT('',(-1.595806151806,20.543333333333,
    -4.688475522583));
#121 = CARTESIAN_POINT('',(-1.595806151806,19.15,-4.688475522583));
#122 = PCURVE('',#47,#123);
#123 = DEFINITIONAL_REPRESENTATION('',(#124),#127);
#124 = B_SPLINE_CURVE_WITH_KNOTS('',1,(#125,#126),.UNSPECIFIED.,.F.,.F.,
  (2,2),(0.,1.),.PIECEWISE_BEZIER_KNOTS.);
#125 = CARTESIAN_POINT('',(3.14159265359,-8.13));
#126 = CARTESIAN_POINT('',(3.14159265359,-3.95));
#127 = ( GEOMETRIC_REPRESENTATION_CONTEXT(2) 
PARAMETRIC_REPRESENTATION_CONTEXT() REPRESENTATION_CONTEXT('2D SPACE',''
  ) );
#128 = PCURVE('',#74,#129);
#129 = DEFINITIONAL_REPRESENTATION('',(#130),#133);
#130 = B_SPLINE_CURVE_WITH_KNOTS('',1,(#131,#132),.UNSPECIFIED.,.F.,.F.,
  (2,2),(0.,1.),.PIECEWISE_BEZIER_KNOTS.);
#131 = CARTESIAN_POINT('',(3.14159265359,-8.13));
#132 = CARTESIAN_POINT('',(3.14159265359,-3.95));
#133 = ( GEOMETRIC_REPRESENTATION_CONTEXT(2) 
PARAMETRIC_REPRESENTATION_CONTEXT() REPRESENTATION_CONTEXT('2D SPACE',''
  ) );
#134 = ADVANCED_FACE('',(#135),#74,.T.);
#135 = FACE_BOUND('',#136,.T.);
#136 = EDGE_LOOP('',(#137,#138,#166,#167));
#137 = ORIENTED_EDGE('',*,*,#58,.F.);
#138 = ORIENTED_EDGE('',*,*,#139,.T.);
#139 = EDGE_CURVE('',#24,#22,#140,.T.);
#140 = SURFACE_CURVE('',#141,(#160),.PCURVE_S1.);
#141 = B_SPLINE_CURVE_WITH_KNOTS('',3,(#142,#143,#144,#145,#146,#147,
    #148,#149,#150,#151,#152,#153,#154,#155,#156,#157,#158,#159),
  .UNSPECIFIED.,.F.,.F.,(4,2,2,2,2,2,2,2,4),(0.,0.125,0.25,0.375,0.5,
    0.625,0.75,0.875,1.),.UNSPECIFIED.);
#142 = CARTESIAN_POINT('',(-4.009648298731,19.15,-2.907081099743));
#143 = CARTESIAN_POINT('',(-3.893056306399,19.15,-2.749095500665));
#144 = CARTESIAN_POINT('',(-3.745097263023,19.15,-2.614354526487));
#145 = CARTESIAN_POINT('',(-3.408746409644,19.15,-2.411670851273));
#146 = CARTESIAN_POINT('',(-3.220486939339,19.15,-2.343807897608));
#147 = CARTESIAN_POINT('',(-2.832175585645,19.15,-2.285268497554));
#148 = CARTESIAN_POINT('',(-2.63227648619,19.15,-2.294615083919));
#149 = CARTESIAN_POINT('',(-2.251121515728,19.15,-2.389132052021));
#150 = CARTESIAN_POINT('',(-2.070015612926,19.15,-2.474265245368));
#151 = CARTESIAN_POINT('',(-1.754044414771,19.15,-2.707449230032));
#152 = CARTESIAN_POINT('',(-1.619303440593,19.15,-2.855408273409));
#153 = CARTESIAN_POINT('',(-1.416619765379,19.15,-3.191759126788));
#154 = CARTESIAN_POINT('',(-1.348756811714,19.15,-3.380018597092));
#155 = CARTESIAN_POINT('',(-1.29021741166,19.15,-3.768329950787));
#156 = CARTESIAN_POINT('',(-1.299563998024,19.15,-3.968229050241));
#157 = CARTESIAN_POINT('',(-1.394080966127,19.15,-4.349384020703));
#158 = CARTESIAN_POINT('',(-1.479214159474,19.15,-4.530489923506));
#159 = CARTESIAN_POINT('',(-1.595806151806,19.15,-4.688475522583));
#160 = PCURVE('',#74,#161);
#161 = DEFINITIONAL_REPRESENTATION('',(#162),#165);
#162 = B_SPLINE_CURVE_WITH_KNOTS('',1,(#163,#164),.UNSPECIFIED.,.F.,.F.,
  (2,2),(0.,1.),.PIECEWISE_BEZIER_KNOTS.);
#163 = CARTESIAN_POINT('',(6.28318530718,-3.95));
#164 = CARTESIAN_POINT('',(3.14159265359,-3.95));
#165 = ( GEOMETRIC_REPRESENTATION_CONTEXT(2) 
PARAMETRIC_REPRESENTATION_CONTEXT() REPRESENTATION_CONTEXT('2D SPACE',''
  ) );
#166 = ORIENTED_EDGE('',*,*,#115,.F.);
#167 = ORIENTED_EDGE('',*,*,#168,.T.);
#168 = EDGE_CURVE('',#86,#59,#169,.T.);
#169 = SURFACE_CURVE('',#170,(#189),.PCURVE_S1.);
#170 = B_SPLINE_CURVE_WITH_KNOTS('',3,(#171,#172,#173,#174,#175,#176,
    #177,#178,#179,#180,#181,#182,#183,#184,#185,#186,#187,#188),
  .UNSPECIFIED.,.F.,.F.,(4,2,2,2,2,2,2,2,4),(0.,0.125,0.25,0.375,0.5,
    0.625,0.75,0.875,1.),.UNSPECIFIED.);
#171 = CARTESIAN_POINT('',(-1.595806151806,23.33,-4.688475522583));
#172 = CARTESIAN_POINT('',(-1.479214159474,23.33,-4.530489923506));
#173 = CARTESIAN_POINT('',(-1.394080966127,23.33,-4.349384020703));
#174 = CARTESIAN_POINT('',(-1.299563998024,23.33,-3.968229050241));
#175 = CARTESIAN_POINT('',(-1.29021741166,23.33,-3.768329950787));
#176 = CARTESIAN_POINT('',(-1.348756811714,23.33,-3.380018597092));
#177 = CARTESIAN_POINT('',(-1.416619765379,23.33,-3.191759126788));
#178 = CARTESIAN_POINT('',(-1.619303440593,23.33,-2.855408273409));
#179 = CARTESIAN_POINT('',(-1.754044414771,23.33,-2.707449230032));
#180 = CARTESIAN_POINT('',(-2.070015612926,23.33,-2.474265245368));
#181 = CARTESIAN_POINT('',(-2.251121515728,23.33,-2.389132052021));
#182 = CARTESIAN_POINT('',(-2.63227648619,23.33,-2.294615083919));
#183 = CARTESIAN_POINT('',(-2.832175585645,23.33,-2.285268497554));
#184 = CARTESIAN_POINT('',(-3.220486939339,23.33,-2.343807897608));
#185 = CARTESIAN_POINT('',(-3.408746409644,23.33,-2.411670851273));
#186 = CARTESIAN_POINT('',(-3.745097263023,23.33,-2.614354526487));
#187 = CARTESIAN_POINT('',(-3.893056306399,23.33,-2.749095500665));
#188 = CARTESIAN_POINT('',(-4.009648298731,23.33,-2.907081099743));
#189 = PCURVE('',#74,#190);
#190 = DEFINITIONAL_REPRESENTATION('',(#191),#194);
#191 = B_SPLINE_CURVE_WITH_KNOTS('',1,(#192,#193),.UNSPECIFIED.,.F.,.F.,
  (2,2),(0.,1.),.PIECEWISE_BEZIER_KNOTS.);
#192 = CARTESIAN_POINT('',(3.14159265359,-8.13));
#193 = CARTESIAN_POINT('',(6.28318530718,-8.13));
#194 = ( GEOMETRIC_REPRESENTATION_CONTEXT(2) 
PARAMETRIC_REPRESENTATION_CONTEXT() REPRESENTATION_CONTEXT('2D SPACE',''
  ) );
#195 = ( GEOMETRIC_REPRESENTATION_CONTEXT(3) 
GLOBAL_UNCERTAINTY_ASSIGNED_CONTEXT((#199)) GLOBAL_UNIT_ASSIGNED_CONTEXT
((#196,#197,#198)) REPRESENTATION_CONTEXT('Context #1',
  '3D Context with UNIT and UNCERTAINTY') );
#196 = ( LENGTH_UNIT() NAMED_UNIT(*) SI_UNIT(.MILLI.,.METRE.) );
#197 = ( NAMED_UNIT(*) PLANE_ANGLE_UNIT() SI_UNIT($,.RADIAN.) );
#198 = ( NAMED_UNIT(*) SI_UNIT($,.STERADIAN.) SOLID_ANGLE_UNIT() );
#199 = UNCERTAINTY_MEASURE_WITH_UNIT(LENGTH_MEASURE(1.E-04),#196,
  'distance_accuracy_value','confusion accuracy');
#200 = PRODUCT_RELATED_PRODUCT_CATEGORY('part',$,(#7));
ENDSEC;
END-ISO-10303-21;
