ISO-10303-21;
HEADER;
FILE_DESCRIPTION(('Open CASCADE Model'),'2;1');
FILE_NAME('Open CASCADE Shape Model','2026-03-14T15:57:21',('Author'),(
    'Open CASCADE'),'Open CASCADE STEP processor 7.8','build123d',
  'Unknown');
FILE_SCHEMA(('AUTOMOTIVE_DESIGN { 1 0 10303 214 1 1 1 1 }'));
ENDSEC;
DATA;
#1 = APPLICATION_PROTOCOL_DEFINITION('international standard',
  'automotive_design',2000,#2);
#2 = APPLICATION_CONTEXT(
  'core data for automotive mechanical design processes');
#3 = SHAPE_DEFINITION_REPRESENTATION(#4,#10);
#4 = PRODUCT_DEFINITION_SHAPE('','',#5);
#5 = PRODUCT_DEFINITION('design','',#6,#9);
#6 = PRODUCT_DEFINITION_FORMATION('','',#7);
#7 = PRODUCT('SHELL','SHELL','',(#8));
#8 = PRODUCT_CONTEXT('',#2,'mechanical');
#9 = PRODUCT_DEFINITION_CONTEXT('part definition',#2,'design');
#10 = MANIFOLD_SURFACE_SHAPE_REPRESENTATION('',(#11,#15),#195);
#11 = AXIS2_PLACEMENT_3D('',#12,#13,#14);
#12 = CARTESIAN_POINT('',(0.,0.,0.));
#13 = DIRECTION('',(0.,0.,1.));
#14 = DIRECTION('',(1.,0.,-0.));
#15 = SHELL_BASED_SURFACE_MODEL('',(#16));
#16 = OPEN_SHELL('',(#17,#134));
#17 = ADVANCED_FACE('',(#18),#47,.T.);
#18 = FACE_BOUND('',#19,.T.);
#19 = EDGE_LOOP('',(#20,#57,#84,#114));
#20 = ORIENTED_EDGE('',*,*,#21,.T.);
#21 = EDGE_CURVE('',#22,#24,#26,.T.);
#22 = VERTEX_POINT('',#23);
#23 = CARTESIAN_POINT('',(3.99804150963,19.15,2.891564339961));
#24 = VERTEX_POINT('',#25);
#25 = CARTESIAN_POINT('',(1.607412940907,19.15,4.703992282364));
#26 = SURFACE_CURVE('',#27,(#46),.PCURVE_S1.);
#27 = B_SPLINE_CURVE_WITH_KNOTS('',3,(#28,#29,#30,#31,#32,#33,#34,#35,
    #36,#37,#38,#39,#40,#41,#42,#43,#44,#45),.UNSPECIFIED.,.F.,.F.,(4,2,
    2,2,2,2,2,2,4),(0.,0.125,0.25,0.375,0.5,0.625,0.75,0.875,1.),
  .UNSPECIFIED.);
#28 = CARTESIAN_POINT('',(3.99804150963,19.15,2.891564339961));
#29 = CARTESIAN_POINT('',(3.879418378193,19.15,2.735098066025));
#30 = CARTESIAN_POINT('',(3.72973108853,19.15,2.602279678921));
#31 = CARTESIAN_POINT('',(3.390790020575,19.15,2.403957917077));
#32 = CARTESIAN_POINT('',(3.20166960112,19.15,2.338532573481));
#33 = CARTESIAN_POINT('',(2.812634433175,19.15,2.285014288116));
#34 = CARTESIAN_POINT('',(2.612872753409,19.15,2.296942403508));
#35 = CARTESIAN_POINT('',(2.23297056318,19.15,2.396375268424));
#36 = CARTESIAN_POINT('',(2.052979528004,19.15,2.483840895363));
#37 = CARTESIAN_POINT('',(1.74004698013,19.15,2.721087158239));
#38 = CARTESIAN_POINT('',(1.607228593027,19.15,2.870774447902));
#39 = CARTESIAN_POINT('',(1.408906831183,19.15,3.209715515856));
#40 = CARTESIAN_POINT('',(1.343481487587,19.15,3.398835935311));
#41 = CARTESIAN_POINT('',(1.289963202222,19.15,3.787871103257));
#42 = CARTESIAN_POINT('',(1.301891317614,19.15,3.987632783022));
#43 = CARTESIAN_POINT('',(1.40132418253,19.15,4.367534973252));
#44 = CARTESIAN_POINT('',(1.488789809469,19.15,4.547526008427));
#45 = CARTESIAN_POINT('',(1.607412940907,19.15,4.703992282364));
#46 = PCURVE('',#47,#52);
#47 = CYLINDRICAL_SURFACE('',#48,1.5);
#48 = AXIS2_PLACEMENT_3D('',#49,#50,#51);
#49 = CARTESIAN_POINT('',(2.802727225269,15.2,3.797778311163));
#50 = DIRECTION('',(0.,-1.,0.));
#51 = DIRECTION('',(-0.796876189575,0.,0.604142647468));
#52 = DEFINITIONAL_REPRESENTATION('',(#53),#56);
#53 = B_SPLINE_CURVE_WITH_KNOTS('',1,(#54,#55),.UNSPECIFIED.,.F.,.F.,(2,
    2),(0.,1.),.PIECEWISE_BEZIER_KNOTS.);
#54 = CARTESIAN_POINT('',(3.14159265359,-3.95));
#55 = CARTESIAN_POINT('',(0.,-3.95));
#56 = ( GEOMETRIC_REPRESENTATION_CONTEXT(2) 
PARAMETRIC_REPRESENTATION_CONTEXT() REPRESENTATION_CONTEXT('2D SPACE',''
  ) );
#57 = ORIENTED_EDGE('',*,*,#58,.T.);
#58 = EDGE_CURVE('',#24,#59,#61,.T.);
#59 = VERTEX_POINT('',#60);
#60 = CARTESIAN_POINT('',(1.607412940907,23.33,4.703992282364));
#61 = SURFACE_CURVE('',#62,(#67,#73),.PCURVE_S1.);
#62 = B_SPLINE_CURVE_WITH_KNOTS('',3,(#63,#64,#65,#66),.UNSPECIFIED.,.F.
  ,.F.,(4,4),(0.,1.),.PIECEWISE_BEZIER_KNOTS.);
#63 = CARTESIAN_POINT('',(1.607412940907,19.15,4.703992282364));
#64 = CARTESIAN_POINT('',(1.607412940907,20.543333333333,4.703992282364)
  );
#65 = CARTESIAN_POINT('',(1.607412940907,21.936666666667,4.703992282364)
  );
#66 = CARTESIAN_POINT('',(1.607412940907,23.33,4.703992282364));
#67 = PCURVE('',#47,#68);
#68 = DEFINITIONAL_REPRESENTATION('',(#69),#72);
#69 = B_SPLINE_CURVE_WITH_KNOTS('',1,(#70,#71),.UNSPECIFIED.,.F.,.F.,(2,
    2),(0.,1.),.PIECEWISE_BEZIER_KNOTS.);
#70 = CARTESIAN_POINT('',(0.,-3.95));
#71 = CARTESIAN_POINT('',(0.,-8.13));
#72 = ( GEOMETRIC_REPRESENTATION_CONTEXT(2) 
PARAMETRIC_REPRESENTATION_CONTEXT() REPRESENTATION_CONTEXT('2D SPACE',''
  ) );
#73 = PCURVE('',#74,#79);
#74 = CYLINDRICAL_SURFACE('',#75,1.5);
#75 = AXIS2_PLACEMENT_3D('',#76,#77,#78);
#76 = CARTESIAN_POINT('',(2.802727225269,15.2,3.797778311163));
#77 = DIRECTION('',(0.,-1.,0.));
#78 = DIRECTION('',(-0.796876189575,0.,0.604142647468));
#79 = DEFINITIONAL_REPRESENTATION('',(#80),#83);
#80 = B_SPLINE_CURVE_WITH_KNOTS('',1,(#81,#82),.UNSPECIFIED.,.F.,.F.,(2,
    2),(0.,1.),.PIECEWISE_BEZIER_KNOTS.);
#81 = CARTESIAN_POINT('',(6.28318530718,-3.95));
#82 = CARTESIAN_POINT('',(6.28318530718,-8.13));
#83 = ( GEOMETRIC_REPRESENTATION_CONTEXT(2) 
PARAMETRIC_REPRESENTATION_CONTEXT() REPRESENTATION_CONTEXT('2D SPACE',''
  ) );
#84 = ORIENTED_EDGE('',*,*,#85,.T.);
#85 = EDGE_CURVE('',#59,#86,#88,.T.);
#86 = VERTEX_POINT('',#87);
#87 = CARTESIAN_POINT('',(3.99804150963,23.33,2.891564339961));
#88 = SURFACE_CURVE('',#89,(#108),.PCURVE_S1.);
#89 = B_SPLINE_CURVE_WITH_KNOTS('',3,(#90,#91,#92,#93,#94,#95,#96,#97,
    #98,#99,#100,#101,#102,#103,#104,#105,#106,#107),.UNSPECIFIED.,.F.,
  .F.,(4,2,2,2,2,2,2,2,4),(0.,0.125,0.25,0.375,0.5,0.625,0.75,0.875,1.),
  .UNSPECIFIED.);
#90 = CARTESIAN_POINT('',(1.607412940907,23.33,4.703992282364));
#91 = CARTESIAN_POINT('',(1.488789809469,23.33,4.547526008427));
#92 = CARTESIAN_POINT('',(1.40132418253,23.33,4.367534973252));
#93 = CARTESIAN_POINT('',(1.301891317614,23.33,3.987632783022));
#94 = CARTESIAN_POINT('',(1.289963202222,23.33,3.787871103257));
#95 = CARTESIAN_POINT('',(1.343481487587,23.33,3.398835935311));
#96 = CARTESIAN_POINT('',(1.408906831183,23.33,3.209715515856));
#97 = CARTESIAN_POINT('',(1.607228593027,23.33,2.870774447902));
#98 = CARTESIAN_POINT('',(1.74004698013,23.33,2.721087158239));
#99 = CARTESIAN_POINT('',(2.052979528004,23.33,2.483840895363));
#100 = CARTESIAN_POINT('',(2.23297056318,23.33,2.396375268424));
#101 = CARTESIAN_POINT('',(2.612872753409,23.33,2.296942403508));
#102 = CARTESIAN_POINT('',(2.812634433175,23.33,2.285014288116));
#103 = CARTESIAN_POINT('',(3.20166960112,23.33,2.338532573481));
#104 = CARTESIAN_POINT('',(3.390790020575,23.33,2.403957917077));
#105 = CARTESIAN_POINT('',(3.72973108853,23.33,2.602279678921));
#106 = CARTESIAN_POINT('',(3.879418378193,23.33,2.735098066025));
#107 = CARTESIAN_POINT('',(3.99804150963,23.33,2.891564339961));
#108 = PCURVE('',#47,#109);
#109 = DEFINITIONAL_REPRESENTATION('',(#110),#113);
#110 = B_SPLINE_CURVE_WITH_KNOTS('',1,(#111,#112),.UNSPECIFIED.,.F.,.F.,
  (2,2),(0.,1.),.PIECEWISE_BEZIER_KNOTS.);
#111 = CARTESIAN_POINT('',(0.,-8.13));
#112 = CARTESIAN_POINT('',(3.14159265359,-8.13));
#113 = ( GEOMETRIC_REPRESENTATION_CONTEXT(2) 
PARAMETRIC_REPRESENTATION_CONTEXT() REPRESENTATION_CONTEXT('2D SPACE',''
  ) );
#114 = ORIENTED_EDGE('',*,*,#115,.T.);
#115 = EDGE_CURVE('',#86,#22,#116,.T.);
#116 = SURFACE_CURVE('',#117,(#122,#128),.PCURVE_S1.);
#117 = B_SPLINE_CURVE_WITH_KNOTS('',3,(#118,#119,#120,#121),
  .UNSPECIFIED.,.F.,.F.,(4,4),(0.,1.),.PIECEWISE_BEZIER_KNOTS.);
#118 = CARTESIAN_POINT('',(3.99804150963,23.33,2.891564339961));
#119 = CARTESIAN_POINT('',(3.99804150963,21.936666666667,2.891564339961)
  );
#120 = CARTESIAN_POINT('',(3.99804150963,20.543333333333,2.891564339961)
  );
#121 = CARTESIAN_POINT('',(3.99804150963,19.15,2.891564339961));
#122 = PCURVE('',#47,#123);
#123 = DEFINITIONAL_REPRESENTATION('',(#124),#127);
#124 = B_SPLINE_CURVE_WITH_KNOTS('',1,(#125,#126),.UNSPECIFIED.,.F.,.F.,
  (2,2),(0.,1.),.PIECEWISE_BEZIER_KNOTS.);
#125 = CARTESIAN_POINT('',(3.14159265359,-8.13));
#126 = CARTESIAN_POINT('',(3.14159265359,-3.95));
#127 = ( GEOMETRIC_REPRESENTATION_CONTEXT(2) 
PARAMETRIC_REPRESENTATION_CONTEXT() REPRESENTATION_CONTEXT('2D SPACE',''
  ) );
#128 = PCURVE('',#74,#129);
#129 = DEFINITIONAL_REPRESENTATION('',(#130),#133);
#130 = B_SPLINE_CURVE_WITH_KNOTS('',1,(#131,#132),.UNSPECIFIED.,.F.,.F.,
  (2,2),(0.,1.),.PIECEWISE_BEZIER_KNOTS.);
#131 = CARTESIAN_POINT('',(3.14159265359,-8.13));
#132 = CARTESIAN_POINT('',(3.14159265359,-3.95));
#133 = ( GEOMETRIC_REPRESENTATION_CONTEXT(2) 
PARAMETRIC_REPRESENTATION_CONTEXT() REPRESENTATION_CONTEXT('2D SPACE',''
  ) );
#134 = ADVANCED_FACE('',(#135),#74,.T.);
#135 = FACE_BOUND('',#136,.T.);
#136 = EDGE_LOOP('',(#137,#138,#166,#167));
#137 = ORIENTED_EDGE('',*,*,#58,.F.);
#138 = ORIENTED_EDGE('',*,*,#139,.T.);
#139 = EDGE_CURVE('',#24,#22,#140,.T.);
#140 = SURFACE_CURVE('',#141,(#160),.PCURVE_S1.);
#141 = B_SPLINE_CURVE_WITH_KNOTS('',3,(#142,#143,#144,#145,#146,#147,
    #148,#149,#150,#151,#152,#153,#154,#155,#156,#157,#158,#159),
  .UNSPECIFIED.,.F.,.F.,(4,2,2,2,2,2,2,2,4),(0.,0.125,0.25,0.375,0.5,
    0.625,0.75,0.875,1.),.UNSPECIFIED.);
#142 = CARTESIAN_POINT('',(1.607412940907,19.15,4.703992282364));
#143 = CARTESIAN_POINT('',(1.726036072345,19.15,4.860458556301));
#144 = CARTESIAN_POINT('',(1.875723362008,19.15,4.993276943404));
#145 = CARTESIAN_POINT('',(2.214664429962,19.15,5.191598705248));
#146 = CARTESIAN_POINT('',(2.403784849417,19.15,5.257024048844));
#147 = CARTESIAN_POINT('',(2.792820017363,19.15,5.310542334209));
#148 = CARTESIAN_POINT('',(2.992581697128,19.15,5.298614218818));
#149 = CARTESIAN_POINT('',(3.372483887358,19.15,5.199181353901));
#150 = CARTESIAN_POINT('',(3.552474922533,19.15,5.111715726962));
#151 = CARTESIAN_POINT('',(3.865407470407,19.15,4.874469464087));
#152 = CARTESIAN_POINT('',(3.99822585751,19.15,4.724782174424));
#153 = CARTESIAN_POINT('',(4.196547619354,19.15,4.385841106469));
#154 = CARTESIAN_POINT('',(4.26197296295,19.15,4.196720687015));
#155 = CARTESIAN_POINT('',(4.315491248315,19.15,3.807685519069));
#156 = CARTESIAN_POINT('',(4.303563132924,19.15,3.607923839304));
#157 = CARTESIAN_POINT('',(4.204130268007,19.15,3.228021649074));
#158 = CARTESIAN_POINT('',(4.116664641068,19.15,3.048030613898));
#159 = CARTESIAN_POINT('',(3.99804150963,19.15,2.891564339961));
#160 = PCURVE('',#74,#161);
#161 = DEFINITIONAL_REPRESENTATION('',(#162),#165);
#162 = B_SPLINE_CURVE_WITH_KNOTS('',1,(#163,#164),.UNSPECIFIED.,.F.,.F.,
  (2,2),(0.,1.),.PIECEWISE_BEZIER_KNOTS.);
#163 = CARTESIAN_POINT('',(6.28318530718,-3.95));
#164 = CARTESIAN_POINT('',(3.14159265359,-3.95));
#165 = ( GEOMETRIC_REPRESENTATION_CONTEXT(2) 
PARAMETRIC_REPRESENTATION_CONTEXT() REPRESENTATION_CONTEXT('2D SPACE',''
  ) );
#166 = ORIENTED_EDGE('',*,*,#115,.F.);
#167 = ORIENTED_EDGE('',*,*,#168,.T.);
#168 = EDGE_CURVE('',#86,#59,#169,.T.);
#169 = SURFACE_CURVE('',#170,(#189),.PCURVE_S1.);
#170 = B_SPLINE_CURVE_WITH_KNOTS('',3,(#171,#172,#173,#174,#175,#176,
    #177,#178,#179,#180,#181,#182,#183,#184,#185,#186,#187,#188),
  .UNSPECIFIED.,.F.,.F.,(4,2,2,2,2,2,2,2,4),(0.,0.125,0.25,0.375,0.5,
    0.625,0.75,0.875,1.),.UNSPECIFIED.);
#171 = CARTESIAN_POINT('',(3.99804150963,23.33,2.891564339961));
#172 = CARTESIAN_POINT('',(4.116664641068,23.33,3.048030613898));
#173 = CARTESIAN_POINT('',(4.204130268007,23.33,3.228021649074));
#174 = CARTESIAN_POINT('',(4.303563132924,23.33,3.607923839304));
#175 = CARTESIAN_POINT('',(4.315491248315,23.33,3.807685519069));
#176 = CARTESIAN_POINT('',(4.26197296295,23.33,4.196720687015));
#177 = CARTESIAN_POINT('',(4.196547619354,23.33,4.385841106469));
#178 = CARTESIAN_POINT('',(3.99822585751,23.33,4.724782174424));
#179 = CARTESIAN_POINT('',(3.865407470407,23.33,4.874469464087));
#180 = CARTESIAN_POINT('',(3.552474922533,23.33,5.111715726962));
#181 = CARTESIAN_POINT('',(3.372483887358,23.33,5.199181353901));
#182 = CARTESIAN_POINT('',(2.992581697128,23.33,5.298614218818));
#183 = CARTESIAN_POINT('',(2.792820017363,23.33,5.310542334209));
#184 = CARTESIAN_POINT('',(2.403784849417,23.33,5.257024048844));
#185 = CARTESIAN_POINT('',(2.214664429962,23.33,5.191598705248));
#186 = CARTESIAN_POINT('',(1.875723362008,23.33,4.993276943404));
#187 = CARTESIAN_POINT('',(1.726036072345,23.33,4.860458556301));
#188 = CARTESIAN_POINT('',(1.607412940907,23.33,4.703992282364));
#189 = PCURVE('',#74,#190);
#190 = DEFINITIONAL_REPRESENTATION('',(#191),#194);
#191 = B_SPLINE_CURVE_WITH_KNOTS('',1,(#192,#193),.UNSPECIFIED.,.F.,.F.,
  (2,2),(0.,1.),.PIECEWISE_BEZIER_KNOTS.);
#192 = CARTESIAN_POINT('',(3.14159265359,-8.13));
#193 = CARTESIAN_POINT('',(6.28318530718,-8.13));
#194 = ( GEOMETRIC_REPRESENTATION_CONTEXT(2) 
PARAMETRIC_REPRESENTATION_CONTEXT() REPRESENTATION_CONTEXT('2D SPACE',''
  ) );
#195 = ( GEOMETRIC_REPRESENTATION_CONTEXT(3) 
GLOBAL_UNCERTAINTY_ASSIGNED_CONTEXT((#199)) GLOBAL_UNIT_ASSIGNED_CONTEXT
((#196,#197,#198)) REPRESENTATION_CONTEXT('Context #1',
  '3D Context with UNIT and UNCERTAINTY') );
#196 = ( LENGTH_UNIT() NAMED_UNIT(*) SI_UNIT(.MILLI.,.METRE.) );
#197 = ( NAMED_UNIT(*) PLANE_ANGLE_UNIT() SI_UNIT($,.RADIAN.) );
#198 = ( NAMED_UNIT(*) SI_UNIT($,.STERADIAN.) SOLID_ANGLE_UNIT() );
#199 = UNCERTAINTY_MEASURE_WITH_UNIT(LENGTH_MEASURE(1.E-04),#196,
  'distance_accuracy_value','confusion accuracy');
#200 = PRODUCT_RELATED_PRODUCT_CATEGORY('part',$,(#7));
ENDSEC;
END-ISO-10303-21;
