ISO-10303-21;
HEADER;
FILE_DESCRIPTION(('Open CASCADE Model'),'2;1');
FILE_NAME('Open CASCADE Shape Model','2026-03-14T15:57:21',('Author'),(
    'Open CASCADE'),'Open CASCADE STEP processor 7.8','build123d',
  'Unknown');
FILE_SCHEMA(('AUTOMOTIVE_DESIGN { 1 0 10303 214 1 1 1 1 }'));
ENDSEC;
DATA;
#1 = APPLICATION_PROTOCOL_DEFINITION('international standard',
  'automotive_design',2000,#2);
#2 = APPLICATION_CONTEXT(
  'core data for automotive mechanical design processes');
#3 = SHAPE_DEFINITION_REPRESENTATION(#4,#10);
#4 = PRODUCT_DEFINITION_SHAPE('','',#5);
#5 = PRODUCT_DEFINITION('design','',#6,#9);
#6 = PRODUCT_DEFINITION_FORMATION('','',#7);
#7 = PRODUCT('SHELL','SHELL','',(#8));
#8 = PRODUCT_CONTEXT('',#2,'mechanical');
#9 = PRODUCT_DEFINITION_CONTEXT('part definition',#2,'design');
#10 = MANIFOLD_SURFACE_SHAPE_REPRESENTATION('',(#11,#15),#320);
#11 = AXIS2_PLACEMENT_3D('',#12,#13,#14);
#12 = CARTESIAN_POINT('',(0.,0.,0.));
#13 = DIRECTION('',(0.,0.,1.));
#14 = DIRECTION('',(1.,0.,-0.));
#15 = SHELL_BASED_SURFACE_MODEL('',(#16));
#16 = OPEN_SHELL('',(#17,#210,#315));
#17 = ADVANCED_FACE('',(#18),#39,.T.);
#18 = FACE_BOUND('',#19,.T.);
#19 = EDGE_LOOP('',(#20,#91,#143,#188));
#20 = ORIENTED_EDGE('',*,*,#21,.T.);
#21 = EDGE_CURVE('',#22,#24,#26,.T.);
#22 = VERTEX_POINT('',#23);
#23 = CARTESIAN_POINT('',(4.898587196589E-17,-6.,0.4));
#24 = VERTEX_POINT('',#25);
#25 = CARTESIAN_POINT('',(-3.265724797726E-17,-6.,-0.4));
#26 = SURFACE_CURVE('',#27,(#38,#72),.PCURVE_S1.);
#27 = B_SPLINE_CURVE_WITH_KNOTS('',3,(#28,#29,#30,#31,#32,#33,#34,#35,
    #36,#37),.UNSPECIFIED.,.F.,.F.,(4,2,2,2,4),(0.,0.25,0.5,0.75,1.),
  .UNSPECIFIED.);
#28 = CARTESIAN_POINT('',(4.898587196589E-17,-6.,0.4));
#29 = CARTESIAN_POINT('',(0.10471975512,-6.,0.4));
#30 = CARTESIAN_POINT('',(0.208794663505,-6.,0.356890761444));
#31 = CARTESIAN_POINT('',(0.356890761444,-6.,0.208794663505));
#32 = CARTESIAN_POINT('',(0.4,-6.,0.10471975512));
#33 = CARTESIAN_POINT('',(0.4,-6.,-0.10471975512));
#34 = CARTESIAN_POINT('',(0.356890761444,-6.,-0.208794663505));
#35 = CARTESIAN_POINT('',(0.208794663505,-6.,-0.356890761444));
#36 = CARTESIAN_POINT('',(0.10471975512,-6.,-0.4));
#37 = CARTESIAN_POINT('',(-3.265724797726E-17,-6.,-0.4));
#38 = PCURVE('',#39,#44);
#39 = TOROIDAL_SURFACE('',#40,0.4,0.1);
#40 = AXIS2_PLACEMENT_3D('',#41,#42,#43);
#41 = CARTESIAN_POINT('',(0.,-5.9,0.));
#42 = DIRECTION('',(0.,-1.,0.));
#43 = DIRECTION('',(0.,0.,-1.));
#44 = DEFINITIONAL_REPRESENTATION('',(#45),#71);
#45 = B_SPLINE_CURVE_WITH_KNOTS('',3,(#46,#47,#48,#49,#50,#51,#52,#53,
    #54,#55,#56,#57,#58,#59,#60,#61,#62,#63,#64,#65,#66,#67,#68,#69,#70)
  ,.UNSPECIFIED.,.F.,.F.,(4,1,1,1,1,1,1,1,1,1,1,1,1,1,1,1,1,1,1,1,1,1,4)
  ,(0.,4.545454545455E-02,9.090909090909E-02,0.136363636364,
    0.181818181818,0.227272727273,0.272727272727,0.318181818182,
    0.363636363636,0.409090909091,0.454545454545,0.5,0.545454545455,
    0.590909090909,0.636363636364,0.681818181818,0.727272727273,
    0.772727272727,0.818181818182,0.863636363636,0.909090909091,
    0.954545454545,1.),.QUASI_UNIFORM_KNOTS.);
#46 = CARTESIAN_POINT('',(3.14159265359,1.570796326795));
#47 = CARTESIAN_POINT('',(3.094022633669,1.570910979787));
#48 = CARTESIAN_POINT('',(2.998870418291,1.572033609267));
#49 = CARTESIAN_POINT('',(2.856090802868,1.574455414035));
#50 = CARTESIAN_POINT('',(2.713157723295,1.575012333334));
#51 = CARTESIAN_POINT('',(2.570274928939,1.573413847422));
#52 = CARTESIAN_POINT('',(2.427579622073,1.57076964211));
#53 = CARTESIAN_POINT('',(2.284809352156,1.570769989894));
#54 = CARTESIAN_POINT('',(2.142114082224,1.573412804068));
#55 = CARTESIAN_POINT('',(1.999231140135,1.575016158964));
#56 = CARTESIAN_POINT('',(1.856298614556,1.574441154866));
#57 = CARTESIAN_POINT('',(1.713516930892,1.572086820311));
#58 = CARTESIAN_POINT('',(1.570796326795,1.570151080037));
#59 = CARTESIAN_POINT('',(1.428075722698,1.572086820311));
#60 = CARTESIAN_POINT('',(1.285294039034,1.574441154866));
#61 = CARTESIAN_POINT('',(1.142361513454,1.575016158964));
#62 = CARTESIAN_POINT('',(0.999478571366,1.573412804068));
#63 = CARTESIAN_POINT('',(0.856783301434,1.570769989894));
#64 = CARTESIAN_POINT('',(0.714013031517,1.57076964211));
#65 = CARTESIAN_POINT('',(0.571317724651,1.573413847422));
#66 = CARTESIAN_POINT('',(0.428434930295,1.575012333334));
#67 = CARTESIAN_POINT('',(0.285501850722,1.574455414035));
#68 = CARTESIAN_POINT('',(0.142722235299,1.572033609267));
#69 = CARTESIAN_POINT('',(4.757001992097E-02,1.570910979787));
#70 = CARTESIAN_POINT('',(0.,1.570796326795));
#71 = ( GEOMETRIC_REPRESENTATION_CONTEXT(2) 
PARAMETRIC_REPRESENTATION_CONTEXT() REPRESENTATION_CONTEXT('2D SPACE',''
  ) );
#72 = PCURVE('',#73,#78);
#73 = PLANE('',#74);
#74 = AXIS2_PLACEMENT_3D('',#75,#76,#77);
#75 = CARTESIAN_POINT('',(0.,-6.,0.));
#76 = DIRECTION('',(0.,-1.,0.));
#77 = DIRECTION('',(0.,0.,-1.));
#78 = DEFINITIONAL_REPRESENTATION('',(#79),#90);
#79 = B_SPLINE_CURVE_WITH_KNOTS('',3,(#80,#81,#82,#83,#84,#85,#86,#87,
    #88,#89),.UNSPECIFIED.,.F.,.F.,(4,2,2,2,4),(0.,0.25,0.5,0.75,1.),
  .UNSPECIFIED.);
#80 = CARTESIAN_POINT('',(-0.4,4.898587196589E-17));
#81 = CARTESIAN_POINT('',(-0.4,0.10471975512));
#82 = CARTESIAN_POINT('',(-0.356890761444,0.208794663505));
#83 = CARTESIAN_POINT('',(-0.208794663505,0.356890761444));
#84 = CARTESIAN_POINT('',(-0.10471975512,0.4));
#85 = CARTESIAN_POINT('',(0.10471975512,0.4));
#86 = CARTESIAN_POINT('',(0.208794663505,0.356890761444));
#87 = CARTESIAN_POINT('',(0.356890761444,0.208794663505));
#88 = CARTESIAN_POINT('',(0.4,0.10471975512));
#89 = CARTESIAN_POINT('',(0.4,-3.265724797726E-17));
#90 = ( GEOMETRIC_REPRESENTATION_CONTEXT(2) 
PARAMETRIC_REPRESENTATION_CONTEXT() REPRESENTATION_CONTEXT('2D SPACE',''
  ) );
#91 = ORIENTED_EDGE('',*,*,#92,.T.);
#92 = EDGE_CURVE('',#24,#93,#95,.T.);
#93 = VERTEX_POINT('',#94);
#94 = CARTESIAN_POINT('',(-6.123233995737E-17,-5.9,-0.5));
#95 = SURFACE_CURVE('',#96,(#103,#109),.PCURVE_S1.);
#96 = B_SPLINE_CURVE_WITH_KNOTS('',3,(#97,#98,#99,#100,#101,#102),
  .UNSPECIFIED.,.F.,.F.,(4,2,4),(0.,0.5,1.),.UNSPECIFIED.);
#97 = CARTESIAN_POINT('',(-3.265724797726E-17,-6.,-0.4));
#98 = CARTESIAN_POINT('',(0.,-6.,-0.42617993878));
#99 = CARTESIAN_POINT('',(-0.,-5.989222690361,-0.452198665876));
#100 = CARTESIAN_POINT('',(-0.,-5.952198665876,-0.489222690361));
#101 = CARTESIAN_POINT('',(0.,-5.92617993878,-0.5));
#102 = CARTESIAN_POINT('',(-6.123233995737E-17,-5.9,-0.5));
#103 = PCURVE('',#39,#104);
#104 = DEFINITIONAL_REPRESENTATION('',(#105),#108);
#105 = B_SPLINE_CURVE_WITH_KNOTS('',1,(#106,#107),.UNSPECIFIED.,.F.,.F.,
  (2,2),(0.,1.),.PIECEWISE_BEZIER_KNOTS.);
#106 = CARTESIAN_POINT('',(0.,1.570796326795));
#107 = CARTESIAN_POINT('',(0.,0.));
#108 = ( GEOMETRIC_REPRESENTATION_CONTEXT(2) 
PARAMETRIC_REPRESENTATION_CONTEXT() REPRESENTATION_CONTEXT('2D SPACE',''
  ) );
#109 = PCURVE('',#110,#115);
#110 = TOROIDAL_SURFACE('',#111,0.4,0.1);
#111 = AXIS2_PLACEMENT_3D('',#112,#113,#114);
#112 = CARTESIAN_POINT('',(0.,-5.9,0.));
#113 = DIRECTION('',(0.,-1.,0.));
#114 = DIRECTION('',(0.,0.,-1.));
#115 = DEFINITIONAL_REPRESENTATION('',(#116),#142);
#116 = B_SPLINE_CURVE_WITH_KNOTS('',3,(#117,#118,#119,#120,#121,#122,
    #123,#124,#125,#126,#127,#128,#129,#130,#131,#132,#133,#134,#135,
    #136,#137,#138,#139,#140,#141),.UNSPECIFIED.,.F.,.F.,(4,1,1,1,1,1,1,
    1,1,1,1,1,1,1,1,1,1,1,1,1,1,1,4),(0.,4.545454545455E-02,
    9.090909090909E-02,0.136363636364,0.181818181818,0.227272727273,
    0.272727272727,0.318181818182,0.363636363636,0.409090909091,
    0.454545454545,0.5,0.545454545455,0.590909090909,0.636363636364,
    0.681818181818,0.727272727273,0.772727272727,0.818181818182,
    0.863636363636,0.909090909091,0.954545454545,1.),
  .QUASI_UNIFORM_KNOTS.);
#117 = CARTESIAN_POINT('',(6.28318530718,1.570796326795));
#118 = CARTESIAN_POINT('',(6.28318530718,1.546998893362));
#119 = CARTESIAN_POINT('',(6.28318530718,1.499420983984));
#120 = CARTESIAN_POINT('',(6.28318530718,1.428070348548));
#121 = CARTESIAN_POINT('',(6.28318530718,1.356690878441));
#122 = CARTESIAN_POINT('',(6.28318530718,1.285273978488));
#123 = CARTESIAN_POINT('',(6.28318530718,1.213826599894));
#124 = CARTESIAN_POINT('',(6.28318530718,1.142367898871));
#125 = CARTESIAN_POINT('',(6.28318530718,1.070920468839));
#126 = CARTESIAN_POINT('',(6.28318530718,0.999503774639));
#127 = CARTESIAN_POINT('',(6.28318530718,0.928123532958));
#128 = CARTESIAN_POINT('',(6.28318530718,0.856775778066));
#129 = CARTESIAN_POINT('',(6.28318530718,0.785398163397));
#130 = CARTESIAN_POINT('',(6.28318530718,0.714020548729));
#131 = CARTESIAN_POINT('',(6.28318530718,0.642672793837));
#132 = CARTESIAN_POINT('',(6.28318530718,0.571292552156));
#133 = CARTESIAN_POINT('',(6.28318530718,0.499875857956));
#134 = CARTESIAN_POINT('',(6.28318530718,0.428428427924));
#135 = CARTESIAN_POINT('',(6.28318530718,0.3569697269));
#136 = CARTESIAN_POINT('',(6.28318530718,0.285522348307));
#137 = CARTESIAN_POINT('',(6.28318530718,0.214105448354));
#138 = CARTESIAN_POINT('',(6.28318530718,0.142725978247));
#139 = CARTESIAN_POINT('',(6.28318530718,7.137534281053E-02));
#140 = CARTESIAN_POINT('',(6.28318530718,2.379743343315E-02));
#141 = CARTESIAN_POINT('',(6.28318530718,0.));
#142 = ( GEOMETRIC_REPRESENTATION_CONTEXT(2) 
PARAMETRIC_REPRESENTATION_CONTEXT() REPRESENTATION_CONTEXT('2D SPACE',''
  ) );
#143 = ORIENTED_EDGE('',*,*,#144,.T.);
#144 = EDGE_CURVE('',#93,#145,#147,.T.);
#145 = VERTEX_POINT('',#146);
#146 = CARTESIAN_POINT('',(6.123233995737E-17,-5.9,0.5));
#147 = SURFACE_CURVE('',#148,(#159),.PCURVE_S1.);
#148 = B_SPLINE_CURVE_WITH_KNOTS('',3,(#149,#150,#151,#152,#153,#154,
    #155,#156,#157,#158),.UNSPECIFIED.,.F.,.F.,(4,2,2,2,4),(0.,0.25,0.5,
    0.75,1.),.UNSPECIFIED.);
#149 = CARTESIAN_POINT('',(-6.123233995737E-17,-5.9,-0.5));
#150 = CARTESIAN_POINT('',(0.1308996939,-5.9,-0.5));
#151 = CARTESIAN_POINT('',(0.260993329382,-5.9,-0.446113451805));
#152 = CARTESIAN_POINT('',(0.446113451805,-5.9,-0.260993329382));
#153 = CARTESIAN_POINT('',(0.5,-5.9,-0.1308996939));
#154 = CARTESIAN_POINT('',(0.5,-5.9,0.1308996939));
#155 = CARTESIAN_POINT('',(0.446113451805,-5.9,0.260993329382));
#156 = CARTESIAN_POINT('',(0.260993329382,-5.9,0.446113451805));
#157 = CARTESIAN_POINT('',(0.1308996939,-5.9,0.5));
#158 = CARTESIAN_POINT('',(6.123233995737E-17,-5.9,0.5));
#159 = PCURVE('',#39,#160);
#160 = DEFINITIONAL_REPRESENTATION('',(#161),#187);
#161 = B_SPLINE_CURVE_WITH_KNOTS('',3,(#162,#163,#164,#165,#166,#167,
    #168,#169,#170,#171,#172,#173,#174,#175,#176,#177,#178,#179,#180,
    #181,#182,#183,#184,#185,#186),.UNSPECIFIED.,.F.,.F.,(4,1,1,1,1,1,1,
    1,1,1,1,1,1,1,1,1,1,1,1,1,1,1,4),(0.,4.545454545455E-02,
    9.090909090909E-02,0.136363636364,0.181818181818,0.227272727273,
    0.272727272727,0.318181818182,0.363636363636,0.409090909091,
    0.454545454545,0.5,0.545454545455,0.590909090909,0.636363636364,
    0.681818181818,0.727272727273,0.772727272727,0.818181818182,
    0.863636363636,0.909090909091,0.954545454545,1.),
  .QUASI_UNIFORM_KNOTS.);
#162 = CARTESIAN_POINT('',(0.,0.));
#163 = CARTESIAN_POINT('',(4.757001992097E-02,-3.301445049106E-15));
#164 = CARTESIAN_POINT('',(0.142722235299,-1.656983750435E-15));
#165 = CARTESIAN_POINT('',(0.285501850722,1.175081142234E-14));
#166 = CARTESIAN_POINT('',(0.428434930295,8.169457758741E-15));
#167 = CARTESIAN_POINT('',(0.571317724651,9.121257031088E-15));
#168 = CARTESIAN_POINT('',(0.714013031517,8.816070189438E-15));
#169 = CARTESIAN_POINT('',(0.856783301434,8.942126395428E-15));
#170 = CARTESIAN_POINT('',(0.999478571366,8.743088413118E-15));
#171 = CARTESIAN_POINT('',(1.142361513454,9.576818665084E-15));
#172 = CARTESIAN_POINT('',(1.285294039034,6.582336097867E-15));
#173 = CARTESIAN_POINT('',(1.428075722698,1.767481369213E-14));
#174 = CARTESIAN_POINT('',(1.570796326795,2.948252014725E-14));
#175 = CARTESIAN_POINT('',(1.713516930892,2.429252682054E-14));
#176 = CARTESIAN_POINT('',(1.856298614556,3.349187226826E-14));
#177 = CARTESIAN_POINT('',(1.999231140135,2.300962041417E-15));
#178 = CARTESIAN_POINT('',(2.142114082224,1.095662488417E-14));
#179 = CARTESIAN_POINT('',(2.284809352156,7.410478692476E-15));
#180 = CARTESIAN_POINT('',(2.427579622073,1.273640482235E-14));
#181 = CARTESIAN_POINT('',(2.570274928939,-4.933867386849E-15));
#182 = CARTESIAN_POINT('',(2.713157723295,1.199506833587E-14));
#183 = CARTESIAN_POINT('',(2.856090802868,1.060593936148E-14));
#184 = CARTESIAN_POINT('',(2.998870418291,-5.693708524334E-16));
#185 = CARTESIAN_POINT('',(3.094022633669,-2.74449208549E-15));
#186 = CARTESIAN_POINT('',(3.14159265359,0.));
#187 = ( GEOMETRIC_REPRESENTATION_CONTEXT(2) 
PARAMETRIC_REPRESENTATION_CONTEXT() REPRESENTATION_CONTEXT('2D SPACE',''
  ) );
#188 = ORIENTED_EDGE('',*,*,#189,.T.);
#189 = EDGE_CURVE('',#145,#22,#190,.T.);
#190 = SURFACE_CURVE('',#191,(#198,#204),.PCURVE_S1.);
#191 = B_SPLINE_CURVE_WITH_KNOTS('',3,(#192,#193,#194,#195,#196,#197),
  .UNSPECIFIED.,.F.,.F.,(4,2,4),(0.,0.5,1.),.UNSPECIFIED.);
#192 = CARTESIAN_POINT('',(6.123233995737E-17,-5.9,0.5));
#193 = CARTESIAN_POINT('',(-1.048990684668E-15,-5.92617993878,0.5));
#194 = CARTESIAN_POINT('',(-1.026380089834E-15,-5.952198665876,
    0.489222690361));
#195 = CARTESIAN_POINT('',(-9.487043762469E-16,-5.989222690361,
    0.452198665876));
#196 = CARTESIAN_POINT('',(-8.941175715448E-16,-6.,0.42617993878));
#197 = CARTESIAN_POINT('',(4.898587196589E-17,-6.,0.4));
#198 = PCURVE('',#39,#199);
#199 = DEFINITIONAL_REPRESENTATION('',(#200),#203);
#200 = B_SPLINE_CURVE_WITH_KNOTS('',1,(#201,#202),.UNSPECIFIED.,.F.,.F.,
  (2,2),(0.,1.),.PIECEWISE_BEZIER_KNOTS.);
#201 = CARTESIAN_POINT('',(3.14159265359,0.));
#202 = CARTESIAN_POINT('',(3.14159265359,1.570796326795));
#203 = ( GEOMETRIC_REPRESENTATION_CONTEXT(2) 
PARAMETRIC_REPRESENTATION_CONTEXT() REPRESENTATION_CONTEXT('2D SPACE',''
  ) );
#204 = PCURVE('',#110,#205);
#205 = DEFINITIONAL_REPRESENTATION('',(#206),#209);
#206 = B_SPLINE_CURVE_WITH_KNOTS('',1,(#207,#208),.UNSPECIFIED.,.F.,.F.,
  (2,2),(0.,1.),.PIECEWISE_BEZIER_KNOTS.);
#207 = CARTESIAN_POINT('',(3.14159265359,0.));
#208 = CARTESIAN_POINT('',(3.14159265359,1.570796326795));
#209 = ( GEOMETRIC_REPRESENTATION_CONTEXT(2) 
PARAMETRIC_REPRESENTATION_CONTEXT() REPRESENTATION_CONTEXT('2D SPACE',''
  ) );
#210 = ADVANCED_FACE('',(#211),#110,.T.);
#211 = FACE_BOUND('',#212,.T.);
#212 = EDGE_LOOP('',(#213,#214,#271,#272));
#213 = ORIENTED_EDGE('',*,*,#92,.F.);
#214 = ORIENTED_EDGE('',*,*,#215,.T.);
#215 = EDGE_CURVE('',#24,#22,#216,.T.);
#216 = SURFACE_CURVE('',#217,(#228,#257),.PCURVE_S1.);
#217 = B_SPLINE_CURVE_WITH_KNOTS('',3,(#218,#219,#220,#221,#222,#223,
    #224,#225,#226,#227),.UNSPECIFIED.,.F.,.F.,(4,2,2,2,4),(0.,0.25,0.5,
    0.75,1.),.UNSPECIFIED.);
#218 = CARTESIAN_POINT('',(-3.265724797726E-17,-6.,-0.4));
#219 = CARTESIAN_POINT('',(-0.10471975512,-6.,-0.4));
#220 = CARTESIAN_POINT('',(-0.208794663505,-6.,-0.356890761444));
#221 = CARTESIAN_POINT('',(-0.356890761444,-6.,-0.208794663505));
#222 = CARTESIAN_POINT('',(-0.4,-6.,-0.10471975512));
#223 = CARTESIAN_POINT('',(-0.4,-6.,0.10471975512));
#224 = CARTESIAN_POINT('',(-0.356890761444,-6.,0.208794663505));
#225 = CARTESIAN_POINT('',(-0.208794663505,-6.,0.356890761444));
#226 = CARTESIAN_POINT('',(-0.10471975512,-6.,0.4));
#227 = CARTESIAN_POINT('',(4.898587196589E-17,-6.,0.4));
#228 = PCURVE('',#110,#229);
#229 = DEFINITIONAL_REPRESENTATION('',(#230),#256);
#230 = B_SPLINE_CURVE_WITH_KNOTS('',3,(#231,#232,#233,#234,#235,#236,
    #237,#238,#239,#240,#241,#242,#243,#244,#245,#246,#247,#248,#249,
    #250,#251,#252,#253,#254,#255),.UNSPECIFIED.,.F.,.F.,(4,1,1,1,1,1,1,
    1,1,1,1,1,1,1,1,1,1,1,1,1,1,1,4),(0.,4.545454545455E-02,
    9.090909090909E-02,0.136363636364,0.181818181818,0.227272727273,
    0.272727272727,0.318181818182,0.363636363636,0.409090909091,
    0.454545454545,0.5,0.545454545455,0.590909090909,0.636363636364,
    0.681818181818,0.727272727273,0.772727272727,0.818181818182,
    0.863636363636,0.909090909091,0.954545454545,1.),
  .QUASI_UNIFORM_KNOTS.);
#231 = CARTESIAN_POINT('',(6.28318530718,1.570796326795));
#232 = CARTESIAN_POINT('',(6.235615287259,1.570910979787));
#233 = CARTESIAN_POINT('',(6.140463071881,1.572033609267));
#234 = CARTESIAN_POINT('',(5.997683456457,1.574455414035));
#235 = CARTESIAN_POINT('',(5.854750376885,1.575012333334));
#236 = CARTESIAN_POINT('',(5.711867582528,1.573413847422));
#237 = CARTESIAN_POINT('',(5.569172275663,1.57076964211));
#238 = CARTESIAN_POINT('',(5.426402005746,1.570769989894));
#239 = CARTESIAN_POINT('',(5.283706735813,1.573412804068));
#240 = CARTESIAN_POINT('',(5.140823793725,1.575016158964));
#241 = CARTESIAN_POINT('',(4.997891268146,1.574441154866));
#242 = CARTESIAN_POINT('',(4.855109584482,1.572086820311));
#243 = CARTESIAN_POINT('',(4.712388980385,1.570151080037));
#244 = CARTESIAN_POINT('',(4.569668376287,1.572086820311));
#245 = CARTESIAN_POINT('',(4.426886692623,1.574441154866));
#246 = CARTESIAN_POINT('',(4.283954167044,1.575016158964));
#247 = CARTESIAN_POINT('',(4.141071224956,1.573412804068));
#248 = CARTESIAN_POINT('',(3.998375955023,1.570769989894));
#249 = CARTESIAN_POINT('',(3.855605685106,1.57076964211));
#250 = CARTESIAN_POINT('',(3.712910378241,1.573413847422));
#251 = CARTESIAN_POINT('',(3.570027583884,1.575012333334));
#252 = CARTESIAN_POINT('',(3.427094504312,1.574455414035));
#253 = CARTESIAN_POINT('',(3.284314888889,1.572033609267));
#254 = CARTESIAN_POINT('',(3.189162673511,1.570910979787));
#255 = CARTESIAN_POINT('',(3.14159265359,1.570796326795));
#256 = ( GEOMETRIC_REPRESENTATION_CONTEXT(2) 
PARAMETRIC_REPRESENTATION_CONTEXT() REPRESENTATION_CONTEXT('2D SPACE',''
  ) );
#257 = PCURVE('',#73,#258);
#258 = DEFINITIONAL_REPRESENTATION('',(#259),#270);
#259 = B_SPLINE_CURVE_WITH_KNOTS('',3,(#260,#261,#262,#263,#264,#265,
    #266,#267,#268,#269),.UNSPECIFIED.,.F.,.F.,(4,2,2,2,4),(0.,0.25,0.5,
    0.75,1.),.UNSPECIFIED.);
#260 = CARTESIAN_POINT('',(0.4,-3.265724797726E-17));
#261 = CARTESIAN_POINT('',(0.4,-0.10471975512));
#262 = CARTESIAN_POINT('',(0.356890761444,-0.208794663505));
#263 = CARTESIAN_POINT('',(0.208794663505,-0.356890761444));
#264 = CARTESIAN_POINT('',(0.10471975512,-0.4));
#265 = CARTESIAN_POINT('',(-0.10471975512,-0.4));
#266 = CARTESIAN_POINT('',(-0.208794663505,-0.356890761444));
#267 = CARTESIAN_POINT('',(-0.356890761444,-0.208794663505));
#268 = CARTESIAN_POINT('',(-0.4,-0.10471975512));
#269 = CARTESIAN_POINT('',(-0.4,4.898587196589E-17));
#270 = ( GEOMETRIC_REPRESENTATION_CONTEXT(2) 
PARAMETRIC_REPRESENTATION_CONTEXT() REPRESENTATION_CONTEXT('2D SPACE',''
  ) );
#271 = ORIENTED_EDGE('',*,*,#189,.F.);
#272 = ORIENTED_EDGE('',*,*,#273,.T.);
#273 = EDGE_CURVE('',#145,#93,#274,.T.);
#274 = SURFACE_CURVE('',#275,(#286),.PCURVE_S1.);
#275 = B_SPLINE_CURVE_WITH_KNOTS('',3,(#276,#277,#278,#279,#280,#281,
    #282,#283,#284,#285),.UNSPECIFIED.,.F.,.F.,(4,2,2,2,4),(0.,0.25,0.5,
    0.75,1.),.UNSPECIFIED.);
#276 = CARTESIAN_POINT('',(6.123233995737E-17,-5.9,0.5));
#277 = CARTESIAN_POINT('',(-0.1308996939,-5.9,0.5));
#278 = CARTESIAN_POINT('',(-0.260993329382,-5.9,0.446113451805));
#279 = CARTESIAN_POINT('',(-0.446113451805,-5.9,0.260993329382));
#280 = CARTESIAN_POINT('',(-0.5,-5.9,0.1308996939));
#281 = CARTESIAN_POINT('',(-0.5,-5.9,-0.1308996939));
#282 = CARTESIAN_POINT('',(-0.446113451805,-5.9,-0.260993329382));
#283 = CARTESIAN_POINT('',(-0.260993329382,-5.9,-0.446113451805));
#284 = CARTESIAN_POINT('',(-0.1308996939,-5.9,-0.5));
#285 = CARTESIAN_POINT('',(-6.123233995737E-17,-5.9,-0.5));
#286 = PCURVE('',#110,#287);
#287 = DEFINITIONAL_REPRESENTATION('',(#288),#314);
#288 = B_SPLINE_CURVE_WITH_KNOTS('',3,(#289,#290,#291,#292,#293,#294,
    #295,#296,#297,#298,#299,#300,#301,#302,#303,#304,#305,#306,#307,
    #308,#309,#310,#311,#312,#313),.UNSPECIFIED.,.F.,.F.,(4,1,1,1,1,1,1,
    1,1,1,1,1,1,1,1,1,1,1,1,1,1,1,4),(0.,4.545454545455E-02,
    9.090909090909E-02,0.136363636364,0.181818181818,0.227272727273,
    0.272727272727,0.318181818182,0.363636363636,0.409090909091,
    0.454545454545,0.5,0.545454545455,0.590909090909,0.636363636364,
    0.681818181818,0.727272727273,0.772727272727,0.818181818182,
    0.863636363636,0.909090909091,0.954545454545,1.),
  .QUASI_UNIFORM_KNOTS.);
#289 = CARTESIAN_POINT('',(3.14159265359,0.));
#290 = CARTESIAN_POINT('',(3.189162673511,8.219121563163E-16));
#291 = CARTESIAN_POINT('',(3.284314888889,1.179558924475E-15));
#292 = CARTESIAN_POINT('',(3.427094504312,1.342795017573E-16));
#293 = CARTESIAN_POINT('',(3.570027583884,1.1605999364E-14));
#294 = CARTESIAN_POINT('',(3.712910378241,8.31658706604E-15));
#295 = CARTESIAN_POINT('',(3.855605685106,9.569663589638E-15));
#296 = CARTESIAN_POINT('',(3.998375955023,8.613068878983E-15));
#297 = CARTESIAN_POINT('',(4.141071224956,9.422090744426E-15));
#298 = CARTESIAN_POINT('',(4.283954167044,8.270832909701E-15));
#299 = CARTESIAN_POINT('',(4.426886692623,1.110969255463E-14));
#300 = CARTESIAN_POINT('',(4.569668376287,1.350596436477E-15));
#301 = CARTESIAN_POINT('',(4.712388980385,-1.191000560707E-15));
#302 = CARTESIAN_POINT('',(4.855109584482,3.731166089469E-15));
#303 = CARTESIAN_POINT('',(4.997891268146,-3.408589668154E-15));
#304 = CARTESIAN_POINT('',(5.140823793725,1.223466093486E-14));
#305 = CARTESIAN_POINT('',(5.283706735813,8.022952715552E-15));
#306 = CARTESIAN_POINT('',(5.426402005746,9.13682245003E-15));
#307 = CARTESIAN_POINT('',(5.569172275663,8.873787334323E-15));
#308 = CARTESIAN_POINT('',(5.711867582528,8.723768050105E-15));
#309 = CARTESIAN_POINT('',(5.854750376885,9.788761642346E-15));
#310 = CARTESIAN_POINT('',(5.997683456457,6.004608403245E-15));
#311 = CARTESIAN_POINT('',(6.140463071881,2.275600262727E-14));
#312 = CARTESIAN_POINT('',(6.235615287259,1.407912570221E-14));
#313 = CARTESIAN_POINT('',(6.28318530718,0.));
#314 = ( GEOMETRIC_REPRESENTATION_CONTEXT(2) 
PARAMETRIC_REPRESENTATION_CONTEXT() REPRESENTATION_CONTEXT('2D SPACE',''
  ) );
#315 = ADVANCED_FACE('',(#316),#73,.T.);
#316 = FACE_BOUND('',#317,.T.);
#317 = EDGE_LOOP('',(#318,#319));
#318 = ORIENTED_EDGE('',*,*,#21,.F.);
#319 = ORIENTED_EDGE('',*,*,#215,.F.);
#320 = ( GEOMETRIC_REPRESENTATION_CONTEXT(3) 
GLOBAL_UNCERTAINTY_ASSIGNED_CONTEXT((#324)) GLOBAL_UNIT_ASSIGNED_CONTEXT
((#321,#322,#323)) REPRESENTATION_CONTEXT('Context #1',
  '3D Context with UNIT and UNCERTAINTY') );
#321 = ( LENGTH_UNIT() NAMED_UNIT(*) SI_UNIT(.MILLI.,.METRE.) );
#322 = ( NAMED_UNIT(*) PLANE_ANGLE_UNIT() SI_UNIT($,.RADIAN.) );
#323 = ( NAMED_UNIT(*) SI_UNIT($,.STERADIAN.) SOLID_ANGLE_UNIT() );
#324 = UNCERTAINTY_MEASURE_WITH_UNIT(LENGTH_MEASURE(2.E-04),#321,
  'distance_accuracy_value','confusion accuracy');
#325 = PRODUCT_RELATED_PRODUCT_CATEGORY('part',$,(#7));
ENDSEC;
END-ISO-10303-21;
