ISO-10303-21;
HEADER;
FILE_DESCRIPTION(('Open CASCADE Model'),'2;1');
FILE_NAME('Open CASCADE Shape Model','2026-03-14T15:57:21',('Author'),(
    'Open CASCADE'),'Open CASCADE STEP processor 7.8','build123d',
  'Unknown');
FILE_SCHEMA(('AUTOMOTIVE_DESIGN { 1 0 10303 214 1 1 1 1 }'));
ENDSEC;
DATA;
#1 = APPLICATION_PROTOCOL_DEFINITION('international standard',
  'automotive_design',2000,#2);
#2 = APPLICATION_CONTEXT(
  'core data for automotive mechanical design processes');
#3 = SHAPE_DEFINITION_REPRESENTATION(#4,#10);
#4 = PRODUCT_DEFINITION_SHAPE('','',#5);
#5 = PRODUCT_DEFINITION('design','',#6,#9);
#6 = PRODUCT_DEFINITION_FORMATION('','',#7);
#7 = PRODUCT('SHELL','SHELL','',(#8));
#8 = PRODUCT_CONTEXT('',#2,'mechanical');
#9 = PRODUCT_DEFINITION_CONTEXT('part definition',#2,'design');
#10 = MANIFOLD_SURFACE_SHAPE_REPRESENTATION('',(#11,#15),#785);
#11 = AXIS2_PLACEMENT_3D('',#12,#13,#14);
#12 = CARTESIAN_POINT('',(0.,0.,0.));
#13 = DIRECTION('',(0.,0.,1.));
#14 = DIRECTION('',(1.,0.,-0.));
#15 = SHELL_BASED_SURFACE_MODEL('',(#16));
#16 = CLOSED_SHELL('',(#17,#202,#469,#532,#733,#778));
#17 = ADVANCED_FACE('',(#18),#39,.F.);
#18 = FACE_BOUND('',#19,.F.);
#19 = EDGE_LOOP('',(#20,#91,#118,#182));
#20 = ORIENTED_EDGE('',*,*,#21,.T.);
#21 = EDGE_CURVE('',#22,#24,#26,.T.);
#22 = VERTEX_POINT('',#23);
#23 = CARTESIAN_POINT('',(0.292279499286,-2.5,0.405675602294));
#24 = VERTEX_POINT('',#25);
#25 = CARTESIAN_POINT('',(-0.292279499286,-2.5,-0.405675602294));
#26 = SURFACE_CURVE('',#27,(#38,#72),.PCURVE_S1.);
#27 = B_SPLINE_CURVE_WITH_KNOTS('',3,(#28,#29,#30,#31,#32,#33,#34,#35,
    #36,#37),.UNSPECIFIED.,.F.,.F.,(4,2,2,2,4),(0.,0.25,0.5,0.75,1.),
  .UNSPECIFIED.);
#28 = CARTESIAN_POINT('',(0.292279499286,-2.5,0.405675602294));
#29 = CARTESIAN_POINT('',(0.184997729828,-2.5,0.482969532919));
#30 = CARTESIAN_POINT('',(5.000808176162E-02,-2.5,0.514533867358));
#31 = CARTESIAN_POINT('',(-0.210374388556,-2.5,0.472523703225));
#32 = CARTESIAN_POINT('',(-0.328469333031,-2.5,0.399191440487));
#33 = CARTESIAN_POINT('',(-0.482881871558,-2.5,0.185367558086));
#34 = CARTESIAN_POINT('',(-0.514533867358,-2.5,5.000808176199E-02));
#35 = CARTESIAN_POINT('',(-0.472523703225,-2.5,-0.210374388556));
#36 = CARTESIAN_POINT('',(-0.400179805727,-2.5,-0.327936030674));
#37 = CARTESIAN_POINT('',(-0.292279499286,-2.5,-0.405675602294));
#38 = PCURVE('',#39,#44);
#39 = CYLINDRICAL_SURFACE('',#40,0.5);
#40 = AXIS2_PLACEMENT_3D('',#41,#42,#43);
#41 = CARTESIAN_POINT('',(6.099040392439E-17,-2.5,-5.900663617797E-17));
#42 = DIRECTION('',(0.,-1.,0.));
#43 = DIRECTION('',(-0.584558998572,-0.,-0.811351204589));
#44 = DEFINITIONAL_REPRESENTATION('',(#45),#71);
#45 = B_SPLINE_CURVE_WITH_KNOTS('',3,(#46,#47,#48,#49,#50,#51,#52,#53,
    #54,#55,#56,#57,#58,#59,#60,#61,#62,#63,#64,#65,#66,#67,#68,#69,#70)
  ,.UNSPECIFIED.,.F.,.F.,(4,1,1,1,1,1,1,1,1,1,1,1,1,1,1,1,1,1,1,1,1,1,4)
  ,(0.,4.545454545455E-02,9.090909090909E-02,0.136363636364,
    0.181818181818,0.227272727273,0.272727272727,0.318181818182,
    0.363636363636,0.409090909091,0.454545454545,0.5,0.545454545455,
    0.590909090909,0.636363636364,0.681818181818,0.727272727273,
    0.772727272727,0.818181818182,0.863636363636,0.909090909091,
    0.954545454545,1.),.QUASI_UNIFORM_KNOTS.);
#46 = CARTESIAN_POINT('',(3.14159265359,0.));
#47 = CARTESIAN_POINT('',(3.189655714463,0.));
#48 = CARTESIAN_POINT('',(3.285295134376,-1.585990748704E-17));
#49 = CARTESIAN_POINT('',(3.427832618099,5.550967620465E-17));
#50 = CARTESIAN_POINT('',(3.570039972444,-2.061787973316E-16));
#51 = CARTESIAN_POINT('',(3.712323013212,7.692055131216E-16));
#52 = CARTESIAN_POINT('',(3.85500661837,-2.061079960545E-16));
#53 = CARTESIAN_POINT('',(3.998971931264,5.52264710964E-17));
#54 = CARTESIAN_POINT('',(4.141663922249,-1.47978883311E-17));
#55 = CARTESIAN_POINT('',(4.284025750736,3.965082228005E-18));
#56 = CARTESIAN_POINT('',(4.426365969143,-1.062440580917E-18));
#57 = CARTESIAN_POINT('',(4.568883852714,2.846800956627E-19));
#58 = CARTESIAN_POINT('',(4.712402966022,-7.627980173406E-20));
#59 = CARTESIAN_POINT('',(4.855838165506,2.043911127352E-20));
#60 = CARTESIAN_POINT('',(4.998257006392,-5.476643360006E-21));
#61 = CARTESIAN_POINT('',(5.140573046586,1.467462166509E-21));
#62 = CARTESIAN_POINT('',(5.283002661518,-3.932053060284E-22));
#63 = CARTESIAN_POINT('',(5.425804351703,1.05359057605E-22));
#64 = CARTESIAN_POINT('',(5.569781784393,-2.823092439157E-23));
#65 = CARTESIAN_POINT('',(5.712202715336,7.564639961277E-24));
#66 = CARTESIAN_POINT('',(5.854166455446,-2.027635453538E-24));
#67 = CARTESIAN_POINT('',(5.996176842692,5.459018528756E-25));
#68 = CARTESIAN_POINT('',(6.138830465407,-1.559719579645E-25));
#69 = CARTESIAN_POINT('',(6.234839969453,0.));
#70 = CARTESIAN_POINT('',(6.28318530718,0.));
#71 = ( GEOMETRIC_REPRESENTATION_CONTEXT(2) 
PARAMETRIC_REPRESENTATION_CONTEXT() REPRESENTATION_CONTEXT('2D SPACE',''
  ) );
#72 = PCURVE('',#73,#78);
#73 = PLANE('',#74);
#74 = AXIS2_PLACEMENT_3D('',#75,#76,#77);
#75 = CARTESIAN_POINT('',(3.732215541109,-2.5,-2.688971393433));
#76 = DIRECTION('',(-0.,1.,0.));
#77 = DIRECTION('',(1.,0.,0.));
#78 = DEFINITIONAL_REPRESENTATION('',(#79),#90);
#79 = B_SPLINE_CURVE_WITH_KNOTS('',3,(#80,#81,#82,#83,#84,#85,#86,#87,
    #88,#89),.UNSPECIFIED.,.F.,.F.,(4,2,2,2,4),(0.,0.25,0.5,0.75,1.),
  .UNSPECIFIED.);
#80 = CARTESIAN_POINT('',(-3.439936041823,-3.094646995728));
#81 = CARTESIAN_POINT('',(-3.547217811282,-3.171940926353));
#82 = CARTESIAN_POINT('',(-3.682207459348,-3.203505260791));
#83 = CARTESIAN_POINT('',(-3.942589929665,-3.161495096659));
#84 = CARTESIAN_POINT('',(-4.06068487414,-3.08816283392));
#85 = CARTESIAN_POINT('',(-4.215097412667,-2.874338951519));
#86 = CARTESIAN_POINT('',(-4.246749408467,-2.738979475195));
#87 = CARTESIAN_POINT('',(-4.204739244334,-2.478597004877));
#88 = CARTESIAN_POINT('',(-4.132395346836,-2.361035362759));
#89 = CARTESIAN_POINT('',(-4.024495040395,-2.283295791139));
#90 = ( GEOMETRIC_REPRESENTATION_CONTEXT(2) 
PARAMETRIC_REPRESENTATION_CONTEXT() REPRESENTATION_CONTEXT('2D SPACE',''
  ) );
#91 = ORIENTED_EDGE('',*,*,#92,.T.);
#92 = EDGE_CURVE('',#24,#93,#95,.T.);
#93 = VERTEX_POINT('',#94);
#94 = CARTESIAN_POINT('',(-0.292279499286,-6.,-0.405675602294));
#95 = SURFACE_CURVE('',#96,(#101,#107),.PCURVE_S1.);
#96 = B_SPLINE_CURVE_WITH_KNOTS('',3,(#97,#98,#99,#100),.UNSPECIFIED.,
  .F.,.F.,(4,4),(0.,1.),.PIECEWISE_BEZIER_KNOTS.);
#97 = CARTESIAN_POINT('',(-0.292279499286,-2.5,-0.405675602294));
#98 = CARTESIAN_POINT('',(-0.292279499286,-3.666666666667,
    -0.405675602294));
#99 = CARTESIAN_POINT('',(-0.292279499286,-4.833333333333,
    -0.405675602294));
#100 = CARTESIAN_POINT('',(-0.292279499286,-6.,-0.405675602294));
#101 = PCURVE('',#39,#102);
#102 = DEFINITIONAL_REPRESENTATION('',(#103),#106);
#103 = B_SPLINE_CURVE_WITH_KNOTS('',1,(#104,#105),.UNSPECIFIED.,.F.,.F.,
  (2,2),(0.,1.),.PIECEWISE_BEZIER_KNOTS.);
#104 = CARTESIAN_POINT('',(6.28318530718,0.));
#105 = CARTESIAN_POINT('',(6.28318530718,3.5));
#106 = ( GEOMETRIC_REPRESENTATION_CONTEXT(2) 
PARAMETRIC_REPRESENTATION_CONTEXT() REPRESENTATION_CONTEXT('2D SPACE',''
  ) );
#107 = PCURVE('',#108,#113);
#108 = CYLINDRICAL_SURFACE('',#109,0.5);
#109 = AXIS2_PLACEMENT_3D('',#110,#111,#112);
#110 = CARTESIAN_POINT('',(6.099040392439E-17,-2.5,-5.900663617797E-17)
  );
#111 = DIRECTION('',(0.,-1.,0.));
#112 = DIRECTION('',(-0.584558998572,-0.,-0.811351204589));
#113 = DEFINITIONAL_REPRESENTATION('',(#114),#117);
#114 = B_SPLINE_CURVE_WITH_KNOTS('',1,(#115,#116),.UNSPECIFIED.,.F.,.F.,
  (2,2),(0.,1.),.PIECEWISE_BEZIER_KNOTS.);
#115 = CARTESIAN_POINT('',(0.,0.));
#116 = CARTESIAN_POINT('',(0.,3.5));
#117 = ( GEOMETRIC_REPRESENTATION_CONTEXT(2) 
PARAMETRIC_REPRESENTATION_CONTEXT() REPRESENTATION_CONTEXT('2D SPACE',''
  ) );
#118 = ORIENTED_EDGE('',*,*,#119,.T.);
#119 = EDGE_CURVE('',#93,#120,#122,.T.);
#120 = VERTEX_POINT('',#121);
#121 = CARTESIAN_POINT('',(0.292279499286,-6.,0.405675602294));
#122 = SURFACE_CURVE('',#123,(#134,#163),.PCURVE_S1.);
#123 = B_SPLINE_CURVE_WITH_KNOTS('',3,(#124,#125,#126,#127,#128,#129,
    #130,#131,#132,#133),.UNSPECIFIED.,.F.,.F.,(4,2,2,2,4),(0.,0.25,0.5,
    0.75,1.),.UNSPECIFIED.);
#124 = CARTESIAN_POINT('',(-0.292279499286,-6.,-0.405675602294));
#125 = CARTESIAN_POINT('',(-0.399561268745,-6.,-0.32838167167));
#126 = CARTESIAN_POINT('',(-0.472237333571,-6.,-0.21032786235));
#127 = CARTESIAN_POINT('',(-0.514820237012,-6.,4.99615555558E-02));
#128 = CARTESIAN_POINT('',(-0.482646478638,-6.,0.185197963157));
#129 = CARTESIAN_POINT('',(-0.328704725951,-6.,0.399361035415));
#130 = CARTESIAN_POINT('',(-0.21032786235,-6.,0.472237333571));
#131 = CARTESIAN_POINT('',(4.996155555587E-02,-6.,0.514820237012));
#132 = CARTESIAN_POINT('',(0.184379192846,-6.,0.483415173915));
#133 = CARTESIAN_POINT('',(0.292279499286,-6.,0.405675602294));
#134 = PCURVE('',#39,#135);
#135 = DEFINITIONAL_REPRESENTATION('',(#136),#162);
#136 = B_SPLINE_CURVE_WITH_KNOTS('',3,(#137,#138,#139,#140,#141,#142,
    #143,#144,#145,#146,#147,#148,#149,#150,#151,#152,#153,#154,#155,
    #156,#157,#158,#159,#160,#161),.UNSPECIFIED.,.F.,.F.,(4,1,1,1,1,1,1,
    1,1,1,1,1,1,1,1,1,1,1,1,1,1,1,4),(0.,4.545454545455E-02,
    9.090909090909E-02,0.136363636364,0.181818181818,0.227272727273,
    0.272727272727,0.318181818182,0.363636363636,0.409090909091,
    0.454545454545,0.5,0.545454545455,0.590909090909,0.636363636364,
    0.681818181818,0.727272727273,0.772727272727,0.818181818182,
    0.863636363636,0.909090909091,0.954545454545,1.),
  .QUASI_UNIFORM_KNOTS.);
#137 = CARTESIAN_POINT('',(6.28318530718,3.5));
#138 = CARTESIAN_POINT('',(6.235122246307,3.5));
#139 = CARTESIAN_POINT('',(6.139482826394,3.5));
#140 = CARTESIAN_POINT('',(5.996945342671,3.5));
#141 = CARTESIAN_POINT('',(5.854737988325,3.5));
#142 = CARTESIAN_POINT('',(5.712454947557,3.5));
#143 = CARTESIAN_POINT('',(5.5697713424,3.5));
#144 = CARTESIAN_POINT('',(5.425806029505,3.5));
#145 = CARTESIAN_POINT('',(5.28311403852,3.5));
#146 = CARTESIAN_POINT('',(5.140752210033,3.5));
#147 = CARTESIAN_POINT('',(4.998411991626,3.5));
#148 = CARTESIAN_POINT('',(4.855894108055,3.5));
#149 = CARTESIAN_POINT('',(4.712374994747,3.5));
#150 = CARTESIAN_POINT('',(4.568939795263,3.5));
#151 = CARTESIAN_POINT('',(4.426520954377,3.5));
#152 = CARTESIAN_POINT('',(4.284204914183,3.5));
#153 = CARTESIAN_POINT('',(4.141775299252,3.5));
#154 = CARTESIAN_POINT('',(3.998973609066,3.5));
#155 = CARTESIAN_POINT('',(3.854996176377,3.5));
#156 = CARTESIAN_POINT('',(3.712575245434,3.5));
#157 = CARTESIAN_POINT('',(3.570611505323,3.5));
#158 = CARTESIAN_POINT('',(3.428601118078,3.5));
#159 = CARTESIAN_POINT('',(3.285947495362,3.5));
#160 = CARTESIAN_POINT('',(3.189937991316,3.5));
#161 = CARTESIAN_POINT('',(3.14159265359,3.5));
#162 = ( GEOMETRIC_REPRESENTATION_CONTEXT(2) 
PARAMETRIC_REPRESENTATION_CONTEXT() REPRESENTATION_CONTEXT('2D SPACE',''
  ) );
#163 = PCURVE('',#164,#169);
#164 = PLANE('',#165);
#165 = AXIS2_PLACEMENT_3D('',#166,#167,#168);
#166 = CARTESIAN_POINT('',(1.419864608031,-6.,-1.022978247502));
#167 = DIRECTION('',(0.,-1.,0.));
#168 = DIRECTION('',(0.,0.,-1.));
#169 = DEFINITIONAL_REPRESENTATION('',(#170),#181);
#170 = B_SPLINE_CURVE_WITH_KNOTS('',3,(#171,#172,#173,#174,#175,#176,
    #177,#178,#179,#180),.UNSPECIFIED.,.F.,.F.,(4,2,2,2,4),(0.,0.25,0.5,
    0.75,1.),.UNSPECIFIED.);
#171 = CARTESIAN_POINT('',(-0.617302645207,-1.712144107317));
#172 = CARTESIAN_POINT('',(-0.694596575832,-1.819425876776));
#173 = CARTESIAN_POINT('',(-0.812650385152,-1.892101941602));
#174 = CARTESIAN_POINT('',(-1.072939803058,-1.934684845042));
#175 = CARTESIAN_POINT('',(-1.208176210659,-1.902511086669));
#176 = CARTESIAN_POINT('',(-1.422339282917,-1.748569333981));
#177 = CARTESIAN_POINT('',(-1.495215581073,-1.630192470381));
#178 = CARTESIAN_POINT('',(-1.537798484513,-1.369903052475));
#179 = CARTESIAN_POINT('',(-1.506393421417,-1.235485415185));
#180 = CARTESIAN_POINT('',(-1.428653849796,-1.127585108744));
#181 = ( GEOMETRIC_REPRESENTATION_CONTEXT(2) 
PARAMETRIC_REPRESENTATION_CONTEXT() REPRESENTATION_CONTEXT('2D SPACE',''
  ) );
#182 = ORIENTED_EDGE('',*,*,#183,.T.);
#183 = EDGE_CURVE('',#120,#22,#184,.T.);
#184 = SURFACE_CURVE('',#185,(#190,#196),.PCURVE_S1.);
#185 = B_SPLINE_CURVE_WITH_KNOTS('',3,(#186,#187,#188,#189),
  .UNSPECIFIED.,.F.,.F.,(4,4),(0.,1.),.PIECEWISE_BEZIER_KNOTS.);
#186 = CARTESIAN_POINT('',(0.292279499286,-6.,0.405675602294));
#187 = CARTESIAN_POINT('',(0.292279499286,-4.833333333333,0.405675602294
    ));
#188 = CARTESIAN_POINT('',(0.292279499286,-3.666666666667,0.405675602294
    ));
#189 = CARTESIAN_POINT('',(0.292279499286,-2.5,0.405675602294));
#190 = PCURVE('',#39,#191);
#191 = DEFINITIONAL_REPRESENTATION('',(#192),#195);
#192 = B_SPLINE_CURVE_WITH_KNOTS('',1,(#193,#194),.UNSPECIFIED.,.F.,.F.,
  (2,2),(0.,1.),.PIECEWISE_BEZIER_KNOTS.);
#193 = CARTESIAN_POINT('',(3.14159265359,3.5));
#194 = CARTESIAN_POINT('',(3.14159265359,0.));
#195 = ( GEOMETRIC_REPRESENTATION_CONTEXT(2) 
PARAMETRIC_REPRESENTATION_CONTEXT() REPRESENTATION_CONTEXT('2D SPACE',''
  ) );
#196 = PCURVE('',#108,#197);
#197 = DEFINITIONAL_REPRESENTATION('',(#198),#201);
#198 = B_SPLINE_CURVE_WITH_KNOTS('',1,(#199,#200),.UNSPECIFIED.,.F.,.F.,
  (2,2),(0.,1.),.PIECEWISE_BEZIER_KNOTS.);
#199 = CARTESIAN_POINT('',(3.14159265359,3.5));
#200 = CARTESIAN_POINT('',(3.14159265359,0.));
#201 = ( GEOMETRIC_REPRESENTATION_CONTEXT(2) 
PARAMETRIC_REPRESENTATION_CONTEXT() REPRESENTATION_CONTEXT('2D SPACE',''
  ) );
#202 = ADVANCED_FACE('',(#203,#263),#73,.T.);
#203 = FACE_BOUND('',#204,.T.);
#204 = EDGE_LOOP('',(#205,#262));
#205 = ORIENTED_EDGE('',*,*,#206,.T.);
#206 = EDGE_CURVE('',#24,#22,#207,.T.);
#207 = SURFACE_CURVE('',#208,(#219,#233),.PCURVE_S1.);
#208 = B_SPLINE_CURVE_WITH_KNOTS('',3,(#209,#210,#211,#212,#213,#214,
    #215,#216,#217,#218),.UNSPECIFIED.,.F.,.F.,(4,2,2,2,4),(0.,0.25,0.5,
    0.75,1.),.UNSPECIFIED.);
#209 = CARTESIAN_POINT('',(-0.292279499286,-2.5,-0.405675602294));
#210 = CARTESIAN_POINT('',(-0.184997729828,-2.5,-0.482969532919));
#211 = CARTESIAN_POINT('',(-5.000808176176E-02,-2.5,-0.514533867358));
#212 = CARTESIAN_POINT('',(0.210374388556,-2.5,-0.472523703225));
#213 = CARTESIAN_POINT('',(0.328469333031,-2.5,-0.399191440487));
#214 = CARTESIAN_POINT('',(0.482881871558,-2.5,-0.185367558086));
#215 = CARTESIAN_POINT('',(0.514533867358,-2.5,-5.000808176156E-02));
#216 = CARTESIAN_POINT('',(0.472523703225,-2.5,0.210374388556));
#217 = CARTESIAN_POINT('',(0.400179805727,-2.5,0.327936030674));
#218 = CARTESIAN_POINT('',(0.292279499286,-2.5,0.405675602294));
#219 = PCURVE('',#73,#220);
#220 = DEFINITIONAL_REPRESENTATION('',(#221),#232);
#221 = B_SPLINE_CURVE_WITH_KNOTS('',3,(#222,#223,#224,#225,#226,#227,
    #228,#229,#230,#231),.UNSPECIFIED.,.F.,.F.,(4,2,2,2,4),(0.,0.25,0.5,
    0.75,1.),.UNSPECIFIED.);
#222 = CARTESIAN_POINT('',(-4.024495040395,-2.283295791139));
#223 = CARTESIAN_POINT('',(-3.917213270937,-2.206001860514));
#224 = CARTESIAN_POINT('',(-3.782223622871,-2.174437526076));
#225 = CARTESIAN_POINT('',(-3.521841152553,-2.216447690208));
#226 = CARTESIAN_POINT('',(-3.403746208078,-2.289779952947));
#227 = CARTESIAN_POINT('',(-3.249333669551,-2.503603835348));
#228 = CARTESIAN_POINT('',(-3.217681673752,-2.638963311672));
#229 = CARTESIAN_POINT('',(-3.259691837884,-2.899345781989));
#230 = CARTESIAN_POINT('',(-3.332035735382,-3.016907424107));
#231 = CARTESIAN_POINT('',(-3.439936041823,-3.094646995728));
#232 = ( GEOMETRIC_REPRESENTATION_CONTEXT(2) 
PARAMETRIC_REPRESENTATION_CONTEXT() REPRESENTATION_CONTEXT('2D SPACE',''
  ) );
#233 = PCURVE('',#108,#234);
#234 = DEFINITIONAL_REPRESENTATION('',(#235),#261);
#235 = B_SPLINE_CURVE_WITH_KNOTS('',3,(#236,#237,#238,#239,#240,#241,
    #242,#243,#244,#245,#246,#247,#248,#249,#250,#251,#252,#253,#254,
    #255,#256,#257,#258,#259,#260),.UNSPECIFIED.,.F.,.F.,(4,1,1,1,1,1,1,
    1,1,1,1,1,1,1,1,1,1,1,1,1,1,1,4),(0.,4.545454545455E-02,
    9.090909090909E-02,0.136363636364,0.181818181818,0.227272727273,
    0.272727272727,0.318181818182,0.363636363636,0.409090909091,
    0.454545454545,0.5,0.545454545455,0.590909090909,0.636363636364,
    0.681818181818,0.727272727273,0.772727272727,0.818181818182,
    0.863636363636,0.909090909091,0.954545454545,1.),
  .QUASI_UNIFORM_KNOTS.);
#236 = CARTESIAN_POINT('',(0.,0.));
#237 = CARTESIAN_POINT('',(4.806306087273E-02,0.));
#238 = CARTESIAN_POINT('',(0.143702480786,-1.585990748704E-17));
#239 = CARTESIAN_POINT('',(0.286239964509,5.550967620465E-17));
#240 = CARTESIAN_POINT('',(0.428447318855,-2.061787973316E-16));
#241 = CARTESIAN_POINT('',(0.570730359622,7.692055131216E-16));
#242 = CARTESIAN_POINT('',(0.71341396478,-2.061079960545E-16));
#243 = CARTESIAN_POINT('',(0.857379277675,5.52264710964E-17));
#244 = CARTESIAN_POINT('',(1.00007126866,-1.47978883311E-17));
#245 = CARTESIAN_POINT('',(1.142433097146,3.965082228005E-18));
#246 = CARTESIAN_POINT('',(1.284773315553,-1.062440580917E-18));
#247 = CARTESIAN_POINT('',(1.427291199124,2.846800956627E-19));
#248 = CARTESIAN_POINT('',(1.570810312432,-7.627980173406E-20));
#249 = CARTESIAN_POINT('',(1.714245511916,2.043911127352E-20));
#250 = CARTESIAN_POINT('',(1.856664352803,-5.476643360006E-21));
#251 = CARTESIAN_POINT('',(1.998980392997,1.467462166509E-21));
#252 = CARTESIAN_POINT('',(2.141410007928,-3.932053060284E-22));
#253 = CARTESIAN_POINT('',(2.284211698114,1.05359057605E-22));
#254 = CARTESIAN_POINT('',(2.428189130803,-2.823092439157E-23));
#255 = CARTESIAN_POINT('',(2.570610061745,7.564639961277E-24));
#256 = CARTESIAN_POINT('',(2.712573801856,-2.027635453538E-24));
#257 = CARTESIAN_POINT('',(2.854584189102,5.459018528756E-25));
#258 = CARTESIAN_POINT('',(2.997237811817,-1.559719579645E-25));
#259 = CARTESIAN_POINT('',(3.093247315863,0.));
#260 = CARTESIAN_POINT('',(3.14159265359,0.));
#261 = ( GEOMETRIC_REPRESENTATION_CONTEXT(2) 
PARAMETRIC_REPRESENTATION_CONTEXT() REPRESENTATION_CONTEXT('2D SPACE',''
  ) );
#262 = ORIENTED_EDGE('',*,*,#21,.T.);
#263 = FACE_BOUND('',#264,.T.);
#264 = EDGE_LOOP('',(#265,#369));
#265 = ORIENTED_EDGE('',*,*,#266,.T.);
#266 = EDGE_CURVE('',#267,#269,#271,.T.);
#267 = VERTEX_POINT('',#268);
#268 = CARTESIAN_POINT('',(2.688971393433,-2.5,3.732215541109));
#269 = VERTEX_POINT('',#270);
#270 = CARTESIAN_POINT('',(-2.688971393433,-2.5,-3.732215541109));
#271 = SURFACE_CURVE('',#272,(#291,#313),.PCURVE_S1.);
#272 = B_SPLINE_CURVE_WITH_KNOTS('',3,(#273,#274,#275,#276,#277,#278,
    #279,#280,#281,#282,#283,#284,#285,#286,#287,#288,#289,#290),
  .UNSPECIFIED.,.F.,.F.,(4,2,2,2,2,2,2,2,4),(0.,0.125,0.25,0.375,0.5,
    0.625,0.75,0.875,1.),.UNSPECIFIED.);
#273 = CARTESIAN_POINT('',(2.688971393433,-2.5,3.732215541109));
#274 = CARTESIAN_POINT('',(3.178792359822,-2.5,3.379311333939));
#275 = CARTESIAN_POINT('',(3.595187200181,-2.5,2.932233490261));
#276 = CARTESIAN_POINT('',(4.229898174818,-2.5,1.9059520037));
#277 = CARTESIAN_POINT('',(4.443637046343,-2.5,1.333211928435));
#278 = CARTESIAN_POINT('',(4.63729260302,-2.5,0.142158094075));
#279 = CARTESIAN_POINT('',(4.615583433869,-2.5,-0.468779063897));
#280 = CARTESIAN_POINT('',(4.338701269575,-2.5,-1.64327809671));
#281 = CARTESIAN_POINT('',(4.084849083956,-2.5,-2.199402693245));
#282 = CARTESIAN_POINT('',(3.379581998262,-2.5,-3.178540093622));
#283 = CARTESIAN_POINT('',(2.93223349026,-2.5,-3.595187200181));
#284 = CARTESIAN_POINT('',(1.905952003701,-2.5,-4.229898174818));
#285 = CARTESIAN_POINT('',(1.333211928432,-2.5,-4.443637046343));
#286 = CARTESIAN_POINT('',(0.142158094078,-2.5,-4.63729260302));
#287 = CARTESIAN_POINT('',(-0.468779063901,-2.5,-4.615583433867));
#288 = CARTESIAN_POINT('',(-1.643278096706,-2.5,-4.338701269577));
#289 = CARTESIAN_POINT('',(-2.198549664202,-2.5,-4.085552583436));
#290 = CARTESIAN_POINT('',(-2.688971393433,-2.5,-3.732215541109));
#291 = PCURVE('',#73,#292);
#292 = DEFINITIONAL_REPRESENTATION('',(#293),#312);
#293 = B_SPLINE_CURVE_WITH_KNOTS('',3,(#294,#295,#296,#297,#298,#299,
    #300,#301,#302,#303,#304,#305,#306,#307,#308,#309,#310,#311),
  .UNSPECIFIED.,.F.,.F.,(4,2,2,2,2,2,2,2,4),(0.,0.125,0.25,0.375,0.5,
    0.625,0.75,0.875,1.),.UNSPECIFIED.);
#294 = CARTESIAN_POINT('',(-1.043244147676,-6.421186934543));
#295 = CARTESIAN_POINT('',(-0.553423181287,-6.068282727372));
#296 = CARTESIAN_POINT('',(-0.137028340929,-5.621204883695));
#297 = CARTESIAN_POINT('',(0.497682633709,-4.594923397134));
#298 = CARTESIAN_POINT('',(0.711421505234,-4.022183321868));
#299 = CARTESIAN_POINT('',(0.905077061911,-2.831129487508));
#300 = CARTESIAN_POINT('',(0.88336789276,-2.220192329536));
#301 = CARTESIAN_POINT('',(0.606485728466,-1.045693296723));
#302 = CARTESIAN_POINT('',(0.352633542847,-0.489568700188));
#303 = CARTESIAN_POINT('',(-0.352633542847,0.489568700188));
#304 = CARTESIAN_POINT('',(-0.799982050849,0.906215806748));
#305 = CARTESIAN_POINT('',(-1.826263537408,1.540926781384));
#306 = CARTESIAN_POINT('',(-2.399003612677,1.754665652909));
#307 = CARTESIAN_POINT('',(-3.590057447032,1.948321209587));
#308 = CARTESIAN_POINT('',(-4.20099460501,1.926612040434));
#309 = CARTESIAN_POINT('',(-5.375493637816,1.649729876143));
#310 = CARTESIAN_POINT('',(-5.930765205311,1.396581190003));
#311 = CARTESIAN_POINT('',(-6.421186934543,1.043244147676));
#312 = ( GEOMETRIC_REPRESENTATION_CONTEXT(2) 
PARAMETRIC_REPRESENTATION_CONTEXT() REPRESENTATION_CONTEXT('2D SPACE',''
  ) );
#313 = PCURVE('',#314,#319);
#314 = CYLINDRICAL_SURFACE('',#315,4.6);
#315 = AXIS2_PLACEMENT_3D('',#316,#317,#318);
#316 = CARTESIAN_POINT('',(6.099040392439E-17,-2.5,-5.900663617797E-17)
  );
#317 = DIRECTION('',(0.,1.,0.));
#318 = DIRECTION('',(0.584558998572,-0.,0.811351204589));
#319 = DEFINITIONAL_REPRESENTATION('',(#320),#368);
#320 = B_SPLINE_CURVE_WITH_KNOTS('',3,(#321,#322,#323,#324,#325,#326,
    #327,#328,#329,#330,#331,#332,#333,#334,#335,#336,#337,#338,#339,
    #340,#341,#342,#343,#344,#345,#346,#347,#348,#349,#350,#351,#352,
    #353,#354,#355,#356,#357,#358,#359,#360,#361,#362,#363,#364,#365,
    #366,#367),.UNSPECIFIED.,.F.,.F.,(4,1,1,1,1,1,1,1,1,1,1,1,1,1,1,1,1,
    1,1,1,1,1,1,1,1,1,1,1,1,1,1,1,1,1,1,1,1,1,1,1,1,1,1,1,4),(0.,
    2.272727272727E-02,4.545454545455E-02,6.818181818182E-02,
    9.090909090909E-02,0.113636363636,0.136363636364,0.159090909091,
    0.181818181818,0.204545454545,0.227272727273,0.25,0.272727272727,
    0.295454545455,0.318181818182,0.340909090909,0.363636363636,
    0.386363636364,0.409090909091,0.431818181818,0.454545454545,
    0.477272727273,0.5,0.522727272727,0.545454545455,0.568181818182,
    0.590909090909,0.613636363636,0.636363636364,0.659090909091,
    0.681818181818,0.704545454545,0.727272727273,0.75,0.772727272727,
    0.795454545455,0.818181818182,0.840909090909,0.863636363636,
    0.886363636364,0.909090909091,0.931818181818,0.954545454545,
    0.977272727273,1.),.QUASI_UNIFORM_KNOTS.);
#321 = CARTESIAN_POINT('',(0.,0.));
#322 = CARTESIAN_POINT('',(2.386147745865E-02,0.));
#323 = CARTESIAN_POINT('',(7.152169855042E-02,1.585990748704E-17));
#324 = CARTESIAN_POINT('',(0.14289054426,-5.550967620465E-17));
#325 = CARTESIAN_POINT('',(0.21420540057,2.061787973316E-16));
#326 = CARTESIAN_POINT('',(0.285531030577,-7.692055131216E-16));
#327 = CARTESIAN_POINT('',(0.356919590198,2.061079960545E-16));
#328 = CARTESIAN_POINT('',(0.428478204729,-5.52264710964E-17));
#329 = CARTESIAN_POINT('',(0.499876714366,1.47978883311E-17));
#330 = CARTESIAN_POINT('',(0.57121549979,-3.965082228005E-18));
#331 = CARTESIAN_POINT('',(0.642543150089,1.062440580917E-18));
#332 = CARTESIAN_POINT('',(0.713900923253,-2.846800956627E-19));
#333 = CARTESIAN_POINT('',(0.785398552765,7.627980173404E-20));
#334 = CARTESIAN_POINT('',(0.856893846072,-2.043911127344E-20));
#335 = CARTESIAN_POINT('',(0.928248899425,5.476643359729E-21));
#336 = CARTESIAN_POINT('',(0.999575910962,-1.467462165473E-21));
#337 = CARTESIAN_POINT('',(1.070916472244,3.932053021616E-22));
#338 = CARTESIAN_POINT('',(1.142318285267,-1.053590431738E-22));
#339 = CARTESIAN_POINT('',(1.213876225666,2.823087053375E-23));
#340 = CARTESIAN_POINT('',(1.285274915936,-7.564438961145E-24));
#341 = CARTESIAN_POINT('',(1.356613652959,2.026885310833E-24));
#342 = CARTESIAN_POINT('',(1.427941316227,-5.431022821883E-25));
#343 = CARTESIAN_POINT('',(1.499299085916,1.455238179198E-25));
#344 = CARTESIAN_POINT('',(1.570796716359,-3.899298949112E-26));
#345 = CARTESIAN_POINT('',(1.642292009417,1.044814004462E-26));
#346 = CARTESIAN_POINT('',(1.713647062837,-2.799570687363E-27));
#347 = CARTESIAN_POINT('',(1.784974074355,7.501427048328E-28));
#348 = CARTESIAN_POINT('',(1.856314635643,-2.01000131968E-28));
#349 = CARTESIAN_POINT('',(1.927716448664,5.385782303939E-29));
#350 = CARTESIAN_POINT('',(1.999274389062,-1.44311601895E-29));
#351 = CARTESIAN_POINT('',(2.070673079336,3.866817718621E-30));
#352 = CARTESIAN_POINT('',(2.142011816345,-1.036110684983E-30));
#353 = CARTESIAN_POINT('',(2.213339479665,2.776250213104E-31));
#354 = CARTESIAN_POINT('',(2.284697249164,-7.43894002588E-32));
#355 = CARTESIAN_POINT('',(2.356194880316,1.993257972479E-32));
#356 = CARTESIAN_POINT('',(2.427690170725,-5.340918640344E-33));
#357 = CARTESIAN_POINT('',(2.499045234031,1.431094836588E-33));
#358 = CARTESIAN_POINT('',(2.570372208656,-3.834607060073E-34));
#359 = CARTESIAN_POINT('',(2.641712907633,1.027479874416E-34));
#360 = CARTESIAN_POINT('',(2.713114206789,-2.753124375915E-35));
#361 = CARTESIAN_POINT('',(2.784674064959,7.376987594976E-36));
#362 = CARTESIAN_POINT('',(2.856035946261,-1.976706620753E-36));
#363 = CARTESIAN_POINT('',(2.927329860936,5.298388880369E-37));
#364 = CARTESIAN_POINT('',(2.998624732449,-1.426489313946E-37));
#365 = CARTESIAN_POINT('',(3.070003792154,4.07568375413E-38));
#366 = CARTESIAN_POINT('',(3.117701759747,0.));
#367 = CARTESIAN_POINT('',(3.14159265359,0.));
#368 = ( GEOMETRIC_REPRESENTATION_CONTEXT(2) 
PARAMETRIC_REPRESENTATION_CONTEXT() REPRESENTATION_CONTEXT('2D SPACE',''
  ) );
#369 = ORIENTED_EDGE('',*,*,#370,.T.);
#370 = EDGE_CURVE('',#269,#267,#371,.T.);
#371 = SURFACE_CURVE('',#372,(#391,#413),.PCURVE_S1.);
#372 = B_SPLINE_CURVE_WITH_KNOTS('',3,(#373,#374,#375,#376,#377,#378,
    #379,#380,#381,#382,#383,#384,#385,#386,#387,#388,#389,#390),
  .UNSPECIFIED.,.F.,.F.,(4,2,2,2,2,2,2,2,4),(0.,0.125,0.25,0.375,0.5,
    0.625,0.75,0.875,1.),.UNSPECIFIED.);
#373 = CARTESIAN_POINT('',(-2.688971393433,-2.5,-3.732215541109));
#374 = CARTESIAN_POINT('',(-3.178792359821,-2.5,-3.37931133394));
#375 = CARTESIAN_POINT('',(-3.595187200181,-2.5,-2.932233490261));
#376 = CARTESIAN_POINT('',(-4.229898174818,-2.5,-1.9059520037));
#377 = CARTESIAN_POINT('',(-4.443637046343,-2.5,-1.333211928427));
#378 = CARTESIAN_POINT('',(-4.63729260302,-2.5,-0.142158094083));
#379 = CARTESIAN_POINT('',(-4.615583433871,-2.5,0.468779063891));
#380 = CARTESIAN_POINT('',(-4.338701269573,-2.5,1.643278096716));
#381 = CARTESIAN_POINT('',(-4.084849083958,-2.5,2.199402693243));
#382 = CARTESIAN_POINT('',(-3.37958199826,-2.5,3.178540093624));
#383 = CARTESIAN_POINT('',(-2.932233490258,-2.5,3.595187200182));
#384 = CARTESIAN_POINT('',(-1.905952003703,-2.5,4.229898174817));
#385 = CARTESIAN_POINT('',(-1.333211928436,-2.5,4.443637046343));
#386 = CARTESIAN_POINT('',(-0.142158094074,-2.5,4.63729260302));
#387 = CARTESIAN_POINT('',(0.4687790639,-2.5,4.615583433868));
#388 = CARTESIAN_POINT('',(1.643278096707,-2.5,4.338701269576));
#389 = CARTESIAN_POINT('',(2.198549664201,-2.5,4.085552583437));
#390 = CARTESIAN_POINT('',(2.688971393433,-2.5,3.732215541109));
#391 = PCURVE('',#73,#392);
#392 = DEFINITIONAL_REPRESENTATION('',(#393),#412);
#393 = B_SPLINE_CURVE_WITH_KNOTS('',3,(#394,#395,#396,#397,#398,#399,
    #400,#401,#402,#403,#404,#405,#406,#407,#408,#409,#410,#411),
  .UNSPECIFIED.,.F.,.F.,(4,2,2,2,2,2,2,2,4),(0.,0.125,0.25,0.375,0.5,
    0.625,0.75,0.875,1.),.UNSPECIFIED.);
#394 = CARTESIAN_POINT('',(-6.421186934543,1.043244147676));
#395 = CARTESIAN_POINT('',(-6.91100790093,0.690339940506));
#396 = CARTESIAN_POINT('',(-7.32740274129,0.243262096828));
#397 = CARTESIAN_POINT('',(-7.962113715928,-0.783019389733));
#398 = CARTESIAN_POINT('',(-8.175852587452,-1.355759465007));
#399 = CARTESIAN_POINT('',(-8.369508144129,-2.546813299351));
#400 = CARTESIAN_POINT('',(-8.34779897498,-3.157750457324));
#401 = CARTESIAN_POINT('',(-8.070916810682,-4.33224949015));
#402 = CARTESIAN_POINT('',(-7.817064625067,-4.888374086677));
#403 = CARTESIAN_POINT('',(-7.111797539369,-5.867511487057));
#404 = CARTESIAN_POINT('',(-6.664449031368,-6.284158593616));
#405 = CARTESIAN_POINT('',(-5.638167544812,-6.91886956825));
#406 = CARTESIAN_POINT('',(-5.065427469545,-7.132608439776));
#407 = CARTESIAN_POINT('',(-3.874373635183,-7.326263996453));
#408 = CARTESIAN_POINT('',(-3.26343647721,-7.304554827301));
#409 = CARTESIAN_POINT('',(-2.088937444402,-7.027672663009));
#410 = CARTESIAN_POINT('',(-1.533665876908,-6.77452397687));
#411 = CARTESIAN_POINT('',(-1.043244147676,-6.421186934543));
#412 = ( GEOMETRIC_REPRESENTATION_CONTEXT(2) 
PARAMETRIC_REPRESENTATION_CONTEXT() REPRESENTATION_CONTEXT('2D SPACE',''
  ) );
#413 = PCURVE('',#414,#419);
#414 = CYLINDRICAL_SURFACE('',#415,4.6);
#415 = AXIS2_PLACEMENT_3D('',#416,#417,#418);
#416 = CARTESIAN_POINT('',(6.099040392439E-17,-2.5,-5.900663617797E-17)
  );
#417 = DIRECTION('',(0.,1.,0.));
#418 = DIRECTION('',(0.584558998572,-0.,0.811351204589));
#419 = DEFINITIONAL_REPRESENTATION('',(#420),#468);
#420 = B_SPLINE_CURVE_WITH_KNOTS('',3,(#421,#422,#423,#424,#425,#426,
    #427,#428,#429,#430,#431,#432,#433,#434,#435,#436,#437,#438,#439,
    #440,#441,#442,#443,#444,#445,#446,#447,#448,#449,#450,#451,#452,
    #453,#454,#455,#456,#457,#458,#459,#460,#461,#462,#463,#464,#465,
    #466,#467),.UNSPECIFIED.,.F.,.F.,(4,1,1,1,1,1,1,1,1,1,1,1,1,1,1,1,1,
    1,1,1,1,1,1,1,1,1,1,1,1,1,1,1,1,1,1,1,1,1,1,1,1,1,1,1,4),(0.,
    2.272727272727E-02,4.545454545455E-02,6.818181818182E-02,
    9.090909090909E-02,0.113636363636,0.136363636364,0.159090909091,
    0.181818181818,0.204545454545,0.227272727273,0.25,0.272727272727,
    0.295454545455,0.318181818182,0.340909090909,0.363636363636,
    0.386363636364,0.409090909091,0.431818181818,0.454545454545,
    0.477272727273,0.5,0.522727272727,0.545454545455,0.568181818182,
    0.590909090909,0.613636363636,0.636363636364,0.659090909091,
    0.681818181818,0.704545454545,0.727272727273,0.75,0.772727272727,
    0.795454545455,0.818181818182,0.840909090909,0.863636363636,
    0.886363636364,0.909090909091,0.931818181818,0.954545454545,
    0.977272727273,1.),.QUASI_UNIFORM_KNOTS.);
#421 = CARTESIAN_POINT('',(3.14159265359,0.));
#422 = CARTESIAN_POINT('',(3.165454131048,0.));
#423 = CARTESIAN_POINT('',(3.21311435214,-9.255134791976E-22));
#424 = CARTESIAN_POINT('',(3.284483197849,3.239297177192E-21));
#425 = CARTESIAN_POINT('',(3.35579805416,-1.203167522957E-20));
#426 = CARTESIAN_POINT('',(3.427123684166,4.488740374109E-20));
#427 = CARTESIAN_POINT('',(3.498512243788,-1.675179397348E-19));
#428 = CARTESIAN_POINT('',(3.570070858319,6.25184355198E-19));
#429 = CARTESIAN_POINT('',(3.641469367956,-2.333219481057E-18));
#430 = CARTESIAN_POINT('',(3.71280815338,8.707693569031E-18));
#431 = CARTESIAN_POINT('',(3.78413580368,-3.249755479507E-17));
#432 = CARTESIAN_POINT('',(3.855493576844,1.212825256112E-16));
#433 = CARTESIAN_POINT('',(3.926991206355,-4.526325476499E-16));
#434 = CARTESIAN_POINT('',(3.998486499661,-9.752875941121E-16));
#435 = CARTESIAN_POINT('',(4.069841553014,-9.752875941024E-16));
#436 = CARTESIAN_POINT('',(4.14116856455,-4.526325476788E-16));
#437 = CARTESIAN_POINT('',(4.212509125833,1.212825257175E-16));
#438 = CARTESIAN_POINT('',(4.283910938856,-3.249755519103E-17));
#439 = CARTESIAN_POINT('',(4.355468879256,8.707695046637E-18));
#440 = CARTESIAN_POINT('',(4.426867569526,-2.333224995521E-18));
#441 = CARTESIAN_POINT('',(4.498206306549,6.252049354489E-19));
#442 = CARTESIAN_POINT('',(4.569533969817,-1.675947462742E-19));
#443 = CARTESIAN_POINT('',(4.640891739506,4.517404964806E-20));
#444 = CARTESIAN_POINT('',(4.712389369949,-1.310145231799E-20));
#445 = CARTESIAN_POINT('',(4.783884663007,7.231759623918E-21));
#446 = CARTESIAN_POINT('',(4.855239716427,-1.582558617768E-20));
#447 = CARTESIAN_POINT('',(4.926566727946,5.607058508679E-20));
#448 = CARTESIAN_POINT('',(4.997907289233,-2.084567541695E-19));
#449 = CARTESIAN_POINT('',(5.069309102254,7.777564315911E-19));
#450 = CARTESIAN_POINT('',(5.140867042652,-2.902568972195E-18));
#451 = CARTESIAN_POINT('',(5.212265732926,1.083251945719E-17));
#452 = CARTESIAN_POINT('',(5.283604469935,-4.042750885656E-17));
#453 = CARTESIAN_POINT('',(5.354932133254,1.508775159691E-16));
#454 = CARTESIAN_POINT('',(5.426289902753,-5.630825550197E-16));
#455 = CARTESIAN_POINT('',(5.497787533906,-5.630825549908E-16));
#456 = CARTESIAN_POINT('',(5.569282824315,1.508775158823E-16));
#457 = CARTESIAN_POINT('',(5.640637887621,-4.042750853859E-17));
#458 = CARTESIAN_POINT('',(5.711964862246,1.083251827202E-17));
#459 = CARTESIAN_POINT('',(5.783305561223,-2.902564549477E-18));
#460 = CARTESIAN_POINT('',(5.854706860379,7.777399258912E-19));
#461 = CARTESIAN_POINT('',(5.926266718549,-2.083951540878E-19));
#462 = CARTESIAN_POINT('',(5.997628599851,5.584069045999E-20));
#463 = CARTESIAN_POINT('',(6.068922514526,-1.496760775216E-20));
#464 = CARTESIAN_POINT('',(6.140217386039,4.029740548659E-21));
#465 = CARTESIAN_POINT('',(6.211596445744,-1.151354442474E-21));
#466 = CARTESIAN_POINT('',(6.259294413337,0.));
#467 = CARTESIAN_POINT('',(6.28318530718,0.));
#468 = ( GEOMETRIC_REPRESENTATION_CONTEXT(2) 
PARAMETRIC_REPRESENTATION_CONTEXT() REPRESENTATION_CONTEXT('2D SPACE',''
  ) );
#469 = ADVANCED_FACE('',(#470),#108,.F.);
#470 = FACE_BOUND('',#471,.F.);
#471 = EDGE_LOOP('',(#472,#473,#530,#531));
#472 = ORIENTED_EDGE('',*,*,#183,.F.);
#473 = ORIENTED_EDGE('',*,*,#474,.T.);
#474 = EDGE_CURVE('',#120,#93,#475,.T.);
#475 = SURFACE_CURVE('',#476,(#487,#516),.PCURVE_S1.);
#476 = B_SPLINE_CURVE_WITH_KNOTS('',3,(#477,#478,#479,#480,#481,#482,
    #483,#484,#485,#486),.UNSPECIFIED.,.F.,.F.,(4,2,2,2,4),(0.,0.25,0.5,
    0.75,1.),.UNSPECIFIED.);
#477 = CARTESIAN_POINT('',(0.292279499286,-6.,0.405675602294));
#478 = CARTESIAN_POINT('',(0.399561268745,-6.,0.32838167167));
#479 = CARTESIAN_POINT('',(0.472237333571,-6.,0.21032786235));
#480 = CARTESIAN_POINT('',(0.514820237012,-6.,-4.99615555558E-02));
#481 = CARTESIAN_POINT('',(0.482646478638,-6.,-0.185197963157));
#482 = CARTESIAN_POINT('',(0.328704725951,-6.,-0.399361035415));
#483 = CARTESIAN_POINT('',(0.21032786235,-6.,-0.472237333571));
#484 = CARTESIAN_POINT('',(-4.996155555579E-02,-6.,-0.514820237012));
#485 = CARTESIAN_POINT('',(-0.184379192846,-6.,-0.483415173915));
#486 = CARTESIAN_POINT('',(-0.292279499286,-6.,-0.405675602294));
#487 = PCURVE('',#108,#488);
#488 = DEFINITIONAL_REPRESENTATION('',(#489),#515);
#489 = B_SPLINE_CURVE_WITH_KNOTS('',3,(#490,#491,#492,#493,#494,#495,
    #496,#497,#498,#499,#500,#501,#502,#503,#504,#505,#506,#507,#508,
    #509,#510,#511,#512,#513,#514),.UNSPECIFIED.,.F.,.F.,(4,1,1,1,1,1,1,
    1,1,1,1,1,1,1,1,1,1,1,1,1,1,1,4),(0.,4.545454545455E-02,
    9.090909090909E-02,0.136363636364,0.181818181818,0.227272727273,
    0.272727272727,0.318181818182,0.363636363636,0.409090909091,
    0.454545454545,0.5,0.545454545455,0.590909090909,0.636363636364,
    0.681818181818,0.727272727273,0.772727272727,0.818181818182,
    0.863636363636,0.909090909091,0.954545454545,1.),
  .QUASI_UNIFORM_KNOTS.);
#490 = CARTESIAN_POINT('',(3.14159265359,3.5));
#491 = CARTESIAN_POINT('',(3.093529592717,3.5));
#492 = CARTESIAN_POINT('',(2.997890172804,3.5));
#493 = CARTESIAN_POINT('',(2.855352689081,3.5));
#494 = CARTESIAN_POINT('',(2.713145334735,3.5));
#495 = CARTESIAN_POINT('',(2.570862293967,3.5));
#496 = CARTESIAN_POINT('',(2.42817868881,3.5));
#497 = CARTESIAN_POINT('',(2.284213375915,3.5));
#498 = CARTESIAN_POINT('',(2.14152138493,3.5));
#499 = CARTESIAN_POINT('',(1.999159556443,3.5));
#500 = CARTESIAN_POINT('',(1.856819338036,3.5));
#501 = CARTESIAN_POINT('',(1.714301454465,3.5));
#502 = CARTESIAN_POINT('',(1.570782341158,3.5));
#503 = CARTESIAN_POINT('',(1.427347141673,3.5));
#504 = CARTESIAN_POINT('',(1.284928300787,3.5));
#505 = CARTESIAN_POINT('',(1.142612260593,3.5));
#506 = CARTESIAN_POINT('',(1.000182645662,3.5));
#507 = CARTESIAN_POINT('',(0.857380955476,3.5));
#508 = CARTESIAN_POINT('',(0.713403522787,3.5));
#509 = CARTESIAN_POINT('',(0.570982591844,3.5));
#510 = CARTESIAN_POINT('',(0.429018851733,3.5));
#511 = CARTESIAN_POINT('',(0.287008464488,3.5));
#512 = CARTESIAN_POINT('',(0.144354841772,3.5));
#513 = CARTESIAN_POINT('',(4.834533772658E-02,3.5));
#514 = CARTESIAN_POINT('',(0.,3.5));
#515 = ( GEOMETRIC_REPRESENTATION_CONTEXT(2) 
PARAMETRIC_REPRESENTATION_CONTEXT() REPRESENTATION_CONTEXT('2D SPACE',''
  ) );
#516 = PCURVE('',#164,#517);
#517 = DEFINITIONAL_REPRESENTATION('',(#518),#529);
#518 = B_SPLINE_CURVE_WITH_KNOTS('',3,(#519,#520,#521,#522,#523,#524,
    #525,#526,#527,#528),.UNSPECIFIED.,.F.,.F.,(4,2,2,2,4),(0.,0.25,0.5,
    0.75,1.),.UNSPECIFIED.);
#519 = CARTESIAN_POINT('',(-1.428653849796,-1.127585108744));
#520 = CARTESIAN_POINT('',(-1.351359919171,-1.020303339286));
#521 = CARTESIAN_POINT('',(-1.233306109852,-0.947627274459));
#522 = CARTESIAN_POINT('',(-0.973016691946,-0.905044371019));
#523 = CARTESIAN_POINT('',(-0.837780284344,-0.937218129393));
#524 = CARTESIAN_POINT('',(-0.623617212087,-1.09115988208));
#525 = CARTESIAN_POINT('',(-0.550740913931,-1.20953674568));
#526 = CARTESIAN_POINT('',(-0.50815801049,-1.469826163586));
#527 = CARTESIAN_POINT('',(-0.539563073587,-1.604243800877));
#528 = CARTESIAN_POINT('',(-0.617302645207,-1.712144107317));
#529 = ( GEOMETRIC_REPRESENTATION_CONTEXT(2) 
PARAMETRIC_REPRESENTATION_CONTEXT() REPRESENTATION_CONTEXT('2D SPACE',''
  ) );
#530 = ORIENTED_EDGE('',*,*,#92,.F.);
#531 = ORIENTED_EDGE('',*,*,#206,.T.);
#532 = ADVANCED_FACE('',(#533,#537),#164,.T.);
#533 = FACE_BOUND('',#534,.T.);
#534 = EDGE_LOOP('',(#535,#536));
#535 = ORIENTED_EDGE('',*,*,#474,.T.);
#536 = ORIENTED_EDGE('',*,*,#119,.T.);
#537 = FACE_BOUND('',#538,.T.);
#538 = EDGE_LOOP('',(#539,#638));
#539 = ORIENTED_EDGE('',*,*,#540,.T.);
#540 = EDGE_CURVE('',#541,#543,#545,.T.);
#541 = VERTEX_POINT('',#542);
#542 = CARTESIAN_POINT('',(-2.688971393433,-6.,-3.732215541109));
#543 = VERTEX_POINT('',#544);
#544 = CARTESIAN_POINT('',(2.688971393433,-6.,3.732215541109));
#545 = SURFACE_CURVE('',#546,(#565,#587),.PCURVE_S1.);
#546 = B_SPLINE_CURVE_WITH_KNOTS('',3,(#547,#548,#549,#550,#551,#552,
    #553,#554,#555,#556,#557,#558,#559,#560,#561,#562,#563,#564),
  .UNSPECIFIED.,.F.,.F.,(4,2,2,2,2,2,2,2,4),(0.,0.125,0.25,0.375,0.5,
    0.625,0.75,0.875,1.),.UNSPECIFIED.);
#547 = CARTESIAN_POINT('',(-2.688971393433,-6.,-3.732215541109));
#548 = CARTESIAN_POINT('',(-2.199150427047,-6.,-4.085119748277));
#549 = CARTESIAN_POINT('',(-1.643244974442,-6.,-4.338560844303));
#550 = CARTESIAN_POINT('',(-0.468812186165,-6.,-4.615723859141));
#551 = CARTESIAN_POINT('',(0.142134956632,-6.,-4.637150191643));
#552 = CARTESIAN_POINT('',(1.333235065877,-6.,-4.44377945772));
#553 = CARTESIAN_POINT('',(1.90587612902,-6.,-4.229775458175));
#554 = CARTESIAN_POINT('',(2.932309364941,-6.,-3.595309916824));
#555 = CARTESIAN_POINT('',(3.379464937568,-6.,-3.178455754215));
#556 = CARTESIAN_POINT('',(4.08496614465,-6.,-2.199487032652));
#557 = CARTESIAN_POINT('',(4.338560844303,-6.,-1.643244974444));
#558 = CARTESIAN_POINT('',(4.615723859141,-6.,-0.468812186163));
#559 = CARTESIAN_POINT('',(4.637150191644,-6.,0.14213495663));
#560 = CARTESIAN_POINT('',(4.443779457719,-6.,1.33323506588));
#561 = CARTESIAN_POINT('',(4.229775458173,-6.,1.905876129022));
#562 = CARTESIAN_POINT('',(3.595309916826,-6.,2.932309364939));
#563 = CARTESIAN_POINT('',(3.179393122666,-6.,3.378878498781));
#564 = CARTESIAN_POINT('',(2.688971393433,-6.,3.732215541109));
#565 = PCURVE('',#164,#566);
#566 = DEFINITIONAL_REPRESENTATION('',(#567),#586);
#567 = B_SPLINE_CURVE_WITH_KNOTS('',3,(#568,#569,#570,#571,#572,#573,
    #574,#575,#576,#577,#578,#579,#580,#581,#582,#583,#584,#585),
  .UNSPECIFIED.,.F.,.F.,(4,2,2,2,2,2,2,2,4),(0.,0.125,0.25,0.375,0.5,
    0.625,0.75,0.875,1.),.UNSPECIFIED.);
#568 = CARTESIAN_POINT('',(2.709237293607,-4.108836001464));
#569 = CARTESIAN_POINT('',(3.062141500776,-3.619015035078));
#570 = CARTESIAN_POINT('',(3.315582596801,-3.063109582472));
#571 = CARTESIAN_POINT('',(3.592745611639,-1.888676794196));
#572 = CARTESIAN_POINT('',(3.614171944141,-1.277729651398));
#573 = CARTESIAN_POINT('',(3.420801210218,-8.662954215359E-02));
#574 = CARTESIAN_POINT('',(3.206797210673,0.486011520989));
#575 = CARTESIAN_POINT('',(2.572331669322,1.512444756911));
#576 = CARTESIAN_POINT('',(2.155477506713,1.959600329538));
#577 = CARTESIAN_POINT('',(1.17650878515,2.665101536619));
#578 = CARTESIAN_POINT('',(0.620266726942,2.918696236272));
#579 = CARTESIAN_POINT('',(-0.554166061339,3.19585925111));
#580 = CARTESIAN_POINT('',(-1.165113204131,3.217285583613));
#581 = CARTESIAN_POINT('',(-2.356213313382,3.023914849689));
#582 = CARTESIAN_POINT('',(-2.928854376524,2.809910850142));
#583 = CARTESIAN_POINT('',(-3.955287612441,2.175445308795));
#584 = CARTESIAN_POINT('',(-4.401856746283,1.759528514636));
#585 = CARTESIAN_POINT('',(-4.755193788611,1.269106785403));
#586 = ( GEOMETRIC_REPRESENTATION_CONTEXT(2) 
PARAMETRIC_REPRESENTATION_CONTEXT() REPRESENTATION_CONTEXT('2D SPACE',''
  ) );
#587 = PCURVE('',#314,#588);
#588 = DEFINITIONAL_REPRESENTATION('',(#589),#637);
#589 = B_SPLINE_CURVE_WITH_KNOTS('',3,(#590,#591,#592,#593,#594,#595,
    #596,#597,#598,#599,#600,#601,#602,#603,#604,#605,#606,#607,#608,
    #609,#610,#611,#612,#613,#614,#615,#616,#617,#618,#619,#620,#621,
    #622,#623,#624,#625,#626,#627,#628,#629,#630,#631,#632,#633,#634,
    #635,#636),.UNSPECIFIED.,.F.,.F.,(4,1,1,1,1,1,1,1,1,1,1,1,1,1,1,1,1,
    1,1,1,1,1,1,1,1,1,1,1,1,1,1,1,1,1,1,1,1,1,1,1,1,1,1,1,4),(0.,
    2.272727272727E-02,4.545454545455E-02,6.818181818182E-02,
    9.090909090909E-02,0.113636363636,0.136363636364,0.159090909091,
    0.181818181818,0.204545454545,0.227272727273,0.25,0.272727272727,
    0.295454545455,0.318181818182,0.340909090909,0.363636363636,
    0.386363636364,0.409090909091,0.431818181818,0.454545454545,
    0.477272727273,0.5,0.522727272727,0.545454545455,0.568181818182,
    0.590909090909,0.613636363636,0.636363636364,0.659090909091,
    0.681818181818,0.704545454545,0.727272727273,0.75,0.772727272727,
    0.795454545455,0.818181818182,0.840909090909,0.863636363636,
    0.886363636364,0.909090909091,0.931818181818,0.954545454545,
    0.977272727273,1.),.QUASI_UNIFORM_KNOTS.);
#590 = CARTESIAN_POINT('',(3.14159265359,-3.5));
#591 = CARTESIAN_POINT('',(3.117731176131,-3.5));
#592 = CARTESIAN_POINT('',(3.07007095504,-3.5));
#593 = CARTESIAN_POINT('',(2.99870210933,-3.5));
#594 = CARTESIAN_POINT('',(2.927387253019,-3.5));
#595 = CARTESIAN_POINT('',(2.856061623013,-3.5));
#596 = CARTESIAN_POINT('',(2.784673063391,-3.5));
#597 = CARTESIAN_POINT('',(2.713114448861,-3.5));
#598 = CARTESIAN_POINT('',(2.641715939224,-3.5));
#599 = CARTESIAN_POINT('',(2.570377153801,-3.5));
#600 = CARTESIAN_POINT('',(2.499049503501,-3.5));
#601 = CARTESIAN_POINT('',(2.427691730337,-3.5));
#602 = CARTESIAN_POINT('',(2.356194100825,-3.5));
#603 = CARTESIAN_POINT('',(2.284698807517,-3.5));
#604 = CARTESIAN_POINT('',(2.213343754165,-3.5));
#605 = CARTESIAN_POINT('',(2.142016742628,-3.5));
#606 = CARTESIAN_POINT('',(2.070676181345,-3.5));
#607 = CARTESIAN_POINT('',(1.999274368323,-3.5));
#608 = CARTESIAN_POINT('',(1.927716427924,-3.5));
#609 = CARTESIAN_POINT('',(1.856317737654,-3.5));
#610 = CARTESIAN_POINT('',(1.784979000632,-3.5));
#611 = CARTESIAN_POINT('',(1.713651337363,-3.5));
#612 = CARTESIAN_POINT('',(1.642293567674,-3.5));
#613 = CARTESIAN_POINT('',(1.570795937231,-3.5));
#614 = CARTESIAN_POINT('',(1.499300644172,-3.5));
#615 = CARTESIAN_POINT('',(1.427945590753,-3.5));
#616 = CARTESIAN_POINT('',(1.356618579234,-3.5));
#617 = CARTESIAN_POINT('',(1.285278017947,-3.5));
#618 = CARTESIAN_POINT('',(1.213876204926,-3.5));
#619 = CARTESIAN_POINT('',(1.142318264527,-3.5));
#620 = CARTESIAN_POINT('',(1.070919574254,-3.5));
#621 = CARTESIAN_POINT('',(0.999580837245,-3.5));
#622 = CARTESIAN_POINT('',(0.928253173925,-3.5));
#623 = CARTESIAN_POINT('',(0.856895404426,-3.5));
#624 = CARTESIAN_POINT('',(0.785397773274,-3.5));
#625 = CARTESIAN_POINT('',(0.713902482864,-3.5));
#626 = CARTESIAN_POINT('',(0.642547419558,-3.5));
#627 = CARTESIAN_POINT('',(0.571220444933,-3.5));
#628 = CARTESIAN_POINT('',(0.499879745956,-3.5));
#629 = CARTESIAN_POINT('',(0.428478446801,-3.5));
#630 = CARTESIAN_POINT('',(0.356918588631,-3.5));
#631 = CARTESIAN_POINT('',(0.285556707329,-3.5));
#632 = CARTESIAN_POINT('',(0.214262792654,-3.5));
#633 = CARTESIAN_POINT('',(0.142967921141,-3.5));
#634 = CARTESIAN_POINT('',(7.158886143564E-02,-3.5));
#635 = CARTESIAN_POINT('',(2.389089384293E-02,-3.5));
#636 = CARTESIAN_POINT('',(0.,-3.5));
#637 = ( GEOMETRIC_REPRESENTATION_CONTEXT(2) 
PARAMETRIC_REPRESENTATION_CONTEXT() REPRESENTATION_CONTEXT('2D SPACE',''
  ) );
#638 = ORIENTED_EDGE('',*,*,#639,.T.);
#639 = EDGE_CURVE('',#543,#541,#640,.T.);
#640 = SURFACE_CURVE('',#641,(#660,#682),.PCURVE_S1.);
#641 = B_SPLINE_CURVE_WITH_KNOTS('',3,(#642,#643,#644,#645,#646,#647,
    #648,#649,#650,#651,#652,#653,#654,#655,#656,#657,#658,#659),
  .UNSPECIFIED.,.F.,.F.,(4,2,2,2,2,2,2,2,4),(0.,0.125,0.25,0.375,0.5,
    0.625,0.75,0.875,1.),.UNSPECIFIED.);
#642 = CARTESIAN_POINT('',(2.688971393433,-6.,3.732215541109));
#643 = CARTESIAN_POINT('',(2.199150427045,-6.,4.085119748279));
#644 = CARTESIAN_POINT('',(1.643244974442,-6.,4.338560844303));
#645 = CARTESIAN_POINT('',(0.468812186165,-6.,4.615723859141));
#646 = CARTESIAN_POINT('',(-0.142134956634,-6.,4.637150191642));
#647 = CARTESIAN_POINT('',(-1.333235065876,-6.,4.443779457721));
#648 = CARTESIAN_POINT('',(-1.905876129017,-6.,4.229775458177));
#649 = CARTESIAN_POINT('',(-2.932309364944,-6.,3.595309916822));
#650 = CARTESIAN_POINT('',(-3.379464937568,-6.,3.178455754215));
#651 = CARTESIAN_POINT('',(-4.08496614465,-6.,2.199487032652));
#652 = CARTESIAN_POINT('',(-4.338560844303,-6.,1.643244974444));
#653 = CARTESIAN_POINT('',(-4.615723859141,-6.,0.468812186163));
#654 = CARTESIAN_POINT('',(-4.637150191642,-6.,-0.142134956635));
#655 = CARTESIAN_POINT('',(-4.443779457721,-6.,-1.333235065875));
#656 = CARTESIAN_POINT('',(-4.229775458173,-6.,-1.905876129022));
#657 = CARTESIAN_POINT('',(-3.595309916826,-6.,-2.93230936494));
#658 = CARTESIAN_POINT('',(-3.179393122667,-6.,-3.378878498781));
#659 = CARTESIAN_POINT('',(-2.688971393433,-6.,-3.732215541109));
#660 = PCURVE('',#164,#661);
#661 = DEFINITIONAL_REPRESENTATION('',(#662),#681);
#662 = B_SPLINE_CURVE_WITH_KNOTS('',3,(#663,#664,#665,#666,#667,#668,
    #669,#670,#671,#672,#673,#674,#675,#676,#677,#678,#679,#680),
  .UNSPECIFIED.,.F.,.F.,(4,2,2,2,2,2,2,2,4),(0.,0.125,0.25,0.375,0.5,
    0.625,0.75,0.875,1.),.UNSPECIFIED.);
#663 = CARTESIAN_POINT('',(-4.755193788611,1.269106785403));
#664 = CARTESIAN_POINT('',(-5.108097995781,0.779285819014));
#665 = CARTESIAN_POINT('',(-5.361539091805,0.223380366411));
#666 = CARTESIAN_POINT('',(-5.638702106643,-0.951052421866));
#667 = CARTESIAN_POINT('',(-5.660128439144,-1.561999564664));
#668 = CARTESIAN_POINT('',(-5.466757705222,-2.753099673906));
#669 = CARTESIAN_POINT('',(-5.252753705679,-3.325740737048));
#670 = CARTESIAN_POINT('',(-4.618288164324,-4.352173972975));
#671 = CARTESIAN_POINT('',(-4.201434001717,-4.799329545599));
#672 = CARTESIAN_POINT('',(-3.222465280153,-5.504830752681));
#673 = CARTESIAN_POINT('',(-2.666223221945,-5.758425452334));
#674 = CARTESIAN_POINT('',(-1.491790433665,-6.035588467172));
#675 = CARTESIAN_POINT('',(-0.880843290867,-6.057014799673));
#676 = CARTESIAN_POINT('',(0.310256818373,-5.863644065751));
#677 = CARTESIAN_POINT('',(0.88289788152,-5.649640066204));
#678 = CARTESIAN_POINT('',(1.909331117438,-5.015174524856));
#679 = CARTESIAN_POINT('',(2.355900251279,-4.599257730697));
#680 = CARTESIAN_POINT('',(2.709237293607,-4.108836001464));
#681 = ( GEOMETRIC_REPRESENTATION_CONTEXT(2) 
PARAMETRIC_REPRESENTATION_CONTEXT() REPRESENTATION_CONTEXT('2D SPACE',''
  ) );
#682 = PCURVE('',#414,#683);
#683 = DEFINITIONAL_REPRESENTATION('',(#684),#732);
#684 = B_SPLINE_CURVE_WITH_KNOTS('',3,(#685,#686,#687,#688,#689,#690,
    #691,#692,#693,#694,#695,#696,#697,#698,#699,#700,#701,#702,#703,
    #704,#705,#706,#707,#708,#709,#710,#711,#712,#713,#714,#715,#716,
    #717,#718,#719,#720,#721,#722,#723,#724,#725,#726,#727,#728,#729,
    #730,#731),.UNSPECIFIED.,.F.,.F.,(4,1,1,1,1,1,1,1,1,1,1,1,1,1,1,1,1,
    1,1,1,1,1,1,1,1,1,1,1,1,1,1,1,1,1,1,1,1,1,1,1,1,1,1,1,4),(0.,
    2.272727272727E-02,4.545454545455E-02,6.818181818182E-02,
    9.090909090909E-02,0.113636363636,0.136363636364,0.159090909091,
    0.181818181818,0.204545454545,0.227272727273,0.25,0.272727272727,
    0.295454545455,0.318181818182,0.340909090909,0.363636363636,
    0.386363636364,0.409090909091,0.431818181818,0.454545454545,
    0.477272727273,0.5,0.522727272727,0.545454545455,0.568181818182,
    0.590909090909,0.613636363636,0.636363636364,0.659090909091,
    0.681818181818,0.704545454545,0.727272727273,0.75,0.772727272727,
    0.795454545455,0.818181818182,0.840909090909,0.863636363636,
    0.886363636364,0.909090909091,0.931818181818,0.954545454545,
    0.977272727273,1.),.QUASI_UNIFORM_KNOTS.);
#685 = CARTESIAN_POINT('',(6.28318530718,-3.5));
#686 = CARTESIAN_POINT('',(6.259323829721,-3.5));
#687 = CARTESIAN_POINT('',(6.211663608629,-3.5));
#688 = CARTESIAN_POINT('',(6.14029476292,-3.5));
#689 = CARTESIAN_POINT('',(6.068979906609,-3.5));
#690 = CARTESIAN_POINT('',(5.997654276603,-3.5));
#691 = CARTESIAN_POINT('',(5.926265716981,-3.5));
#692 = CARTESIAN_POINT('',(5.854707102451,-3.5));
#693 = CARTESIAN_POINT('',(5.783308592814,-3.5));
#694 = CARTESIAN_POINT('',(5.71196980739,-3.5));
#695 = CARTESIAN_POINT('',(5.640642157091,-3.5));
#696 = CARTESIAN_POINT('',(5.569284383926,-3.5));
#697 = CARTESIAN_POINT('',(5.497786754415,-3.5));
#698 = CARTESIAN_POINT('',(5.426291461107,-3.5));
#699 = CARTESIAN_POINT('',(5.354936407755,-3.5));
#700 = CARTESIAN_POINT('',(5.283609396218,-3.5));
#701 = CARTESIAN_POINT('',(5.212268834935,-3.5));
#702 = CARTESIAN_POINT('',(5.140867021913,-3.5));
#703 = CARTESIAN_POINT('',(5.069309081514,-3.5));
#704 = CARTESIAN_POINT('',(4.997910391244,-3.5));
#705 = CARTESIAN_POINT('',(4.926571654221,-3.5));
#706 = CARTESIAN_POINT('',(4.855243990953,-3.5));
#707 = CARTESIAN_POINT('',(4.783886221264,-3.5));
#708 = CARTESIAN_POINT('',(4.712388590821,-3.5));
#709 = CARTESIAN_POINT('',(4.640893297762,-3.5));
#710 = CARTESIAN_POINT('',(4.569538244343,-3.5));
#711 = CARTESIAN_POINT('',(4.498211232824,-3.5));
#712 = CARTESIAN_POINT('',(4.426870671537,-3.5));
#713 = CARTESIAN_POINT('',(4.355468858515,-3.5));
#714 = CARTESIAN_POINT('',(4.283910918117,-3.5));
#715 = CARTESIAN_POINT('',(4.212512227843,-3.5));
#716 = CARTESIAN_POINT('',(4.141173490834,-3.5));
#717 = CARTESIAN_POINT('',(4.069845827515,-3.5));
#718 = CARTESIAN_POINT('',(3.998488058016,-3.5));
#719 = CARTESIAN_POINT('',(3.926990426863,-3.5));
#720 = CARTESIAN_POINT('',(3.855495136454,-3.5));
#721 = CARTESIAN_POINT('',(3.784140073149,-3.5));
#722 = CARTESIAN_POINT('',(3.712813098524,-3.5));
#723 = CARTESIAN_POINT('',(3.641472399546,-3.5));
#724 = CARTESIAN_POINT('',(3.57007110039,-3.5));
#725 = CARTESIAN_POINT('',(3.498511242221,-3.5));
#726 = CARTESIAN_POINT('',(3.427149360919,-3.5));
#727 = CARTESIAN_POINT('',(3.355855446244,-3.5));
#728 = CARTESIAN_POINT('',(3.28456057473,-3.5));
#729 = CARTESIAN_POINT('',(3.213181515025,-3.5));
#730 = CARTESIAN_POINT('',(3.165483547433,-3.5));
#731 = CARTESIAN_POINT('',(3.14159265359,-3.5));
#732 = ( GEOMETRIC_REPRESENTATION_CONTEXT(2) 
PARAMETRIC_REPRESENTATION_CONTEXT() REPRESENTATION_CONTEXT('2D SPACE',''
  ) );
#733 = ADVANCED_FACE('',(#734),#414,.T.);
#734 = FACE_BOUND('',#735,.T.);
#735 = EDGE_LOOP('',(#736,#756,#757,#777));
#736 = ORIENTED_EDGE('',*,*,#737,.T.);
#737 = EDGE_CURVE('',#543,#267,#738,.T.);
#738 = SURFACE_CURVE('',#739,(#744,#750),.PCURVE_S1.);
#739 = B_SPLINE_CURVE_WITH_KNOTS('',3,(#740,#741,#742,#743),
  .UNSPECIFIED.,.F.,.F.,(4,4),(0.,1.),.PIECEWISE_BEZIER_KNOTS.);
#740 = CARTESIAN_POINT('',(2.688971393433,-6.,3.732215541109));
#741 = CARTESIAN_POINT('',(2.688971393433,-4.833333333333,3.732215541109
    ));
#742 = CARTESIAN_POINT('',(2.688971393433,-3.666666666667,3.732215541109
    ));
#743 = CARTESIAN_POINT('',(2.688971393433,-2.5,3.732215541109));
#744 = PCURVE('',#414,#745);
#745 = DEFINITIONAL_REPRESENTATION('',(#746),#749);
#746 = B_SPLINE_CURVE_WITH_KNOTS('',1,(#747,#748),.UNSPECIFIED.,.F.,.F.,
  (2,2),(0.,1.),.PIECEWISE_BEZIER_KNOTS.);
#747 = CARTESIAN_POINT('',(6.28318530718,-3.5));
#748 = CARTESIAN_POINT('',(6.28318530718,0.));
#749 = ( GEOMETRIC_REPRESENTATION_CONTEXT(2) 
PARAMETRIC_REPRESENTATION_CONTEXT() REPRESENTATION_CONTEXT('2D SPACE',''
  ) );
#750 = PCURVE('',#314,#751);
#751 = DEFINITIONAL_REPRESENTATION('',(#752),#755);
#752 = B_SPLINE_CURVE_WITH_KNOTS('',1,(#753,#754),.UNSPECIFIED.,.F.,.F.,
  (2,2),(0.,1.),.PIECEWISE_BEZIER_KNOTS.);
#753 = CARTESIAN_POINT('',(0.,-3.5));
#754 = CARTESIAN_POINT('',(0.,0.));
#755 = ( GEOMETRIC_REPRESENTATION_CONTEXT(2) 
PARAMETRIC_REPRESENTATION_CONTEXT() REPRESENTATION_CONTEXT('2D SPACE',''
  ) );
#756 = ORIENTED_EDGE('',*,*,#370,.F.);
#757 = ORIENTED_EDGE('',*,*,#758,.T.);
#758 = EDGE_CURVE('',#269,#541,#759,.T.);
#759 = SURFACE_CURVE('',#760,(#765,#771),.PCURVE_S1.);
#760 = B_SPLINE_CURVE_WITH_KNOTS('',3,(#761,#762,#763,#764),
  .UNSPECIFIED.,.F.,.F.,(4,4),(0.,1.),.PIECEWISE_BEZIER_KNOTS.);
#761 = CARTESIAN_POINT('',(-2.688971393433,-2.5,-3.732215541109));
#762 = CARTESIAN_POINT('',(-2.688971393433,-3.666666666667,
    -3.732215541109));
#763 = CARTESIAN_POINT('',(-2.688971393433,-4.833333333333,
    -3.732215541109));
#764 = CARTESIAN_POINT('',(-2.688971393433,-6.,-3.732215541109));
#765 = PCURVE('',#414,#766);
#766 = DEFINITIONAL_REPRESENTATION('',(#767),#770);
#767 = B_SPLINE_CURVE_WITH_KNOTS('',1,(#768,#769),.UNSPECIFIED.,.F.,.F.,
  (2,2),(0.,1.),.PIECEWISE_BEZIER_KNOTS.);
#768 = CARTESIAN_POINT('',(3.14159265359,0.));
#769 = CARTESIAN_POINT('',(3.14159265359,-3.5));
#770 = ( GEOMETRIC_REPRESENTATION_CONTEXT(2) 
PARAMETRIC_REPRESENTATION_CONTEXT() REPRESENTATION_CONTEXT('2D SPACE',''
  ) );
#771 = PCURVE('',#314,#772);
#772 = DEFINITIONAL_REPRESENTATION('',(#773),#776);
#773 = B_SPLINE_CURVE_WITH_KNOTS('',1,(#774,#775),.UNSPECIFIED.,.F.,.F.,
  (2,2),(0.,1.),.PIECEWISE_BEZIER_KNOTS.);
#774 = CARTESIAN_POINT('',(3.14159265359,0.));
#775 = CARTESIAN_POINT('',(3.14159265359,-3.5));
#776 = ( GEOMETRIC_REPRESENTATION_CONTEXT(2) 
PARAMETRIC_REPRESENTATION_CONTEXT() REPRESENTATION_CONTEXT('2D SPACE',''
  ) );
#777 = ORIENTED_EDGE('',*,*,#639,.F.);
#778 = ADVANCED_FACE('',(#779),#314,.T.);
#779 = FACE_BOUND('',#780,.T.);
#780 = EDGE_LOOP('',(#781,#782,#783,#784));
#781 = ORIENTED_EDGE('',*,*,#266,.F.);
#782 = ORIENTED_EDGE('',*,*,#737,.F.);
#783 = ORIENTED_EDGE('',*,*,#540,.F.);
#784 = ORIENTED_EDGE('',*,*,#758,.F.);
#785 = ( GEOMETRIC_REPRESENTATION_CONTEXT(3) 
GLOBAL_UNCERTAINTY_ASSIGNED_CONTEXT((#789)) GLOBAL_UNIT_ASSIGNED_CONTEXT
((#786,#787,#788)) REPRESENTATION_CONTEXT('Context #1',
  '3D Context with UNIT and UNCERTAINTY') );
#786 = ( LENGTH_UNIT() NAMED_UNIT(*) SI_UNIT(.MILLI.,.METRE.) );
#787 = ( NAMED_UNIT(*) PLANE_ANGLE_UNIT() SI_UNIT($,.RADIAN.) );
#788 = ( NAMED_UNIT(*) SI_UNIT($,.STERADIAN.) SOLID_ANGLE_UNIT() );
#789 = UNCERTAINTY_MEASURE_WITH_UNIT(LENGTH_MEASURE(2.E-04),#786,
  'distance_accuracy_value','confusion accuracy');
#790 = PRODUCT_RELATED_PRODUCT_CATEGORY('part',$,(#7));
ENDSEC;
END-ISO-10303-21;
