ISO-10303-21;
HEADER;
FILE_DESCRIPTION(('Open CASCADE Model'),'2;1');
FILE_NAME('Open CASCADE Shape Model','2026-03-14T15:57:21',('Author'),(
    'Open CASCADE'),'Open CASCADE STEP processor 7.8','build123d',
  'Unknown');
FILE_SCHEMA(('AUTOMOTIVE_DESIGN { 1 0 10303 214 1 1 1 1 }'));
ENDSEC;
DATA;
#1 = APPLICATION_PROTOCOL_DEFINITION('international standard',
  'automotive_design',2000,#2);
#2 = APPLICATION_CONTEXT(
  'core data for automotive mechanical design processes');
#3 = SHAPE_DEFINITION_REPRESENTATION(#4,#10);
#4 = PRODUCT_DEFINITION_SHAPE('','',#5);
#5 = PRODUCT_DEFINITION('design','',#6,#9);
#6 = PRODUCT_DEFINITION_FORMATION('','',#7);
#7 = PRODUCT('SHELL','SHELL','',(#8));
#8 = PRODUCT_CONTEXT('',#2,'mechanical');
#9 = PRODUCT_DEFINITION_CONTEXT('part definition',#2,'design');
#10 = MANIFOLD_SURFACE_SHAPE_REPRESENTATION('',(#11,#15),#255);
#11 = AXIS2_PLACEMENT_3D('',#12,#13,#14);
#12 = CARTESIAN_POINT('',(0.,0.,0.));
#13 = DIRECTION('',(0.,0.,1.));
#14 = DIRECTION('',(1.,0.,-0.));
#15 = SHELL_BASED_SURFACE_MODEL('',(#16));
#16 = OPEN_SHELL('',(#17,#164));
#17 = ADVANCED_FACE('',(#18),#39,.T.);
#18 = FACE_BOUND('',#19,.T.);
#19 = EDGE_LOOP('',(#20,#72,#99,#144));
#20 = ORIENTED_EDGE('',*,*,#21,.T.);
#21 = EDGE_CURVE('',#22,#24,#26,.T.);
#22 = VERTEX_POINT('',#23);
#23 = CARTESIAN_POINT('',(2.819680395533,18.2,-0.524335575047));
#24 = VERTEX_POINT('',#25);
#25 = CARTESIAN_POINT('',(2.872489665173,18.2,0.524335575047));
#26 = SURFACE_CURVE('',#27,(#38),.PCURVE_S1.);
#27 = B_SPLINE_CURVE_WITH_KNOTS('',3,(#28,#29,#30,#31,#32,#33,#34,#35,
    #36,#37),.UNSPECIFIED.,.F.,.F.,(4,2,2,2,4),(0.,0.25,0.5,0.75,1.),
  .UNSPECIFIED.);
#28 = CARTESIAN_POINT('',(2.819680395533,18.2,-0.524335575047));
#29 = CARTESIAN_POINT('',(2.682409662984,18.2,-0.517422857816));
#30 = CARTESIAN_POINT('',(2.548829929897,18.2,-0.454043439471));
#31 = CARTESIAN_POINT('',(2.364475856671,18.2,-0.250137249323));
#32 = CARTESIAN_POINT('',(2.314836738075,18.2,-0.110866097728));
#33 = CARTESIAN_POINT('',(2.328662172537,18.2,0.163675367369));
#34 = CARTESIAN_POINT('',(2.392041590882,18.2,0.297255100456));
#35 = CARTESIAN_POINT('',(2.59594778103,18.2,0.481609173682));
#36 = CARTESIAN_POINT('',(2.735218932625,18.2,0.531248292278));
#37 = CARTESIAN_POINT('',(2.872489665173,18.2,0.524335575047));
#38 = PCURVE('',#39,#44);
#39 = CYLINDRICAL_SURFACE('',#40,0.525);
#40 = AXIS2_PLACEMENT_3D('',#41,#42,#43);
#41 = CARTESIAN_POINT('',(2.846085030353,18.3,1.73375088166E-15));
#42 = DIRECTION('',(1.393758570794E-16,-1.,-7.018727669979E-18));
#43 = DIRECTION('',(5.029454251471E-02,-6.162975822039E-33,
    0.998734428661));
#44 = DEFINITIONAL_REPRESENTATION('',(#45),#71);
#45 = B_SPLINE_CURVE_WITH_KNOTS('',3,(#46,#47,#48,#49,#50,#51,#52,#53,
    #54,#55,#56,#57,#58,#59,#60,#61,#62,#63,#64,#65,#66,#67,#68,#69,#70)
  ,.UNSPECIFIED.,.F.,.F.,(4,1,1,1,1,1,1,1,1,1,1,1,1,1,1,1,1,1,1,1,1,1,4)
  ,(0.,4.545454545455E-02,9.090909090909E-02,0.136363636364,
    0.181818181818,0.227272727273,0.272727272727,0.318181818182,
    0.363636363636,0.409090909091,0.454545454545,0.5,0.545454545455,
    0.590909090909,0.636363636364,0.681818181818,0.727272727273,
    0.772727272727,0.818181818182,0.863636363636,0.909090909091,
    0.954545454545,1.),.QUASI_UNIFORM_KNOTS.);
#46 = CARTESIAN_POINT('',(3.14159265359,0.1));
#47 = CARTESIAN_POINT('',(3.094022633669,0.1));
#48 = CARTESIAN_POINT('',(2.998870418291,0.1));
#49 = CARTESIAN_POINT('',(2.856090802868,1.E-01));
#50 = CARTESIAN_POINT('',(2.713157723295,1.E-01));
#51 = CARTESIAN_POINT('',(2.570274928939,0.1));
#52 = CARTESIAN_POINT('',(2.427579622073,0.1));
#53 = CARTESIAN_POINT('',(2.284809352156,0.1));
#54 = CARTESIAN_POINT('',(2.142114082224,0.1));
#55 = CARTESIAN_POINT('',(1.999231140135,0.1));
#56 = CARTESIAN_POINT('',(1.856298614556,9.999999999999E-02));
#57 = CARTESIAN_POINT('',(1.713516930892,0.1));
#58 = CARTESIAN_POINT('',(1.570796326795,9.999999999999E-02));
#59 = CARTESIAN_POINT('',(1.428075722698,0.1));
#60 = CARTESIAN_POINT('',(1.285294039034,1.E-01));
#61 = CARTESIAN_POINT('',(1.142361513454,1.E-01));
#62 = CARTESIAN_POINT('',(0.999478571366,1.E-01));
#63 = CARTESIAN_POINT('',(0.856783301434,1.E-01));
#64 = CARTESIAN_POINT('',(0.714013031517,1.E-01));
#65 = CARTESIAN_POINT('',(0.571317724651,1.E-01));
#66 = CARTESIAN_POINT('',(0.428434930295,1.E-01));
#67 = CARTESIAN_POINT('',(0.285501850722,1.E-01));
#68 = CARTESIAN_POINT('',(0.142722235299,0.1));
#69 = CARTESIAN_POINT('',(4.757001992097E-02,0.1));
#70 = CARTESIAN_POINT('',(0.,0.1));
#71 = ( GEOMETRIC_REPRESENTATION_CONTEXT(2) 
PARAMETRIC_REPRESENTATION_CONTEXT() REPRESENTATION_CONTEXT('2D SPACE',''
  ) );
#72 = ORIENTED_EDGE('',*,*,#73,.T.);
#73 = EDGE_CURVE('',#24,#74,#76,.T.);
#74 = VERTEX_POINT('',#75);
#75 = CARTESIAN_POINT('',(2.872489665173,18.3,0.524335575047));
#76 = SURFACE_CURVE('',#77,(#82,#88),.PCURVE_S1.);
#77 = B_SPLINE_CURVE_WITH_KNOTS('',3,(#78,#79,#80,#81),.UNSPECIFIED.,.F.
  ,.F.,(4,4),(0.,1.),.PIECEWISE_BEZIER_KNOTS.);
#78 = CARTESIAN_POINT('',(2.872489665173,18.2,0.524335575047));
#79 = CARTESIAN_POINT('',(2.872489665173,18.233333333333,0.524335575047)
  );
#80 = CARTESIAN_POINT('',(2.872489665173,18.266666666667,0.524335575047)
  );
#81 = CARTESIAN_POINT('',(2.872489665173,18.3,0.524335575047));
#82 = PCURVE('',#39,#83);
#83 = DEFINITIONAL_REPRESENTATION('',(#84),#87);
#84 = B_SPLINE_CURVE_WITH_KNOTS('',1,(#85,#86),.UNSPECIFIED.,.F.,.F.,(2,
    2),(0.,1.),.PIECEWISE_BEZIER_KNOTS.);
#85 = CARTESIAN_POINT('',(0.,0.1));
#86 = CARTESIAN_POINT('',(0.,0.));
#87 = ( GEOMETRIC_REPRESENTATION_CONTEXT(2) 
PARAMETRIC_REPRESENTATION_CONTEXT() REPRESENTATION_CONTEXT('2D SPACE',''
  ) );
#88 = PCURVE('',#89,#94);
#89 = CYLINDRICAL_SURFACE('',#90,0.525);
#90 = AXIS2_PLACEMENT_3D('',#91,#92,#93);
#91 = CARTESIAN_POINT('',(2.846085030353,18.3,1.73375088166E-15));
#92 = DIRECTION('',(1.393758570794E-16,-1.,-7.018727669979E-18));
#93 = DIRECTION('',(5.029454251471E-02,-6.162975822039E-33,
    0.998734428661));
#94 = DEFINITIONAL_REPRESENTATION('',(#95),#98);
#95 = B_SPLINE_CURVE_WITH_KNOTS('',1,(#96,#97),.UNSPECIFIED.,.F.,.F.,(2,
    2),(0.,1.),.PIECEWISE_BEZIER_KNOTS.);
#96 = CARTESIAN_POINT('',(6.28318530718,0.1));
#97 = CARTESIAN_POINT('',(6.28318530718,0.));
#98 = ( GEOMETRIC_REPRESENTATION_CONTEXT(2) 
PARAMETRIC_REPRESENTATION_CONTEXT() REPRESENTATION_CONTEXT('2D SPACE',''
  ) );
#99 = ORIENTED_EDGE('',*,*,#100,.T.);
#100 = EDGE_CURVE('',#74,#101,#103,.T.);
#101 = VERTEX_POINT('',#102);
#102 = CARTESIAN_POINT('',(2.819680395533,18.3,-0.524335575047));
#103 = SURFACE_CURVE('',#104,(#115),.PCURVE_S1.);
#104 = B_SPLINE_CURVE_WITH_KNOTS('',3,(#105,#106,#107,#108,#109,#110,
    #111,#112,#113,#114),.UNSPECIFIED.,.F.,.F.,(4,2,2,2,4),(0.,0.25,0.5,
    0.75,1.),.UNSPECIFIED.);
#105 = CARTESIAN_POINT('',(2.872489665173,18.3,0.524335575047));
#106 = CARTESIAN_POINT('',(2.735218932625,18.3,0.531248292278));
#107 = CARTESIAN_POINT('',(2.59594778103,18.3,0.481609173682));
#108 = CARTESIAN_POINT('',(2.392041590882,18.3,0.297255100456));
#109 = CARTESIAN_POINT('',(2.328662172537,18.3,0.163675367369));
#110 = CARTESIAN_POINT('',(2.314836738075,18.3,-0.110866097728));
#111 = CARTESIAN_POINT('',(2.364475856671,18.3,-0.250137249323));
#112 = CARTESIAN_POINT('',(2.548829929897,18.3,-0.454043439471));
#113 = CARTESIAN_POINT('',(2.682409662984,18.3,-0.517422857816));
#114 = CARTESIAN_POINT('',(2.819680395533,18.3,-0.524335575047));
#115 = PCURVE('',#39,#116);
#116 = DEFINITIONAL_REPRESENTATION('',(#117),#143);
#117 = B_SPLINE_CURVE_WITH_KNOTS('',3,(#118,#119,#120,#121,#122,#123,
    #124,#125,#126,#127,#128,#129,#130,#131,#132,#133,#134,#135,#136,
    #137,#138,#139,#140,#141,#142),.UNSPECIFIED.,.F.,.F.,(4,1,1,1,1,1,1,
    1,1,1,1,1,1,1,1,1,1,1,1,1,1,1,4),(0.,4.545454545455E-02,
    9.090909090909E-02,0.136363636364,0.181818181818,0.227272727273,
    0.272727272727,0.318181818182,0.363636363636,0.409090909091,
    0.454545454545,0.5,0.545454545455,0.590909090909,0.636363636364,
    0.681818181818,0.727272727273,0.772727272727,0.818181818182,
    0.863636363636,0.909090909091,0.954545454545,1.),
  .QUASI_UNIFORM_KNOTS.);
#118 = CARTESIAN_POINT('',(0.,1.198944519538E-31));
#119 = CARTESIAN_POINT('',(4.757001992097E-02,1.7763568394E-15));
#120 = CARTESIAN_POINT('',(0.142722235299,1.037320744847E-15));
#121 = CARTESIAN_POINT('',(0.285501850722,-6.295157866065E-15));
#122 = CARTESIAN_POINT('',(0.428434930295,2.827028646609E-15));
#123 = CARTESIAN_POINT('',(0.571317724651,-5.01295672037E-15));
#124 = CARTESIAN_POINT('',(0.714013031517,-4.091483837932E-15));
#125 = CARTESIAN_POINT('',(0.856783301434,6.260999929557E-17));
#126 = CARTESIAN_POINT('',(0.999478571366,3.84104384075E-15));
#127 = CARTESIAN_POINT('',(1.142361513454,5.889496710508E-15));
#128 = CARTESIAN_POINT('',(1.285294039034,-6.082748609978E-15));
#129 = CARTESIAN_POINT('',(1.428075722698,-2.874784343399E-15));
#130 = CARTESIAN_POINT('',(1.570796326795,-3.73439608923E-15));
#131 = CARTESIAN_POINT('',(1.713516930892,-3.503913372483E-15));
#132 = CARTESIAN_POINT('',(1.856298614556,-3.56623249364E-15));
#133 = CARTESIAN_POINT('',(1.999231140135,-3.547438725758E-15));
#134 = CARTESIAN_POINT('',(2.142114082224,-3.56029467613E-15));
#135 = CARTESIAN_POINT('',(2.284809352156,-3.527664642525E-15));
#136 = CARTESIAN_POINT('',(2.427579622073,-3.645328826572E-15));
#137 = CARTESIAN_POINT('',(2.570274928939,-3.20730212399E-15));
#138 = CARTESIAN_POINT('',(2.713157723295,-4.84174475027E-15));
#139 = CARTESIAN_POINT('',(2.856090802868,1.257999052268E-15));
#140 = CARTESIAN_POINT('',(2.998870418291,-1.902514588002E-16));
#141 = CARTESIAN_POINT('',(3.094022633669,-3.947459643112E-16));
#142 = CARTESIAN_POINT('',(3.14159265359,0.));
#143 = ( GEOMETRIC_REPRESENTATION_CONTEXT(2) 
PARAMETRIC_REPRESENTATION_CONTEXT() REPRESENTATION_CONTEXT('2D SPACE',''
  ) );
#144 = ORIENTED_EDGE('',*,*,#145,.T.);
#145 = EDGE_CURVE('',#101,#22,#146,.T.);
#146 = SURFACE_CURVE('',#147,(#152,#158),.PCURVE_S1.);
#147 = B_SPLINE_CURVE_WITH_KNOTS('',3,(#148,#149,#150,#151),
  .UNSPECIFIED.,.F.,.F.,(4,4),(0.,1.),.PIECEWISE_BEZIER_KNOTS.);
#148 = CARTESIAN_POINT('',(2.819680395533,18.3,-0.524335575047));
#149 = CARTESIAN_POINT('',(2.819680395533,18.266666666667,
    -0.524335575047));
#150 = CARTESIAN_POINT('',(2.819680395533,18.233333333333,
    -0.524335575047));
#151 = CARTESIAN_POINT('',(2.819680395533,18.2,-0.524335575047));
#152 = PCURVE('',#39,#153);
#153 = DEFINITIONAL_REPRESENTATION('',(#154),#157);
#154 = B_SPLINE_CURVE_WITH_KNOTS('',1,(#155,#156),.UNSPECIFIED.,.F.,.F.,
  (2,2),(0.,1.),.PIECEWISE_BEZIER_KNOTS.);
#155 = CARTESIAN_POINT('',(3.14159265359,0.));
#156 = CARTESIAN_POINT('',(3.14159265359,0.1));
#157 = ( GEOMETRIC_REPRESENTATION_CONTEXT(2) 
PARAMETRIC_REPRESENTATION_CONTEXT() REPRESENTATION_CONTEXT('2D SPACE',''
  ) );
#158 = PCURVE('',#89,#159);
#159 = DEFINITIONAL_REPRESENTATION('',(#160),#163);
#160 = B_SPLINE_CURVE_WITH_KNOTS('',1,(#161,#162),.UNSPECIFIED.,.F.,.F.,
  (2,2),(0.,1.),.PIECEWISE_BEZIER_KNOTS.);
#161 = CARTESIAN_POINT('',(3.14159265359,0.));
#162 = CARTESIAN_POINT('',(3.14159265359,0.1));
#163 = ( GEOMETRIC_REPRESENTATION_CONTEXT(2) 
PARAMETRIC_REPRESENTATION_CONTEXT() REPRESENTATION_CONTEXT('2D SPACE',''
  ) );
#164 = ADVANCED_FACE('',(#165),#89,.T.);
#165 = FACE_BOUND('',#166,.T.);
#166 = EDGE_LOOP('',(#167,#168,#211,#212));
#167 = ORIENTED_EDGE('',*,*,#73,.F.);
#168 = ORIENTED_EDGE('',*,*,#169,.T.);
#169 = EDGE_CURVE('',#24,#22,#170,.T.);
#170 = SURFACE_CURVE('',#171,(#182),.PCURVE_S1.);
#171 = B_SPLINE_CURVE_WITH_KNOTS('',3,(#172,#173,#174,#175,#176,#177,
    #178,#179,#180,#181),.UNSPECIFIED.,.F.,.F.,(4,2,2,2,4),(0.,0.25,0.5,
    0.75,1.),.UNSPECIFIED.);
#172 = CARTESIAN_POINT('',(2.872489665173,18.2,0.524335575047));
#173 = CARTESIAN_POINT('',(3.009760397722,18.2,0.517422857816));
#174 = CARTESIAN_POINT('',(3.143340130809,18.2,0.454043439471));
#175 = CARTESIAN_POINT('',(3.327694204036,18.2,0.250137249323));
#176 = CARTESIAN_POINT('',(3.377333322631,18.2,0.110866097728));
#177 = CARTESIAN_POINT('',(3.363507888169,18.2,-0.163675367369));
#178 = CARTESIAN_POINT('',(3.300128469824,18.2,-0.297255100456));
#179 = CARTESIAN_POINT('',(3.096222279676,18.2,-0.481609173682));
#180 = CARTESIAN_POINT('',(2.956951128082,18.2,-0.531248292278));
#181 = CARTESIAN_POINT('',(2.819680395533,18.2,-0.524335575047));
#182 = PCURVE('',#89,#183);
#183 = DEFINITIONAL_REPRESENTATION('',(#184),#210);
#184 = B_SPLINE_CURVE_WITH_KNOTS('',3,(#185,#186,#187,#188,#189,#190,
    #191,#192,#193,#194,#195,#196,#197,#198,#199,#200,#201,#202,#203,
    #204,#205,#206,#207,#208,#209),.UNSPECIFIED.,.F.,.F.,(4,1,1,1,1,1,1,
    1,1,1,1,1,1,1,1,1,1,1,1,1,1,1,4),(0.,4.545454545455E-02,
    9.090909090909E-02,0.136363636364,0.181818181818,0.227272727273,
    0.272727272727,0.318181818182,0.363636363636,0.409090909091,
    0.454545454545,0.5,0.545454545455,0.590909090909,0.636363636364,
    0.681818181818,0.727272727273,0.772727272727,0.818181818182,
    0.863636363636,0.909090909091,0.954545454545,1.),
  .QUASI_UNIFORM_KNOTS.);
#185 = CARTESIAN_POINT('',(6.28318530718,0.1));
#186 = CARTESIAN_POINT('',(6.235615287259,0.1));
#187 = CARTESIAN_POINT('',(6.140463071881,0.1));
#188 = CARTESIAN_POINT('',(5.997683456457,0.1));
#189 = CARTESIAN_POINT('',(5.854750376885,0.1));
#190 = CARTESIAN_POINT('',(5.711867582528,0.1));
#191 = CARTESIAN_POINT('',(5.569172275663,0.1));
#192 = CARTESIAN_POINT('',(5.426402005746,0.1));
#193 = CARTESIAN_POINT('',(5.283706735813,0.1));
#194 = CARTESIAN_POINT('',(5.140823793725,0.1));
#195 = CARTESIAN_POINT('',(4.997891268146,0.1));
#196 = CARTESIAN_POINT('',(4.855109584482,0.1));
#197 = CARTESIAN_POINT('',(4.712388980385,0.1));
#198 = CARTESIAN_POINT('',(4.569668376287,0.1));
#199 = CARTESIAN_POINT('',(4.426886692623,1.E-01));
#200 = CARTESIAN_POINT('',(4.283954167044,1.E-01));
#201 = CARTESIAN_POINT('',(4.141071224956,1.E-01));
#202 = CARTESIAN_POINT('',(3.998375955023,1.E-01));
#203 = CARTESIAN_POINT('',(3.855605685106,1.E-01));
#204 = CARTESIAN_POINT('',(3.712910378241,1.E-01));
#205 = CARTESIAN_POINT('',(3.570027583884,1.E-01));
#206 = CARTESIAN_POINT('',(3.427094504312,1.E-01));
#207 = CARTESIAN_POINT('',(3.284314888889,0.1));
#208 = CARTESIAN_POINT('',(3.189162673511,0.1));
#209 = CARTESIAN_POINT('',(3.14159265359,0.1));
#210 = ( GEOMETRIC_REPRESENTATION_CONTEXT(2) 
PARAMETRIC_REPRESENTATION_CONTEXT() REPRESENTATION_CONTEXT('2D SPACE',''
  ) );
#211 = ORIENTED_EDGE('',*,*,#145,.F.);
#212 = ORIENTED_EDGE('',*,*,#213,.T.);
#213 = EDGE_CURVE('',#101,#74,#214,.T.);
#214 = SURFACE_CURVE('',#215,(#226),.PCURVE_S1.);
#215 = B_SPLINE_CURVE_WITH_KNOTS('',3,(#216,#217,#218,#219,#220,#221,
    #222,#223,#224,#225),.UNSPECIFIED.,.F.,.F.,(4,2,2,2,4),(0.,0.25,0.5,
    0.75,1.),.UNSPECIFIED.);
#216 = CARTESIAN_POINT('',(2.819680395533,18.3,-0.524335575047));
#217 = CARTESIAN_POINT('',(2.956951128082,18.3,-0.531248292278));
#218 = CARTESIAN_POINT('',(3.096222279676,18.3,-0.481609173682));
#219 = CARTESIAN_POINT('',(3.300128469824,18.3,-0.297255100456));
#220 = CARTESIAN_POINT('',(3.363507888169,18.3,-0.163675367369));
#221 = CARTESIAN_POINT('',(3.377333322631,18.3,0.110866097728));
#222 = CARTESIAN_POINT('',(3.327694204036,18.3,0.250137249323));
#223 = CARTESIAN_POINT('',(3.143340130809,18.3,0.454043439471));
#224 = CARTESIAN_POINT('',(3.009760397722,18.3,0.517422857816));
#225 = CARTESIAN_POINT('',(2.872489665173,18.3,0.524335575047));
#226 = PCURVE('',#89,#227);
#227 = DEFINITIONAL_REPRESENTATION('',(#228),#254);
#228 = B_SPLINE_CURVE_WITH_KNOTS('',3,(#229,#230,#231,#232,#233,#234,
    #235,#236,#237,#238,#239,#240,#241,#242,#243,#244,#245,#246,#247,
    #248,#249,#250,#251,#252,#253),.UNSPECIFIED.,.F.,.F.,(4,1,1,1,1,1,1,
    1,1,1,1,1,1,1,1,1,1,1,1,1,1,1,4),(0.,4.545454545455E-02,
    9.090909090909E-02,0.136363636364,0.181818181818,0.227272727273,
    0.272727272727,0.318181818182,0.363636363636,0.409090909091,
    0.454545454545,0.5,0.545454545455,0.590909090909,0.636363636364,
    0.681818181818,0.727272727273,0.772727272727,0.818181818182,
    0.863636363636,0.909090909091,0.954545454545,1.),
  .QUASI_UNIFORM_KNOTS.);
#229 = CARTESIAN_POINT('',(3.14159265359,0.));
#230 = CARTESIAN_POINT('',(3.189162673511,1.7763568394E-15));
#231 = CARTESIAN_POINT('',(3.284314888889,1.037320744847E-15));
#232 = CARTESIAN_POINT('',(3.427094504312,-6.295157866065E-15));
#233 = CARTESIAN_POINT('',(3.570027583884,2.827028646609E-15));
#234 = CARTESIAN_POINT('',(3.712910378241,-5.01295672037E-15));
#235 = CARTESIAN_POINT('',(3.855605685106,-4.091483837932E-15));
#236 = CARTESIAN_POINT('',(3.998375955023,6.260999929557E-17));
#237 = CARTESIAN_POINT('',(4.141071224956,3.84104384075E-15));
#238 = CARTESIAN_POINT('',(4.283954167044,5.889496710508E-15));
#239 = CARTESIAN_POINT('',(4.426886692623,-6.082748609978E-15));
#240 = CARTESIAN_POINT('',(4.569668376287,-2.874784343399E-15));
#241 = CARTESIAN_POINT('',(4.712388980385,-3.73439608923E-15));
#242 = CARTESIAN_POINT('',(4.855109584482,-3.503913372483E-15));
#243 = CARTESIAN_POINT('',(4.997891268146,-3.56623249364E-15));
#244 = CARTESIAN_POINT('',(5.140823793725,-3.547438725758E-15));
#245 = CARTESIAN_POINT('',(5.283706735813,-3.56029467613E-15));
#246 = CARTESIAN_POINT('',(5.426402005746,-3.527664642525E-15));
#247 = CARTESIAN_POINT('',(5.569172275663,-3.645328826572E-15));
#248 = CARTESIAN_POINT('',(5.711867582528,-3.20730212399E-15));
#249 = CARTESIAN_POINT('',(5.854750376885,-4.84174475027E-15));
#250 = CARTESIAN_POINT('',(5.997683456457,1.257999052268E-15));
#251 = CARTESIAN_POINT('',(6.140463071881,-1.902514588002E-16));
#252 = CARTESIAN_POINT('',(6.235615287259,-3.947459643112E-16));
#253 = CARTESIAN_POINT('',(6.28318530718,1.198944519538E-31));
#254 = ( GEOMETRIC_REPRESENTATION_CONTEXT(2) 
PARAMETRIC_REPRESENTATION_CONTEXT() REPRESENTATION_CONTEXT('2D SPACE',''
  ) );
#255 = ( GEOMETRIC_REPRESENTATION_CONTEXT(3) 
GLOBAL_UNCERTAINTY_ASSIGNED_CONTEXT((#259)) GLOBAL_UNIT_ASSIGNED_CONTEXT
((#256,#257,#258)) REPRESENTATION_CONTEXT('Context #1',
  '3D Context with UNIT and UNCERTAINTY') );
#256 = ( LENGTH_UNIT() NAMED_UNIT(*) SI_UNIT(.MILLI.,.METRE.) );
#257 = ( NAMED_UNIT(*) PLANE_ANGLE_UNIT() SI_UNIT($,.RADIAN.) );
#258 = ( NAMED_UNIT(*) SI_UNIT($,.STERADIAN.) SOLID_ANGLE_UNIT() );
#259 = UNCERTAINTY_MEASURE_WITH_UNIT(LENGTH_MEASURE(5.E-04),#256,
  'distance_accuracy_value','confusion accuracy');
#260 = PRODUCT_RELATED_PRODUCT_CATEGORY('part',$,(#7));
ENDSEC;
END-ISO-10303-21;
