ISO-10303-21;
HEADER;
FILE_DESCRIPTION(('Open CASCADE Model'),'2;1');
FILE_NAME('Open CASCADE Shape Model','2026-03-14T15:57:21',('Author'),(
    'Open CASCADE'),'Open CASCADE STEP processor 7.8','build123d',
  'Unknown');
FILE_SCHEMA(('AUTOMOTIVE_DESIGN { 1 0 10303 214 1 1 1 1 }'));
ENDSEC;
DATA;
#1 = APPLICATION_PROTOCOL_DEFINITION('international standard',
  'automotive_design',2000,#2);
#2 = APPLICATION_CONTEXT(
  'core data for automotive mechanical design processes');
#3 = SHAPE_DEFINITION_REPRESENTATION(#4,#10);
#4 = PRODUCT_DEFINITION_SHAPE('','',#5);
#5 = PRODUCT_DEFINITION('design','',#6,#9);
#6 = PRODUCT_DEFINITION_FORMATION('','',#7);
#7 = PRODUCT('SHELL','SHELL','',(#8));
#8 = PRODUCT_CONTEXT('',#2,'mechanical');
#9 = PRODUCT_DEFINITION_CONTEXT('part definition',#2,'design');
#10 = MANIFOLD_SURFACE_SHAPE_REPRESENTATION('',(#11,#15),#293);
#11 = AXIS2_PLACEMENT_3D('',#12,#13,#14);
#12 = CARTESIAN_POINT('',(0.,0.,0.));
#13 = DIRECTION('',(0.,0.,1.));
#14 = DIRECTION('',(1.,0.,-0.));
#15 = SHELL_BASED_SURFACE_MODEL('',(#16));
#16 = OPEN_SHELL('',(#17,#183,#288));
#17 = ADVANCED_FACE('',(#18),#39,.T.);
#18 = FACE_BOUND('',#19,.T.);
#19 = EDGE_LOOP('',(#20,#72,#99,#163));
#20 = ORIENTED_EDGE('',*,*,#21,.T.);
#21 = EDGE_CURVE('',#22,#24,#26,.T.);
#22 = VERTEX_POINT('',#23);
#23 = CARTESIAN_POINT('',(-1.756994169364,23.905,3.477655273024));
#24 = VERTEX_POINT('',#25);
#25 = CARTESIAN_POINT('',(-2.218516006661,23.905,2.704999079301));
#26 = SURFACE_CURVE('',#27,(#38),.PCURVE_S1.);
#27 = B_SPLINE_CURVE_WITH_KNOTS('',3,(#28,#29,#30,#31,#32,#33,#34,#35,
    #36,#37),.UNSPECIFIED.,.F.,.F.,(4,2,2,2,4),(0.,0.25,0.5,0.75,1.),
  .UNSPECIFIED.);
#28 = CARTESIAN_POINT('',(-1.756994169364,23.905,3.477655273024));
#29 = CARTESIAN_POINT('',(-1.655853710116,23.905,3.417242205794));
#30 = CARTESIAN_POINT('',(-1.580205875625,23.905,3.315565376904));
#31 = CARTESIAN_POINT('',(-1.522608645474,23.905,3.08709418871));
#32 = CARTESIAN_POINT('',(-1.541013923921,23.905,2.961706716762));
#33 = CARTESIAN_POINT('',(-1.661840058381,23.905,2.759425798266));
#34 = CARTESIAN_POINT('',(-1.763516887271,23.905,2.683777963776));
#35 = CARTESIAN_POINT('',(-1.991988075465,23.905,2.626180733624));
#36 = CARTESIAN_POINT('',(-2.117375547413,23.905,2.644586012071));
#37 = CARTESIAN_POINT('',(-2.218516006661,23.905,2.704999079301));
#38 = PCURVE('',#39,#44);
#39 = CONICAL_SURFACE('',#40,0.3,0.785398163397);
#40 = AXIS2_PLACEMENT_3D('',#41,#42,#43);
#41 = CARTESIAN_POINT('',(-1.987755088012,24.055,3.091327176163));
#42 = DIRECTION('',(7.583880105579E-17,-1.,-4.529991875564E-17));
#43 = DIRECTION('',(-0.512802041441,2.465190328816E-32,-0.858506881914)
  );
#44 = DEFINITIONAL_REPRESENTATION('',(#45),#71);
#45 = B_SPLINE_CURVE_WITH_KNOTS('',3,(#46,#47,#48,#49,#50,#51,#52,#53,
    #54,#55,#56,#57,#58,#59,#60,#61,#62,#63,#64,#65,#66,#67,#68,#69,#70)
  ,.UNSPECIFIED.,.F.,.F.,(4,1,1,1,1,1,1,1,1,1,1,1,1,1,1,1,1,1,1,1,1,1,4)
  ,(0.,4.545454545455E-02,9.090909090909E-02,0.136363636364,
    0.181818181818,0.227272727273,0.272727272727,0.318181818182,
    0.363636363636,0.409090909091,0.454545454545,0.5,0.545454545455,
    0.590909090909,0.636363636364,0.681818181818,0.727272727273,
    0.772727272727,0.818181818182,0.863636363636,0.909090909091,
    0.954545454545,1.),.QUASI_UNIFORM_KNOTS.);
#46 = CARTESIAN_POINT('',(3.14159265359,0.15));
#47 = CARTESIAN_POINT('',(3.094022633669,0.149993550954));
#48 = CARTESIAN_POINT('',(2.998870418291,0.149930402904));
#49 = CARTESIAN_POINT('',(2.856090802868,0.149794175632));
#50 = CARTESIAN_POINT('',(2.713157723295,0.149762848211));
#51 = CARTESIAN_POINT('',(2.570274928939,0.149852764407));
#52 = CARTESIAN_POINT('',(2.427579622073,0.150001501023));
#53 = CARTESIAN_POINT('',(2.284809352156,0.150001481461));
#54 = CARTESIAN_POINT('',(2.142114082224,0.149852823094));
#55 = CARTESIAN_POINT('',(1.999231140135,0.149762633025));
#56 = CARTESIAN_POINT('',(1.856298614556,0.149794977687));
#57 = CARTESIAN_POINT('',(1.713516930892,0.149927409869));
#58 = CARTESIAN_POINT('',(1.570796326795,0.150036295066));
#59 = CARTESIAN_POINT('',(1.428075722698,0.149927409869));
#60 = CARTESIAN_POINT('',(1.285294039034,0.149794977687));
#61 = CARTESIAN_POINT('',(1.142361513454,0.149762633025));
#62 = CARTESIAN_POINT('',(0.999478571366,0.149852823094));
#63 = CARTESIAN_POINT('',(0.856783301434,0.150001481461));
#64 = CARTESIAN_POINT('',(0.714013031517,0.150001501023));
#65 = CARTESIAN_POINT('',(0.571317724651,0.149852764407));
#66 = CARTESIAN_POINT('',(0.428434930295,0.149762848211));
#67 = CARTESIAN_POINT('',(0.285501850722,0.149794175632));
#68 = CARTESIAN_POINT('',(0.142722235299,0.149930402904));
#69 = CARTESIAN_POINT('',(4.757001992097E-02,0.149993550954));
#70 = CARTESIAN_POINT('',(0.,0.15));
#71 = ( GEOMETRIC_REPRESENTATION_CONTEXT(2) 
PARAMETRIC_REPRESENTATION_CONTEXT() REPRESENTATION_CONTEXT('2D SPACE',''
  ) );
#72 = ORIENTED_EDGE('',*,*,#73,.T.);
#73 = EDGE_CURVE('',#24,#74,#76,.T.);
#74 = VERTEX_POINT('',#75);
#75 = CARTESIAN_POINT('',(-2.141595700445,24.055,2.833775111588));
#76 = SURFACE_CURVE('',#77,(#82,#88),.PCURVE_S1.);
#77 = B_SPLINE_CURVE_WITH_KNOTS('',3,(#78,#79,#80,#81),.UNSPECIFIED.,.F.
  ,.F.,(4,4),(0.,1.),.PIECEWISE_BEZIER_KNOTS.);
#78 = CARTESIAN_POINT('',(-2.218516006661,23.905,2.704999079301));
#79 = CARTESIAN_POINT('',(-2.192875904589,23.955,2.747924423397));
#80 = CARTESIAN_POINT('',(-2.167235802517,24.005,2.790849767493));
#81 = CARTESIAN_POINT('',(-2.141595700445,24.055,2.833775111588));
#82 = PCURVE('',#39,#83);
#83 = DEFINITIONAL_REPRESENTATION('',(#84),#87);
#84 = B_SPLINE_CURVE_WITH_KNOTS('',1,(#85,#86),.UNSPECIFIED.,.F.,.F.,(2,
    2),(0.,1.),.PIECEWISE_BEZIER_KNOTS.);
#85 = CARTESIAN_POINT('',(0.,0.15));
#86 = CARTESIAN_POINT('',(0.,1.582067810091E-15));
#87 = ( GEOMETRIC_REPRESENTATION_CONTEXT(2) 
PARAMETRIC_REPRESENTATION_CONTEXT() REPRESENTATION_CONTEXT('2D SPACE',''
  ) );
#88 = PCURVE('',#89,#94);
#89 = CONICAL_SURFACE('',#90,0.3,0.785398163397);
#90 = AXIS2_PLACEMENT_3D('',#91,#92,#93);
#91 = CARTESIAN_POINT('',(-1.987755088012,24.055,3.091327176163));
#92 = DIRECTION('',(7.583880105579E-17,-1.,-4.529991875564E-17));
#93 = DIRECTION('',(-0.512802041441,2.465190328816E-32,-0.858506881914)
  );
#94 = DEFINITIONAL_REPRESENTATION('',(#95),#98);
#95 = B_SPLINE_CURVE_WITH_KNOTS('',1,(#96,#97),.UNSPECIFIED.,.F.,.F.,(2,
    2),(0.,1.),.PIECEWISE_BEZIER_KNOTS.);
#96 = CARTESIAN_POINT('',(6.28318530718,0.15));
#97 = CARTESIAN_POINT('',(6.28318530718,1.582067810091E-15));
#98 = ( GEOMETRIC_REPRESENTATION_CONTEXT(2) 
PARAMETRIC_REPRESENTATION_CONTEXT() REPRESENTATION_CONTEXT('2D SPACE',''
  ) );
#99 = ORIENTED_EDGE('',*,*,#100,.T.);
#100 = EDGE_CURVE('',#74,#101,#103,.T.);
#101 = VERTEX_POINT('',#102);
#102 = CARTESIAN_POINT('',(-1.83391447558,24.055,3.348879240737));
#103 = SURFACE_CURVE('',#104,(#115,#144),.PCURVE_S1.);
#104 = B_SPLINE_CURVE_WITH_KNOTS('',3,(#105,#106,#107,#108,#109,#110,
    #111,#112,#113,#114),.UNSPECIFIED.,.F.,.F.,(4,2,2,2,4),(0.,0.25,0.5,
    0.75,1.),.UNSPECIFIED.);
#105 = CARTESIAN_POINT('',(-2.141595700445,24.055,2.833775111588));
#106 = CARTESIAN_POINT('',(-2.074168727613,24.055,2.793499733435));
#107 = CARTESIAN_POINT('',(-1.990577079648,24.055,2.781229547804));
#108 = CARTESIAN_POINT('',(-1.838262954185,24.055,2.819627701238));
#109 = CARTESIAN_POINT('',(-1.770478401592,24.055,2.870059590898));
#110 = CARTESIAN_POINT('',(-1.689927645285,24.055,3.004913536562));
#111 = CARTESIAN_POINT('',(-1.677657459653,24.055,3.088505184527));
#112 = CARTESIAN_POINT('',(-1.716055613088,24.055,3.24081930999));
#113 = CARTESIAN_POINT('',(-1.766487502748,24.055,3.308603862583));
#114 = CARTESIAN_POINT('',(-1.83391447558,24.055,3.348879240737));
#115 = PCURVE('',#39,#116);
#116 = DEFINITIONAL_REPRESENTATION('',(#117),#143);
#117 = B_SPLINE_CURVE_WITH_KNOTS('',3,(#118,#119,#120,#121,#122,#123,
    #124,#125,#126,#127,#128,#129,#130,#131,#132,#133,#134,#135,#136,
    #137,#138,#139,#140,#141,#142),.UNSPECIFIED.,.F.,.F.,(4,1,1,1,1,1,1,
    1,1,1,1,1,1,1,1,1,1,1,1,1,1,1,4),(0.,4.545454545455E-02,
    9.090909090909E-02,0.136363636364,0.181818181818,0.227272727273,
    0.272727272727,0.318181818182,0.363636363636,0.409090909091,
    0.454545454545,0.5,0.545454545455,0.590909090909,0.636363636364,
    0.681818181818,0.727272727273,0.772727272727,0.818181818182,
    0.863636363636,0.909090909091,0.954545454545,1.),
  .QUASI_UNIFORM_KNOTS.);
#118 = CARTESIAN_POINT('',(0.,1.448252676637E-15));
#119 = CARTESIAN_POINT('',(4.757001992097E-02,-4.299363724472E-06));
#120 = CARTESIAN_POINT('',(0.142722235299,-4.639806408402E-05));
#121 = CARTESIAN_POINT('',(0.285501850722,-1.372162455895E-04));
#122 = CARTESIAN_POINT('',(0.428434930295,-1.581011927938E-04));
#123 = CARTESIAN_POINT('',(0.571317724651,-9.815706171564E-05));
#124 = CARTESIAN_POINT('',(0.714013031517,1.000682190719E-06));
#125 = CARTESIAN_POINT('',(0.856783301434,9.876406413003E-07));
#126 = CARTESIAN_POINT('',(0.999478571366,-9.811793706738E-05));
#127 = CARTESIAN_POINT('',(1.142361513454,-1.582446498248E-04));
#128 = CARTESIAN_POINT('',(1.285294039034,-1.366815421134E-04));
#129 = CARTESIAN_POINT('',(1.428075722698,-4.839342095993E-05));
#130 = CARTESIAN_POINT('',(1.570796326795,2.419671048073E-05));
#131 = CARTESIAN_POINT('',(1.713516930892,-4.839342096016E-05));
#132 = CARTESIAN_POINT('',(1.856298614556,-1.366815421137E-04));
#133 = CARTESIAN_POINT('',(1.999231140135,-1.582446498245E-04));
#134 = CARTESIAN_POINT('',(2.142114082224,-9.811793706917E-05));
#135 = CARTESIAN_POINT('',(2.284809352156,9.876406458108E-07));
#136 = CARTESIAN_POINT('',(2.427579622073,1.000682194449E-06));
#137 = CARTESIAN_POINT('',(2.570274928939,-9.815706171409E-05));
#138 = CARTESIAN_POINT('',(2.713157723295,-1.58101192794E-04));
#139 = CARTESIAN_POINT('',(2.856090802868,-1.372162455905E-04));
#140 = CARTESIAN_POINT('',(2.998870418291,-4.639806408466E-05));
#141 = CARTESIAN_POINT('',(3.094022633669,-4.299363725842E-06));
#142 = CARTESIAN_POINT('',(3.14159265359,-8.604228440845E-16));
#143 = ( GEOMETRIC_REPRESENTATION_CONTEXT(2) 
PARAMETRIC_REPRESENTATION_CONTEXT() REPRESENTATION_CONTEXT('2D SPACE',''
  ) );
#144 = PCURVE('',#145,#150);
#145 = PLANE('',#146);
#146 = AXIS2_PLACEMENT_3D('',#147,#148,#149);
#147 = CARTESIAN_POINT('',(-1.987755088012,24.055,3.091327176163));
#148 = DIRECTION('',(-1.217097860516E-16,1.,-3.149493211583E-17));
#149 = DIRECTION('',(1.,1.217097860516E-16,0.));
#150 = DEFINITIONAL_REPRESENTATION('',(#151),#162);
#151 = B_SPLINE_CURVE_WITH_KNOTS('',3,(#152,#153,#154,#155,#156,#157,
    #158,#159,#160,#161),.UNSPECIFIED.,.F.,.F.,(4,2,2,2,4),(0.,0.25,0.5,
    0.75,1.),.UNSPECIFIED.);
#152 = CARTESIAN_POINT('',(-0.153840612432,0.257552064574));
#153 = CARTESIAN_POINT('',(-8.641363960042E-02,0.297827442728));
#154 = CARTESIAN_POINT('',(-2.821991635286E-03,0.310097628359));
#155 = CARTESIAN_POINT('',(0.149492133828,0.271699474925));
#156 = CARTESIAN_POINT('',(0.217276686421,0.221267585264));
#157 = CARTESIAN_POINT('',(0.297827442728,8.641363960042E-02));
#158 = CARTESIAN_POINT('',(0.310097628359,2.821991635286E-03));
#159 = CARTESIAN_POINT('',(0.271699474925,-0.149492133828));
#160 = CARTESIAN_POINT('',(0.221267585264,-0.217276686421));
#161 = CARTESIAN_POINT('',(0.153840612432,-0.257552064574));
#162 = ( GEOMETRIC_REPRESENTATION_CONTEXT(2) 
PARAMETRIC_REPRESENTATION_CONTEXT() REPRESENTATION_CONTEXT('2D SPACE',''
  ) );
#163 = ORIENTED_EDGE('',*,*,#164,.T.);
#164 = EDGE_CURVE('',#101,#22,#165,.T.);
#165 = SURFACE_CURVE('',#166,(#171,#177),.PCURVE_S1.);
#166 = B_SPLINE_CURVE_WITH_KNOTS('',3,(#167,#168,#169,#170),
  .UNSPECIFIED.,.F.,.F.,(4,4),(0.,1.),.PIECEWISE_BEZIER_KNOTS.);
#167 = CARTESIAN_POINT('',(-1.83391447558,24.055,3.348879240737));
#168 = CARTESIAN_POINT('',(-1.808274373508,24.005,3.391804584832));
#169 = CARTESIAN_POINT('',(-1.782634271436,23.955,3.434729928928));
#170 = CARTESIAN_POINT('',(-1.756994169364,23.905,3.477655273024));
#171 = PCURVE('',#39,#172);
#172 = DEFINITIONAL_REPRESENTATION('',(#173),#176);
#173 = B_SPLINE_CURVE_WITH_KNOTS('',1,(#174,#175),.UNSPECIFIED.,.F.,.F.,
  (2,2),(0.,1.),.PIECEWISE_BEZIER_KNOTS.);
#174 = CARTESIAN_POINT('',(3.14159265359,-8.604228440845E-16));
#175 = CARTESIAN_POINT('',(3.14159265359,0.15));
#176 = ( GEOMETRIC_REPRESENTATION_CONTEXT(2) 
PARAMETRIC_REPRESENTATION_CONTEXT() REPRESENTATION_CONTEXT('2D SPACE',''
  ) );
#177 = PCURVE('',#89,#178);
#178 = DEFINITIONAL_REPRESENTATION('',(#179),#182);
#179 = B_SPLINE_CURVE_WITH_KNOTS('',1,(#180,#181),.UNSPECIFIED.,.F.,.F.,
  (2,2),(0.,1.),.PIECEWISE_BEZIER_KNOTS.);
#180 = CARTESIAN_POINT('',(3.14159265359,-8.604228440845E-16));
#181 = CARTESIAN_POINT('',(3.14159265359,0.15));
#182 = ( GEOMETRIC_REPRESENTATION_CONTEXT(2) 
PARAMETRIC_REPRESENTATION_CONTEXT() REPRESENTATION_CONTEXT('2D SPACE',''
  ) );
#183 = ADVANCED_FACE('',(#184),#89,.T.);
#184 = FACE_BOUND('',#185,.T.);
#185 = EDGE_LOOP('',(#186,#187,#230,#231));
#186 = ORIENTED_EDGE('',*,*,#73,.F.);
#187 = ORIENTED_EDGE('',*,*,#188,.T.);
#188 = EDGE_CURVE('',#24,#22,#189,.T.);
#189 = SURFACE_CURVE('',#190,(#201),.PCURVE_S1.);
#190 = B_SPLINE_CURVE_WITH_KNOTS('',3,(#191,#192,#193,#194,#195,#196,
    #197,#198,#199,#200),.UNSPECIFIED.,.F.,.F.,(4,2,2,2,4),(0.,0.25,0.5,
    0.75,1.),.UNSPECIFIED.);
#191 = CARTESIAN_POINT('',(-2.218516006661,23.905,2.704999079301));
#192 = CARTESIAN_POINT('',(-2.319656465909,23.905,2.765412146531));
#193 = CARTESIAN_POINT('',(-2.395304300399,23.905,2.867088975421));
#194 = CARTESIAN_POINT('',(-2.452901530551,23.905,3.095560163615));
#195 = CARTESIAN_POINT('',(-2.434496252104,23.905,3.220947635563));
#196 = CARTESIAN_POINT('',(-2.313670117643,23.905,3.423228554059));
#197 = CARTESIAN_POINT('',(-2.211993288754,23.905,3.49887638855));
#198 = CARTESIAN_POINT('',(-1.983522100559,23.905,3.556473618701));
#199 = CARTESIAN_POINT('',(-1.858134628612,23.905,3.538068340254));
#200 = CARTESIAN_POINT('',(-1.756994169364,23.905,3.477655273024));
#201 = PCURVE('',#89,#202);
#202 = DEFINITIONAL_REPRESENTATION('',(#203),#229);
#203 = B_SPLINE_CURVE_WITH_KNOTS('',3,(#204,#205,#206,#207,#208,#209,
    #210,#211,#212,#213,#214,#215,#216,#217,#218,#219,#220,#221,#222,
    #223,#224,#225,#226,#227,#228),.UNSPECIFIED.,.F.,.F.,(4,1,1,1,1,1,1,
    1,1,1,1,1,1,1,1,1,1,1,1,1,1,1,4),(0.,4.545454545455E-02,
    9.090909090909E-02,0.136363636364,0.181818181818,0.227272727273,
    0.272727272727,0.318181818182,0.363636363636,0.409090909091,
    0.454545454545,0.5,0.545454545455,0.590909090909,0.636363636364,
    0.681818181818,0.727272727273,0.772727272727,0.818181818182,
    0.863636363636,0.909090909091,0.954545454545,1.),
  .QUASI_UNIFORM_KNOTS.);
#204 = CARTESIAN_POINT('',(6.28318530718,0.15));
#205 = CARTESIAN_POINT('',(6.235615287259,0.149993550954));
#206 = CARTESIAN_POINT('',(6.140463071881,0.149930402904));
#207 = CARTESIAN_POINT('',(5.997683456457,0.149794175632));
#208 = CARTESIAN_POINT('',(5.854750376885,0.149762848211));
#209 = CARTESIAN_POINT('',(5.711867582528,0.149852764407));
#210 = CARTESIAN_POINT('',(5.569172275663,0.150001501023));
#211 = CARTESIAN_POINT('',(5.426402005746,0.150001481461));
#212 = CARTESIAN_POINT('',(5.283706735813,0.149852823094));
#213 = CARTESIAN_POINT('',(5.140823793725,0.149762633025));
#214 = CARTESIAN_POINT('',(4.997891268146,0.149794977687));
#215 = CARTESIAN_POINT('',(4.855109584482,0.149927409869));
#216 = CARTESIAN_POINT('',(4.712388980385,0.150036295066));
#217 = CARTESIAN_POINT('',(4.569668376287,0.149927409869));
#218 = CARTESIAN_POINT('',(4.426886692623,0.149794977687));
#219 = CARTESIAN_POINT('',(4.283954167044,0.149762633025));
#220 = CARTESIAN_POINT('',(4.141071224956,0.149852823094));
#221 = CARTESIAN_POINT('',(3.998375955023,0.150001481461));
#222 = CARTESIAN_POINT('',(3.855605685106,0.150001501023));
#223 = CARTESIAN_POINT('',(3.712910378241,0.149852764407));
#224 = CARTESIAN_POINT('',(3.570027583884,0.149762848211));
#225 = CARTESIAN_POINT('',(3.427094504312,0.149794175632));
#226 = CARTESIAN_POINT('',(3.284314888889,0.149930402904));
#227 = CARTESIAN_POINT('',(3.189162673511,0.149993550954));
#228 = CARTESIAN_POINT('',(3.14159265359,0.15));
#229 = ( GEOMETRIC_REPRESENTATION_CONTEXT(2) 
PARAMETRIC_REPRESENTATION_CONTEXT() REPRESENTATION_CONTEXT('2D SPACE',''
  ) );
#230 = ORIENTED_EDGE('',*,*,#164,.F.);
#231 = ORIENTED_EDGE('',*,*,#232,.T.);
#232 = EDGE_CURVE('',#101,#74,#233,.T.);
#233 = SURFACE_CURVE('',#234,(#245,#274),.PCURVE_S1.);
#234 = B_SPLINE_CURVE_WITH_KNOTS('',3,(#235,#236,#237,#238,#239,#240,
    #241,#242,#243,#244),.UNSPECIFIED.,.F.,.F.,(4,2,2,2,4),(0.,0.25,0.5,
    0.75,1.),.UNSPECIFIED.);
#235 = CARTESIAN_POINT('',(-1.83391447558,24.055,3.348879240737));
#236 = CARTESIAN_POINT('',(-1.901341448412,24.055,3.38915461889));
#237 = CARTESIAN_POINT('',(-1.984933096377,24.055,3.401424804522));
#238 = CARTESIAN_POINT('',(-2.13724722184,24.055,3.363026651087));
#239 = CARTESIAN_POINT('',(-2.205031774433,24.055,3.312594761427));
#240 = CARTESIAN_POINT('',(-2.28558253074,24.055,3.177740815763));
#241 = CARTESIAN_POINT('',(-2.297852716371,24.055,3.094149167798));
#242 = CARTESIAN_POINT('',(-2.259454562937,24.055,2.941835042335));
#243 = CARTESIAN_POINT('',(-2.209022673277,24.055,2.874050489742));
#244 = CARTESIAN_POINT('',(-2.141595700445,24.055,2.833775111588));
#245 = PCURVE('',#89,#246);
#246 = DEFINITIONAL_REPRESENTATION('',(#247),#273);
#247 = B_SPLINE_CURVE_WITH_KNOTS('',3,(#248,#249,#250,#251,#252,#253,
    #254,#255,#256,#257,#258,#259,#260,#261,#262,#263,#264,#265,#266,
    #267,#268,#269,#270,#271,#272),.UNSPECIFIED.,.F.,.F.,(4,1,1,1,1,1,1,
    1,1,1,1,1,1,1,1,1,1,1,1,1,1,1,4),(0.,4.545454545455E-02,
    9.090909090909E-02,0.136363636364,0.181818181818,0.227272727273,
    0.272727272727,0.318181818182,0.363636363636,0.409090909091,
    0.454545454545,0.5,0.545454545455,0.590909090909,0.636363636364,
    0.681818181818,0.727272727273,0.772727272727,0.818181818182,
    0.863636363636,0.909090909091,0.954545454545,1.),
  .QUASI_UNIFORM_KNOTS.);
#248 = CARTESIAN_POINT('',(3.14159265359,-8.604228440845E-16));
#249 = CARTESIAN_POINT('',(3.189162673511,-4.299363726049E-06));
#250 = CARTESIAN_POINT('',(3.284314888889,-4.639806408487E-05));
#251 = CARTESIAN_POINT('',(3.427094504312,-1.372162455905E-04));
#252 = CARTESIAN_POINT('',(3.570027583884,-1.581011927936E-04));
#253 = CARTESIAN_POINT('',(3.712910378241,-9.815706171613E-05));
#254 = CARTESIAN_POINT('',(3.855605685106,1.000682190973E-06));
#255 = CARTESIAN_POINT('',(3.998375955023,9.876406411073E-07));
#256 = CARTESIAN_POINT('',(4.141071224956,-9.811793706853E-05));
#257 = CARTESIAN_POINT('',(4.283954167044,-1.582446498248E-04));
#258 = CARTESIAN_POINT('',(4.426886692623,-1.366815421143E-04));
#259 = CARTESIAN_POINT('',(4.569668376287,-4.83934209604E-05));
#260 = CARTESIAN_POINT('',(4.712388980385,2.419671048026E-05));
#261 = CARTESIAN_POINT('',(4.855109584482,-4.839342096048E-05));
#262 = CARTESIAN_POINT('',(4.997891268146,-1.36681542114E-04));
#263 = CARTESIAN_POINT('',(5.140823793725,-1.58244649825E-04));
#264 = CARTESIAN_POINT('',(5.283706735813,-9.811793706941E-05));
#265 = CARTESIAN_POINT('',(5.426402005746,9.876406465981E-07));
#266 = CARTESIAN_POINT('',(5.569172275663,1.000682193869E-06));
#267 = CARTESIAN_POINT('',(5.711867582528,-9.815706171439E-05));
#268 = CARTESIAN_POINT('',(5.854750376885,-1.581011927937E-04));
#269 = CARTESIAN_POINT('',(5.997683456457,-1.3721624559E-04));
#270 = CARTESIAN_POINT('',(6.140463071881,-4.639806408347E-05));
#271 = CARTESIAN_POINT('',(6.235615287259,-4.299363723962E-06));
#272 = CARTESIAN_POINT('',(6.28318530718,1.448252676637E-15));
#273 = ( GEOMETRIC_REPRESENTATION_CONTEXT(2) 
PARAMETRIC_REPRESENTATION_CONTEXT() REPRESENTATION_CONTEXT('2D SPACE',''
  ) );
#274 = PCURVE('',#145,#275);
#275 = DEFINITIONAL_REPRESENTATION('',(#276),#287);
#276 = B_SPLINE_CURVE_WITH_KNOTS('',3,(#277,#278,#279,#280,#281,#282,
    #283,#284,#285,#286),.UNSPECIFIED.,.F.,.F.,(4,2,2,2,4),(0.,0.25,0.5,
    0.75,1.),.UNSPECIFIED.);
#277 = CARTESIAN_POINT('',(0.153840612432,-0.257552064574));
#278 = CARTESIAN_POINT('',(8.641363960042E-02,-0.297827442728));
#279 = CARTESIAN_POINT('',(2.821991635285E-03,-0.310097628359));
#280 = CARTESIAN_POINT('',(-0.149492133828,-0.271699474925));
#281 = CARTESIAN_POINT('',(-0.217276686421,-0.221267585264));
#282 = CARTESIAN_POINT('',(-0.297827442728,-8.641363960042E-02));
#283 = CARTESIAN_POINT('',(-0.310097628359,-2.821991635285E-03));
#284 = CARTESIAN_POINT('',(-0.271699474925,0.149492133828));
#285 = CARTESIAN_POINT('',(-0.221267585264,0.217276686421));
#286 = CARTESIAN_POINT('',(-0.153840612432,0.257552064574));
#287 = ( GEOMETRIC_REPRESENTATION_CONTEXT(2) 
PARAMETRIC_REPRESENTATION_CONTEXT() REPRESENTATION_CONTEXT('2D SPACE',''
  ) );
#288 = ADVANCED_FACE('',(#289),#145,.T.);
#289 = FACE_BOUND('',#290,.T.);
#290 = EDGE_LOOP('',(#291,#292));
#291 = ORIENTED_EDGE('',*,*,#232,.F.);
#292 = ORIENTED_EDGE('',*,*,#100,.F.);
#293 = ( GEOMETRIC_REPRESENTATION_CONTEXT(3) 
GLOBAL_UNCERTAINTY_ASSIGNED_CONTEXT((#297)) GLOBAL_UNIT_ASSIGNED_CONTEXT
((#294,#295,#296)) REPRESENTATION_CONTEXT('Context #1',
  '3D Context with UNIT and UNCERTAINTY') );
#294 = ( LENGTH_UNIT() NAMED_UNIT(*) SI_UNIT(.MILLI.,.METRE.) );
#295 = ( NAMED_UNIT(*) PLANE_ANGLE_UNIT() SI_UNIT($,.RADIAN.) );
#296 = ( NAMED_UNIT(*) SI_UNIT($,.STERADIAN.) SOLID_ANGLE_UNIT() );
#297 = UNCERTAINTY_MEASURE_WITH_UNIT(LENGTH_MEASURE(2.E-04),#294,
  'distance_accuracy_value','confusion accuracy');
#298 = PRODUCT_RELATED_PRODUCT_CATEGORY('part',$,(#7));
ENDSEC;
END-ISO-10303-21;
