ISO-10303-21;
HEADER;
FILE_DESCRIPTION(('Open CASCADE Model'),'2;1');
FILE_NAME('Open CASCADE Shape Model','2026-03-14T15:57:21',('Author'),(
    'Open CASCADE'),'Open CASCADE STEP processor 7.8','build123d',
  'Unknown');
FILE_SCHEMA(('AUTOMOTIVE_DESIGN { 1 0 10303 214 1 1 1 1 }'));
ENDSEC;
DATA;
#1 = APPLICATION_PROTOCOL_DEFINITION('international standard',
  'automotive_design',2000,#2);
#2 = APPLICATION_CONTEXT(
  'core data for automotive mechanical design processes');
#3 = SHAPE_DEFINITION_REPRESENTATION(#4,#10);
#4 = PRODUCT_DEFINITION_SHAPE('','',#5);
#5 = PRODUCT_DEFINITION('design','',#6,#9);
#6 = PRODUCT_DEFINITION_FORMATION('','',#7);
#7 = PRODUCT('SHELL','SHELL','',(#8));
#8 = PRODUCT_CONTEXT('',#2,'mechanical');
#9 = PRODUCT_DEFINITION_CONTEXT('part definition',#2,'design');
#10 = MANIFOLD_SURFACE_SHAPE_REPRESENTATION('',(#11,#15),#293);
#11 = AXIS2_PLACEMENT_3D('',#12,#13,#14);
#12 = CARTESIAN_POINT('',(0.,0.,0.));
#13 = DIRECTION('',(0.,0.,1.));
#14 = DIRECTION('',(1.,0.,-0.));
#15 = SHELL_BASED_SURFACE_MODEL('',(#16));
#16 = OPEN_SHELL('',(#17,#183,#288));
#17 = ADVANCED_FACE('',(#18),#39,.T.);
#18 = FACE_BOUND('',#19,.T.);
#19 = EDGE_LOOP('',(#20,#72,#99,#163));
#20 = ORIENTED_EDGE('',*,*,#21,.T.);
#21 = EDGE_CURVE('',#22,#24,#26,.T.);
#22 = VERTEX_POINT('',#23);
#23 = CARTESIAN_POINT('',(1.941343527551,23.875,-2.761502492425));
#24 = VERTEX_POINT('',#25);
#25 = CARTESIAN_POINT('',(1.614298658847,23.875,-3.491599509166));
#26 = SURFACE_CURVE('',#27,(#38),.PCURVE_S1.);
#27 = B_SPLINE_CURVE_WITH_KNOTS('',3,(#28,#29,#30,#31,#32,#33,#34,#35,
    #36,#37),.UNSPECIFIED.,.F.,.F.,(4,2,2,2,4),(0.,0.25,0.5,0.75,1.),
  .UNSPECIFIED.);
#28 = CARTESIAN_POINT('',(1.941343527551,23.875,-2.761502492425));
#29 = CARTESIAN_POINT('',(2.036913003559,23.875,-2.80431256563));
#30 = CARTESIAN_POINT('',(2.114270659643,23.875,-2.886201429645));
#31 = CARTESIAN_POINT('',(2.18888372263,23.875,-3.081899664897));
#32 = CARTESIAN_POINT('',(2.185679674775,23.875,-3.194503959139));
#33 = CARTESIAN_POINT('',(2.100059528365,23.875,-3.385642911156));
#34 = CARTESIAN_POINT('',(2.01817066435,23.875,-3.463000567239));
#35 = CARTESIAN_POINT('',(1.822472429098,23.875,-3.537613630227));
#36 = CARTESIAN_POINT('',(1.709868134856,23.875,-3.534409582371));
#37 = CARTESIAN_POINT('',(1.614298658847,23.875,-3.491599509166));
#38 = PCURVE('',#39,#44);
#39 = CONICAL_SURFACE('',#40,0.25,0.785398163397);
#40 = AXIS2_PLACEMENT_3D('',#41,#42,#43);
#41 = CARTESIAN_POINT('',(1.777821093199,24.025,-3.126551000796));
#42 = DIRECTION('',(2.564276794057E-17,-1.,-1.148660449505E-17));
#43 = DIRECTION('',(-0.40880608588,-4.622231866529E-33,-0.912621270927)
  );
#44 = DEFINITIONAL_REPRESENTATION('',(#45),#71);
#45 = B_SPLINE_CURVE_WITH_KNOTS('',3,(#46,#47,#48,#49,#50,#51,#52,#53,
    #54,#55,#56,#57,#58,#59,#60,#61,#62,#63,#64,#65,#66,#67,#68,#69,#70)
  ,.UNSPECIFIED.,.F.,.F.,(4,1,1,1,1,1,1,1,1,1,1,1,1,1,1,1,1,1,1,1,1,1,4)
  ,(0.,4.545454545455E-02,9.090909090909E-02,0.136363636364,
    0.181818181818,0.227272727273,0.272727272727,0.318181818182,
    0.363636363636,0.409090909091,0.454545454545,0.5,0.545454545455,
    0.590909090909,0.636363636364,0.681818181818,0.727272727273,
    0.772727272727,0.818181818182,0.863636363636,0.909090909091,
    0.954545454545,1.),.QUASI_UNIFORM_KNOTS.);
#46 = CARTESIAN_POINT('',(3.14159265359,0.15));
#47 = CARTESIAN_POINT('',(3.094022633669,0.149994267515));
#48 = CARTESIAN_POINT('',(2.998870418291,0.149938135915));
#49 = CARTESIAN_POINT('',(2.856090802868,0.149817045006));
#50 = CARTESIAN_POINT('',(2.713157723295,0.14978919841));
#51 = CARTESIAN_POINT('',(2.570274928939,0.149869123918));
#52 = CARTESIAN_POINT('',(2.427579622073,0.150001334243));
#53 = CARTESIAN_POINT('',(2.284809352156,0.150001316854));
#54 = CARTESIAN_POINT('',(2.142114082224,0.149869176084));
#55 = CARTESIAN_POINT('',(1.999231140135,0.149789007134));
#56 = CARTESIAN_POINT('',(1.856298614556,0.149817757944));
#57 = CARTESIAN_POINT('',(1.713516930892,0.149935475439));
#58 = CARTESIAN_POINT('',(1.570796326795,0.150032262281));
#59 = CARTESIAN_POINT('',(1.428075722698,0.149935475439));
#60 = CARTESIAN_POINT('',(1.285294039034,0.149817757944));
#61 = CARTESIAN_POINT('',(1.142361513454,0.149789007134));
#62 = CARTESIAN_POINT('',(0.999478571366,0.149869176084));
#63 = CARTESIAN_POINT('',(0.856783301434,0.150001316854));
#64 = CARTESIAN_POINT('',(0.714013031517,0.150001334243));
#65 = CARTESIAN_POINT('',(0.571317724651,0.149869123918));
#66 = CARTESIAN_POINT('',(0.428434930295,0.14978919841));
#67 = CARTESIAN_POINT('',(0.285501850722,0.149817045006));
#68 = CARTESIAN_POINT('',(0.142722235299,0.149938135915));
#69 = CARTESIAN_POINT('',(4.757001992096E-02,0.149994267515));
#70 = CARTESIAN_POINT('',(0.,0.15));
#71 = ( GEOMETRIC_REPRESENTATION_CONTEXT(2) 
PARAMETRIC_REPRESENTATION_CONTEXT() REPRESENTATION_CONTEXT('2D SPACE',''
  ) );
#72 = ORIENTED_EDGE('',*,*,#73,.T.);
#73 = EDGE_CURVE('',#24,#74,#76,.T.);
#74 = VERTEX_POINT('',#75);
#75 = CARTESIAN_POINT('',(1.675619571729,24.025,-3.354706318527));
#76 = SURFACE_CURVE('',#77,(#82,#88),.PCURVE_S1.);
#77 = B_SPLINE_CURVE_WITH_KNOTS('',3,(#78,#79,#80,#81),.UNSPECIFIED.,.F.
  ,.F.,(4,4),(0.,1.),.PIECEWISE_BEZIER_KNOTS.);
#78 = CARTESIAN_POINT('',(1.614298658847,23.875,-3.491599509166));
#79 = CARTESIAN_POINT('',(1.634738963141,23.925,-3.44596844562));
#80 = CARTESIAN_POINT('',(1.655179267435,23.975,-3.400337382074));
#81 = CARTESIAN_POINT('',(1.675619571729,24.025,-3.354706318527));
#82 = PCURVE('',#39,#83);
#83 = DEFINITIONAL_REPRESENTATION('',(#84),#87);
#84 = B_SPLINE_CURVE_WITH_KNOTS('',1,(#85,#86),.UNSPECIFIED.,.F.,.F.,(2,
    2),(0.,1.),.PIECEWISE_BEZIER_KNOTS.);
#85 = CARTESIAN_POINT('',(0.,0.15));
#86 = CARTESIAN_POINT('',(0.,1.221245327088E-15));
#87 = ( GEOMETRIC_REPRESENTATION_CONTEXT(2) 
PARAMETRIC_REPRESENTATION_CONTEXT() REPRESENTATION_CONTEXT('2D SPACE',''
  ) );
#88 = PCURVE('',#89,#94);
#89 = CONICAL_SURFACE('',#90,0.25,0.785398163397);
#90 = AXIS2_PLACEMENT_3D('',#91,#92,#93);
#91 = CARTESIAN_POINT('',(1.777821093199,24.025,-3.126551000796));
#92 = DIRECTION('',(2.564276794057E-17,-1.,-1.148660449505E-17));
#93 = DIRECTION('',(-0.40880608588,-4.622231866529E-33,-0.912621270927)
  );
#94 = DEFINITIONAL_REPRESENTATION('',(#95),#98);
#95 = B_SPLINE_CURVE_WITH_KNOTS('',1,(#96,#97),.UNSPECIFIED.,.F.,.F.,(2,
    2),(0.,1.),.PIECEWISE_BEZIER_KNOTS.);
#96 = CARTESIAN_POINT('',(6.28318530718,0.15));
#97 = CARTESIAN_POINT('',(6.28318530718,1.221245327088E-15));
#98 = ( GEOMETRIC_REPRESENTATION_CONTEXT(2) 
PARAMETRIC_REPRESENTATION_CONTEXT() REPRESENTATION_CONTEXT('2D SPACE',''
  ) );
#99 = ORIENTED_EDGE('',*,*,#100,.T.);
#100 = EDGE_CURVE('',#74,#101,#103,.T.);
#101 = VERTEX_POINT('',#102);
#102 = CARTESIAN_POINT('',(1.880022614669,24.025,-2.898395683064));
#103 = SURFACE_CURVE('',#104,(#115,#144),.PCURVE_S1.);
#104 = B_SPLINE_CURVE_WITH_KNOTS('',3,(#105,#106,#107,#108,#109,#110,
    #111,#112,#113,#114),.UNSPECIFIED.,.F.,.F.,(4,2,2,2,4),(0.,0.25,0.5,
    0.75,1.),.UNSPECIFIED.);
#105 = CARTESIAN_POINT('',(1.675619571729,24.025,-3.354706318527));
#106 = CARTESIAN_POINT('',(1.735350494234,24.025,-3.38146261428));
#107 = CARTESIAN_POINT('',(1.805728178136,24.025,-3.38346514419));
#108 = CARTESIAN_POINT('',(1.928039575168,24.025,-3.336831979823));
#109 = CARTESIAN_POINT('',(1.979220115178,24.025,-3.288483444771));
#110 = CARTESIAN_POINT('',(2.032732706684,24.025,-3.16902159976));
#111 = CARTESIAN_POINT('',(2.034735236594,24.025,-3.098643915859));
#112 = CARTESIAN_POINT('',(1.988102072226,24.025,-2.976332518826));
#113 = CARTESIAN_POINT('',(1.939753537174,24.025,-2.925151978817));
#114 = CARTESIAN_POINT('',(1.880022614669,24.025,-2.898395683064));
#115 = PCURVE('',#39,#116);
#116 = DEFINITIONAL_REPRESENTATION('',(#117),#143);
#117 = B_SPLINE_CURVE_WITH_KNOTS('',3,(#118,#119,#120,#121,#122,#123,
    #124,#125,#126,#127,#128,#129,#130,#131,#132,#133,#134,#135,#136,
    #137,#138,#139,#140,#141,#142),.UNSPECIFIED.,.F.,.F.,(4,1,1,1,1,1,1,
    1,1,1,1,1,1,1,1,1,1,1,1,1,1,1,4),(0.,4.545454545455E-02,
    9.090909090909E-02,0.136363636364,0.181818181818,0.227272727273,
    0.272727272727,0.318181818182,0.363636363636,0.409090909091,
    0.454545454545,0.5,0.545454545455,0.590909090909,0.636363636364,
    0.681818181818,0.727272727273,0.772727272727,0.818181818182,
    0.863636363636,0.909090909091,0.954545454545,1.),
  .QUASI_UNIFORM_KNOTS.);
#118 = CARTESIAN_POINT('',(0.,1.176857338654E-15));
#119 = CARTESIAN_POINT('',(4.757001992096E-02,-3.582803103875E-06));
#120 = CARTESIAN_POINT('',(0.142722235299,-3.866505340362E-05));
#121 = CARTESIAN_POINT('',(0.285501850722,-1.143468713248E-04));
#122 = CARTESIAN_POINT('',(0.428434930295,-1.317509939972E-04));
#123 = CARTESIAN_POINT('',(0.571317724651,-8.179755143072E-05));
#124 = CARTESIAN_POINT('',(0.714013031517,8.339018285794E-07));
#125 = CARTESIAN_POINT('',(0.856783301434,8.2303387192E-07));
#126 = CARTESIAN_POINT('',(0.999478571366,-8.176494756066E-05));
#127 = CARTESIAN_POINT('',(1.142361513454,-1.318705415226E-04));
#128 = CARTESIAN_POINT('',(1.285294039034,-1.139012850966E-04));
#129 = CARTESIAN_POINT('',(1.428075722698,-4.032785080223E-05));
#130 = CARTESIAN_POINT('',(1.570796326795,2.016392539859E-05));
#131 = CARTESIAN_POINT('',(1.713516930892,-4.032785080212E-05));
#132 = CARTESIAN_POINT('',(1.856298614556,-1.139012850971E-04));
#133 = CARTESIAN_POINT('',(1.999231140135,-1.318705415223E-04));
#134 = CARTESIAN_POINT('',(2.142114082224,-8.176494755985E-05));
#135 = CARTESIAN_POINT('',(2.284809352156,8.230338695465E-07));
#136 = CARTESIAN_POINT('',(2.427579622073,8.33901826856E-07));
#137 = CARTESIAN_POINT('',(2.570274928939,-8.179755143011E-05));
#138 = CARTESIAN_POINT('',(2.713157723295,-1.31750993997E-04));
#139 = CARTESIAN_POINT('',(2.856090802868,-1.143468713265E-04));
#140 = CARTESIAN_POINT('',(2.998870418291,-3.866505340835E-05));
#141 = CARTESIAN_POINT('',(3.094022633669,-3.58280310735E-06));
#142 = CARTESIAN_POINT('',(3.14159265359,-1.110223024625E-16));
#143 = ( GEOMETRIC_REPRESENTATION_CONTEXT(2) 
PARAMETRIC_REPRESENTATION_CONTEXT() REPRESENTATION_CONTEXT('2D SPACE',''
  ) );
#144 = PCURVE('',#145,#150);
#145 = PLANE('',#146);
#146 = AXIS2_PLACEMENT_3D('',#147,#148,#149);
#147 = CARTESIAN_POINT('',(1.777821093199,24.025,-3.126551000796));
#148 = DIRECTION('',(2.956780983005E-18,1.,7.533241694276E-17));
#149 = DIRECTION('',(0.,7.533241694276E-17,-1.));
#150 = DEFINITIONAL_REPRESENTATION('',(#151),#162);
#151 = B_SPLINE_CURVE_WITH_KNOTS('',3,(#152,#153,#154,#155,#156,#157,
    #158,#159,#160,#161),.UNSPECIFIED.,.F.,.F.,(4,2,2,2,4),(0.,0.25,0.5,
    0.75,1.),.UNSPECIFIED.);
#152 = CARTESIAN_POINT('',(0.228155317732,0.10220152147));
#153 = CARTESIAN_POINT('',(0.254911613485,4.247059896466E-02));
#154 = CARTESIAN_POINT('',(0.256914143394,-2.79070849365E-02));
#155 = CARTESIAN_POINT('',(0.210280979027,-0.150218481969));
#156 = CARTESIAN_POINT('',(0.161932443975,-0.201399021979));
#157 = CARTESIAN_POINT('',(4.247059896466E-02,-0.254911613485));
#158 = CARTESIAN_POINT('',(-2.79070849365E-02,-0.256914143394));
#159 = CARTESIAN_POINT('',(-0.150218481969,-0.210280979027));
#160 = CARTESIAN_POINT('',(-0.201399021979,-0.161932443975));
#161 = CARTESIAN_POINT('',(-0.228155317732,-0.10220152147));
#162 = ( GEOMETRIC_REPRESENTATION_CONTEXT(2) 
PARAMETRIC_REPRESENTATION_CONTEXT() REPRESENTATION_CONTEXT('2D SPACE',''
  ) );
#163 = ORIENTED_EDGE('',*,*,#164,.T.);
#164 = EDGE_CURVE('',#101,#22,#165,.T.);
#165 = SURFACE_CURVE('',#166,(#171,#177),.PCURVE_S1.);
#166 = B_SPLINE_CURVE_WITH_KNOTS('',3,(#167,#168,#169,#170),
  .UNSPECIFIED.,.F.,.F.,(4,4),(0.,1.),.PIECEWISE_BEZIER_KNOTS.);
#167 = CARTESIAN_POINT('',(1.880022614669,24.025,-2.898395683064));
#168 = CARTESIAN_POINT('',(1.900462918963,23.975,-2.852764619518));
#169 = CARTESIAN_POINT('',(1.920903223257,23.925,-2.807133555971));
#170 = CARTESIAN_POINT('',(1.941343527551,23.875,-2.761502492425));
#171 = PCURVE('',#39,#172);
#172 = DEFINITIONAL_REPRESENTATION('',(#173),#176);
#173 = B_SPLINE_CURVE_WITH_KNOTS('',1,(#174,#175),.UNSPECIFIED.,.F.,.F.,
  (2,2),(0.,1.),.PIECEWISE_BEZIER_KNOTS.);
#174 = CARTESIAN_POINT('',(3.14159265359,-1.110223024625E-16));
#175 = CARTESIAN_POINT('',(3.14159265359,0.15));
#176 = ( GEOMETRIC_REPRESENTATION_CONTEXT(2) 
PARAMETRIC_REPRESENTATION_CONTEXT() REPRESENTATION_CONTEXT('2D SPACE',''
  ) );
#177 = PCURVE('',#89,#178);
#178 = DEFINITIONAL_REPRESENTATION('',(#179),#182);
#179 = B_SPLINE_CURVE_WITH_KNOTS('',1,(#180,#181),.UNSPECIFIED.,.F.,.F.,
  (2,2),(0.,1.),.PIECEWISE_BEZIER_KNOTS.);
#180 = CARTESIAN_POINT('',(3.14159265359,-1.110223024625E-16));
#181 = CARTESIAN_POINT('',(3.14159265359,0.15));
#182 = ( GEOMETRIC_REPRESENTATION_CONTEXT(2) 
PARAMETRIC_REPRESENTATION_CONTEXT() REPRESENTATION_CONTEXT('2D SPACE',''
  ) );
#183 = ADVANCED_FACE('',(#184),#89,.T.);
#184 = FACE_BOUND('',#185,.T.);
#185 = EDGE_LOOP('',(#186,#187,#230,#231));
#186 = ORIENTED_EDGE('',*,*,#73,.F.);
#187 = ORIENTED_EDGE('',*,*,#188,.T.);
#188 = EDGE_CURVE('',#24,#22,#189,.T.);
#189 = SURFACE_CURVE('',#190,(#201),.PCURVE_S1.);
#190 = B_SPLINE_CURVE_WITH_KNOTS('',3,(#191,#192,#193,#194,#195,#196,
    #197,#198,#199,#200),.UNSPECIFIED.,.F.,.F.,(4,2,2,2,4),(0.,0.25,0.5,
    0.75,1.),.UNSPECIFIED.);
#191 = CARTESIAN_POINT('',(1.614298658847,23.875,-3.491599509166));
#192 = CARTESIAN_POINT('',(1.518729182839,23.875,-3.448789435962));
#193 = CARTESIAN_POINT('',(1.441371526756,23.875,-3.366900571946));
#194 = CARTESIAN_POINT('',(1.366758463768,23.875,-3.171202336694));
#195 = CARTESIAN_POINT('',(1.369962511624,23.875,-3.058598042452));
#196 = CARTESIAN_POINT('',(1.455582658033,23.875,-2.867459090435));
#197 = CARTESIAN_POINT('',(1.537471522048,23.875,-2.790101434352));
#198 = CARTESIAN_POINT('',(1.733169757301,23.875,-2.715488371365));
#199 = CARTESIAN_POINT('',(1.845774051543,23.875,-2.71869241922));
#200 = CARTESIAN_POINT('',(1.941343527551,23.875,-2.761502492425));
#201 = PCURVE('',#89,#202);
#202 = DEFINITIONAL_REPRESENTATION('',(#203),#229);
#203 = B_SPLINE_CURVE_WITH_KNOTS('',3,(#204,#205,#206,#207,#208,#209,
    #210,#211,#212,#213,#214,#215,#216,#217,#218,#219,#220,#221,#222,
    #223,#224,#225,#226,#227,#228),.UNSPECIFIED.,.F.,.F.,(4,1,1,1,1,1,1,
    1,1,1,1,1,1,1,1,1,1,1,1,1,1,1,4),(0.,4.545454545455E-02,
    9.090909090909E-02,0.136363636364,0.181818181818,0.227272727273,
    0.272727272727,0.318181818182,0.363636363636,0.409090909091,
    0.454545454545,0.5,0.545454545455,0.590909090909,0.636363636364,
    0.681818181818,0.727272727273,0.772727272727,0.818181818182,
    0.863636363636,0.909090909091,0.954545454545,1.),
  .QUASI_UNIFORM_KNOTS.);
#204 = CARTESIAN_POINT('',(6.28318530718,0.15));
#205 = CARTESIAN_POINT('',(6.235615287259,0.149994267515));
#206 = CARTESIAN_POINT('',(6.140463071881,0.149938135915));
#207 = CARTESIAN_POINT('',(5.997683456457,0.149817045006));
#208 = CARTESIAN_POINT('',(5.854750376885,0.14978919841));
#209 = CARTESIAN_POINT('',(5.711867582528,0.149869123918));
#210 = CARTESIAN_POINT('',(5.569172275663,0.150001334243));
#211 = CARTESIAN_POINT('',(5.426402005746,0.150001316854));
#212 = CARTESIAN_POINT('',(5.283706735813,0.149869176084));
#213 = CARTESIAN_POINT('',(5.140823793725,0.149789007134));
#214 = CARTESIAN_POINT('',(4.997891268146,0.149817757944));
#215 = CARTESIAN_POINT('',(4.855109584482,0.149935475439));
#216 = CARTESIAN_POINT('',(4.712388980385,0.150032262281));
#217 = CARTESIAN_POINT('',(4.569668376287,0.149935475439));
#218 = CARTESIAN_POINT('',(4.426886692623,0.149817757944));
#219 = CARTESIAN_POINT('',(4.283954167044,0.149789007134));
#220 = CARTESIAN_POINT('',(4.141071224956,0.149869176084));
#221 = CARTESIAN_POINT('',(3.998375955023,0.150001316854));
#222 = CARTESIAN_POINT('',(3.855605685106,0.150001334243));
#223 = CARTESIAN_POINT('',(3.712910378241,0.149869123918));
#224 = CARTESIAN_POINT('',(3.570027583884,0.14978919841));
#225 = CARTESIAN_POINT('',(3.427094504312,0.149817045006));
#226 = CARTESIAN_POINT('',(3.284314888889,0.149938135915));
#227 = CARTESIAN_POINT('',(3.189162673511,0.149994267515));
#228 = CARTESIAN_POINT('',(3.14159265359,0.15));
#229 = ( GEOMETRIC_REPRESENTATION_CONTEXT(2) 
PARAMETRIC_REPRESENTATION_CONTEXT() REPRESENTATION_CONTEXT('2D SPACE',''
  ) );
#230 = ORIENTED_EDGE('',*,*,#164,.F.);
#231 = ORIENTED_EDGE('',*,*,#232,.T.);
#232 = EDGE_CURVE('',#101,#74,#233,.T.);
#233 = SURFACE_CURVE('',#234,(#245,#274),.PCURVE_S1.);
#234 = B_SPLINE_CURVE_WITH_KNOTS('',3,(#235,#236,#237,#238,#239,#240,
    #241,#242,#243,#244),.UNSPECIFIED.,.F.,.F.,(4,2,2,2,4),(0.,0.25,0.5,
    0.75,1.),.UNSPECIFIED.);
#235 = CARTESIAN_POINT('',(1.880022614669,24.025,-2.898395683064));
#236 = CARTESIAN_POINT('',(1.820291692164,24.025,-2.871639387311));
#237 = CARTESIAN_POINT('',(1.749914008263,24.025,-2.869636857401));
#238 = CARTESIAN_POINT('',(1.62760261123,24.025,-2.916270021769));
#239 = CARTESIAN_POINT('',(1.57642207122,24.025,-2.96461855682));
#240 = CARTESIAN_POINT('',(1.522909479715,24.025,-3.084080401831));
#241 = CARTESIAN_POINT('',(1.520906949805,24.025,-3.154458085732));
#242 = CARTESIAN_POINT('',(1.567540114172,24.025,-3.276769482765));
#243 = CARTESIAN_POINT('',(1.615888649224,24.025,-3.327950022774));
#244 = CARTESIAN_POINT('',(1.675619571729,24.025,-3.354706318527));
#245 = PCURVE('',#89,#246);
#246 = DEFINITIONAL_REPRESENTATION('',(#247),#273);
#247 = B_SPLINE_CURVE_WITH_KNOTS('',3,(#248,#249,#250,#251,#252,#253,
    #254,#255,#256,#257,#258,#259,#260,#261,#262,#263,#264,#265,#266,
    #267,#268,#269,#270,#271,#272),.UNSPECIFIED.,.F.,.F.,(4,1,1,1,1,1,1,
    1,1,1,1,1,1,1,1,1,1,1,1,1,1,1,4),(0.,4.545454545455E-02,
    9.090909090909E-02,0.136363636364,0.181818181818,0.227272727273,
    0.272727272727,0.318181818182,0.363636363636,0.409090909091,
    0.454545454545,0.5,0.545454545455,0.590909090909,0.636363636364,
    0.681818181818,0.727272727273,0.772727272727,0.818181818182,
    0.863636363636,0.909090909091,0.954545454545,1.),
  .QUASI_UNIFORM_KNOTS.);
#248 = CARTESIAN_POINT('',(3.14159265359,-1.110223024625E-16));
#249 = CARTESIAN_POINT('',(3.189162673511,-3.582803104925E-06));
#250 = CARTESIAN_POINT('',(3.284314888889,-3.866505340428E-05));
#251 = CARTESIAN_POINT('',(3.427094504312,-1.143468713251E-04));
#252 = CARTESIAN_POINT('',(3.570027583884,-1.317509939974E-04));
#253 = CARTESIAN_POINT('',(3.712910378241,-8.179755143125E-05));
#254 = CARTESIAN_POINT('',(3.855605685106,8.339018294719E-07));
#255 = CARTESIAN_POINT('',(3.998375955024,8.230338720477E-07));
#256 = CARTESIAN_POINT('',(4.141071224956,-8.176494756048E-05));
#257 = CARTESIAN_POINT('',(4.283954167044,-1.318705415219E-04));
#258 = CARTESIAN_POINT('',(4.426886692623,-1.13901285097E-04));
#259 = CARTESIAN_POINT('',(4.569668376287,-4.032785080208E-05));
#260 = CARTESIAN_POINT('',(4.712388980385,2.01639253979E-05));
#261 = CARTESIAN_POINT('',(4.855109584482,-4.032785080217E-05));
#262 = CARTESIAN_POINT('',(4.997891268146,-1.139012850971E-04));
#263 = CARTESIAN_POINT('',(5.140823793725,-1.318705415222E-04));
#264 = CARTESIAN_POINT('',(5.283706735813,-8.176494755976E-05));
#265 = CARTESIAN_POINT('',(5.426402005746,8.230338694091E-07));
#266 = CARTESIAN_POINT('',(5.569172275663,8.339018268164E-07));
#267 = CARTESIAN_POINT('',(5.711867582528,-8.179755142982E-05));
#268 = CARTESIAN_POINT('',(5.854750376885,-1.31750993997E-04));
#269 = CARTESIAN_POINT('',(5.997683456457,-1.143468713262E-04));
#270 = CARTESIAN_POINT('',(6.140463071881,-3.866505340751E-05));
#271 = CARTESIAN_POINT('',(6.235615287259,-3.58280310617E-06));
#272 = CARTESIAN_POINT('',(6.28318530718,1.176857338654E-15));
#273 = ( GEOMETRIC_REPRESENTATION_CONTEXT(2) 
PARAMETRIC_REPRESENTATION_CONTEXT() REPRESENTATION_CONTEXT('2D SPACE',''
  ) );
#274 = PCURVE('',#145,#275);
#275 = DEFINITIONAL_REPRESENTATION('',(#276),#287);
#276 = B_SPLINE_CURVE_WITH_KNOTS('',3,(#277,#278,#279,#280,#281,#282,
    #283,#284,#285,#286),.UNSPECIFIED.,.F.,.F.,(4,2,2,2,4),(0.,0.25,0.5,
    0.75,1.),.UNSPECIFIED.);
#277 = CARTESIAN_POINT('',(-0.228155317732,-0.10220152147));
#278 = CARTESIAN_POINT('',(-0.254911613485,-4.247059896466E-02));
#279 = CARTESIAN_POINT('',(-0.256914143394,2.79070849365E-02));
#280 = CARTESIAN_POINT('',(-0.210280979027,0.150218481969));
#281 = CARTESIAN_POINT('',(-0.161932443975,0.201399021979));
#282 = CARTESIAN_POINT('',(-4.247059896466E-02,0.254911613485));
#283 = CARTESIAN_POINT('',(2.79070849365E-02,0.256914143394));
#284 = CARTESIAN_POINT('',(0.150218481969,0.210280979027));
#285 = CARTESIAN_POINT('',(0.201399021979,0.161932443975));
#286 = CARTESIAN_POINT('',(0.228155317732,0.10220152147));
#287 = ( GEOMETRIC_REPRESENTATION_CONTEXT(2) 
PARAMETRIC_REPRESENTATION_CONTEXT() REPRESENTATION_CONTEXT('2D SPACE',''
  ) );
#288 = ADVANCED_FACE('',(#289),#145,.T.);
#289 = FACE_BOUND('',#290,.T.);
#290 = EDGE_LOOP('',(#291,#292));
#291 = ORIENTED_EDGE('',*,*,#232,.F.);
#292 = ORIENTED_EDGE('',*,*,#100,.F.);
#293 = ( GEOMETRIC_REPRESENTATION_CONTEXT(3) 
GLOBAL_UNCERTAINTY_ASSIGNED_CONTEXT((#297)) GLOBAL_UNIT_ASSIGNED_CONTEXT
((#294,#295,#296)) REPRESENTATION_CONTEXT('Context #1',
  '3D Context with UNIT and UNCERTAINTY') );
#294 = ( LENGTH_UNIT() NAMED_UNIT(*) SI_UNIT(.MILLI.,.METRE.) );
#295 = ( NAMED_UNIT(*) PLANE_ANGLE_UNIT() SI_UNIT($,.RADIAN.) );
#296 = ( NAMED_UNIT(*) SI_UNIT($,.STERADIAN.) SOLID_ANGLE_UNIT() );
#297 = UNCERTAINTY_MEASURE_WITH_UNIT(LENGTH_MEASURE(2.E-04),#294,
  'distance_accuracy_value','confusion accuracy');
#298 = PRODUCT_RELATED_PRODUCT_CATEGORY('part',$,(#7));
ENDSEC;
END-ISO-10303-21;
