ISO-10303-21;
HEADER;
FILE_DESCRIPTION (( 'STEP AP214' ),
    '1' );
FILE_NAME ('fingercap_2.STEP',
    '2026-04-16T15:40:46',
    ( '' ),
    ( '' ),
    'SwSTEP 2.0',
    'SolidWorks 2026',
    '' );
FILE_SCHEMA (( 'AUTOMOTIVE_DESIGN' ));
ENDSEC;

DATA;
#1 = DIRECTION ( 'NONE',  ( 0.000000000000000000, 0.000000000000000000, -1.000000000000000000 ) ) ;
#2 = ORIENTED_EDGE ( 'NONE', *, *, #495, .T. ) ;
#3 = DIRECTION ( 'NONE',  ( 1.334402673828313586E-16, -1.000000000000000000, 0.000000000000000000 ) ) ;
#4 = APPLICATION_CONTEXT ( 'automotive_design' ) ;
#5 = LINE ( 'NONE', #441, #211 ) ;
#6 = EDGE_CURVE ( 'NONE', #324, #158, #177, .T. ) ;
#7 = DIRECTION ( 'NONE',  ( 8.673617379884035472E-16, -1.000000000000000000, 0.000000000000000000 ) ) ;
#8 = ORIENTED_EDGE ( 'NONE', *, *, #578, .F. ) ;
#9 = DIRECTION ( 'NONE',  ( 0.000000000000000000, 0.000000000000000000, -1.000000000000000000 ) ) ;
#10 = ORIENTED_EDGE ( 'NONE', *, *, #145, .T. ) ;
#11 = CARTESIAN_POINT ( 'NONE',  ( 0.000000000000000000, 0.000000000000000000, 2.000000000000000000 ) ) ;
#12 = VERTEX_POINT ( 'NONE', #313 ) ;
#13 = FACE_OUTER_BOUND ( 'NONE', #278, .T. ) ;
#14 = ORIENTED_EDGE ( 'NONE', *, *, #701, .F. ) ;
#15 = CYLINDRICAL_SURFACE ( 'NONE', #30, 1.000000000000000000 ) ;
#16 = ORIENTED_EDGE ( 'NONE', *, *, #600, .T. ) ;
#17 = CARTESIAN_POINT ( 'NONE',  ( 51.00000000000000000, 12.99999999999999822, 1.000000000000000000 ) ) ;
#18 = EDGE_LOOP ( 'NONE', ( #110, #470, #356, #722, #360, #527, #72, #382 ) ) ;
#19 = ADVANCED_FACE ( 'NONE', ( #247 ), #301, .F. ) ;
#20 = LINE ( 'NONE', #296, #498 ) ;
#21 = VECTOR ( 'NONE', #42, 1000.000000000000000 ) ;
#22 = VERTEX_POINT ( 'NONE', #542 ) ;
#23 = DIRECTION ( 'NONE',  ( 0.000000000000000000, 0.000000000000000000, 1.000000000000000000 ) ) ;
#24 = EDGE_LOOP ( 'NONE', ( #429, #289, #242 ) ) ;
#25 = EDGE_CURVE ( 'NONE', #731, #12, #147, .T. ) ;
#26 = ORIENTED_EDGE ( 'NONE', *, *, #113, .F. ) ;
#27 = AXIS2_PLACEMENT_3D ( 'NONE', #395, #122, #66 ) ;
#28 = ORIENTED_EDGE ( 'NONE', *, *, #684, .F. ) ;
#29 = DIRECTION ( 'NONE',  ( 0.000000000000000000, 0.000000000000000000, -1.000000000000000000 ) ) ;
#30 = AXIS2_PLACEMENT_3D ( 'NONE', #182, #638, #120 ) ;
#31 = ADVANCED_FACE ( 'NONE', ( #372 ), #142, .F. ) ;
#32 = CIRCLE ( 'NONE', #723, 0.7999999999999994893 ) ;
#33 = CARTESIAN_POINT ( 'NONE',  ( 51.00000000000000000, 13.99999999999999822, 2.000000000000000000 ) ) ;
#34 = CARTESIAN_POINT ( 'NONE',  ( 51.00000000000000000, 12.99999999999999822, 2.000000000000000000 ) ) ;
#35 = CIRCLE ( 'NONE', #248, 1.000000000000000888 ) ;
#36 = DIRECTION ( 'NONE',  ( -0.000000000000000000, 1.000000000000000000, 0.000000000000000000 ) ) ;
#37 = CARTESIAN_POINT ( 'NONE',  ( 0.9999999999999997780, 13.99999999999999112, 1.000000000000000000 ) ) ;
#38 = ORIENTED_EDGE ( 'NONE', *, *, #70, .T. ) ;
#39 = DIRECTION ( 'NONE',  ( -0.000000000000000000, -0.000000000000000000, -1.000000000000000000 ) ) ;
#40 = EDGE_CURVE ( 'NONE', #458, #195, #305, .T. ) ;
#41 = FACE_BOUND ( 'NONE', #640, .T. ) ;
#42 = DIRECTION ( 'NONE',  ( -1.000000000000000000, -1.334402673828313339E-16, 0.000000000000000000 ) ) ;
#43 = DIRECTION ( 'NONE',  ( -0.000000000000000000, 4.336808689942017736E-16, -1.000000000000000000 ) ) ;
#44 = CARTESIAN_POINT ( 'NONE',  ( 1.000000000000000888, 13.99999999999999112, 2.000000000000000000 ) ) ;
#45 = EDGE_CURVE ( 'NONE', #75, #529, #91, .T. ) ;
#46 = AXIS2_PLACEMENT_3D ( 'NONE', #352, #277, #683 ) ;
#47 = ORIENTED_EDGE ( 'NONE', *, *, #591, .T. ) ;
#48 = LINE ( 'NONE', #320, #739 ) ;
#49 = DIRECTION ( 'NONE',  ( -0.000000000000000000, 4.336808689942017736E-16, -1.000000000000000000 ) ) ;
#50 = AXIS2_PLACEMENT_3D ( 'NONE', #273, #620, #327 ) ;
#51 = VERTEX_POINT ( 'NONE', #550 ) ;
#52 = FACE_OUTER_BOUND ( 'NONE', #254, .T. ) ;
#53 = AXIS2_PLACEMENT_3D ( 'NONE', #490, #715, #670 ) ;
#54 = PLANE ( 'NONE',  #465 ) ;
#55 = ORIENTED_EDGE ( 'NONE', *, *, #6, .F. ) ;
#56 = CARTESIAN_POINT ( 'NONE',  ( 26.00000000000000711, 9.999999999999992895, 0.000000000000000000 ) ) ;
#57 = EDGE_CURVE ( 'NONE', #195, #447, #460, .T. ) ;
#58 = DIRECTION ( 'NONE',  ( -1.000000000000000000, 0.000000000000000000, 0.000000000000000000 ) ) ;
#59 = CARTESIAN_POINT ( 'NONE',  ( 51.00000000000000000, 13.99999999999999822, 1.000000000000000000 ) ) ;
#60 = ORIENTED_EDGE ( 'NONE', *, *, #25, .T. ) ;
#61 = ORIENTED_EDGE ( 'NONE', *, *, #595, .F. ) ;
#62 = FACE_OUTER_BOUND ( 'NONE', #83, .T. ) ;
#63 = ORIENTED_EDGE ( 'NONE', *, *, #684, .T. ) ;
#64 = CARTESIAN_POINT ( 'NONE',  ( 26.00000000000000711, 9.999999999999992895, 0.000000000000000000 ) ) ;
#65 = ORIENTED_EDGE ( 'NONE', *, *, #263, .F. ) ;
#66 = DIRECTION ( 'NONE',  ( -1.000000000000000000, 0.000000000000000000, 0.000000000000000000 ) ) ;
#67 = ORIENTED_EDGE ( 'NONE', *, *, #281, .T. ) ;
#68 = AXIS2_PLACEMENT_3D ( 'NONE', #665, #43, #152 ) ;
#69 = FACE_OUTER_BOUND ( 'NONE', #615, .T. ) ;
#70 = EDGE_CURVE ( 'NONE', #523, #563, #261, .T. ) ;
#71 = DIRECTION ( 'NONE',  ( 0.000000000000000000, 0.000000000000000000, -1.000000000000000000 ) ) ;
#72 = ORIENTED_EDGE ( 'NONE', *, *, #388, .T. ) ;
#73 = PLANE ( 'NONE',  #116 ) ;
#74 = CIRCLE ( 'NONE', #255, 1.000000000000000888 ) ;
#75 = VERTEX_POINT ( 'NONE', #588 ) ;
#76 = DIRECTION ( 'NONE',  ( -1.000000000000000000, 0.000000000000000000, 0.000000000000000000 ) ) ;
#77 = VERTEX_POINT ( 'NONE', #625 ) ;
#78 = VECTOR ( 'NONE', #531, 1000.000000000000000 ) ;
#79 = CARTESIAN_POINT ( 'NONE',  ( 27.40000000000000924, 9.999999999999992895, 0.000000000000000000 ) ) ;
#80 = DIRECTION ( 'NONE',  ( -0.000000000000000000, 1.000000000000000000, -0.000000000000000000 ) ) ;
#81 = ADVANCED_FACE ( 'NONE', ( #338 ), #15, .T. ) ;
#82 = CIRCLE ( 'NONE', #351, 1.000000000000000000 ) ;
#83 = EDGE_LOOP ( 'NONE', ( #632, #455, #736, #223 ) ) ;
#84 = VECTOR ( 'NONE', #249, 1000.000000000000000 ) ;
#85 = CARTESIAN_POINT ( 'NONE',  ( 1.000000000000000000, 1.000000000000000000, 1.000000000000000000 ) ) ;
#86 = DIRECTION ( 'NONE',  ( -0.000000000000000000, -0.000000000000000000, -1.000000000000000000 ) ) ;
#87 = ADVANCED_FACE ( 'NONE', ( #69 ), #218, .T. ) ;
#88 = SURFACE_SIDE_STYLE ('',( #471 ) ) ;
#89 = AXIS2_PLACEMENT_3D ( 'NONE', #368, #29, #602 ) ;
#90 = SHAPE_DEFINITION_REPRESENTATION ( #487, #676 ) ;
#91 = LINE ( 'NONE', #33, #84 ) ;
#92 = AXIS2_PLACEMENT_3D ( 'NONE', #434, #383, #616 ) ;
#93 = CARTESIAN_POINT ( 'NONE',  ( 52.00000000000000000, 12.99999999999999822, 0.000000000000000000 ) ) ;
#94 = CYLINDRICAL_SURFACE ( 'NONE', #68, 0.7999999999999994893 ) ;
#95 = CARTESIAN_POINT ( 'NONE',  ( 51.00000000000000711, 0.000000000000000000, 0.000000000000000000 ) ) ;
#96 = DIRECTION ( 'NONE',  ( 0.000000000000000000, 0.000000000000000000, 1.000000000000000000 ) ) ;
#97 = DIRECTION ( 'NONE',  ( -1.000000000000000000, -1.334402673828313586E-16, 0.000000000000000000 ) ) ;
#98 = CARTESIAN_POINT ( 'NONE',  ( 26.00000000000000355, 3.999999999999993339, 1.100000000000000533 ) ) ;
#99 = ORIENTED_EDGE ( 'NONE', *, *, #547, .F. ) ;
#100 = PRESENTATION_LAYER_ASSIGNMENT (  '', '', ( #423 ) ) ;
#101 = DIRECTION ( 'NONE',  ( 0.000000000000000000, 1.000000000000000000, 5.421010862427519212E-16 ) ) ;
#102 = CARTESIAN_POINT ( 'NONE',  ( 26.00000000000000355, 3.999999999999994227, 0.000000000000000000 ) ) ;
#103 = ORIENTED_EDGE ( 'NONE', *, *, #653, .T. ) ;
#104 = DIRECTION ( 'NONE',  ( 0.000000000000000000, 0.000000000000000000, 1.000000000000000000 ) ) ;
#105 = CIRCLE ( 'NONE', #92, 1.400000000000001021 ) ;
#106 = FACE_OUTER_BOUND ( 'NONE', #621, .T. ) ;
#107 = ADVANCED_FACE ( 'NONE', ( #115, #516, #451 ), #73, .F. ) ;
#108 = DIRECTION ( 'NONE',  ( -0.000000000000000000, -0.000000000000000000, -1.000000000000000000 ) ) ;
#109 = DIRECTION ( 'NONE',  ( 0.000000000000000000, -1.000000000000000000, 0.000000000000000000 ) ) ;
#110 = ORIENTED_EDGE ( 'NONE', *, *, #113, .T. ) ;
#111 = DIRECTION ( 'NONE',  ( 0.000000000000000000, 0.000000000000000000, -1.000000000000000000 ) ) ;
#112 = EDGE_LOOP ( 'NONE', ( #14, #713, #416, #200 ) ) ;
#113 = EDGE_CURVE ( 'NONE', #178, #22, #512, .T. ) ;
#114 = AXIS2_PLACEMENT_3D ( 'NONE', #216, #3, #454 ) ;
#115 = FACE_BOUND ( 'NONE', #707, .T. ) ;
#116 = AXIS2_PLACEMENT_3D ( 'NONE', #11, #404, #226 ) ;
#117 = ORIENTED_EDGE ( 'NONE', *, *, #642, .T. ) ;
#118 = CARTESIAN_POINT ( 'NONE',  ( 26.00000000000000355, 3.999999999999993339, 1.100000000000000533 ) ) ;
#119 = ORIENTED_EDGE ( 'NONE', *, *, #263, .T. ) ;
#120 = DIRECTION ( 'NONE',  ( 0.000000000000000000, 0.000000000000000000, 1.000000000000000000 ) ) ;
#121 = VERTEX_POINT ( 'NONE', #635 ) ;
#122 = DIRECTION ( 'NONE',  ( -0.000000000000000000, -0.000000000000000000, -1.000000000000000000 ) ) ;
#123 = ORIENTED_EDGE ( 'NONE', *, *, #553, .F. ) ;
#124 = AXIS2_PLACEMENT_3D ( 'NONE', #85, #704, #712 ) ;
#125 = EDGE_CURVE ( 'NONE', #731, #563, #727, .T. ) ;
#126 = VECTOR ( 'NONE', #606, 1000.000000000000000 ) ;
#127 = CARTESIAN_POINT ( 'NONE',  ( 1.000000000000000000, 1.000000000000000000, 1.000000000000000000 ) ) ;
#128 = CARTESIAN_POINT ( 'NONE',  ( 24.60000000000000497, 9.999999999999992895, 0.000000000000000000 ) ) ;
#129 = ORIENTED_EDGE ( 'NONE', *, *, #323, .F. ) ;
#130 = CARTESIAN_POINT ( 'NONE',  ( 26.00000000000000355, 3.199999999999994404, -3.469446951953612217E-16 ) ) ;
#131 = DIRECTION ( 'NONE',  ( 0.000000000000000000, 0.000000000000000000, -1.000000000000000000 ) ) ;
#132 = EDGE_LOOP ( 'NONE', ( #237, #367 ) ) ;
#133 = CARTESIAN_POINT ( 'NONE',  ( 26.80000000000000426, 9.999999999999992895, 2.000000000000000000 ) ) ;
#134 = CARTESIAN_POINT ( 'NONE',  ( 51.00000000000000711, 1.000000000000000888, 2.000000000000000000 ) ) ;
#135 = EDGE_CURVE ( 'NONE', #354, #532, #20, .T. ) ;
#136 = VECTOR ( 'NONE', #307, 1000.000000000000114 ) ;
#137 = EDGE_LOOP ( 'NONE', ( #685, #335, #611, #10 ) ) ;
#138 = LINE ( 'NONE', #484, #407 ) ;
#139 = ORIENTED_EDGE ( 'NONE', *, *, #445, .T. ) ;
#140 = CARTESIAN_POINT ( 'NONE',  ( 51.00000000000000711, 0.000000000000000000, 2.000000000000000000 ) ) ;
#141 = VERTEX_POINT ( 'NONE', #348 ) ;
#142 = CONICAL_SURFACE ( 'NONE', #245, 1.400000000000001910, 0.4993467216801298902 ) ;
#143 = ADVANCED_FACE ( 'NONE', ( #584 ), #291, .T. ) ;
#144 = AXIS2_PLACEMENT_3D ( 'NONE', #270, #209, #164 ) ;
#145 = EDGE_CURVE ( 'NONE', #532, #51, #364, .T. ) ;
#146 = DIRECTION ( 'NONE',  ( 0.000000000000000000, 0.000000000000000000, 1.000000000000000000 ) ) ;
#147 = LINE ( 'NONE', #358, #337 ) ;
#148 = AXIS2_PLACEMENT_3D ( 'NONE', #64, #537, #420 ) ;
#149 = AXIS2_PLACEMENT_3D ( 'NONE', #645, #340, #694 ) ;
#150 = AXIS2_PLACEMENT_3D ( 'NONE', #479, #481, #660 ) ;
#151 = DIRECTION ( 'NONE',  ( 0.000000000000000000, 1.000000000000000000, 4.336808689942018229E-16 ) ) ;
#152 = DIRECTION ( 'NONE',  ( 0.000000000000000000, 1.000000000000000000, 4.336808689942018229E-16 ) ) ;
#153 = CARTESIAN_POINT ( 'NONE',  ( 1.000000000000000000, 12.99999999999999112, 1.000000000000000000 ) ) ;
#154 = EDGE_CURVE ( 'NONE', #283, #508, #579, .T. ) ;
#155 = CARTESIAN_POINT ( 'NONE',  ( 26.00000000000000355, 3.199999999999993516, 1.100000000000000089 ) ) ;
#156 = AXIS2_PLACEMENT_3D ( 'NONE', #34, #708, #431 ) ;
#157 = APPLICATION_CONTEXT ( 'automotive_design' ) ;
#158 = VERTEX_POINT ( 'NONE', #331 ) ;
#159 = AXIS2_PLACEMENT_3D ( 'NONE', #462, #288, #333 ) ;
#160 = CARTESIAN_POINT ( 'NONE',  ( 0.000000000000000000, 0.000000000000000000, 1.000000000000000000 ) ) ;
#161 = EDGE_CURVE ( 'NONE', #158, #121, #629, .T. ) ;
#162 = EDGE_LOOP ( 'NONE', ( #55, #677, #234, #208 ) ) ;
#163 = CARTESIAN_POINT ( 'NONE',  ( 0.000000000000000000, 12.99999999999999112, 2.000000000000000000 ) ) ;
#164 = DIRECTION ( 'NONE',  ( -1.000000000000000000, 0.000000000000000000, 0.000000000000000000 ) ) ;
#165 = AXIS2_PLACEMENT_3D ( 'NONE', #214, #501, #444 ) ;
#166 = CARTESIAN_POINT ( 'NONE',  ( 1.000000000000000000, 1.000000000000000000, 1.000000000000000000 ) ) ;
#167 = EDGE_LOOP ( 'NONE', ( #117, #580, #503, #412 ) ) ;
#168 = CARTESIAN_POINT ( 'NONE',  ( 26.80000000000000426, 9.999999999999992895, 0.000000000000000000 ) ) ;
#169 = DIRECTION ( 'NONE',  ( 1.000000000000000000, 0.000000000000000000, -0.000000000000000000 ) ) ;
#170 = AXIS2_PLACEMENT_3D ( 'NONE', #499, #96, #614 ) ;
#171 = DIRECTION ( 'NONE',  ( 0.000000000000000000, 0.4788521306805744171, -0.8778955729143836928 ) ) ;
#172 = VERTEX_POINT ( 'NONE', #697 ) ;
#173 = DIRECTION ( 'NONE',  ( -0.000000000000000000, -0.000000000000000000, -1.000000000000000000 ) ) ;
#174 = VERTEX_POINT ( 'NONE', #176 ) ;
#175 = AXIS2_PLACEMENT_3D ( 'NONE', #524, #626, #23 ) ;
#176 = CARTESIAN_POINT ( 'NONE',  ( 1.000000000000000888, 0.000000000000000000, 2.000000000000000000 ) ) ;
#177 = CIRCLE ( 'NONE', #206, 1.000000000000000888 ) ;
#178 = VERTEX_POINT ( 'NONE', #185 ) ;
#179 = FACE_OUTER_BOUND ( 'NONE', #190, .T. ) ;
#180 = EDGE_LOOP ( 'NONE', ( #582, #418, #345, #16 ) ) ;
#181 = ADVANCED_FACE ( 'NONE', ( #410 ), #520, .T. ) ;
#182 = CARTESIAN_POINT ( 'NONE',  ( 1.000000000000000000, 13.99999999999999112, 1.000000000000000000 ) ) ;
#183 = FACE_OUTER_BOUND ( 'NONE', #167, .T. ) ;
#184 = ORIENTED_EDGE ( 'NONE', *, *, #154, .F. ) ;
#185 = CARTESIAN_POINT ( 'NONE',  ( 0.000000000000000000, 12.99999999999999112, 2.000000000000000000 ) ) ;
#186 = CARTESIAN_POINT ( 'NONE',  ( 1.000000000000000888, 1.000000000000000000, 2.000000000000000000 ) ) ;
#187 = ORIENTED_EDGE ( 'NONE', *, *, #145, .F. ) ;
#188 = AXIS2_PLACEMENT_3D ( 'NONE', #186, #279, #228 ) ;
#189 = ADVANCED_FACE ( 'NONE', ( #688 ), #282, .F. ) ;
#190 = EDGE_LOOP ( 'NONE', ( #2, #546, #468, #703 ) ) ;
#191 = CARTESIAN_POINT ( 'NONE',  ( 51.00000000000000000, 12.99999999999999822, 1.000000000000000000 ) ) ;
#192 = ORIENTED_EDGE ( 'NONE', *, *, #653, .F. ) ;
#193 = DIRECTION ( 'NONE',  ( 0.000000000000000000, 1.000000000000000000, 5.421010862427526114E-16 ) ) ;
#194 = DIRECTION ( 'NONE',  ( -4.956352788505165240E-16, 1.000000000000000000, 0.000000000000000000 ) ) ;
#195 = VERTEX_POINT ( 'NONE', #651 ) ;
#196 = VECTOR ( 'NONE', #385, 1000.000000000000000 ) ;
#197 = CARTESIAN_POINT ( 'NONE',  ( 0.000000000000000000, 1.000000000000000000, 0.000000000000000000 ) ) ;
#198 = ORIENTED_EDGE ( 'NONE', *, *, #595, .T. ) ;
#199 = ADVANCED_FACE ( 'NONE', ( #414 ), #370, .T. ) ;
#200 = ORIENTED_EDGE ( 'NONE', *, *, #299, .F. ) ;
#201 = VECTOR ( 'NONE', #194, 1000.000000000000000 ) ;
#202 = EDGE_CURVE ( 'NONE', #77, #324, #236, .T. ) ;
#203 = CIRCLE ( 'NONE', #674, 1.000000000000000000 ) ;
#204 = DIRECTION ( 'NONE',  ( -1.000000000000000000, 0.000000000000000000, 0.000000000000000000 ) ) ;
#205 = DIRECTION ( 'NONE',  ( -0.000000000000000000, -0.000000000000000000, 1.000000000000000000 ) ) ;
#206 = AXIS2_PLACEMENT_3D ( 'NONE', #134, #304, #718 ) ;
#207 = CARTESIAN_POINT ( 'NONE',  ( 25.20000000000000639, 9.999999999999992895, 2.000000000000000000 ) ) ;
#208 = ORIENTED_EDGE ( 'NONE', *, *, #161, .F. ) ;
#209 = DIRECTION ( 'NONE',  ( 0.000000000000000000, 0.000000000000000000, -1.000000000000000000 ) ) ;
#210 = EDGE_CURVE ( 'NONE', #12, #587, #433, .T. ) ;
#211 = VECTOR ( 'NONE', #435, 1000.000000000000000 ) ;
#212 = ORIENTED_EDGE ( 'NONE', *, *, #450, .F. ) ;
#213 = CARTESIAN_POINT ( 'NONE',  ( 0.000000000000000000, 0.000000000000000000, 0.000000000000000000 ) ) ;
#214 = CARTESIAN_POINT ( 'NONE',  ( 26.00000000000000711, 9.999999999999992895, 0.000000000000000000 ) ) ;
#215 = CARTESIAN_POINT ( 'NONE',  ( 1.000000000000000000, 12.99999999999999112, 1.000000000000000000 ) ) ;
#216 = CARTESIAN_POINT ( 'NONE',  ( 52.00000000000000000, 13.99999999999999822, 2.000000000000000000 ) ) ;
#217 = LINE ( 'NONE', #155, #266 ) ;
#218 = SPHERICAL_SURFACE ( 'NONE', #436, 1.000000000000000000 ) ;
#219 = ORIENTED_EDGE ( 'NONE', *, *, #161, .T. ) ;
#220 = DIRECTION ( 'NONE',  ( 1.000000000000000000, -0.000000000000000000, -0.000000000000000000 ) ) ;
#221 = ORIENTED_EDGE ( 'NONE', *, *, #734, .F. ) ;
#222 = DIRECTION ( 'NONE',  ( -1.000000000000000000, 0.000000000000000000, 0.000000000000000000 ) ) ;
#223 = ORIENTED_EDGE ( 'NONE', *, *, #409, .T. ) ;
#224 = CARTESIAN_POINT ( 'NONE',  ( 0.000000000000000000, 1.000000000000000000, 1.000000000000000000 ) ) ;
#225 = ORIENTED_EDGE ( 'NONE', *, *, #210, .T. ) ;
#226 = DIRECTION ( 'NONE',  ( -1.000000000000000000, 0.000000000000000000, 0.000000000000000000 ) ) ;
#227 = ORIENTED_EDGE ( 'NONE', *, *, #647, .T. ) ;
#228 = DIRECTION ( 'NONE',  ( -1.000000000000000000, 0.000000000000000000, 0.000000000000000000 ) ) ;
#229 = ORIENTED_EDGE ( 'NONE', *, *, #314, .T. ) ;
#230 = CIRCLE ( 'NONE', #530, 0.8000000000000003775 ) ;
#231 = DIRECTION ( 'NONE',  ( -0.000000000000000000, -0.000000000000000000, -1.000000000000000000 ) ) ;
#232 = EDGE_LOOP ( 'NONE', ( #630, #198, #229, #687 ) ) ;
#233 = DIRECTION ( 'NONE',  ( 0.000000000000000000, -0.000000000000000000, -1.000000000000000000 ) ) ;
#234 = ORIENTED_EDGE ( 'NONE', *, *, #419, .F. ) ;
#235 = ADVANCED_FACE ( 'NONE', ( #262 ), #556, .T. ) ;
#236 = LINE ( 'NONE', #140, #126 ) ;
#237 = ORIENTED_EDGE ( 'NONE', *, *, #553, .T. ) ;
#238 = CARTESIAN_POINT ( 'NONE',  ( 52.00000000000000000, 13.99999999999999822, 1.000000000000000000 ) ) ;
#239 = ORIENTED_EDGE ( 'NONE', *, *, #353, .T. ) ;
#240 = AXIS2_PLACEMENT_3D ( 'NONE', #681, #131, #528 ) ;
#241 = PRODUCT_DEFINITION ( 'ๆ', '', #308, #322 ) ;
#242 = ORIENTED_EDGE ( 'NONE', *, *, #70, .F. ) ;
#243 = LINE ( 'NONE', #197, #78 ) ;
#244 = EDGE_LOOP ( 'NONE', ( #672, #475, #26, #575 ) ) ;
#245 = AXIS2_PLACEMENT_3D ( 'NONE', #710, #86, #534 ) ;
#246 = CARTESIAN_POINT ( 'NONE',  ( 26.00000000000000355, 4.799999999999993605, 1.100000000000000977 ) ) ;
#247 = FACE_OUTER_BOUND ( 'NONE', #232, .T. ) ;
#248 = AXIS2_PLACEMENT_3D ( 'NONE', #536, #311, #477 ) ;
#249 = DIRECTION ( 'NONE',  ( 0.000000000000000000, 0.000000000000000000, -1.000000000000000000 ) ) ;
#250 = ADVANCED_FACE ( 'NONE', ( #551 ), #664, .F. ) ;
#251 = LINE ( 'NONE', #238, #201 ) ;
#252 = ORIENTED_EDGE ( 'NONE', *, *, #347, .T. ) ;
#253 = DIRECTION ( 'NONE',  ( -1.000000000000000000, 0.000000000000000000, 0.000000000000000000 ) ) ;
#254 = EDGE_LOOP ( 'NONE', ( #280, #339, #695, #298 ) ) ;
#255 = AXIS2_PLACEMENT_3D ( 'NONE', #497, #559, #510 ) ;
#256 = EDGE_CURVE ( 'NONE', #397, #75, #408, .T. ) ;
#257 = CYLINDRICAL_SURFACE ( 'NONE', #432, 1.000000000000000888 ) ;
#258 = PLANE ( 'NONE',  #543 ) ;
#259 = CARTESIAN_POINT ( 'NONE',  ( 0.000000000000000000, 13.99999999999999112, 2.000000000000000000 ) ) ;
#260 = UNCERTAINTY_MEASURE_WITH_UNIT (LENGTH_MEASURE( 1.000000000000000082E-05 ), #654, 'distance_accuracy_value', 'NONE');
#261 = CIRCLE ( 'NONE', #538, 1.000000000000000000 ) ;
#262 = FACE_OUTER_BOUND ( 'NONE', #646, .T. ) ;
#263 = EDGE_CURVE ( 'NONE', #655, #12, #35, .T. ) ;
#264 = ORIENTED_EDGE ( 'NONE', *, *, #419, .T. ) ;
#265 = LINE ( 'NONE', #449, #295 ) ;
#266 = VECTOR ( 'NONE', #379, 999.9999999999998863 ) ;
#267 = CONICAL_SURFACE ( 'NONE', #389, 0.7999999999999994893, 0.4993467216801309450 ) ;
#268 = EDGE_LOOP ( 'NONE', ( #394, #60, #225, #627 ) ) ;
#269 = CARTESIAN_POINT ( 'NONE',  ( 52.00000000000000000, 13.99999999999999822, 2.000000000000000000 ) ) ;
#270 = CARTESIAN_POINT ( 'NONE',  ( 51.00000000000000711, 1.000000000000000888, 1.000000000000000000 ) ) ;
#271 = ADVANCED_FACE ( 'NONE', ( #426 ), #656, .T. ) ;
#272 = AXIS2_PLACEMENT_3D ( 'NONE', #544, #36, #716 ) ;
#273 = CARTESIAN_POINT ( 'NONE',  ( 51.00000000000000711, 1.000000000000000000, 1.000000000000000000 ) ) ;
#274 = ORIENTED_EDGE ( 'NONE', *, *, #40, .T. ) ;
#275 = VECTOR ( 'NONE', #233, 1000.000000000000000 ) ;
#276 = DIRECTION ( 'NONE',  ( -1.000000000000000000, 0.000000000000000000, 0.000000000000000000 ) ) ;
#277 = DIRECTION ( 'NONE',  ( 0.000000000000000000, 0.000000000000000000, -1.000000000000000000 ) ) ;
#278 = EDGE_LOOP ( 'NONE', ( #691, #440, #38, #61 ) ) ;
#279 = DIRECTION ( 'NONE',  ( 0.000000000000000000, 0.000000000000000000, 1.000000000000000000 ) ) ;
#280 = ORIENTED_EDGE ( 'NONE', *, *, #281, .F. ) ;
#281 = EDGE_CURVE ( 'NONE', #285, #354, #641, .T. ) ;
#282 = CYLINDRICAL_SURFACE ( 'NONE', #148, 0.7999999999999986011 ) ;
#283 = VERTEX_POINT ( 'NONE', #246 ) ;
#284 = DIRECTION ( 'NONE',  ( -0.000000000000000000, 4.336808689942017736E-16, -1.000000000000000000 ) ) ;
#285 = VERTEX_POINT ( 'NONE', #623 ) ;
#286 = DIRECTION ( 'NONE',  ( 0.000000000000000000, 0.000000000000000000, 1.000000000000000000 ) ) ;
#287 = ORIENTED_EDGE ( 'NONE', *, *, #361, .F. ) ;
#288 = DIRECTION ( 'NONE',  ( -0.000000000000000000, -0.000000000000000000, -1.000000000000000000 ) ) ;
#289 = ORIENTED_EDGE ( 'NONE', *, *, #125, .T. ) ;
#290 = AXIS2_PLACEMENT_3D ( 'NONE', #581, #284, #391 ) ;
#291 = CYLINDRICAL_SURFACE ( 'NONE', #46, 1.000000000000000888 ) ;
#292 = DIRECTION ( 'NONE',  ( -0.000000000000000000, -0.000000000000000000, -1.000000000000000000 ) ) ;
#293 = EDGE_LOOP ( 'NONE', ( #227, #28, #573, #332 ) ) ;
#294 = ADVANCED_FACE ( 'NONE', ( #725 ), #258, .F. ) ;
#295 = VECTOR ( 'NONE', #376, 1000.000000000000000 ) ;
#296 = CARTESIAN_POINT ( 'NONE',  ( 24.60000000000000497, 9.999999999999992895, 0.000000000000000000 ) ) ;
#297 = PRESENTATION_STYLE_ASSIGNMENT (( #476 ) ) ;
#298 = ORIENTED_EDGE ( 'NONE', *, *, #135, .F. ) ;
#299 = EDGE_CURVE ( 'NONE', #458, #283, #5, .T. ) ;
#300 = CARTESIAN_POINT ( 'NONE',  ( 1.000000000000000000, 1.000000000000000000, 0.000000000000000000 ) ) ;
#301 = PLANE ( 'NONE',  #150 ) ;
#302 = ORIENTED_EDGE ( 'NONE', *, *, #306, .T. ) ;
#303 =( NAMED_UNIT ( * ) PLANE_ANGLE_UNIT ( ) SI_UNIT ( $, .RADIAN. ) );
#304 = DIRECTION ( 'NONE',  ( 0.000000000000000000, 0.000000000000000000, 1.000000000000000000 ) ) ;
#305 = CIRCLE ( 'NONE', #597, 0.7999999999999994893 ) ;
#306 = EDGE_CURVE ( 'NONE', #517, #12, #309, .T. ) ;
#307 = DIRECTION ( 'NONE',  ( 0.4788521306805731403, 5.864247291028539903E-17, -0.8778955729143843589 ) ) ;
#308 = PRODUCT_DEFINITION_FORMATION_WITH_SPECIFIED_SOURCE ( 'ไป', '', #719, .NOT_KNOWN. ) ;
#309 = CIRCLE ( 'NONE', #502, 1.000000000000000000 ) ;
#310 = ORIENTED_EDGE ( 'NONE', *, *, #495, .F. ) ;
#311 = DIRECTION ( 'NONE',  ( -1.000000000000000000, -2.168404344971006649E-16, -0.000000000000000000 ) ) ;
#312 = CIRCLE ( 'NONE', #188, 1.000000000000000000 ) ;
#313 = CARTESIAN_POINT ( 'NONE',  ( 1.000000000000000000, 12.99999999999999112, 0.000000000000000000 ) ) ;
#314 = EDGE_CURVE ( 'NONE', #563, #77, #265, .T. ) ;
#315 = CARTESIAN_POINT ( 'NONE',  ( 26.00000000000000355, 4.799999999999992717, 2.000000000000000888 ) ) ;
#316 = FACE_OUTER_BOUND ( 'NONE', #319, .T. ) ;
#317 = EDGE_CURVE ( 'NONE', #447, #283, #230, .T. ) ;
#318 = CYLINDRICAL_SURFACE ( 'NONE', #561, 0.7999999999999986011 ) ;
#319 = EDGE_LOOP ( 'NONE', ( #99, #123, #592, #239 ) ) ;
#320 = CARTESIAN_POINT ( 'NONE',  ( 25.20000000000000639, 9.999999999999992895, 0.000000000000000000 ) ) ;
#321 = CARTESIAN_POINT ( 'NONE',  ( 25.20000000000000639, 9.999999999999992895, 1.100000000000000089 ) ) ;
#322 = PRODUCT_DEFINITION_CONTEXT ( 'detailed design', #4, 'design' ) ;
#323 = EDGE_CURVE ( 'NONE', #655, #472, #492, .T. ) ;
#324 = VERTEX_POINT ( 'NONE', #330 ) ;
#325 = DIRECTION ( 'NONE',  ( -0.000000000000000000, -0.000000000000000000, 1.000000000000000000 ) ) ;
#326 = AXIS2_PLACEMENT_3D ( 'NONE', #682, #729, #567 ) ;
#327 = DIRECTION ( 'NONE',  ( 0.000000000000000000, 1.000000000000000000, 0.000000000000000000 ) ) ;
#328 = EDGE_LOOP ( 'NONE', ( #489, #377, #453, #705 ) ) ;
#329 = DIRECTION ( 'NONE',  ( 4.956352788505165240E-16, -1.000000000000000000, 0.000000000000000000 ) ) ;
#330 = CARTESIAN_POINT ( 'NONE',  ( 51.00000000000000711, 0.000000000000000000, 2.000000000000000000 ) ) ;
#331 = CARTESIAN_POINT ( 'NONE',  ( 52.00000000000000711, 1.000000000000004441, 2.000000000000000000 ) ) ;
#332 = ORIENTED_EDGE ( 'NONE', *, *, #336, .F. ) ;
#333 = DIRECTION ( 'NONE',  ( -1.000000000000000000, 0.000000000000000000, 0.000000000000000000 ) ) ;
#334 = CIRCLE ( 'NONE', #240, 1.000000000000000888 ) ;
#335 = ORIENTED_EDGE ( 'NONE', *, *, #353, .F. ) ;
#336 = EDGE_CURVE ( 'NONE', #587, #172, #668, .T. ) ;
#337 = VECTOR ( 'NONE', #80, 1000.000000000000000 ) ;
#338 = FACE_OUTER_BOUND ( 'NONE', #461, .T. ) ;
#339 = ORIENTED_EDGE ( 'NONE', *, *, #721, .T. ) ;
#340 = DIRECTION ( 'NONE',  ( 0.000000000000000000, 0.000000000000000000, 1.000000000000000000 ) ) ;
#341 = ORIENTED_EDGE ( 'NONE', *, *, #445, .F. ) ;
#342 = CARTESIAN_POINT ( 'NONE',  ( 0.000000000000000000, 13.99999999999999112, 2.000000000000000000 ) ) ;
#343 = ORIENTED_EDGE ( 'NONE', *, *, #562, .T. ) ;
#344 = CARTESIAN_POINT ( 'NONE',  ( 1.000000000000000888, 0.000000000000000000, 1.000000000000000000 ) ) ;
#345 = ORIENTED_EDGE ( 'NONE', *, *, #299, .T. ) ;
#346 = AXIS2_PLACEMENT_3D ( 'NONE', #166, #387, #222 ) ;
#347 = EDGE_CURVE ( 'NONE', #172, #121, #74, .T. ) ;
#348 = CARTESIAN_POINT ( 'NONE',  ( 52.00000000000000000, 12.99999999999999822, 1.000000000000000000 ) ) ;
#349 = CARTESIAN_POINT ( 'NONE',  ( 26.00000000000000711, 9.999999999999992895, 0.000000000000000000 ) ) ;
#350 = ORIENTED_EDGE ( 'NONE', *, *, #210, .F. ) ;
#351 = AXIS2_PLACEMENT_3D ( 'NONE', #191, #650, #362 ) ;
#352 = CARTESIAN_POINT ( 'NONE',  ( 51.00000000000000000, 12.99999999999999822, 2.000000000000000000 ) ) ;
#353 = EDGE_CURVE ( 'NONE', #354, #285, #386, .T. ) ;
#354 = VERTEX_POINT ( 'NONE', #321 ) ;
#355 = CARTESIAN_POINT ( 'NONE',  ( 51.00000000000000711, 1.000000000000000000, 1.000000000000000000 ) ) ;
#356 = ORIENTED_EDGE ( 'NONE', *, *, #506, .T. ) ;
#357 = FACE_OUTER_BOUND ( 'NONE', #463, .T. ) ;
#358 = CARTESIAN_POINT ( 'NONE',  ( 1.000000000000000000, 13.99999999999999112, 0.000000000000000000 ) ) ;
#359 = DIRECTION ( 'NONE',  ( 0.000000000000000000, -1.000000000000000000, -0.000000000000000000 ) ) ;
#360 = ORIENTED_EDGE ( 'NONE', *, *, #734, .T. ) ;
#361 = EDGE_CURVE ( 'NONE', #517, #523, #738, .T. ) ;
#362 = DIRECTION ( 'NONE',  ( 0.000000000000000000, 0.000000000000000000, -1.000000000000000000 ) ) ;
#363 = CARTESIAN_POINT ( 'NONE',  ( 26.00000000000000355, 3.999999999999993339, 2.000000000000000444 ) ) ;
#364 = CIRCLE ( 'NONE', #735, 1.400000000000001910 ) ;
#365 = CIRCLE ( 'NONE', #693, 1.400000000000001021 ) ;
#366 =( NAMED_UNIT ( * ) PLANE_ANGLE_UNIT ( ) SI_UNIT ( $, .RADIAN. ) );
#367 = ORIENTED_EDGE ( 'NONE', *, *, #578, .T. ) ;
#368 = CARTESIAN_POINT ( 'NONE',  ( 1.000000000000000000, 12.99999999999999112, 2.000000000000000000 ) ) ;
#369 = DIRECTION ( 'NONE',  ( -0.000000000000000000, 4.336808689942017736E-16, -1.000000000000000000 ) ) ;
#370 = SPHERICAL_SURFACE ( 'NONE', #272, 1.000000000000000000 ) ;
#371 = ADVANCED_FACE ( 'NONE', ( #52 ), #619, .F. ) ;
#372 = FACE_OUTER_BOUND ( 'NONE', #137, .T. ) ;
#373 = CIRCLE ( 'NONE', #714, 0.8000000000000003775 ) ;
#374 = EDGE_CURVE ( 'NONE', #141, #397, #610, .T. ) ;
#375 = LINE ( 'NONE', #609, #644 ) ;
#376 = DIRECTION ( 'NONE',  ( 1.000000000000000000, -0.000000000000000000, 0.000000000000000000 ) ) ;
#377 = ORIENTED_EDGE ( 'NONE', *, *, #45, .F. ) ;
#378 = DIRECTION ( 'NONE',  ( -1.000000000000000000, -4.956352788505165240E-16, 0.000000000000000000 ) ) ;
#379 = DIRECTION ( 'NONE',  ( 5.864247291028550997E-17, -0.4788521306805736955, -0.8778955729143842479 ) ) ;
#380 = ADVANCED_FACE ( 'NONE', ( #316 ), #318, .F. ) ;
#381 = AXIS2_PLACEMENT_3D ( 'NONE', #349, #292, #518 ) ;
#382 = ORIENTED_EDGE ( 'NONE', *, *, #608, .T. ) ;
#383 = DIRECTION ( 'NONE',  ( -0.000000000000000000, 4.336808689942017736E-16, -1.000000000000000000 ) ) ;
#384 = CARTESIAN_POINT ( 'NONE',  ( 26.00000000000000355, 2.599999999999992983, -4.336808689941992468E-17 ) ) ;
#385 = DIRECTION ( 'NONE',  ( 0.000000000000000000, 0.000000000000000000, -1.000000000000000000 ) ) ;
#386 = CIRCLE ( 'NONE', #326, 0.7999999999999986011 ) ;
#387 = DIRECTION ( 'NONE',  ( 0.000000000000000000, 1.000000000000000000, 0.000000000000000000 ) ) ;
#388 = EDGE_CURVE ( 'NONE', #75, #472, #552, .T. ) ;
#389 = AXIS2_PLACEMENT_3D ( 'NONE', #421, #593, #478 ) ;
#390 = ORIENTED_EDGE ( 'NONE', *, *, #696, .F. ) ;
#391 = DIRECTION ( 'NONE',  ( 0.000000000000000000, 1.000000000000000000, 5.421010862427526114E-16 ) ) ;
#392 = DIRECTION ( 'NONE',  ( -0.000000000000000000, -1.000000000000000000, -0.000000000000000000 ) ) ;
#393 = CARTESIAN_POINT ( 'NONE',  ( 26.00000000000000711, 9.999999999999992895, 0.000000000000000000 ) ) ;
#394 = ORIENTED_EDGE ( 'NONE', *, *, #661, .T. ) ;
#395 = CARTESIAN_POINT ( 'NONE',  ( 26.00000000000000711, 9.999999999999992895, 2.000000000000000000 ) ) ;
#396 = AXIS2_PLACEMENT_3D ( 'NONE', #355, #690, #111 ) ;
#397 = VERTEX_POINT ( 'NONE', #555 ) ;
#398 = AXIS2_PLACEMENT_3D ( 'NONE', #127, #574, #7 ) ;
#399 = DIRECTION ( 'NONE',  ( 0.000000000000000000, 0.000000000000000000, 1.000000000000000000 ) ) ;
#400 = VERTEX_POINT ( 'NONE', #384 ) ;
#401 = DIRECTION ( 'NONE',  ( -1.000000000000000000, 0.000000000000000000, 0.000000000000000000 ) ) ;
#402 = VERTEX_POINT ( 'NONE', #207 ) ;
#403 = EDGE_CURVE ( 'NONE', #447, #400, #217, .T. ) ;
#404 = DIRECTION ( 'NONE',  ( -0.000000000000000000, 0.000000000000000000, -1.000000000000000000 ) ) ;
#405 = CARTESIAN_POINT ( 'NONE',  ( 26.00000000000000355, 5.399999999999994138, 1.474514954580286227E-15 ) ) ;
#406 = ORIENTED_EDGE ( 'NONE', *, *, #474, .F. ) ;
#407 = VECTOR ( 'NONE', #652, 1000.000000000000000 ) ;
#408 = CIRCLE ( 'NONE', #156, 1.000000000000000888 ) ;
#409 = EDGE_CURVE ( 'NONE', #508, #400, #365, .T. ) ;
#410 = FACE_OUTER_BOUND ( 'NONE', #24, .T. ) ;
#411 = DIRECTION ( 'NONE',  ( -0.000000000000000000, -0.000000000000000000, 1.000000000000000000 ) ) ;
#412 = ORIENTED_EDGE ( 'NONE', *, *, #661, .F. ) ;
#413 = CIRCLE ( 'NONE', #149, 1.000000000000000000 ) ;
#414 = FACE_OUTER_BOUND ( 'NONE', #525, .T. ) ;
#415 = FILL_AREA_STYLE_COLOUR ( '', #494 ) ;
#416 = ORIENTED_EDGE ( 'NONE', *, *, #317, .T. ) ;
#417 = LINE ( 'NONE', #79, #136 ) ;
#418 = ORIENTED_EDGE ( 'NONE', *, *, #40, .F. ) ;
#419 = EDGE_CURVE ( 'NONE', #121, #77, #428, .T. ) ;
#420 = DIRECTION ( 'NONE',  ( -1.000000000000000000, 0.000000000000000000, 0.000000000000000000 ) ) ;
#421 = CARTESIAN_POINT ( 'NONE',  ( 26.00000000000000355, 3.999999999999993339, 1.100000000000000533 ) ) ;
#422 = ORIENTED_EDGE ( 'NONE', *, *, #533, .F. ) ;
#423 = STYLED_ITEM ( 'NONE', ( #297 ), #658 ) ;
#424 = CARTESIAN_POINT ( 'NONE',  ( 51.00000000000000711, 1.000000000000000888, 2.000000000000000000 ) ) ;
#425 = EDGE_LOOP ( 'NONE', ( #8, #442, #67, #212 ) ) ;
#426 = FACE_OUTER_BOUND ( 'NONE', #515, .T. ) ;
#427 = ADVANCED_FACE ( 'NONE', ( #673 ), #565, .T. ) ;
#428 = CIRCLE ( 'NONE', #144, 1.000000000000000888 ) ;
#429 = ORIENTED_EDGE ( 'NONE', *, *, #696, .T. ) ;
#430 = FACE_OUTER_BOUND ( 'NONE', #112, .T. ) ;
#431 = DIRECTION ( 'NONE',  ( -1.000000000000000000, 0.000000000000000000, 0.000000000000000000 ) ) ;
#432 = AXIS2_PLACEMENT_3D ( 'NONE', #566, #607, #667 ) ;
#433 = LINE ( 'NONE', #93, #469 ) ;
#434 = CARTESIAN_POINT ( 'NONE',  ( 26.00000000000000355, 3.999999999999994227, 6.071532165918827789E-16 ) ) ;
#435 = DIRECTION ( 'NONE',  ( -0.000000000000000000, 4.336808689942017736E-16, -1.000000000000000000 ) ) ;
#436 = AXIS2_PLACEMENT_3D ( 'NONE', #215, #399, #58 ) ;
#437 = APPLICATION_PROTOCOL_DEFINITION ( 'draft international standard', 'automotive_design', 1998, #157 ) ;
#438 = CARTESIAN_POINT ( 'NONE',  ( 52.00000000000000000, 12.99999999999999822, 2.000000000000000000 ) ) ;
#439 = ADVANCED_FACE ( 'NONE', ( #106 ), #54, .F. ) ;
#440 = ORIENTED_EDGE ( 'NONE', *, *, #540, .F. ) ;
#441 = CARTESIAN_POINT ( 'NONE',  ( 26.00000000000000355, 4.799999999999993605, 3.469446951953612217E-16 ) ) ;
#442 = ORIENTED_EDGE ( 'NONE', *, *, #547, .T. ) ;
#443 = FACE_BOUND ( 'NONE', #596, .T. ) ;
#444 = DIRECTION ( 'NONE',  ( -1.000000000000000000, 0.000000000000000000, 0.000000000000000000 ) ) ;
#445 = EDGE_CURVE ( 'NONE', #400, #508, #105, .T. ) ;
#446 = CARTESIAN_POINT ( 'NONE',  ( 52.00000000000000711, 1.000000000000000888, 2.000000000000000000 ) ) ;
#447 = VERTEX_POINT ( 'NONE', #491 ) ;
#448 = DIRECTION ( 'NONE',  ( -0.000000000000000000, 4.336808689942017736E-16, -1.000000000000000000 ) ) ;
#449 = CARTESIAN_POINT ( 'NONE',  ( 52.00000000000000711, 0.000000000000000000, 1.000000000000000000 ) ) ;
#450 = EDGE_CURVE ( 'NONE', #402, #354, #48, .T. ) ;
#451 = FACE_OUTER_BOUND ( 'NONE', #18, .T. ) ;
#452 = CIRCLE ( 'NONE', #124, 1.000000000000000000 ) ;
#453 = ORIENTED_EDGE ( 'NONE', *, *, #256, .F. ) ;
#454 = DIRECTION ( 'NONE',  ( 1.000000000000000000, 1.334402673828313586E-16, 0.000000000000000000 ) ) ;
#455 = ORIENTED_EDGE ( 'NONE', *, *, #600, .F. ) ;
#456 = DIRECTION ( 'NONE',  ( -0.4788521306805731403, 0.000000000000000000, -0.8778955729143843589 ) ) ;
#457 = CYLINDRICAL_SURFACE ( 'NONE', #483, 1.000000000000000000 ) ;
#458 = VERTEX_POINT ( 'NONE', #315 ) ;
#459 = VECTOR ( 'NONE', #466, 1000.000000000000000 ) ;
#460 = LINE ( 'NONE', #130, #459 ) ;
#461 = EDGE_LOOP ( 'NONE', ( #302, #699, #390, #287 ) ) ;
#462 = CARTESIAN_POINT ( 'NONE',  ( 26.00000000000000711, 9.999999999999992895, 2.000000000000000000 ) ) ;
#463 = EDGE_LOOP ( 'NONE', ( #557, #577, #139, #184 ) ) ;
#464 = ADVANCED_FACE ( 'NONE', ( #443, #41, #504 ), #737, .T. ) ;
#465 = AXIS2_PLACEMENT_3D ( 'NONE', #269, #378, #329 ) ;
#466 = DIRECTION ( 'NONE',  ( -0.000000000000000000, 4.336808689942017736E-16, -1.000000000000000000 ) ) ;
#467 = CARTESIAN_POINT ( 'NONE',  ( 1.000000000000000000, 12.99999999999999112, 1.000000000000000000 ) ) ;
#468 = ORIENTED_EDGE ( 'NONE', *, *, #388, .F. ) ;
#469 = VECTOR ( 'NONE', #730, 1000.000000000000000 ) ;
#470 = ORIENTED_EDGE ( 'NONE', *, *, #511, .T. ) ;
#471 = SURFACE_STYLE_FILL_AREA ( #659 ) ;
#472 = VERTEX_POINT ( 'NONE', #678 ) ;
#473 = CIRCLE ( 'NONE', #27, 0.7999999999999986011 ) ;
#474 = EDGE_CURVE ( 'NONE', #178, #517, #662, .T. ) ;
#475 = ORIENTED_EDGE ( 'NONE', *, *, #540, .T. ) ;
#476 = SURFACE_STYLE_USAGE ( .BOTH. , #88 ) ;
#477 = DIRECTION ( 'NONE',  ( 2.168404344971006896E-16, -1.000000000000000000, 0.000000000000000000 ) ) ;
#478 = DIRECTION ( 'NONE',  ( 0.000000000000000000, 1.000000000000000000, 5.421010862427526114E-16 ) ) ;
#479 = CARTESIAN_POINT ( 'NONE',  ( 52.00000000000000711, 0.000000000000000000, 2.000000000000000000 ) ) ;
#480 = CYLINDRICAL_SURFACE ( 'NONE', #594, 1.000000000000000888 ) ;
#481 = DIRECTION ( 'NONE',  ( 0.000000000000000000, 1.000000000000000000, -0.000000000000000000 ) ) ;
#482 = ADVANCED_FACE ( 'NONE', ( #622 ), #257, .T. ) ;
#483 = AXIS2_PLACEMENT_3D ( 'NONE', #698, #71, #76 ) ;
#484 = CARTESIAN_POINT ( 'NONE',  ( 52.00000000000000000, 13.99999999999999822, 2.000000000000000000 ) ) ;
#485 = ORIENTED_EDGE ( 'NONE', *, *, #562, .F. ) ;
#486 = ADVANCED_FACE ( 'NONE', ( #430 ), #94, .F. ) ;
#487 = PRODUCT_DEFINITION_SHAPE ( 'NONE', 'NONE',  #241 ) ;
#488 = VECTOR ( 'NONE', #666, 1000.000000000000000 ) ;
#489 = ORIENTED_EDGE ( 'NONE', *, *, #591, .F. ) ;
#490 = CARTESIAN_POINT ( 'NONE',  ( 52.00000000000000000, 12.99999999999999822, 1.000000000000000000 ) ) ;
#491 = CARTESIAN_POINT ( 'NONE',  ( 26.00000000000000355, 3.199999999999993072, 1.100000000000000089 ) ) ;
#492 = LINE ( 'NONE', #44, #720 ) ;
#493 = UNCERTAINTY_MEASURE_WITH_UNIT (LENGTH_MEASURE( 1.000000000000000082E-05 ), #717, 'distance_accuracy_value', 'NONE');
#494 = COLOUR_RGB ( '',0.7921568627450980005, 0.8196078431372548767, 0.9333333333333333481 ) ;
#495 = EDGE_CURVE ( 'NONE', #529, #655, #375, .T. ) ;
#496 = PRODUCT_CONTEXT ( 'NONE', #157, 'mechanical' ) ;
#497 = CARTESIAN_POINT ( 'NONE',  ( 51.00000000000000711, 1.000000000000000000, 1.000000000000000000 ) ) ;
#498 = VECTOR ( 'NONE', #456, 1000.000000000000114 ) ;
#499 = CARTESIAN_POINT ( 'NONE',  ( 0.000000000000000000, 0.000000000000000000, 0.000000000000000000 ) ) ;
#500 = ORIENTED_EDGE ( 'NONE', *, *, #306, .F. ) ;
#501 = DIRECTION ( 'NONE',  ( -0.000000000000000000, -0.000000000000000000, -1.000000000000000000 ) ) ;
#502 = AXIS2_PLACEMENT_3D ( 'NONE', #153, #392, #104 ) ;
#503 = ORIENTED_EDGE ( 'NONE', *, *, #125, .F. ) ;
#504 = FACE_OUTER_BOUND ( 'NONE', #268, .T. ) ;
#505 = DIRECTION ( 'NONE',  ( -0.000000000000000000, 4.336808689942017736E-16, -1.000000000000000000 ) ) ;
#506 = EDGE_CURVE ( 'NONE', #174, #324, #554, .T. ) ;
#507 = VECTOR ( 'NONE', #220, 1000.000000000000000 ) ;
#508 = VERTEX_POINT ( 'NONE', #405 ) ;
#509 = LINE ( 'NONE', #168, #585 ) ;
#510 = DIRECTION ( 'NONE',  ( 1.000000000000000000, 1.301042606982604138E-15, 0.000000000000000000 ) ) ;
#511 = EDGE_CURVE ( 'NONE', #22, #174, #312, .T. ) ;
#512 = LINE ( 'NONE', #342, #634 ) ;
#513 = ORIENTED_EDGE ( 'NONE', *, *, #701, .T. ) ;
#514 = PLANE ( 'NONE',  #114 ) ;
#515 = EDGE_LOOP ( 'NONE', ( #649, #129, #485, #406 ) ) ;
#516 = FACE_BOUND ( 'NONE', #132, .T. ) ;
#517 = VERTEX_POINT ( 'NONE', #639 ) ;
#518 = DIRECTION ( 'NONE',  ( -1.000000000000000000, 0.000000000000000000, 0.000000000000000000 ) ) ;
#519 = ORIENTED_EDGE ( 'NONE', *, *, #374, .T. ) ;
#520 = SPHERICAL_SURFACE ( 'NONE', #346, 1.000000000000000000 ) ;
#521 = MECHANICAL_DESIGN_GEOMETRIC_PRESENTATION_REPRESENTATION (  '', ( #423 ), #669 ) ;
#522 = ADVANCED_FACE ( 'NONE', ( #179 ), #514, .F. ) ;
#523 = VERTEX_POINT ( 'NONE', #224 ) ;
#524 = CARTESIAN_POINT ( 'NONE',  ( 52.00000000000000711, 1.000000000000000000, 1.000000000000000000 ) ) ;
#525 = EDGE_LOOP ( 'NONE', ( #192, #47, #571 ) ) ;
#526 = DIRECTION ( 'NONE',  ( -1.000000000000000000, 0.000000000000000000, 0.000000000000000000 ) ) ;
#527 = ORIENTED_EDGE ( 'NONE', *, *, #256, .T. ) ;
#528 = DIRECTION ( 'NONE',  ( -1.000000000000000000, 0.000000000000000000, 0.000000000000000000 ) ) ;
#529 = VERTEX_POINT ( 'NONE', #59 ) ;
#530 = AXIS2_PLACEMENT_3D ( 'NONE', #98, #505, #101 ) ;
#531 = DIRECTION ( 'NONE',  ( -1.000000000000000000, -0.000000000000000000, -0.000000000000000000 ) ) ;
#532 = VERTEX_POINT ( 'NONE', #128 ) ;
#533 = EDGE_CURVE ( 'NONE', #51, #532, #535, .T. ) ;
#534 = DIRECTION ( 'NONE',  ( -1.000000000000000000, 0.000000000000000000, 0.000000000000000000 ) ) ;
#535 = CIRCLE ( 'NONE', #381, 1.400000000000001910 ) ;
#536 = CARTESIAN_POINT ( 'NONE',  ( 1.000000000000000000, 12.99999999999999112, 1.000000000000000000 ) ) ;
#537 = DIRECTION ( 'NONE',  ( -0.000000000000000000, -0.000000000000000000, -1.000000000000000000 ) ) ;
#538 = AXIS2_PLACEMENT_3D ( 'NONE', #692, #286, #570 ) ;
#539 =( NAMED_UNIT ( * ) SI_UNIT ( $, .STERADIAN. ) SOLID_ANGLE_UNIT ( ) );
#540 = EDGE_CURVE ( 'NONE', #523, #22, #686, .T. ) ;
#541 = FACE_OUTER_BOUND ( 'NONE', #162, .T. ) ;
#542 = CARTESIAN_POINT ( 'NONE',  ( 0.000000000000000000, 1.000000000000000888, 2.000000000000000000 ) ) ;
#543 = AXIS2_PLACEMENT_3D ( 'NONE', #259, #169, #617 ) ;
#544 = CARTESIAN_POINT ( 'NONE',  ( 51.00000000000000000, 12.99999999999999822, 1.000000000000000000 ) ) ;
#545 = DIRECTION ( 'NONE',  ( -0.000000000000000000, 4.336808689942017736E-16, -1.000000000000000000 ) ) ;
#546 = ORIENTED_EDGE ( 'NONE', *, *, #323, .T. ) ;
#547 = EDGE_CURVE ( 'NONE', #680, #285, #509, .T. ) ;
#548 = CARTESIAN_POINT ( 'NONE',  ( 26.00000000000000711, 9.999999999999992895, 1.100000000000000089 ) ) ;
#549 = AXIS2_PLACEMENT_3D ( 'NONE', #467, #9, #401 ) ;
#550 = CARTESIAN_POINT ( 'NONE',  ( 27.40000000000000924, 9.999999999999992895, 0.000000000000000000 ) ) ;
#551 = FACE_OUTER_BOUND ( 'NONE', #180, .T. ) ;
#552 = LINE ( 'NONE', #679, #21 ) ;
#553 = EDGE_CURVE ( 'NONE', #402, #680, #473, .T. ) ;
#554 = LINE ( 'NONE', #728, #507 ) ;
#555 = CARTESIAN_POINT ( 'NONE',  ( 52.00000000000000000, 12.99999999999999822, 2.000000000000000000 ) ) ;
#556 = CYLINDRICAL_SURFACE ( 'NONE', #53, 1.000000000000000888 ) ;
#557 = ORIENTED_EDGE ( 'NONE', *, *, #317, .F. ) ;
#558 = DIRECTION ( 'NONE',  ( -0.000000000000000000, 0.000000000000000000, -1.000000000000000000 ) ) ;
#559 = DIRECTION ( 'NONE',  ( 1.301042606982603940E-15, -1.000000000000000000, 0.000000000000000000 ) ) ;
#560 = CLOSED_SHELL ( 'NONE', ( #711, #486, #371, #189, #439, #522, #294, #19, #107, #464, #143, #199, #675, #482, #235, #271, #427, #87, #633, #81, #181, #618, #380, #31, #250, #613 ) ) ;
#561 = AXIS2_PLACEMENT_3D ( 'NONE', #56, #108, #276 ) ;
#562 = EDGE_CURVE ( 'NONE', #517, #655, #628, .T. ) ;
#563 = VERTEX_POINT ( 'NONE', #344 ) ;
#564 = DIRECTION ( 'NONE',  ( 4.956352788505165240E-16, -1.000000000000000000, -0.000000000000000000 ) ) ;
#565 = SPHERICAL_SURFACE ( 'NONE', #50, 1.000000000000000000 ) ;
#566 = CARTESIAN_POINT ( 'NONE',  ( 51.00000000000000000, 13.99999999999999822, 1.000000000000000000 ) ) ;
#567 = DIRECTION ( 'NONE',  ( -1.000000000000000000, 0.000000000000000000, 0.000000000000000000 ) ) ;
#568 = PRODUCT_RELATED_PRODUCT_CATEGORY ( 'part', '', ( #719 ) ) ;
#569 = CIRCLE ( 'NONE', #396, 1.000000000000000000 ) ;
#570 = DIRECTION ( 'NONE',  ( -1.000000000000000000, 0.000000000000000000, 0.000000000000000000 ) ) ;
#571 = ORIENTED_EDGE ( 'NONE', *, *, #647, .F. ) ;
#572 = CARTESIAN_POINT ( 'NONE',  ( 51.00000000000000000, 12.99999999999999822, 0.000000000000000000 ) ) ;
#573 = ORIENTED_EDGE ( 'NONE', *, *, #347, .F. ) ;
#574 = DIRECTION ( 'NONE',  ( -1.000000000000000000, -8.673617379884035472E-16, -0.000000000000000000 ) ) ;
#575 = ORIENTED_EDGE ( 'NONE', *, *, #474, .T. ) ;
#576 = CARTESIAN_POINT ( 'NONE',  ( 0.000000000000000000, 1.000000000000000888, 2.000000000000000000 ) ) ;
#577 = ORIENTED_EDGE ( 'NONE', *, *, #403, .T. ) ;
#578 = EDGE_CURVE ( 'NONE', #680, #402, #702, .T. ) ;
#579 = LINE ( 'NONE', #643, #700 ) ;
#580 = ORIENTED_EDGE ( 'NONE', *, *, #314, .F. ) ;
#581 = CARTESIAN_POINT ( 'NONE',  ( 26.00000000000000355, 3.999999999999993339, 1.100000000000000533 ) ) ;
#582 = ORIENTED_EDGE ( 'NONE', *, *, #57, .F. ) ;
#583 = VECTOR ( 'NONE', #1, 1000.000000000000000 ) ;
#584 = FACE_OUTER_BOUND ( 'NONE', #328, .T. ) ;
#585 = VECTOR ( 'NONE', #173, 1000.000000000000000 ) ;
#586 = CARTESIAN_POINT ( 'NONE',  ( 1.000000000000000888, 0.000000000000000000, 2.000000000000000000 ) ) ;
#587 = VERTEX_POINT ( 'NONE', #572 ) ;
#588 = CARTESIAN_POINT ( 'NONE',  ( 51.00000000000000000, 13.99999999999999822, 2.000000000000000000 ) ) ;
#589 = CYLINDRICAL_SURFACE ( 'NONE', #175, 1.000000000000000000 ) ;
#590 = ORIENTED_EDGE ( 'NONE', *, *, #409, .F. ) ;
#591 = EDGE_CURVE ( 'NONE', #529, #141, #334, .T. ) ;
#592 = ORIENTED_EDGE ( 'NONE', *, *, #450, .T. ) ;
#593 = DIRECTION ( 'NONE',  ( -0.000000000000000000, 4.336808689942017736E-16, -1.000000000000000000 ) ) ;
#594 = AXIS2_PLACEMENT_3D ( 'NONE', #424, #709, #601 ) ;
#595 = EDGE_CURVE ( 'NONE', #174, #563, #631, .T. ) ;
#596 = EDGE_LOOP ( 'NONE', ( #590, #341 ) ) ;
#597 = AXIS2_PLACEMENT_3D ( 'NONE', #363, #604, #598 ) ;
#598 = DIRECTION ( 'NONE',  ( 0.000000000000000000, 1.000000000000000000, 5.421010862427526114E-16 ) ) ;
#599 = VECTOR ( 'NONE', #205, 1000.000000000000000 ) ;
#600 = EDGE_CURVE ( 'NONE', #283, #447, #373, .T. ) ;
#601 = DIRECTION ( 'NONE',  ( -1.000000000000000000, 0.000000000000000000, 0.000000000000000000 ) ) ;
#602 = DIRECTION ( 'NONE',  ( -1.000000000000000000, 0.000000000000000000, 0.000000000000000000 ) ) ;
#603 = AXIS2_PLACEMENT_3D ( 'NONE', #548, #39, #253 ) ;
#604 = DIRECTION ( 'NONE',  ( -0.000000000000000000, 4.336808689942017736E-16, -1.000000000000000000 ) ) ;
#605 = VECTOR ( 'NONE', #411, 1000.000000000000000 ) ;
#606 = DIRECTION ( 'NONE',  ( -0.000000000000000000, 0.000000000000000000, 1.000000000000000000 ) ) ;
#607 = DIRECTION ( 'NONE',  ( 4.956352788505165240E-16, -1.000000000000000000, 0.000000000000000000 ) ) ;
#608 = EDGE_CURVE ( 'NONE', #472, #178, #413, .T. ) ;
#609 = CARTESIAN_POINT ( 'NONE',  ( -1.334402673828314572E-16, 13.99999999999999112, 1.000000000000000000 ) ) ;
#610 = LINE ( 'NONE', #438, #599 ) ;
#611 = ORIENTED_EDGE ( 'NONE', *, *, #135, .T. ) ;
#612 = CARTESIAN_POINT ( 'NONE',  ( 26.00000000000000355, 3.999999999999994227, 6.071532165918827789E-16 ) ) ;
#613 = ADVANCED_FACE ( 'NONE', ( #62 ), #726, .F. ) ;
#614 = DIRECTION ( 'NONE',  ( 1.000000000000000000, 0.000000000000000000, 0.000000000000000000 ) ) ;
#615 = EDGE_LOOP ( 'NONE', ( #343, #119, #500 ) ) ;
#616 = DIRECTION ( 'NONE',  ( 0.000000000000000000, 1.000000000000000000, 4.336808689942016750E-16 ) ) ;
#617 = DIRECTION ( 'NONE',  ( -0.000000000000000000, 0.000000000000000000, -1.000000000000000000 ) ) ;
#618 = ADVANCED_FACE ( 'NONE', ( #13 ), #457, .T. ) ;
#619 = CONICAL_SURFACE ( 'NONE', #165, 1.400000000000001910, 0.4993467216801298902 ) ;
#620 = DIRECTION ( 'NONE',  ( 0.000000000000000000, 0.000000000000000000, 1.000000000000000000 ) ) ;
#621 = EDGE_LOOP ( 'NONE', ( #63, #519, #221, #219 ) ) ;
#622 = FACE_OUTER_BOUND ( 'NONE', #293, .T. ) ;
#623 = CARTESIAN_POINT ( 'NONE',  ( 26.80000000000000426, 9.999999999999992895, 1.100000000000000089 ) ) ;
#624 =( GEOMETRIC_REPRESENTATION_CONTEXT ( 3 ) GLOBAL_UNCERTAINTY_ASSIGNED_CONTEXT ( ( #493 ) ) GLOBAL_UNIT_ASSIGNED_CONTEXT ( ( #717, #303, #539 ) ) REPRESENTATION_CONTEXT ( 'NONE', 'WORKASPACE' ) );
#625 = CARTESIAN_POINT ( 'NONE',  ( 51.00000000000000711, 0.000000000000000000, 1.000000000000000000 ) ) ;
#626 = DIRECTION ( 'NONE',  ( -1.000000000000000000, 0.000000000000000000, 0.000000000000000000 ) ) ;
#627 = ORIENTED_EDGE ( 'NONE', *, *, #336, .T. ) ;
#628 = CIRCLE ( 'NONE', #549, 1.000000000000000000 ) ;
#629 = LINE ( 'NONE', #446, #583 ) ;
#630 = ORIENTED_EDGE ( 'NONE', *, *, #506, .F. ) ;
#631 = LINE ( 'NONE', #586, #275 ) ;
#632 = ORIENTED_EDGE ( 'NONE', *, *, #403, .F. ) ;
#633 = ADVANCED_FACE ( 'NONE', ( #183 ), #589, .T. ) ;
#634 = VECTOR ( 'NONE', #109, 1000.000000000000000 ) ;
#635 = CARTESIAN_POINT ( 'NONE',  ( 52.00000000000000711, 1.000000000000001332, 1.000000000000000000 ) ) ;
#636 = DIRECTION ( 'NONE',  ( 0.000000000000000000, 1.000000000000000000, 5.421010862427519212E-16 ) ) ;
#637 = ORIENTED_EDGE ( 'NONE', *, *, #642, .F. ) ;
#638 = DIRECTION ( 'NONE',  ( 0.000000000000000000, 1.000000000000000000, 0.000000000000000000 ) ) ;
#639 = CARTESIAN_POINT ( 'NONE',  ( 0.000000000000000000, 12.99999999999999112, 1.000000000000000000 ) ) ;
#640 = EDGE_LOOP ( 'NONE', ( #187, #422 ) ) ;
#641 = CIRCLE ( 'NONE', #603, 0.7999999999999986011 ) ;
#642 = EDGE_CURVE ( 'NONE', #172, #77, #569, .T. ) ;
#643 = CARTESIAN_POINT ( 'NONE',  ( 26.00000000000000355, 4.799999999999992717, 1.100000000000000977 ) ) ;
#644 = VECTOR ( 'NONE', #97, 1000.000000000000000 ) ;
#645 = CARTESIAN_POINT ( 'NONE',  ( 1.000000000000000000, 12.99999999999999112, 2.000000000000000000 ) ) ;
#646 = EDGE_LOOP ( 'NONE', ( #103, #350, #65, #310 ) ) ;
#647 = EDGE_CURVE ( 'NONE', #587, #141, #203, .T. ) ;
#648 =( NAMED_UNIT ( * ) SI_UNIT ( $, .STERADIAN. ) SOLID_ANGLE_UNIT ( ) );
#649 = ORIENTED_EDGE ( 'NONE', *, *, #608, .F. ) ;
#650 = DIRECTION ( 'NONE',  ( -1.000000000000000000, 0.000000000000000000, -0.000000000000000000 ) ) ;
#651 = CARTESIAN_POINT ( 'NONE',  ( 26.00000000000000355, 3.199999999999993516, 2.000000000000000000 ) ) ;
#652 = DIRECTION ( 'NONE',  ( -4.956352788505164254E-16, 1.000000000000000000, -0.000000000000000000 ) ) ;
#653 = EDGE_CURVE ( 'NONE', #529, #587, #82, .T. ) ;
#654 =( LENGTH_UNIT ( ) NAMED_UNIT ( * ) SI_UNIT ( .MILLI., .METRE. ) );
#655 = VERTEX_POINT ( 'NONE', #37 ) ;
#656 = CYLINDRICAL_SURFACE ( 'NONE', #89, 1.000000000000000000 ) ;
#657 = VECTOR ( 'NONE', #564, 1000.000000000000000 ) ;
#658 = MANIFOLD_SOLID_BREP ( '\X2\52079664\X0\-\X2\65cb8f6c\X0\5', #560 ) ;
#659 = FILL_AREA_STYLE ('',( #415 ) ) ;
#660 = DIRECTION ( 'NONE',  ( 0.000000000000000000, 0.000000000000000000, 1.000000000000000000 ) ) ;
#661 = EDGE_CURVE ( 'NONE', #172, #731, #243, .T. ) ;
#662 = LINE ( 'NONE', #163, #196 ) ;
#663 = AXIS2_PLACEMENT_3D ( 'NONE', #213, #558, #204 ) ;
#664 = CYLINDRICAL_SURFACE ( 'NONE', #671, 0.7999999999999994893 ) ;
#665 = CARTESIAN_POINT ( 'NONE',  ( 26.00000000000000355, 3.999999999999994227, 0.000000000000000000 ) ) ;
#666 = DIRECTION ( 'NONE',  ( 0.000000000000000000, -1.000000000000000000, 0.000000000000000000 ) ) ;
#667 = DIRECTION ( 'NONE',  ( 1.000000000000000000, 0.000000000000000000, 0.000000000000000000 ) ) ;
#668 = LINE ( 'NONE', #95, #657 ) ;
#669 =( GEOMETRIC_REPRESENTATION_CONTEXT ( 3 ) GLOBAL_UNCERTAINTY_ASSIGNED_CONTEXT ( ( #260 ) ) GLOBAL_UNIT_ASSIGNED_CONTEXT ( ( #654, #366, #648 ) ) REPRESENTATION_CONTEXT ( 'NONE', 'WORKASPACE' ) );
#670 = DIRECTION ( 'NONE',  ( 0.000000000000000000, 1.000000000000000000, 0.000000000000000000 ) ) ;
#671 = AXIS2_PLACEMENT_3D ( 'NONE', #102, #369, #151 ) ;
#672 = ORIENTED_EDGE ( 'NONE', *, *, #361, .T. ) ;
#673 = FACE_OUTER_BOUND ( 'NONE', #689, .T. ) ;
#674 = AXIS2_PLACEMENT_3D ( 'NONE', #17, #359, #146 ) ;
#675 = ADVANCED_FACE ( 'NONE', ( #541 ), #480, .T. ) ;
#676 = ADVANCED_BREP_SHAPE_REPRESENTATION ( 'fingercap_2', ( #658, #170 ), #624 ) ;
#677 = ORIENTED_EDGE ( 'NONE', *, *, #202, .F. ) ;
#678 = CARTESIAN_POINT ( 'NONE',  ( 1.000000000000014655, 13.99999999999999112, 2.000000000000000000 ) ) ;
#679 = CARTESIAN_POINT ( 'NONE',  ( 52.00000000000000000, 13.99999999999999822, 2.000000000000000000 ) ) ;
#680 = VERTEX_POINT ( 'NONE', #133 ) ;
#681 = CARTESIAN_POINT ( 'NONE',  ( 51.00000000000000000, 12.99999999999999822, 1.000000000000000000 ) ) ;
#682 = CARTESIAN_POINT ( 'NONE',  ( 26.00000000000000711, 9.999999999999992895, 1.100000000000000089 ) ) ;
#683 = DIRECTION ( 'NONE',  ( -1.000000000000000000, 0.000000000000000000, 0.000000000000000000 ) ) ;
#684 = EDGE_CURVE ( 'NONE', #121, #141, #251, .T. ) ;
#685 = ORIENTED_EDGE ( 'NONE', *, *, #721, .F. ) ;
#686 = LINE ( 'NONE', #576, #605 ) ;
#687 = ORIENTED_EDGE ( 'NONE', *, *, #202, .T. ) ;
#688 = FACE_OUTER_BOUND ( 'NONE', #425, .T. ) ;
#689 = EDGE_LOOP ( 'NONE', ( #252, #264, #637 ) ) ;
#690 = DIRECTION ( 'NONE',  ( -1.000000000000000000, -0.000000000000000000, -0.000000000000000000 ) ) ;
#691 = ORIENTED_EDGE ( 'NONE', *, *, #511, .F. ) ;
#692 = CARTESIAN_POINT ( 'NONE',  ( 1.000000000000000888, 1.000000000000000000, 1.000000000000000000 ) ) ;
#693 = AXIS2_PLACEMENT_3D ( 'NONE', #612, #49, #733 ) ;
#694 = DIRECTION ( 'NONE',  ( -1.000000000000000000, -1.734723475976807094E-15, 0.000000000000000000 ) ) ;
#695 = ORIENTED_EDGE ( 'NONE', *, *, #533, .T. ) ;
#696 = EDGE_CURVE ( 'NONE', #523, #731, #452, .T. ) ;
#697 = CARTESIAN_POINT ( 'NONE',  ( 51.00000000000000711, 1.000000000000000000, 0.000000000000000000 ) ) ;
#698 = CARTESIAN_POINT ( 'NONE',  ( 1.000000000000000888, 1.000000000000000000, 2.000000000000000000 ) ) ;
#699 = ORIENTED_EDGE ( 'NONE', *, *, #25, .F. ) ;
#700 = VECTOR ( 'NONE', #171, 1000.000000000000227 ) ;
#701 = EDGE_CURVE ( 'NONE', #195, #458, #32, .T. ) ;
#702 = CIRCLE ( 'NONE', #159, 0.7999999999999986011 ) ;
#703 = ORIENTED_EDGE ( 'NONE', *, *, #45, .T. ) ;
#704 = DIRECTION ( 'NONE',  ( -0.000000000000000000, -1.000000000000000000, -0.000000000000000000 ) ) ;
#705 = ORIENTED_EDGE ( 'NONE', *, *, #374, .F. ) ;
#706 = CARTESIAN_POINT ( 'NONE',  ( 26.00000000000000355, 3.999999999999993339, 2.000000000000000444 ) ) ;
#707 = EDGE_LOOP ( 'NONE', ( #274, #513 ) ) ;
#708 = DIRECTION ( 'NONE',  ( 0.000000000000000000, 0.000000000000000000, 1.000000000000000000 ) ) ;
#709 = DIRECTION ( 'NONE',  ( 0.000000000000000000, 0.000000000000000000, -1.000000000000000000 ) ) ;
#710 = CARTESIAN_POINT ( 'NONE',  ( 26.00000000000000711, 9.999999999999992895, 0.000000000000000000 ) ) ;
#711 = ADVANCED_FACE ( 'NONE', ( #357 ), #267, .F. ) ;
#712 = DIRECTION ( 'NONE',  ( 0.000000000000000000, 0.000000000000000000, -1.000000000000000000 ) ) ;
#713 = ORIENTED_EDGE ( 'NONE', *, *, #57, .T. ) ;
#714 = AXIS2_PLACEMENT_3D ( 'NONE', #118, #448, #636 ) ;
#715 = DIRECTION ( 'NONE',  ( 1.000000000000000000, 1.334402673828313586E-16, 0.000000000000000000 ) ) ;
#716 = DIRECTION ( 'NONE',  ( 0.000000000000000000, 0.000000000000000000, -1.000000000000000000 ) ) ;
#717 =( LENGTH_UNIT ( ) NAMED_UNIT ( * ) SI_UNIT ( .MILLI., .METRE. ) );
#718 = DIRECTION ( 'NONE',  ( -1.000000000000000000, 0.000000000000000000, 0.000000000000000000 ) ) ;
#719 = PRODUCT ( 'fingercap_2', 'fingercap_2', '', ( #496 ) ) ;
#720 = VECTOR ( 'NONE', #325, 1000.000000000000000 ) ;
#721 = EDGE_CURVE ( 'NONE', #285, #51, #417, .T. ) ;
#722 = ORIENTED_EDGE ( 'NONE', *, *, #6, .T. ) ;
#723 = AXIS2_PLACEMENT_3D ( 'NONE', #706, #545, #193 ) ;
#724 = APPLICATION_PROTOCOL_DEFINITION ( 'draft international standard', 'automotive_design', 1998, #4 ) ;
#725 = FACE_OUTER_BOUND ( 'NONE', #244, .T. ) ;
#726 = CONICAL_SURFACE ( 'NONE', #290, 0.7999999999999994893, 0.4993467216801309450 ) ;
#727 = CIRCLE ( 'NONE', #398, 1.000000000000000000 ) ;
#728 = CARTESIAN_POINT ( 'NONE',  ( 52.00000000000000711, 0.000000000000000000, 2.000000000000000000 ) ) ;
#729 = DIRECTION ( 'NONE',  ( -0.000000000000000000, -0.000000000000000000, -1.000000000000000000 ) ) ;
#730 = DIRECTION ( 'NONE',  ( 1.000000000000000000, 1.334402673828313586E-16, -0.000000000000000000 ) ) ;
#731 = VERTEX_POINT ( 'NONE', #300 ) ;
#732 = DIRECTION ( 'NONE',  ( -0.000000000000000000, -0.000000000000000000, -1.000000000000000000 ) ) ;
#733 = DIRECTION ( 'NONE',  ( 0.000000000000000000, 1.000000000000000000, 4.336808689942016750E-16 ) ) ;
#734 = EDGE_CURVE ( 'NONE', #158, #397, #138, .T. ) ;
#735 = AXIS2_PLACEMENT_3D ( 'NONE', #393, #231, #526 ) ;
#736 = ORIENTED_EDGE ( 'NONE', *, *, #154, .T. ) ;
#737 = PLANE ( 'NONE',  #663 ) ;
#738 = LINE ( 'NONE', #160, #488 ) ;
#739 = VECTOR ( 'NONE', #732, 1000.000000000000000 ) ;
ENDSEC;
END-ISO-10303-21;
